<svg width="2560" height="620" viewBox="0 0 2560 620" fill="none" xmlns="http://www.w3.org/2000/svg">
<mask id="mask0" mask-type="alpha" maskUnits="userSpaceOnUse" x="-1" y="22" width="2561" height="600">
<rect x="-0.000976562" y="22.999" width="2560" height="599" fill="url(#paint0_linear)"/>
</mask>
<g mask="url(#mask0)">
<rect x="-0.000976562" y="133.999" width="2560" height="488" fill="url(#paint1_linear)"/>
</g>
<path opacity="0.32" d="M1437.7 367.026C1361.8 281.026 1269.7 371.426 1199.5 385.226C1137.5 397.426 1116.5 372.226 1097.6 336.726C1070.2 285.226 1150.8 274.426 1110.4 199.326C1089.3 160.126 1016.4 219.926 980.5 209.926C943.3 199.626 938.8 127.526 905.8 143.226C859.7 165.226 893.5 209.326 851.3 237.826C775.2 289.126 710.3 196.126 657.4 234.726C605 272.826 688.701 400.026 602.701 434.826C516.701 469.626 480.4 199.326 344.8 223.126C256.7 238.726 250.4 306.626 230 358.926C251.7 394.126 277.6 424.426 305.6 436.526C382.2 469.726 442.8 420.026 509.701 446.626C572.5 471.626 720.6 692.226 917.1 721.126C1113.6 750.026 1251.8 631.526 1285.8 616.326C1351.4 586.826 1419.6 579.226 1484.6 583.326C1396.6 523.626 1486.7 422.626 1437.7 367.026Z" fill="url(#paint2_linear)"/>
<path opacity="0.2" d="M683.305 230.168C570.44 81.894 44.6342 179.016 -25.0007 230.168L-25.0017 777.499L2586 768.377C2650.9 467.995 2721.26 311.811 2720.48 268.923C2719.51 215.313 2574.26 226.64 2361.49 249.488C2148.72 272.337 2102.73 411.374 1926.91 547.803C1745.89 688.263 1378.5 268.923 1084 487.999C626.776 805.273 796.17 378.442 683.305 230.168Z" fill="url(#paint3_linear)"/>
<g mask="url(#mask1)">
<path opacity="0.1" d="M1235.2 441.999C1188.9 419.599 1161.6 445.799 1130.7 435.199C1108.5 427.599 1134.4 372.099 1106.4 355.899C1074.9 337.799 1040.9 375.299 1013.5 346.699C980.9 312.799 1000.8 247.299 1017.2 228.399C1022.5 222.299 1040.3 230.299 1045.2 224.299C1050.1 218.199 1039.2 207.799 1044.1 196.699C1049 185.599 1096.9 142.399 1102.4 91.099C1105.4 63.399 1084.8 -0.100975 1065.2 -52.601C998.6 -63.101 950 -69.801 928.4 -69.601C915.6 -69.501 897.1 -70.101 875.3 -71.001C913.4 -15.501 959.6 64.399 952 116.199C947.9 144.199 843.4 206.599 845.2 254.099C846.4 286.799 878.4 291.499 884.7 312.699C898.2 357.899 758.6 456.299 1053.3 578.899C1073.2 587.199 1089.1 598.999 1101.7 612.799C1167.5 635.799 1232.3 659.999 1295.7 683.499C1256.9 560.999 1265.8 456.799 1235.2 441.999Z" fill="#351656"/>
<path opacity="0.1" d="M1818.3 818.299C1948.2 818.299 2076.4 801.199 2193.7 773.199C2193.1 634.199 2181.5 312.599 2089.3 232.599C1976.3 134.499 1666.9 260.499 1569.7 164.899C1518.8 114.899 1505.6 61.499 1506.6 17.899C1396.2 1.79902 1289.1 -15.801 1197.1 -31.001C1232.3 37.099 1233.3 168.799 1239.9 204.099C1256.5 291.799 1396.5 402.099 1530.7 387.999C1658 374.699 1722 394.899 1762.8 460.399C1802.7 524.499 1783 742.599 1752 814.699C1774.7 816.999 1796.7 818.299 1818.3 818.299Z" fill="#351656"/>
<g opacity="0.3">
<path d="M785 484.399C785.552 484.399 786 483.952 786 483.399C786 482.847 785.552 482.399 785 482.399C784.448 482.399 784 482.847 784 483.399C784 483.952 784.448 484.399 785 484.399Z" fill="#FF73A7"/>
<path d="M759.6 496.899C760.649 496.899 761.5 496.048 761.5 494.999C761.5 493.949 760.649 493.099 759.6 493.099C758.551 493.099 757.7 493.949 757.7 494.999C757.7 496.048 758.551 496.899 759.6 496.899Z" fill="#FFA600"/>
<path d="M700.3 453.599C701.184 453.599 701.9 452.883 701.9 451.999C701.9 451.116 701.184 450.399 700.3 450.399C699.416 450.399 698.7 451.116 698.7 451.999C698.7 452.883 699.416 453.599 700.3 453.599Z" fill="#FF73A7"/>
<path d="M851.2 555.999C852.636 555.999 853.8 554.835 853.8 553.399C853.8 551.963 852.636 550.799 851.2 550.799C849.764 550.799 848.6 551.963 848.6 553.399C848.6 554.835 849.764 555.999 851.2 555.999Z" fill="#FFA600"/>
<path d="M827.7 580.399C828.749 580.399 829.6 579.548 829.6 578.499C829.6 577.449 828.749 576.599 827.7 576.599C826.65 576.599 825.8 577.449 825.8 578.499C825.8 579.548 826.65 580.399 827.7 580.399Z" fill="#B8E4FA"/>
<path d="M802.5 498.899C804.322 498.899 805.8 497.421 805.8 495.599C805.8 493.776 804.322 492.299 802.5 492.299C800.677 492.299 799.2 493.776 799.2 495.599C799.2 497.421 800.677 498.899 802.5 498.899Z" fill="#FF73A7"/>
<path d="M939.3 522.398C940.128 522.398 940.8 521.727 940.8 520.898C940.8 520.07 940.128 519.398 939.3 519.398C938.471 519.398 937.8 520.07 937.8 520.898C937.8 521.727 938.471 522.398 939.3 522.398Z" fill="#B8E4FA"/>
<path d="M825 516.498C826.049 516.498 826.9 515.648 826.9 514.598C826.9 513.549 826.049 512.698 825 512.698C823.951 512.698 823.1 513.549 823.1 514.598C823.1 515.648 823.951 516.498 825 516.498Z" fill="#B8E4FA"/>
<path d="M844.3 460.399C845.349 460.399 846.2 459.548 846.2 458.499C846.2 457.449 845.349 456.599 844.3 456.599C843.251 456.599 842.4 457.449 842.4 458.499C842.4 459.548 843.251 460.399 844.3 460.399Z" fill="#FFA600"/>
<path d="M883.6 496.599C884.649 496.599 885.5 495.748 885.5 494.699C885.5 493.65 884.649 492.799 883.6 492.799C882.551 492.799 881.7 493.65 881.7 494.699C881.7 495.748 882.551 496.599 883.6 496.599Z" fill="#8118B4"/>
<path d="M773.7 356.199C775.136 356.199 776.3 355.035 776.3 353.599C776.3 352.163 775.136 350.999 773.7 350.999C772.264 350.999 771.1 352.163 771.1 353.599C771.1 355.035 772.264 356.199 773.7 356.199Z" fill="#FFA600"/>
<path d="M781 321.799C782.049 321.799 782.9 320.948 782.9 319.899C782.9 318.85 782.049 317.999 781 317.999C779.951 317.999 779.1 318.85 779.1 319.899C779.1 320.948 779.951 321.799 781 321.799Z" fill="#B8E4FA"/>
<path d="M736.2 397.099C738.022 397.099 739.5 395.622 739.5 393.799C739.5 391.976 738.022 390.499 736.2 390.499C734.377 390.499 732.9 391.976 732.9 393.799C732.9 395.622 734.377 397.099 736.2 397.099Z" fill="#FF73A7"/>
<path d="M845.2 381.399C847.022 381.399 848.5 379.921 848.5 378.099C848.5 376.276 847.022 374.799 845.2 374.799C843.377 374.799 841.9 376.276 841.9 378.099C841.9 379.921 843.377 381.399 845.2 381.399Z" fill="#FF73A7"/>
<path d="M816.2 375.299C817.249 375.299 818.1 374.448 818.1 373.399C818.1 372.35 817.249 371.499 816.2 371.499C815.15 371.499 814.3 372.35 814.3 373.399C814.3 374.448 815.15 375.299 816.2 375.299Z" fill="#B8E4FA"/>
<path d="M828.4 433.399C829.449 433.399 830.3 432.548 830.3 431.499C830.3 430.449 829.449 429.599 828.4 429.599C827.351 429.599 826.5 430.449 826.5 431.499C826.5 432.548 827.351 433.399 828.4 433.399Z" fill="#FFA600"/>
<path d="M776.1 422.499C777.149 422.499 778 421.649 778 420.599C778 419.55 777.149 418.699 776.1 418.699C775.051 418.699 774.2 419.55 774.2 420.599C774.2 421.649 775.051 422.499 776.1 422.499Z" fill="#8118B4"/>
<path d="M776.5 438.099C777.549 438.099 778.4 437.248 778.4 436.199C778.4 435.15 777.549 434.299 776.5 434.299C775.451 434.299 774.6 435.15 774.6 436.199C774.6 437.248 775.451 438.099 776.5 438.099Z" fill="#8118B4"/>
<path d="M983.2 553.899C984.746 553.899 986 552.645 986 551.099C986 549.552 984.746 548.299 983.2 548.299C981.653 548.299 980.4 549.552 980.4 551.099C980.4 552.645 981.653 553.899 983.2 553.899Z" fill="#8118B4"/>
<path d="M927 572.799C928.822 572.799 930.3 571.322 930.3 569.499C930.3 567.677 928.822 566.199 927 566.199C925.177 566.199 923.7 567.677 923.7 569.499C923.7 571.322 925.177 572.799 927 572.799Z" fill="#FF73A7"/>
<path d="M1005.7 591.299C1006.75 591.299 1007.6 590.448 1007.6 589.399C1007.6 588.35 1006.75 587.499 1005.7 587.499C1004.65 587.499 1003.8 588.35 1003.8 589.399C1003.8 590.448 1004.65 591.299 1005.7 591.299Z" fill="#8118B4"/>
<path d="M917.1 507.299C918.149 507.299 919 506.448 919 505.399C919 504.35 918.149 503.499 917.1 503.499C916.051 503.499 915.2 504.35 915.2 505.399C915.2 506.448 916.051 507.299 917.1 507.299Z" fill="#8118B4"/>
<path d="M283.299 561.399C283.851 561.399 284.299 560.952 284.299 560.399C284.299 559.847 283.851 559.399 283.299 559.399C282.747 559.399 282.299 559.847 282.299 560.399C282.299 560.952 282.747 561.399 283.299 561.399Z" fill="#FF73A7"/>
<path d="M257.899 573.899C258.948 573.899 259.799 573.048 259.799 571.999C259.799 570.949 258.948 570.099 257.899 570.099C256.85 570.099 255.999 570.949 255.999 571.999C255.999 573.048 256.85 573.899 257.899 573.899Z" fill="#FFA600"/>
<path d="M198.599 530.599C199.483 530.599 200.199 529.883 200.199 528.999C200.199 528.116 199.483 527.399 198.599 527.399C197.715 527.399 196.999 528.116 196.999 528.999C196.999 529.883 197.715 530.599 198.599 530.599Z" fill="#FF73A7"/>
<path d="M300.799 575.899C302.622 575.899 304.099 574.421 304.099 572.599C304.099 570.776 302.622 569.299 300.799 569.299C298.976 569.299 297.499 570.776 297.499 572.599C297.499 574.421 298.976 575.899 300.799 575.899Z" fill="#FF73A7"/>
<path d="M437.599 599.398C438.428 599.398 439.099 598.727 439.099 597.898C439.099 597.07 438.428 596.398 437.599 596.398C436.771 596.398 436.099 597.07 436.099 597.898C436.099 598.727 436.771 599.398 437.599 599.398Z" fill="#B8E4FA"/>
<path d="M323.299 593.498C324.348 593.498 325.199 592.648 325.199 591.598C325.199 590.549 324.348 589.698 323.299 589.698C322.25 589.698 321.399 590.549 321.399 591.598C321.399 592.648 322.25 593.498 323.299 593.498Z" fill="#B8E4FA"/>
<path d="M342.599 537.399C343.649 537.399 344.499 536.548 344.499 535.499C344.499 534.449 343.649 533.599 342.599 533.599C341.55 533.599 340.699 534.449 340.699 535.499C340.699 536.548 341.55 537.399 342.599 537.399Z" fill="#FFA600"/>
<path d="M381.899 573.599C382.948 573.599 383.799 572.748 383.799 571.699C383.799 570.65 382.948 569.799 381.899 569.799C380.85 569.799 379.999 570.65 379.999 571.699C379.999 572.748 380.85 573.599 381.899 573.599Z" fill="#8118B4"/>
<path d="M271.999 433.199C273.435 433.199 274.599 432.035 274.599 430.599C274.599 429.163 273.435 427.999 271.999 427.999C270.564 427.999 269.399 429.163 269.399 430.599C269.399 432.035 270.564 433.199 271.999 433.199Z" fill="#FFA600"/>
<path d="M279.299 398.799C280.349 398.799 281.199 397.948 281.199 396.899C281.199 395.85 280.349 394.999 279.299 394.999C278.25 394.999 277.399 395.85 277.399 396.899C277.399 397.948 278.25 398.799 279.299 398.799Z" fill="#B8E4FA"/>
<path d="M234.499 474.099C236.322 474.099 237.799 472.622 237.799 470.799C237.799 468.976 236.322 467.499 234.499 467.499C232.677 467.499 231.199 468.976 231.199 470.799C231.199 472.622 232.677 474.099 234.499 474.099Z" fill="#FF73A7"/>
<path d="M343.499 458.399C345.322 458.399 346.799 456.921 346.799 455.099C346.799 453.276 345.322 451.799 343.499 451.799C341.677 451.799 340.199 453.276 340.199 455.099C340.199 456.921 341.677 458.399 343.499 458.399Z" fill="#FF73A7"/>
<path d="M314.499 452.299C315.548 452.299 316.399 451.448 316.399 450.399C316.399 449.35 315.548 448.499 314.499 448.499C313.45 448.499 312.599 449.35 312.599 450.399C312.599 451.448 313.45 452.299 314.499 452.299Z" fill="#B8E4FA"/>
<path d="M326.699 510.399C327.749 510.399 328.599 509.548 328.599 508.499C328.599 507.449 327.749 506.599 326.699 506.599C325.65 506.599 324.799 507.449 324.799 508.499C324.799 509.548 325.65 510.399 326.699 510.399Z" fill="#FFA600"/>
<path d="M274.399 499.499C275.448 499.499 276.299 498.649 276.299 497.599C276.299 496.55 275.448 495.699 274.399 495.699C273.35 495.699 272.499 496.55 272.499 497.599C272.499 498.649 273.35 499.499 274.399 499.499Z" fill="#8118B4"/>
<path d="M274.799 515.099C275.848 515.099 276.699 514.248 276.699 513.199C276.699 512.15 275.848 511.299 274.799 511.299C273.75 511.299 272.899 512.15 272.899 513.199C272.899 514.248 273.75 515.099 274.799 515.099Z" fill="#8118B4"/>
<path d="M415.399 584.299C416.448 584.299 417.299 583.448 417.299 582.399C417.299 581.35 416.448 580.499 415.399 580.499C414.35 580.499 413.499 581.35 413.499 582.399C413.499 583.448 414.35 584.299 415.399 584.299Z" fill="#8118B4"/>
<path d="M2396.3 560.399C2396.85 560.399 2397.3 559.952 2397.3 559.399C2397.3 558.847 2396.85 558.399 2396.3 558.399C2395.75 558.399 2395.3 558.847 2395.3 559.399C2395.3 559.952 2395.75 560.399 2396.3 560.399Z" fill="#FF73A7"/>
<path d="M2370.9 572.899C2371.95 572.899 2372.8 572.048 2372.8 570.999C2372.8 569.949 2371.95 569.099 2370.9 569.099C2369.85 569.099 2369 569.949 2369 570.999C2369 572.048 2369.85 572.899 2370.9 572.899Z" fill="#FFA600"/>
<path d="M2311.6 529.599C2312.48 529.599 2313.2 528.883 2313.2 527.999C2313.2 527.116 2312.48 526.399 2311.6 526.399C2310.72 526.399 2310 527.116 2310 527.999C2310 528.883 2310.72 529.599 2311.6 529.599Z" fill="#FF73A7"/>
<path d="M2413.8 574.899C2415.62 574.899 2417.1 573.421 2417.1 571.599C2417.1 569.776 2415.62 568.299 2413.8 568.299C2411.98 568.299 2410.5 569.776 2410.5 571.599C2410.5 573.421 2411.98 574.899 2413.8 574.899Z" fill="#FF73A7"/>
<path d="M2550.6 598.398C2551.43 598.398 2552.1 597.727 2552.1 596.898C2552.1 596.07 2551.43 595.398 2550.6 595.398C2549.77 595.398 2549.1 596.07 2549.1 596.898C2549.1 597.727 2549.77 598.398 2550.6 598.398Z" fill="#B8E4FA"/>
<path d="M2436.3 592.498C2437.35 592.498 2438.2 591.648 2438.2 590.598C2438.2 589.549 2437.35 588.698 2436.3 588.698C2435.25 588.698 2434.4 589.549 2434.4 590.598C2434.4 591.648 2435.25 592.498 2436.3 592.498Z" fill="#B8E4FA"/>
<path d="M2455.6 536.399C2456.65 536.399 2457.5 535.548 2457.5 534.499C2457.5 533.449 2456.65 532.599 2455.6 532.599C2454.55 532.599 2453.7 533.449 2453.7 534.499C2453.7 535.548 2454.55 536.399 2455.6 536.399Z" fill="#FFA600"/>
<path d="M2494.9 572.599C2495.95 572.599 2496.8 571.748 2496.8 570.699C2496.8 569.65 2495.95 568.799 2494.9 568.799C2493.85 568.799 2493 569.65 2493 570.699C2493 571.748 2493.85 572.599 2494.9 572.599Z" fill="#8118B4"/>
<path d="M2385 432.199C2386.44 432.199 2387.6 431.035 2387.6 429.599C2387.6 428.163 2386.44 426.999 2385 426.999C2383.56 426.999 2382.4 428.163 2382.4 429.599C2382.4 431.035 2383.56 432.199 2385 432.199Z" fill="#FFA600"/>
<path d="M2392.3 397.799C2393.35 397.799 2394.2 396.948 2394.2 395.899C2394.2 394.85 2393.35 393.999 2392.3 393.999C2391.25 393.999 2390.4 394.85 2390.4 395.899C2390.4 396.948 2391.25 397.799 2392.3 397.799Z" fill="#B8E4FA"/>
<path d="M2347.5 473.099C2349.32 473.099 2350.8 471.622 2350.8 469.799C2350.8 467.976 2349.32 466.499 2347.5 466.499C2345.68 466.499 2344.2 467.976 2344.2 469.799C2344.2 471.622 2345.68 473.099 2347.5 473.099Z" fill="#FF73A7"/>
<path d="M2456.5 457.399C2458.32 457.399 2459.8 455.921 2459.8 454.099C2459.8 452.276 2458.32 450.799 2456.5 450.799C2454.68 450.799 2453.2 452.276 2453.2 454.099C2453.2 455.921 2454.68 457.399 2456.5 457.399Z" fill="#FF73A7"/>
<path d="M2427.5 451.299C2428.55 451.299 2429.4 450.448 2429.4 449.399C2429.4 448.35 2428.55 447.499 2427.5 447.499C2426.45 447.499 2425.6 448.35 2425.6 449.399C2425.6 450.448 2426.45 451.299 2427.5 451.299Z" fill="#B8E4FA"/>
<path d="M2439.7 509.399C2440.75 509.399 2441.6 508.548 2441.6 507.499C2441.6 506.449 2440.75 505.599 2439.7 505.599C2438.65 505.599 2437.8 506.449 2437.8 507.499C2437.8 508.548 2438.65 509.399 2439.7 509.399Z" fill="#FFA600"/>
<path d="M2387.4 498.499C2388.45 498.499 2389.3 497.649 2389.3 496.599C2389.3 495.55 2388.45 494.699 2387.4 494.699C2386.35 494.699 2385.5 495.55 2385.5 496.599C2385.5 497.649 2386.35 498.499 2387.4 498.499Z" fill="#8118B4"/>
<path d="M2387.8 514.099C2388.85 514.099 2389.7 513.248 2389.7 512.199C2389.7 511.15 2388.85 510.299 2387.8 510.299C2386.75 510.299 2385.9 511.15 2385.9 512.199C2385.9 513.248 2386.75 514.099 2387.8 514.099Z" fill="#8118B4"/>
<path d="M2528.4 583.299C2529.45 583.299 2530.3 582.448 2530.3 581.399C2530.3 580.35 2529.45 579.499 2528.4 579.499C2527.35 579.499 2526.5 580.35 2526.5 581.399C2526.5 582.448 2527.35 583.299 2528.4 583.299Z" fill="#8118B4"/>
<path d="M1928.3 477.399C1928.85 477.399 1929.3 476.952 1929.3 476.399C1929.3 475.847 1928.85 475.399 1928.3 475.399C1927.75 475.399 1927.3 475.847 1927.3 476.399C1927.3 476.952 1927.75 477.399 1928.3 477.399Z" fill="#FF73A7"/>
<path d="M1902.9 489.899C1903.95 489.899 1904.8 489.048 1904.8 487.999C1904.8 486.949 1903.95 486.099 1902.9 486.099C1901.85 486.099 1901 486.949 1901 487.999C1901 489.048 1901.85 489.899 1902.9 489.899Z" fill="#FFA600"/>
<path d="M1843.6 446.599C1844.48 446.599 1845.2 445.883 1845.2 444.999C1845.2 444.116 1844.48 443.399 1843.6 443.399C1842.72 443.399 1842 444.116 1842 444.999C1842 445.883 1842.72 446.599 1843.6 446.599Z" fill="#FF73A7"/>
<path d="M1994.5 548.999C1995.93 548.999 1997.1 547.835 1997.1 546.399C1997.1 544.963 1995.93 543.799 1994.5 543.799C1993.06 543.799 1991.9 544.963 1991.9 546.399C1991.9 547.835 1993.06 548.999 1994.5 548.999Z" fill="#FFA600"/>
<path d="M1971 573.399C1972.05 573.399 1972.9 572.548 1972.9 571.499C1972.9 570.449 1972.05 569.599 1971 569.599C1969.95 569.599 1969.1 570.449 1969.1 571.499C1969.1 572.548 1969.95 573.399 1971 573.399Z" fill="#B8E4FA"/>
<path d="M1945.8 491.899C1947.62 491.899 1949.1 490.421 1949.1 488.599C1949.1 486.776 1947.62 485.299 1945.8 485.299C1943.98 485.299 1942.5 486.776 1942.5 488.599C1942.5 490.421 1943.98 491.899 1945.8 491.899Z" fill="#FF73A7"/>
<path d="M2082.6 515.398C2083.43 515.398 2084.1 514.727 2084.1 513.898C2084.1 513.07 2083.43 512.398 2082.6 512.398C2081.77 512.398 2081.1 513.07 2081.1 513.898C2081.1 514.727 2081.77 515.398 2082.6 515.398Z" fill="#B8E4FA"/>
<path d="M1968.3 509.498C1969.35 509.498 1970.2 508.648 1970.2 507.598C1970.2 506.549 1969.35 505.698 1968.3 505.698C1967.25 505.698 1966.4 506.549 1966.4 507.598C1966.4 508.648 1967.25 509.498 1968.3 509.498Z" fill="#B8E4FA"/>
<path d="M1987.6 453.399C1988.65 453.399 1989.5 452.548 1989.5 451.499C1989.5 450.449 1988.65 449.599 1987.6 449.599C1986.55 449.599 1985.7 450.449 1985.7 451.499C1985.7 452.548 1986.55 453.399 1987.6 453.399Z" fill="#FFA600"/>
<path d="M2026.9 489.599C2027.95 489.599 2028.8 488.748 2028.8 487.699C2028.8 486.65 2027.95 485.799 2026.9 485.799C2025.85 485.799 2025 486.65 2025 487.699C2025 488.748 2025.85 489.599 2026.9 489.599Z" fill="#8118B4"/>
<path d="M1917 349.199C1918.43 349.199 1919.6 348.035 1919.6 346.599C1919.6 345.163 1918.43 343.999 1917 343.999C1915.56 343.999 1914.4 345.163 1914.4 346.599C1914.4 348.035 1915.56 349.199 1917 349.199Z" fill="#FFA600"/>
<path d="M1924.3 314.799C1925.35 314.799 1926.2 313.948 1926.2 312.899C1926.2 311.85 1925.35 310.999 1924.3 310.999C1923.25 310.999 1922.4 311.85 1922.4 312.899C1922.4 313.948 1923.25 314.799 1924.3 314.799Z" fill="#B8E4FA"/>
<path d="M1879.5 390.099C1881.32 390.099 1882.8 388.622 1882.8 386.799C1882.8 384.976 1881.32 383.499 1879.5 383.499C1877.68 383.499 1876.2 384.976 1876.2 386.799C1876.2 388.622 1877.68 390.099 1879.5 390.099Z" fill="#FF73A7"/>
<path d="M1988.5 374.399C1990.32 374.399 1991.8 372.921 1991.8 371.099C1991.8 369.276 1990.32 367.799 1988.5 367.799C1986.68 367.799 1985.2 369.276 1985.2 371.099C1985.2 372.921 1986.68 374.399 1988.5 374.399Z" fill="#FF73A7"/>
<path d="M1959.5 368.299C1960.55 368.299 1961.4 367.448 1961.4 366.399C1961.4 365.35 1960.55 364.499 1959.5 364.499C1958.45 364.499 1957.6 365.35 1957.6 366.399C1957.6 367.448 1958.45 368.299 1959.5 368.299Z" fill="#B8E4FA"/>
<path d="M1971.7 426.399C1972.75 426.399 1973.6 425.548 1973.6 424.499C1973.6 423.449 1972.75 422.599 1971.7 422.599C1970.65 422.599 1969.8 423.449 1969.8 424.499C1969.8 425.548 1970.65 426.399 1971.7 426.399Z" fill="#FFA600"/>
<path d="M1919.4 415.499C1920.45 415.499 1921.3 414.649 1921.3 413.599C1921.3 412.55 1920.45 411.699 1919.4 411.699C1918.35 411.699 1917.5 412.55 1917.5 413.599C1917.5 414.649 1918.35 415.499 1919.4 415.499Z" fill="#8118B4"/>
<path d="M1919.8 431.099C1920.85 431.099 1921.7 430.248 1921.7 429.199C1921.7 428.15 1920.85 427.299 1919.8 427.299C1918.75 427.299 1917.9 428.15 1917.9 429.199C1917.9 430.248 1918.75 431.099 1919.8 431.099Z" fill="#8118B4"/>
<path d="M2126.5 546.899C2128.05 546.899 2129.3 545.645 2129.3 544.099C2129.3 542.552 2128.05 541.299 2126.5 541.299C2124.95 541.299 2123.7 542.552 2123.7 544.099C2123.7 545.645 2124.95 546.899 2126.5 546.899Z" fill="#8118B4"/>
<path d="M2070.3 565.799C2072.12 565.799 2073.6 564.322 2073.6 562.499C2073.6 560.677 2072.12 559.199 2070.3 559.199C2068.48 559.199 2067 560.677 2067 562.499C2067 564.322 2068.48 565.799 2070.3 565.799Z" fill="#FF73A7"/>
<path d="M2149 584.299C2150.05 584.299 2150.9 583.448 2150.9 582.399C2150.9 581.35 2150.05 580.499 2149 580.499C2147.95 580.499 2147.1 581.35 2147.1 582.399C2147.1 583.448 2147.95 584.299 2149 584.299Z" fill="#8118B4"/>
<path d="M2060.4 500.299C2061.45 500.299 2062.3 499.448 2062.3 498.399C2062.3 497.35 2061.45 496.499 2060.4 496.499C2059.35 496.499 2058.5 497.35 2058.5 498.399C2058.5 499.448 2059.35 500.299 2060.4 500.299Z" fill="#8118B4"/>
<path d="M930.6 340.799C932.257 340.799 933.6 339.456 933.6 337.799C933.6 336.142 932.257 334.799 930.6 334.799C928.943 334.799 927.6 336.142 927.6 337.799C927.6 339.456 928.943 340.799 930.6 340.799Z" fill="#8118B4"/>
<path d="M854 334.899C854.608 334.899 855.1 334.407 855.1 333.799C855.1 333.192 854.608 332.699 854 332.699C853.393 332.699 852.9 333.192 852.9 333.799C852.9 334.407 853.393 334.899 854 334.899Z" fill="#FF73A7"/>
<path d="M823.6 338.599C824.76 338.599 825.7 337.659 825.7 336.499C825.7 335.34 824.76 334.399 823.6 334.399C822.44 334.399 821.5 335.34 821.5 336.499C821.5 337.659 822.44 338.599 823.6 338.599Z" fill="#FFA600"/>
<path d="M777.9 272.299C778.894 272.299 779.7 271.493 779.7 270.499C779.7 269.505 778.894 268.699 777.9 268.699C776.906 268.699 776.1 269.505 776.1 270.499C776.1 271.493 776.906 272.299 777.9 272.299Z" fill="#FF73A7"/>
<path d="M896.8 433.199C898.402 433.199 899.7 431.901 899.7 430.299C899.7 428.698 898.402 427.399 896.8 427.399C895.198 427.399 893.9 428.698 893.9 430.299C893.9 431.901 895.198 433.199 896.8 433.199Z" fill="#FFA600"/>
<path d="M863.3 449.8C864.46 449.8 865.4 448.859 865.4 447.7C865.4 446.54 864.46 445.6 863.3 445.6C862.14 445.6 861.2 446.54 861.2 447.7C861.2 448.859 862.14 449.8 863.3 449.8Z" fill="#B8E4FA"/>
<path d="M956.9 437.499C958.889 437.499 960.5 435.887 960.5 433.899C960.5 431.911 958.889 430.299 956.9 430.299C954.912 430.299 953.3 431.911 953.3 433.899C953.3 435.887 954.912 437.499 956.9 437.499Z" fill="#FF73A7"/>
<path d="M867.6 356.399C869.588 356.399 871.2 354.787 871.2 352.799C871.2 350.811 869.588 349.199 867.6 349.199C865.612 349.199 864 350.811 864 352.799C864 354.787 865.612 356.399 867.6 356.399Z" fill="#FF73A7"/>
<path d="M999.6 430.599C1000.48 430.599 1001.2 429.883 1001.2 428.999C1001.2 428.116 1000.48 427.399 999.6 427.399C998.717 427.399 998 428.116 998 428.999C998 429.883 998.717 430.599 999.6 430.599Z" fill="#B8E4FA"/>
<path d="M883.9 382.8C885.06 382.8 886 381.859 886 380.7C886 379.54 885.06 378.6 883.9 378.6C882.741 378.6 881.8 379.54 881.8 380.7C881.8 381.859 882.741 382.8 883.9 382.8Z" fill="#B8E4FA"/>
<path d="M924.3 331.899C925.46 331.899 926.4 330.959 926.4 329.799C926.4 328.639 925.46 327.699 924.3 327.699C923.14 327.699 922.2 328.639 922.2 329.799C922.2 330.959 923.14 331.899 924.3 331.899Z" fill="#FFA600"/>
<path d="M951.7 383.699C952.86 383.699 953.8 382.759 953.8 381.599C953.8 380.439 952.86 379.499 951.7 379.499C950.54 379.499 949.6 380.439 949.6 381.599C949.6 382.759 950.54 383.699 951.7 383.699Z" fill="#8118B4"/>
<path d="M909.5 165.699C910.66 165.699 911.6 164.759 911.6 163.599C911.6 162.439 910.66 161.499 909.5 161.499C908.34 161.499 907.4 162.439 907.4 163.599C907.4 164.759 908.34 165.699 909.5 165.699Z" fill="#B8E4FA"/>
<path d="M836.3 227.099C838.288 227.099 839.9 225.488 839.9 223.499C839.9 221.511 838.288 219.899 836.3 219.899C834.312 219.899 832.7 221.511 832.7 223.499C832.7 225.488 834.312 227.099 836.3 227.099Z" fill="#FF73A7"/>
<path d="M954.6 250.699C956.588 250.699 958.2 249.087 958.2 247.099C958.2 245.111 956.588 243.499 954.6 243.499C952.612 243.499 951 245.111 951 247.099C951 249.087 952.612 250.699 954.6 250.699Z" fill="#FF73A7"/>
<path d="M867.7 267.799C868.86 267.799 869.8 266.858 869.8 265.699C869.8 264.539 868.86 263.599 867.7 263.599C866.54 263.599 865.6 264.539 865.6 265.699C865.6 266.858 866.54 267.799 867.7 267.799Z" fill="#8118B4"/>
<path d="M862.5 284.099C863.66 284.099 864.6 283.159 864.6 281.999C864.6 280.84 863.66 279.899 862.5 279.899C861.34 279.899 860.4 280.84 860.4 281.999C860.4 283.159 861.34 284.099 862.5 284.099Z" fill="#8118B4"/>
<path d="M960.9 453.899C961.508 453.899 962 453.407 962 452.799C962 452.192 961.508 451.699 960.9 451.699C960.293 451.699 959.8 452.192 959.8 452.799C959.8 453.407 960.293 453.899 960.9 453.899Z" fill="#FF73A7"/>
<path d="M930.8 449.699C931.96 449.699 932.9 448.759 932.9 447.599C932.9 446.439 931.96 445.499 930.8 445.499C929.64 445.499 928.7 446.439 928.7 447.599C928.7 448.759 929.64 449.699 930.8 449.699Z" fill="#FFA600"/>
<path d="M903.6 373.899C904.594 373.899 905.4 373.093 905.4 372.099C905.4 371.105 904.594 370.299 903.6 370.299C902.606 370.299 901.8 371.105 901.8 372.099C901.8 373.093 902.606 373.899 903.6 373.899Z" fill="#FF73A7"/>
<path d="M1034.8 579.399C1036.79 579.399 1038.4 577.787 1038.4 575.799C1038.4 573.811 1036.79 572.199 1034.8 572.199C1032.81 572.199 1031.2 573.811 1031.2 575.799C1031.2 577.787 1032.81 579.399 1034.8 579.399Z" fill="#FF73A7"/>
<path d="M969.2 478.199C971.188 478.199 972.8 476.587 972.8 474.599C972.8 472.611 971.188 470.999 969.2 470.999C967.212 470.999 965.6 472.611 965.6 474.599C965.6 476.587 967.212 478.199 969.2 478.199Z" fill="#FF73A7"/>
<path d="M1077.4 583.599C1078.28 583.599 1079 582.883 1079 581.999C1079 581.116 1078.28 580.399 1077.4 580.399C1076.52 580.399 1075.8 581.116 1075.8 581.999C1075.8 582.883 1076.52 583.599 1077.4 583.599Z" fill="#B8E4FA"/>
<path d="M1030 468.899C1031.16 468.899 1032.1 467.959 1032.1 466.799C1032.1 465.639 1031.16 464.699 1030 464.699C1028.84 464.699 1027.9 465.639 1027.9 466.799C1027.9 467.959 1028.84 468.899 1030 468.899Z" fill="#FFA600"/>
<path d="M1043.2 525.999C1044.36 525.999 1045.3 525.059 1045.3 523.899C1045.3 522.739 1044.36 521.799 1043.2 521.799C1042.04 521.799 1041.1 522.739 1041.1 523.899C1041.1 525.059 1042.04 525.999 1043.2 525.999Z" fill="#8118B4"/>
<path d="M982.4 406.899C983.56 406.899 984.5 405.959 984.5 404.799C984.5 403.639 983.56 402.699 982.4 402.699C981.24 402.699 980.3 403.639 980.3 404.799C980.3 405.959 981.24 406.899 982.4 406.899Z" fill="#8118B4"/>
<path d="M995.2 610.499C996.636 610.499 997.8 609.335 997.8 607.899C997.8 606.463 996.636 605.299 995.2 605.299C993.764 605.299 992.6 606.463 992.6 607.899C992.6 609.335 993.764 610.499 995.2 610.499Z" fill="#FFA600"/>
<path d="M988.6 575.999C989.649 575.999 990.5 575.149 990.5 574.099C990.5 573.05 989.649 572.199 988.6 572.199C987.551 572.199 986.7 573.05 986.7 574.099C986.7 575.149 987.551 575.999 988.6 575.999Z" fill="#B8E4FA"/>
<path d="M1070.6 605.499C1072.42 605.499 1073.9 604.022 1073.9 602.199C1073.9 600.377 1072.42 598.899 1070.6 598.899C1068.78 598.899 1067.3 600.377 1067.3 602.199C1067.3 604.022 1068.78 605.499 1070.6 605.499Z" fill="#FF73A7"/>
<path d="M1042 611.299C1043.05 611.299 1043.9 610.448 1043.9 609.399C1043.9 608.35 1043.05 607.499 1042 607.499C1040.95 607.499 1040.1 608.35 1040.1 609.399C1040.1 610.448 1040.95 611.299 1042 611.299Z" fill="#B8E4FA"/>
<path d="M946.2 594.798C947.746 594.798 949 593.545 949 591.998C949 590.452 947.746 589.198 946.2 589.198C944.653 589.198 943.4 590.452 943.4 591.998C943.4 593.545 944.653 594.798 946.2 594.798Z" fill="#8118B4"/>
<path d="M877.6 607.198C878.152 607.198 878.6 606.751 878.6 606.198C878.6 605.646 878.152 605.198 877.6 605.198C877.048 605.198 876.6 605.646 876.6 606.198C876.6 606.751 877.048 607.198 877.6 607.198Z" fill="#FF73A7"/>
<path d="M851.3 617.399C852.349 617.399 853.2 616.548 853.2 615.499C853.2 614.449 852.349 613.599 851.3 613.599C850.251 613.599 849.4 614.449 849.4 615.499C849.4 616.548 850.251 617.399 851.3 617.399Z" fill="#FFA600"/>
<path d="M795.8 569.299C796.684 569.299 797.4 568.582 797.4 567.699C797.4 566.815 796.684 566.099 795.8 566.099C794.916 566.099 794.2 566.815 794.2 567.699C794.2 568.582 794.916 569.299 795.8 569.299Z" fill="#FF73A7"/>
<path d="M844 506.898C845.436 506.898 846.6 505.734 846.6 504.298C846.6 502.862 845.436 501.698 844 501.698C842.564 501.698 841.4 502.862 841.4 504.298C841.4 505.734 842.564 506.898 844 506.898Z" fill="#FFA600"/>
<path d="M854.1 473.198C855.149 473.198 856 472.348 856 471.298C856 470.249 855.149 469.398 854.1 469.398C853.051 469.398 852.2 470.249 852.2 471.298C852.2 472.348 853.051 473.198 854.1 473.198Z" fill="#B8E4FA"/>
<path d="M803.2 544.399C805.022 544.399 806.5 542.921 806.5 541.099C806.5 539.276 805.022 537.799 803.2 537.799C801.377 537.799 799.9 539.276 799.9 541.099C799.9 542.921 801.377 544.399 803.2 544.399Z" fill="#FF73A7"/>
<path d="M913.2 537.998C915.022 537.998 916.5 536.521 916.5 534.698C916.5 532.876 915.022 531.398 913.2 531.398C911.377 531.398 909.9 532.876 909.9 534.698C909.9 536.521 911.377 537.998 913.2 537.998Z" fill="#FF73A7"/>
<path d="M884.6 529.498C885.649 529.498 886.5 528.648 886.5 527.598C886.5 526.549 885.649 525.698 884.6 525.698C883.551 525.698 882.7 526.549 882.7 527.598C882.7 528.648 883.551 529.498 884.6 529.498Z" fill="#B8E4FA"/>
<path d="M891.9 588.399C892.949 588.399 893.8 587.548 893.8 586.499C893.8 585.449 892.949 584.599 891.9 584.599C890.851 584.599 890 585.449 890 586.499C890 587.548 890.851 588.399 891.9 588.399Z" fill="#FFA600"/>
<path d="M840.6 573.099C841.649 573.099 842.5 572.248 842.5 571.199C842.5 570.15 841.649 569.299 840.6 569.299C839.551 569.299 838.7 570.15 838.7 571.199C838.7 572.248 839.551 573.099 840.6 573.099Z" fill="#8118B4"/>
<path d="M873.2 560.399C874.249 560.399 875.1 559.548 875.1 558.499C875.1 557.449 874.249 556.599 873.2 556.599C872.15 556.599 871.3 557.449 871.3 558.499C871.3 559.548 872.15 560.399 873.2 560.399Z" fill="#8118B4"/>
<path d="M1936 374.399C1937.55 374.399 1938.8 373.145 1938.8 371.599C1938.8 370.052 1937.55 368.799 1936 368.799C1934.45 368.799 1933.2 370.052 1933.2 371.599C1933.2 373.145 1934.45 374.399 1936 374.399Z" fill="#8118B4"/>
<path d="M1867.4 386.799C1867.95 386.799 1868.4 386.351 1868.4 385.799C1868.4 385.247 1867.95 384.799 1867.4 384.799C1866.85 384.799 1866.4 385.247 1866.4 385.799C1866.4 386.351 1866.85 386.799 1867.4 386.799Z" fill="#FF73A7"/>
<path d="M1841.1 396.999C1842.15 396.999 1843 396.149 1843 395.099C1843 394.05 1842.15 393.199 1841.1 393.199C1840.05 393.199 1839.2 394.05 1839.2 395.099C1839.2 396.149 1840.05 396.999 1841.1 396.999Z" fill="#FFA600"/>
<path d="M1785.6 348.899C1786.48 348.899 1787.2 348.183 1787.2 347.299C1787.2 346.416 1786.48 345.699 1785.6 345.699C1784.72 345.699 1784 346.416 1784 347.299C1784 348.183 1784.72 348.899 1785.6 348.899Z" fill="#FF73A7"/>
<path d="M1833.8 286.499C1835.24 286.499 1836.4 285.335 1836.4 283.899C1836.4 282.463 1835.24 281.299 1833.8 281.299C1832.36 281.299 1831.2 282.463 1831.2 283.899C1831.2 285.335 1832.36 286.499 1833.8 286.499Z" fill="#FFA600"/>
<path d="M1843.9 252.799C1844.95 252.799 1845.8 251.948 1845.8 250.899C1845.8 249.85 1844.95 248.999 1843.9 248.999C1842.85 248.999 1842 249.85 1842 250.899C1842 251.948 1842.85 252.799 1843.9 252.799Z" fill="#B8E4FA"/>
<path d="M1793 323.999C1794.82 323.999 1796.3 322.522 1796.3 320.699C1796.3 318.877 1794.82 317.399 1793 317.399C1791.18 317.399 1789.7 318.877 1789.7 320.699C1789.7 322.522 1791.18 323.999 1793 323.999Z" fill="#FF73A7"/>
<path d="M1903 317.599C1904.82 317.599 1906.3 316.122 1906.3 314.299C1906.3 312.477 1904.82 310.999 1903 310.999C1901.18 310.999 1899.7 312.477 1899.7 314.299C1899.7 316.122 1901.18 317.599 1903 317.599Z" fill="#FF73A7"/>
<path d="M1874.4 309.099C1875.45 309.099 1876.3 308.248 1876.3 307.199C1876.3 306.149 1875.45 305.299 1874.4 305.299C1873.35 305.299 1872.5 306.149 1872.5 307.199C1872.5 308.248 1873.35 309.099 1874.4 309.099Z" fill="#B8E4FA"/>
<path d="M1881.7 367.999C1882.75 367.999 1883.6 367.149 1883.6 366.099C1883.6 365.05 1882.75 364.199 1881.7 364.199C1880.65 364.199 1879.8 365.05 1879.8 366.099C1879.8 367.149 1880.65 367.999 1881.7 367.999Z" fill="#FFA600"/>
<path d="M1830.4 352.699C1831.45 352.699 1832.3 351.849 1832.3 350.799C1832.3 349.75 1831.45 348.899 1830.4 348.899C1829.35 348.899 1828.5 349.75 1828.5 350.799C1828.5 351.849 1829.35 352.699 1830.4 352.699Z" fill="#8118B4"/>
<path d="M1863 339.999C1864.05 339.999 1864.9 339.149 1864.9 338.099C1864.9 337.05 1864.05 336.199 1863 336.199C1861.95 336.199 1861.1 337.05 1861.1 338.099C1861.1 339.149 1861.95 339.999 1863 339.999Z" fill="#8118B4"/>
<path d="M1714 493.399C1715.55 493.399 1716.8 492.145 1716.8 490.599C1716.8 489.052 1715.55 487.799 1714 487.799C1712.45 487.799 1711.2 489.052 1711.2 490.599C1711.2 492.145 1712.45 493.399 1714 493.399Z" fill="#8118B4"/>
<path d="M1645.4 505.799C1645.95 505.799 1646.4 505.351 1646.4 504.799C1646.4 504.247 1645.95 503.799 1645.4 503.799C1644.85 503.799 1644.4 504.247 1644.4 504.799C1644.4 505.351 1644.85 505.799 1645.4 505.799Z" fill="#FF73A7"/>
<path d="M1619.1 515.999C1620.15 515.999 1621 515.149 1621 514.099C1621 513.05 1620.15 512.199 1619.1 512.199C1618.05 512.199 1617.2 513.05 1617.2 514.099C1617.2 515.149 1618.05 515.999 1619.1 515.999Z" fill="#FFA600"/>
<path d="M1563.6 467.899C1564.48 467.899 1565.2 467.183 1565.2 466.299C1565.2 465.416 1564.48 464.699 1563.6 464.699C1562.72 464.699 1562 465.416 1562 466.299C1562 467.183 1562.72 467.899 1563.6 467.899Z" fill="#FF73A7"/>
<path d="M1611.8 405.499C1613.24 405.499 1614.4 404.335 1614.4 402.899C1614.4 401.463 1613.24 400.299 1611.8 400.299C1610.36 400.299 1609.2 401.463 1609.2 402.899C1609.2 404.335 1610.36 405.499 1611.8 405.499Z" fill="#FFA600"/>
<path d="M1621.9 371.799C1622.95 371.799 1623.8 370.948 1623.8 369.899C1623.8 368.85 1622.95 367.999 1621.9 367.999C1620.85 367.999 1620 368.85 1620 369.899C1620 370.948 1620.85 371.799 1621.9 371.799Z" fill="#B8E4FA"/>
<path d="M1571 442.999C1572.82 442.999 1574.3 441.522 1574.3 439.699C1574.3 437.877 1572.82 436.399 1571 436.399C1569.18 436.399 1567.7 437.877 1567.7 439.699C1567.7 441.522 1569.18 442.999 1571 442.999Z" fill="#FF73A7"/>
<path d="M1681 436.599C1682.82 436.599 1684.3 435.122 1684.3 433.299C1684.3 431.477 1682.82 429.999 1681 429.999C1679.18 429.999 1677.7 431.477 1677.7 433.299C1677.7 435.122 1679.18 436.599 1681 436.599Z" fill="#FF73A7"/>
<path d="M1652.4 428.099C1653.45 428.099 1654.3 427.248 1654.3 426.199C1654.3 425.149 1653.45 424.299 1652.4 424.299C1651.35 424.299 1650.5 425.149 1650.5 426.199C1650.5 427.248 1651.35 428.099 1652.4 428.099Z" fill="#B8E4FA"/>
<path d="M1659.7 486.999C1660.75 486.999 1661.6 486.149 1661.6 485.099C1661.6 484.05 1660.75 483.199 1659.7 483.199C1658.65 483.199 1657.8 484.05 1657.8 485.099C1657.8 486.149 1658.65 486.999 1659.7 486.999Z" fill="#FFA600"/>
<path d="M1608.4 471.699C1609.45 471.699 1610.3 470.849 1610.3 469.799C1610.3 468.75 1609.45 467.899 1608.4 467.899C1607.35 467.899 1606.5 468.75 1606.5 469.799C1606.5 470.849 1607.35 471.699 1608.4 471.699Z" fill="#8118B4"/>
<path d="M1641 458.999C1642.05 458.999 1642.9 458.149 1642.9 457.099C1642.9 456.05 1642.05 455.199 1641 455.199C1639.95 455.199 1639.1 456.05 1639.1 457.099C1639.1 458.149 1639.95 458.999 1641 458.999Z" fill="#8118B4"/>
<g opacity="0.12">
<path opacity="0.12" d="M467.5 341.799C468.052 341.799 468.5 341.351 468.5 340.799C468.5 340.247 468.052 339.799 467.5 339.799C466.948 339.799 466.5 340.247 466.5 340.799C466.5 341.351 466.948 341.799 467.5 341.799Z" fill="#FF73A7"/>
<path opacity="0.12" d="M453.2 366.599C454.249 366.599 455.1 365.748 455.1 364.699C455.1 363.65 454.249 362.799 453.2 362.799C452.15 362.799 451.3 363.65 451.3 364.699C451.3 365.748 452.15 366.599 453.2 366.599Z" fill="#FFA600"/>
<path opacity="0.12" d="M380 364.999C380.884 364.999 381.6 364.282 381.6 363.399C381.6 362.515 380.884 361.799 380 361.799C379.116 361.799 378.4 362.515 378.4 363.399C378.4 364.282 379.116 364.999 380 364.999Z" fill="#FF73A7"/>
<g opacity="0.12">
<path opacity="0.12" d="M561.8 362.998C563.236 362.998 564.4 361.834 564.4 360.398C564.4 358.962 563.236 357.798 561.8 357.798C560.364 357.798 559.2 358.962 559.2 360.398C559.2 361.834 560.364 362.998 561.8 362.998Z" fill="#FFA600"/>
<path opacity="0.12" d="M556.8 396.398C557.849 396.398 558.7 395.547 558.7 394.498C558.7 393.448 557.849 392.598 556.8 392.598C555.751 392.598 554.9 393.448 554.9 394.498C554.9 395.547 555.751 396.398 556.8 396.398Z" fill="#B8E4FA"/>
<path opacity="0.12" d="M488.8 344.098C490.623 344.098 492.1 342.621 492.1 340.798C492.1 338.975 490.623 337.498 488.8 337.498C486.977 337.498 485.5 338.975 485.5 340.798C485.5 342.621 486.977 344.098 488.8 344.098Z" fill="#FF73A7"/>
<path opacity="0.12" d="M615.6 284.998C616.429 284.998 617.1 284.326 617.1 283.498C617.1 282.67 616.429 281.998 615.6 281.998C614.772 281.998 614.1 282.67 614.1 283.498C614.1 284.326 614.772 284.998 615.6 284.998Z" fill="#B8E4FA"/>
<path opacity="0.12" d="M518.1 345.398C519.15 345.398 520 344.547 520 343.498C520 342.448 519.15 341.598 518.1 341.598C517.051 341.598 516.2 342.448 516.2 343.498C516.2 344.547 517.051 345.398 518.1 345.398Z" fill="#B8E4FA"/>
<path opacity="0.12" d="M502 288.398C503.049 288.398 503.9 287.547 503.9 286.498C503.9 285.448 503.049 284.598 502 284.598C500.951 284.598 500.1 285.448 500.1 286.498C500.1 287.547 500.951 288.398 502 288.398Z" fill="#FFA600"/>
<path opacity="0.12" d="M554.9 295.698C555.949 295.698 556.8 294.848 556.8 293.798C556.8 292.749 555.949 291.898 554.9 291.898C553.851 291.898 553 292.749 553 293.798C553 294.848 553.851 295.698 554.9 295.698Z" fill="#8118B4"/>
</g>
<g opacity="0.12">
<path opacity="0.12" d="M384.1 243.299C385.536 243.299 386.7 242.135 386.7 240.699C386.7 239.263 385.536 238.099 384.1 238.099C382.664 238.099 381.5 239.263 381.5 240.699C381.5 242.135 382.664 243.299 384.1 243.299Z" fill="#FFA600"/>
<path opacity="0.12" d="M370.9 210.698C371.949 210.698 372.8 209.848 372.8 208.798C372.8 207.749 371.949 206.898 370.9 206.898C369.851 206.898 369 207.749 369 208.798C369 209.848 369.851 210.698 370.9 210.698Z" fill="#B8E4FA"/>
<path opacity="0.12" d="M376.3 298.298C378.123 298.298 379.6 296.821 379.6 294.998C379.6 293.176 378.123 291.698 376.3 291.698C374.477 291.698 373 293.176 373 294.998C373 296.821 374.477 298.298 376.3 298.298Z" fill="#FF73A7"/>
<path opacity="0.12" d="M456.8 223.199C458.623 223.199 460.1 221.721 460.1 219.899C460.1 218.076 458.623 216.599 456.8 216.599C454.977 216.599 453.5 218.076 453.5 219.899C453.5 221.721 454.977 223.199 456.8 223.199Z" fill="#FF73A7"/>
<path opacity="0.12" d="M430.3 234.599C431.349 234.599 432.2 233.748 432.2 232.699C432.2 231.649 431.349 230.799 430.3 230.799C429.251 230.799 428.4 231.649 428.4 232.699C428.4 233.748 429.251 234.599 430.3 234.599Z" fill="#B8E4FA"/>
<path opacity="0.12" d="M473.5 275.198C474.549 275.198 475.4 274.348 475.4 273.298C475.4 272.249 474.549 271.398 473.5 271.398C472.451 271.398 471.6 272.249 471.6 273.298C471.6 274.348 472.451 275.198 473.5 275.198Z" fill="#FFA600"/>
<path opacity="0.12" d="M424.3 296.198C425.349 296.198 426.2 295.348 426.2 294.298C426.2 293.249 425.349 292.398 424.3 292.398C423.251 292.398 422.4 293.249 422.4 294.298C422.4 295.348 423.251 296.198 424.3 296.198Z" fill="#8118B4"/>
</g>
<path opacity="0.12" d="M433.6 308.798C434.65 308.798 435.5 307.947 435.5 306.898C435.5 305.849 434.65 304.998 433.6 304.998C432.551 304.998 431.7 305.849 431.7 306.898C431.7 307.947 432.551 308.798 433.6 308.798Z" fill="#8118B4"/>
<g opacity="0.12">
<path opacity="0.12" d="M668.9 285.998C670.447 285.998 671.7 284.745 671.7 283.198C671.7 281.652 670.447 280.398 668.9 280.398C667.354 280.398 666.1 281.652 666.1 283.198C666.1 284.745 667.354 285.998 668.9 285.998Z" fill="#8118B4"/>
<g opacity="0.12">
<path opacity="0.12" d="M698.8 370.598C700.236 370.598 701.4 369.434 701.4 367.998C701.4 366.563 700.236 365.398 698.8 365.398C697.364 365.398 696.2 366.563 696.2 367.998C696.2 369.434 697.364 370.598 698.8 370.598Z" fill="#FFA600"/>
<path opacity="0.12" d="M685.2 401.599C686.249 401.599 687.1 400.748 687.1 399.699C687.1 398.65 686.249 397.799 685.2 397.799C684.151 397.799 683.3 398.65 683.3 399.699C683.3 400.748 684.151 401.599 685.2 401.599Z" fill="#B8E4FA"/>
<path opacity="0.12" d="M743.2 338.998C745.023 338.998 746.5 337.521 746.5 335.698C746.5 333.876 745.023 332.398 743.2 332.398C741.378 332.398 739.9 333.876 739.9 335.698C739.9 337.521 741.378 338.998 743.2 338.998Z" fill="#FF73A7"/>
<path opacity="0.12" d="M633.2 333.699C635.023 333.699 636.5 332.221 636.5 330.399C636.5 328.576 635.023 327.099 633.2 327.099C631.378 327.099 629.9 328.576 629.9 330.399C629.9 332.221 631.378 333.699 633.2 333.699Z" fill="#FF73A7"/>
<path opacity="0.12" d="M770.5 308.898C771.328 308.898 772 308.227 772 307.398C772 306.57 771.328 305.898 770.5 305.898C769.672 305.898 769 306.57 769 307.398C769 308.227 769.672 308.898 770.5 308.898Z" fill="#B8E4FA"/>
<path opacity="0.12" d="M709.2 303.698C710.249 303.698 711.1 302.848 711.1 301.798C711.1 300.749 710.249 299.898 709.2 299.898C708.151 299.898 707.3 300.749 707.3 301.798C707.3 302.848 708.151 303.698 709.2 303.698Z" fill="#8118B4"/>
</g>
<path opacity="0.12" d="M588.5 285.298C589.549 285.298 590.4 284.447 590.4 283.398C590.4 282.349 589.549 281.498 588.5 281.498C587.451 281.498 586.6 282.349 586.6 283.398C586.6 284.447 587.451 285.298 588.5 285.298Z" fill="#8118B4"/>
</g>
</g>
<path d="M773.2 532.099C774.747 532.099 776 530.845 776 529.299C776 527.753 774.747 526.499 773.2 526.499C771.654 526.499 770.4 527.753 770.4 529.299C770.4 530.845 771.654 532.099 773.2 532.099Z" fill="#8118B4"/>
<path d="M704.7 544.399C705.252 544.399 705.7 543.952 705.7 543.399C705.7 542.847 705.252 542.399 704.7 542.399C704.148 542.399 703.7 542.847 703.7 543.399C703.7 543.952 704.148 544.399 704.7 544.399Z" fill="#FF73A7"/>
<path d="M678.4 554.699C679.449 554.699 680.3 553.849 680.3 552.799C680.3 551.75 679.449 550.899 678.4 550.899C677.351 550.899 676.5 551.75 676.5 552.799C676.5 553.849 677.351 554.699 678.4 554.699Z" fill="#FFA600"/>
<path d="M622.9 506.599C623.784 506.599 624.5 505.883 624.5 504.999C624.5 504.116 623.784 503.399 622.9 503.399C622.016 503.399 621.3 504.116 621.3 504.999C621.3 505.883 622.016 506.599 622.9 506.599Z" fill="#FF73A7"/>
<path d="M671.1 444.099C672.536 444.099 673.7 442.935 673.7 441.499C673.7 440.063 672.536 438.899 671.1 438.899C669.664 438.899 668.5 440.063 668.5 441.499C668.5 442.935 669.664 444.099 671.1 444.099Z" fill="#FFA600"/>
<path d="M681.2 410.499C682.249 410.499 683.1 409.649 683.1 408.599C683.1 407.55 682.249 406.699 681.2 406.699C680.151 406.699 679.3 407.55 679.3 408.599C679.3 409.649 680.151 410.499 681.2 410.499Z" fill="#B8E4FA"/>
<path d="M630.3 481.599C632.123 481.599 633.6 480.122 633.6 478.299C633.6 476.476 632.123 474.999 630.3 474.999C628.477 474.999 627 476.476 627 478.299C627 480.122 628.477 481.599 630.3 481.599Z" fill="#FF73A7"/>
<path d="M740.3 475.299C742.123 475.299 743.6 473.822 743.6 471.999C743.6 470.177 742.123 468.699 740.3 468.699C738.477 468.699 737 470.177 737 471.999C737 473.822 738.477 475.299 740.3 475.299Z" fill="#FF73A7"/>
<path d="M711.7 466.799C712.749 466.799 713.6 465.948 713.6 464.899C713.6 463.85 712.749 462.999 711.7 462.999C710.651 462.999 709.8 463.85 709.8 464.899C709.8 465.948 710.651 466.799 711.7 466.799Z" fill="#B8E4FA"/>
<path d="M719 525.599C720.049 525.599 720.9 524.748 720.9 523.699C720.9 522.65 720.049 521.799 719 521.799C717.951 521.799 717.1 522.65 717.1 523.699C717.1 524.748 717.951 525.599 719 525.599Z" fill="#FFA600"/>
<path d="M667.7 510.299C668.749 510.299 669.6 509.448 669.6 508.399C669.6 507.35 668.749 506.499 667.7 506.499C666.651 506.499 665.8 507.35 665.8 508.399C665.8 509.448 666.651 510.299 667.7 510.299Z" fill="#8118B4"/>
<path d="M700.2 497.599C701.249 497.599 702.1 496.748 702.1 495.699C702.1 494.65 701.249 493.799 700.2 493.799C699.151 493.799 698.3 494.65 698.3 495.699C698.3 496.748 699.151 497.599 700.2 497.599Z" fill="#8118B4"/>
<g opacity="0.67">
<path opacity="0.67" d="M1415.4 322.099C1416.95 322.099 1418.2 320.845 1418.2 319.299C1418.2 317.753 1416.95 316.499 1415.4 316.499C1413.85 316.499 1412.6 317.753 1412.6 319.299C1412.6 320.845 1413.85 322.099 1415.4 322.099Z" fill="#8118B4"/>
<path opacity="0.67" d="M1387.2 384.398C1387.75 384.398 1388.2 383.951 1388.2 383.398C1388.2 382.846 1387.75 382.398 1387.2 382.398C1386.65 382.398 1386.2 382.846 1386.2 383.398C1386.2 383.951 1386.65 384.398 1387.2 384.398Z" fill="#FF73A7"/>
<path opacity="0.67" d="M1379.7 412.099C1380.75 412.099 1381.6 411.248 1381.6 410.199C1381.6 409.15 1380.75 408.299 1379.7 408.299C1378.65 408.299 1377.8 409.15 1377.8 410.199C1377.8 411.248 1378.65 412.099 1379.7 412.099Z" fill="#FFA600"/>
<path opacity="0.67" d="M1308.6 429.399C1309.48 429.399 1310.2 428.683 1310.2 427.799C1310.2 426.916 1309.48 426.199 1308.6 426.199C1307.72 426.199 1307 426.916 1307 427.799C1307 428.683 1307.72 429.399 1308.6 429.399Z" fill="#FF73A7"/>
<g opacity="0.67">
<path opacity="0.67" d="M1284.7 354.399C1286.14 354.399 1287.3 353.235 1287.3 351.799C1287.3 350.363 1286.14 349.199 1284.7 349.199C1283.26 349.199 1282.1 350.363 1282.1 351.799C1282.1 353.235 1283.26 354.399 1284.7 354.399Z" fill="#FFA600"/>
<path opacity="0.67" d="M1263.6 326.399C1264.65 326.399 1265.5 325.548 1265.5 324.499C1265.5 323.449 1264.65 322.599 1263.6 322.599C1262.55 322.599 1261.7 323.449 1261.7 324.499C1261.7 325.548 1262.55 326.399 1263.6 326.399Z" fill="#B8E4FA"/>
<path opacity="0.67" d="M1291.1 409.699C1292.92 409.699 1294.4 408.221 1294.4 406.399C1294.4 404.576 1292.92 403.099 1291.1 403.099C1289.28 403.099 1287.8 404.576 1287.8 406.399C1287.8 408.221 1289.28 409.699 1291.1 409.699Z" fill="#FF73A7"/>
<path opacity="0.67" d="M1349.6 316.399C1351.42 316.399 1352.9 314.921 1352.9 313.099C1352.9 311.276 1351.42 309.799 1349.6 309.799C1347.78 309.799 1346.3 311.276 1346.3 313.099C1346.3 314.921 1347.78 316.399 1349.6 316.399Z" fill="#FF73A7"/>
<path opacity="0.67" d="M1327.2 334.099C1328.25 334.099 1329.1 333.248 1329.1 332.199C1329.1 331.15 1328.25 330.299 1327.2 330.299C1326.15 330.299 1325.3 331.15 1325.3 332.199C1325.3 333.248 1326.15 334.099 1327.2 334.099Z" fill="#B8E4FA"/>
<path opacity="0.67" d="M1379.4 362.299C1380.45 362.299 1381.3 361.448 1381.3 360.399C1381.3 359.35 1380.45 358.499 1379.4 358.499C1378.35 358.499 1377.5 359.35 1377.5 360.399C1377.5 361.448 1378.35 362.299 1379.4 362.299Z" fill="#FFA600"/>
<path opacity="0.67" d="M1337.3 395.198C1338.35 395.198 1339.2 394.348 1339.2 393.298C1339.2 392.249 1338.35 391.398 1337.3 391.398C1336.25 391.398 1335.4 392.249 1335.4 393.298C1335.4 394.348 1336.25 395.198 1337.3 395.198Z" fill="#8118B4"/>
</g>
<path opacity="0.67" d="M1345.8 361.299C1346.85 361.299 1347.7 360.448 1347.7 359.399C1347.7 358.35 1346.85 357.499 1345.8 357.499C1344.75 357.499 1343.9 358.35 1343.9 359.399C1343.9 360.448 1344.75 361.299 1345.8 361.299Z" fill="#8118B4"/>
</g>
<g opacity="0.29">
<g opacity="0.29">
<path opacity="0.29" d="M1214.4 618.799C1216 618.799 1217.3 617.501 1217.3 615.899C1217.3 614.297 1216 612.999 1214.4 612.999C1212.8 612.999 1211.5 614.297 1211.5 615.899C1211.5 617.501 1212.8 618.799 1214.4 618.799Z" fill="#FFA600"/>
<path opacity="0.29" d="M1207.1 580.999C1208.26 580.999 1209.2 580.059 1209.2 578.899C1209.2 577.739 1208.26 576.799 1207.1 576.799C1205.94 576.799 1205 577.739 1205 578.899C1205 580.059 1205.94 580.999 1207.1 580.999Z" fill="#B8E4FA"/>
<path opacity="0.29" d="M1296.9 613.199C1298.89 613.199 1300.5 611.587 1300.5 609.599C1300.5 607.611 1298.89 605.999 1296.9 605.999C1294.91 605.999 1293.3 607.611 1293.3 609.599C1293.3 611.587 1294.91 613.199 1296.9 613.199Z" fill="#FF73A7"/>
<path opacity="0.29" d="M1265.6 619.598C1266.76 619.598 1267.7 618.658 1267.7 617.498C1267.7 616.339 1266.76 615.398 1265.6 615.398C1264.44 615.398 1263.5 616.339 1263.5 617.498C1263.5 618.658 1264.44 619.598 1265.6 619.598Z" fill="#B8E4FA"/>
</g>
</g>
<path d="M1473.4 539.199C1475.06 539.199 1476.4 537.856 1476.4 536.199C1476.4 534.542 1475.06 533.199 1473.4 533.199C1471.74 533.199 1470.4 534.542 1470.4 536.199C1470.4 537.856 1471.74 539.199 1473.4 539.199Z" fill="#8118B4"/>
<path d="M1414.4 586.399C1415.01 586.399 1415.5 585.907 1415.5 585.299C1415.5 584.692 1415.01 584.199 1414.4 584.199C1413.79 584.199 1413.3 584.692 1413.3 585.299C1413.3 585.907 1413.79 586.399 1414.4 586.399Z" fill="#FF73A7"/>
<path d="M1393.9 610C1395.06 610 1396 609.06 1396 607.9C1396 606.74 1395.06 605.8 1393.9 605.8C1392.74 605.8 1391.8 606.74 1391.8 607.9C1391.8 609.06 1392.74 610 1393.9 610Z" fill="#FFA600"/>
<path d="M1315.6 592.2C1316.59 592.2 1317.4 591.394 1317.4 590.4C1317.4 589.406 1316.59 588.6 1315.6 588.6C1314.61 588.6 1313.8 589.406 1313.8 590.4C1313.8 591.394 1314.61 592.2 1315.6 592.2Z" fill="#FF73A7"/>
<path d="M1561.5 595.5C1563.49 595.5 1565.1 593.888 1565.1 591.9C1565.1 589.912 1563.49 588.3 1561.5 588.3C1559.51 588.3 1557.9 589.912 1557.9 591.9C1557.9 593.888 1559.51 595.5 1561.5 595.5Z" fill="#FF73A7"/>
<path d="M1440.9 596.599C1442.89 596.599 1444.5 594.988 1444.5 592.999C1444.5 591.011 1442.89 589.399 1440.9 589.399C1438.91 589.399 1437.3 591.011 1437.3 592.999C1437.3 594.988 1438.91 596.599 1440.9 596.599Z" fill="#FF73A7"/>
<path d="M1589.6 560.899C1590.48 560.899 1591.2 560.183 1591.2 559.299C1591.2 558.416 1590.48 557.699 1589.6 557.699C1588.72 557.699 1588 558.416 1588 559.299C1588 560.183 1588.72 560.899 1589.6 560.899Z" fill="#B8E4FA"/>
<path d="M1471.8 604.399C1472.96 604.399 1473.9 603.459 1473.9 602.299C1473.9 601.139 1472.96 600.199 1471.8 600.199C1470.64 600.199 1469.7 601.139 1469.7 602.299C1469.7 603.459 1470.64 604.399 1471.8 604.399Z" fill="#B8E4FA"/>
<path d="M1467 539.599C1468.16 539.599 1469.1 538.659 1469.1 537.499C1469.1 536.34 1468.16 535.399 1467 535.399C1465.84 535.399 1464.9 536.34 1464.9 537.499C1464.9 538.659 1465.84 539.599 1467 539.599Z" fill="#FFA600"/>
<path d="M1522.2 559.099C1523.36 559.099 1524.3 558.159 1524.3 556.999C1524.3 555.84 1523.36 554.899 1522.2 554.899C1521.04 554.899 1520.1 555.84 1520.1 556.999C1520.1 558.159 1521.04 559.099 1522.2 559.099Z" fill="#8118B4"/>
<path d="M1329.4 507.1C1331 507.1 1332.3 505.801 1332.3 504.2C1332.3 502.598 1331 501.3 1329.4 501.3C1327.8 501.3 1326.5 502.598 1326.5 504.2C1326.5 505.801 1327.8 507.1 1329.4 507.1Z" fill="#FFA600"/>
<path d="M1322.1 469.3C1323.26 469.3 1324.2 468.359 1324.2 467.2C1324.2 466.04 1323.26 465.1 1322.1 465.1C1320.94 465.1 1320 466.04 1320 467.2C1320 468.359 1320.94 469.3 1322.1 469.3Z" fill="#B8E4FA"/>
<path d="M1309 564.399C1310.99 564.399 1312.6 562.787 1312.6 560.799C1312.6 558.811 1310.99 557.199 1309 557.199C1307.01 557.199 1305.4 558.811 1305.4 560.799C1305.4 562.787 1307.01 564.399 1309 564.399Z" fill="#FF73A7"/>
<path d="M1411.9 501.5C1413.89 501.5 1415.5 499.888 1415.5 497.9C1415.5 495.912 1413.89 494.3 1411.9 494.3C1409.91 494.3 1408.3 495.912 1408.3 497.9C1408.3 499.888 1409.91 501.5 1411.9 501.5Z" fill="#FF73A7"/>
<path d="M1380.6 507.899C1381.76 507.899 1382.7 506.959 1382.7 505.799C1382.7 504.639 1381.76 503.699 1380.6 503.699C1379.44 503.699 1378.5 504.639 1378.5 505.799C1378.5 506.959 1379.44 507.899 1380.6 507.899Z" fill="#B8E4FA"/>
<path d="M1418.1 561C1419.26 561 1420.2 560.06 1420.2 558.9C1420.2 557.74 1419.26 556.8 1418.1 556.8C1416.94 556.8 1416 557.74 1416 558.9C1416 560.06 1416.94 561 1418.1 561Z" fill="#FFA600"/>
<path d="M1360.7 572.7C1361.86 572.7 1362.8 571.76 1362.8 570.6C1362.8 569.44 1361.86 568.5 1360.7 568.5C1359.54 568.5 1358.6 569.44 1358.6 570.6C1358.6 571.76 1359.54 572.7 1360.7 572.7Z" fill="#8118B4"/>
<path d="M1385.5 543.599C1386.66 543.599 1387.6 542.659 1387.6 541.499C1387.6 540.34 1386.66 539.399 1385.5 539.399C1384.34 539.399 1383.4 540.34 1383.4 541.499C1383.4 542.659 1384.34 543.599 1385.5 543.599Z" fill="#8118B4"/>
<path d="M1365.79 287.999C1383.79 275.699 1402.89 264.599 1423.09 256.099C1433.19 251.899 1443.59 248.199 1454.49 245.999C1459.89 244.999 1465.49 244.299 1470.99 244.699C1473.79 244.899 1476.59 245.399 1479.19 246.399C1481.79 247.399 1484.29 249.099 1485.99 251.499C1487.69 253.899 1488.49 256.799 1488.59 259.599C1488.69 262.399 1488.19 265.199 1487.49 267.899C1485.99 273.299 1483.49 278.199 1480.69 282.899C1474.99 292.299 1467.89 300.799 1460.39 308.799C1445.19 324.699 1428.09 338.499 1409.99 350.999C1391.79 363.299 1372.59 374.199 1352.19 382.599C1341.99 386.699 1331.39 390.199 1320.49 392.199C1314.99 393.099 1309.39 393.699 1303.79 393.199C1300.99 392.899 1298.19 392.399 1295.49 391.299C1292.89 390.199 1290.39 388.499 1288.69 385.999C1286.99 383.599 1286.29 380.699 1286.29 377.899C1286.19 375.099 1286.79 372.299 1287.59 369.699C1289.19 364.399 1291.79 359.499 1294.69 354.899C1300.49 345.599 1307.79 337.399 1315.29 329.499C1330.59 313.999 1347.79 300.299 1365.79 287.999ZM1365.79 287.999C1347.79 300.399 1330.79 314.299 1315.69 329.999C1308.19 337.899 1301.19 346.299 1295.59 355.599C1292.79 360.199 1290.39 365.099 1288.89 370.199C1288.19 372.799 1287.69 375.399 1287.79 377.999C1287.89 380.599 1288.59 383.199 1290.09 385.199C1291.59 387.299 1293.79 388.799 1296.19 389.699C1298.59 390.699 1301.29 391.099 1303.99 391.299C1309.29 391.699 1314.79 390.999 1320.09 389.999C1330.79 387.899 1341.09 384.199 1351.09 379.999C1371.19 371.499 1390.19 360.599 1408.09 348.299C1426.09 335.999 1443.19 322.399 1458.29 306.799C1465.79 298.999 1472.99 290.799 1478.69 281.699C1481.49 277.099 1484.09 272.399 1485.59 267.299C1486.29 264.799 1486.89 262.199 1486.79 259.599C1486.69 256.999 1486.09 254.499 1484.59 252.399C1483.19 250.299 1480.99 248.699 1478.59 247.699C1476.19 246.699 1473.49 246.199 1470.79 245.899C1465.39 245.399 1459.89 245.999 1454.59 246.899C1443.79 248.799 1433.39 252.299 1423.19 256.399C1403.09 264.899 1383.99 275.799 1365.79 287.999Z" fill="url(#paint4_linear)"/>
<path d="M1337.69 250.899C1358.39 236.799 1379.89 223.799 1402.09 212.199C1413.19 206.399 1424.49 200.899 1435.99 195.799C1447.49 190.699 1459.19 186.099 1470.99 181.899C1482.89 177.799 1494.89 174.099 1507.19 171.199C1519.49 168.299 1531.89 166.099 1544.59 165.299C1547.79 165.099 1550.89 164.899 1554.09 164.899H1558.89L1563.69 165.099C1566.89 165.199 1569.99 165.699 1573.19 165.999L1577.89 166.799C1578.69 166.899 1579.49 167.099 1580.19 167.199L1582.49 167.799C1583.99 168.199 1585.59 168.499 1587.09 169.099L1591.59 170.699C1594.49 171.999 1597.49 173.199 1600.19 174.899C1605.69 178.199 1610.69 182.499 1614.49 187.699C1618.19 192.999 1620.69 199.099 1621.89 205.299C1622.59 208.399 1622.79 211.599 1622.99 214.799V219.599C1622.99 221.199 1622.69 222.799 1622.59 224.299L1622.39 226.699C1622.29 227.499 1622.09 228.299 1621.99 228.999C1621.69 230.599 1621.49 232.099 1621.19 233.699C1620.39 236.699 1619.79 239.899 1618.79 242.799L1617.39 247.299L1615.69 251.699C1614.69 254.699 1613.29 257.499 1612.09 260.399C1606.99 271.899 1600.59 282.699 1593.69 293.099C1586.69 303.499 1579.09 313.499 1570.99 323.099C1538.59 361.399 1499.79 394.099 1458.39 422.499C1437.59 436.599 1415.99 449.599 1393.59 461.199C1371.19 472.799 1347.99 482.899 1324.09 490.999C1312.09 495.099 1299.89 498.599 1287.59 501.299C1275.19 503.999 1262.59 505.999 1249.89 506.699C1246.69 506.799 1243.49 506.999 1240.29 506.899H1235.49L1230.69 506.599C1227.49 506.499 1224.29 505.899 1221.19 505.599C1219.59 505.299 1217.99 504.999 1216.49 504.699C1215.69 504.499 1214.89 504.399 1214.09 504.199L1211.79 503.599C1210.29 503.099 1208.69 502.799 1207.19 502.299L1202.69 500.699C1199.79 499.399 1196.79 498.099 1194.09 496.299C1188.59 492.899 1183.69 488.499 1179.99 483.299C1176.39 477.999 1173.99 471.899 1172.89 465.599C1172.19 462.499 1172.09 459.299 1171.89 456.199L1171.99 451.499C1171.99 449.899 1172.29 448.399 1172.39 446.799L1172.69 444.499C1172.79 443.699 1172.99 442.999 1173.09 442.199L1173.99 437.599C1174.79 434.599 1175.49 431.499 1176.49 428.599L1177.99 424.199L1179.69 419.799C1180.79 416.899 1182.19 414.099 1183.39 411.199C1188.69 399.899 1195.19 389.199 1202.19 378.899C1209.29 368.599 1216.99 358.899 1225.19 349.399C1233.29 339.899 1241.89 330.899 1250.79 322.099C1259.69 313.299 1268.89 304.899 1278.39 296.699C1296.99 280.099 1316.99 264.999 1337.69 250.899ZM1337.69 250.899C1296.49 279.199 1257.89 311.699 1225.69 349.699C1217.69 359.199 1210.09 369.099 1203.19 379.399C1196.29 389.699 1190.09 400.399 1184.99 411.699C1183.79 414.499 1182.49 417.299 1181.49 420.199L1179.89 424.499L1178.49 428.899C1177.49 431.799 1176.89 434.799 1176.19 437.799L1175.39 442.299C1175.29 443.099 1175.09 443.799 1174.99 444.599L1174.79 446.899C1174.69 448.399 1174.39 449.899 1174.39 451.399V455.899C1174.59 458.899 1174.79 461.899 1175.49 464.899C1176.69 470.799 1178.99 476.399 1182.39 481.299C1185.89 486.099 1190.49 490.199 1195.69 493.199C1198.19 494.799 1201.09 495.999 1203.89 497.199L1208.19 498.699C1209.59 499.199 1211.19 499.499 1212.59 499.899L1214.79 500.499C1215.59 500.699 1216.29 500.799 1217.09 500.899L1221.59 501.699C1224.69 501.999 1227.69 502.499 1230.79 502.499L1235.39 502.699H1240.09C1243.19 502.699 1246.29 502.499 1249.39 502.299C1261.79 501.499 1274.09 499.299 1286.19 496.399C1298.29 493.499 1310.29 489.899 1322.09 485.799C1333.89 481.699 1345.49 476.999 1356.89 471.999C1368.29 466.999 1379.49 461.399 1390.59 455.699C1401.69 449.999 1412.49 443.799 1423.19 437.399C1433.89 430.999 1444.29 424.199 1454.69 417.199C1475.29 403.199 1495.19 388.099 1513.89 371.899C1523.29 363.699 1532.49 355.399 1541.29 346.699C1550.09 337.999 1558.59 328.899 1566.69 319.599C1574.79 310.199 1582.49 300.499 1589.49 290.399C1596.49 280.299 1602.89 269.699 1608.09 258.599C1609.29 255.799 1610.69 252.999 1611.69 250.199L1613.39 245.899L1614.79 241.599C1615.79 238.699 1616.39 235.699 1617.29 232.799L1618.19 228.299C1618.29 227.599 1618.49 226.799 1618.59 226.099L1618.79 223.899C1618.89 222.399 1619.19 220.899 1619.19 219.399L1619.29 214.899C1619.09 211.899 1618.99 208.899 1618.39 205.999C1617.29 200.099 1615.09 194.499 1611.79 189.499C1608.39 184.599 1603.79 180.499 1598.59 177.299C1596.09 175.599 1593.19 174.399 1590.39 173.199L1586.09 171.599C1584.69 171.099 1583.09 170.799 1581.69 170.299L1579.49 169.699C1578.69 169.499 1577.99 169.399 1577.19 169.299L1572.59 168.399C1569.49 168.099 1566.39 167.499 1563.29 167.399L1558.59 167.099H1553.89C1550.79 166.999 1547.69 167.199 1544.49 167.299C1531.99 167.999 1519.59 169.899 1507.29 172.599C1494.99 175.299 1482.99 178.699 1471.09 182.799C1423.69 198.899 1379.09 222.899 1337.69 250.899Z" fill="url(#paint5_linear)"/>
<path d="M1329.69 237.999C1364.39 214.299 1400.29 192.299 1437.49 172.499C1474.59 152.699 1512.89 134.799 1552.49 120.199C1572.29 112.899 1592.39 106.399 1612.79 101.099C1633.19 95.7994 1653.99 91.5993 1675.09 89.3993C1696.19 87.2993 1717.69 86.9994 1738.69 91.2994C1743.89 92.2994 1749.09 93.6993 1754.19 95.4993C1759.29 97.2993 1764.29 99.2993 1768.99 101.999C1778.49 107.199 1786.99 114.299 1793.29 123.199C1799.59 132.099 1803.49 142.499 1805.19 153.099C1806.09 158.399 1806.39 163.799 1806.29 169.099C1806.19 174.399 1805.79 179.799 1804.99 184.999C1801.89 206.099 1794.19 226.099 1784.99 244.999C1775.69 263.999 1764.59 281.899 1752.49 299.199C1740.39 316.399 1727.39 332.999 1713.49 348.899C1657.99 412.399 1592.89 466.999 1523.39 514.799C1488.49 538.499 1452.39 560.499 1414.99 580.299C1405.69 585.299 1396.19 590.099 1386.69 594.699C1377.19 599.299 1367.59 603.799 1357.99 608.099C1338.69 616.799 1318.99 624.699 1299.09 631.899C1279.19 639.099 1258.79 645.299 1238.19 650.399C1217.59 655.499 1196.59 659.399 1175.29 661.299C1154.09 663.099 1132.39 663.099 1111.29 658.499C1105.99 657.399 1100.79 655.899 1095.69 654.099C1090.59 652.299 1085.59 650.099 1080.89 647.399C1071.49 642.099 1062.99 634.799 1056.79 625.799C1050.59 616.799 1046.89 606.399 1045.29 595.899C1044.49 590.599 1044.29 585.299 1044.39 579.999C1044.49 574.699 1044.99 569.399 1045.89 564.199C1049.29 543.299 1057.19 523.499 1066.59 504.799C1076.09 486.099 1087.39 468.299 1099.69 451.299C1111.99 434.299 1125.29 417.999 1139.09 402.299C1166.89 370.899 1197.29 341.799 1229.19 314.499C1261.49 287.099 1294.99 261.699 1329.69 237.999ZM1329.69 237.999C1294.99 261.799 1261.59 287.299 1229.79 314.699C1197.99 342.099 1167.99 371.499 1140.49 403.099C1126.69 418.899 1113.79 435.299 1101.79 452.399C1089.79 469.499 1078.89 487.299 1069.69 505.999C1060.69 524.699 1053.19 544.299 1050.19 564.599C1049.39 569.699 1048.99 574.799 1048.99 579.899C1048.99 584.999 1049.19 590.099 1050.09 595.099C1051.69 605.099 1055.39 614.699 1061.19 622.899C1067.09 631.099 1074.99 637.699 1083.89 642.599C1088.29 645.099 1093.09 646.999 1097.89 648.699C1102.69 650.399 1107.69 651.699 1112.79 652.699C1133.09 656.799 1154.19 656.499 1174.89 654.499C1195.69 652.299 1216.19 648.199 1236.49 642.899C1256.79 637.599 1276.69 631.099 1296.39 623.899C1335.69 609.399 1373.79 591.599 1410.79 571.899C1447.79 552.199 1483.49 530.299 1518.09 506.699C1552.69 483.099 1586.09 457.799 1617.79 430.599C1649.49 403.399 1679.79 374.499 1707.39 343.299C1721.19 327.699 1734.39 311.599 1746.49 294.699C1758.59 277.899 1769.79 260.299 1779.19 241.899C1788.49 223.499 1796.09 204.099 1799.39 183.899C1800.19 178.899 1800.69 173.799 1800.89 168.699C1800.99 163.599 1800.79 158.599 1799.99 153.599C1798.49 143.599 1794.99 133.999 1789.29 125.699C1783.59 117.399 1775.69 110.599 1766.79 105.599C1762.39 102.999 1757.59 100.999 1752.79 99.1993C1747.89 97.3993 1742.89 95.9993 1737.89 94.8993C1717.49 90.4993 1696.29 90.4993 1675.39 92.1993C1654.49 94.0993 1633.69 97.8993 1613.29 102.899C1592.89 107.899 1572.69 114.099 1552.89 121.199C1513.29 135.399 1474.79 152.899 1437.59 172.499C1400.49 192.499 1364.49 214.399 1329.69 237.999Z" fill="url(#paint6_linear)"/>
<path d="M1232.99 263.299C1291.99 216.799 1353.49 172.599 1417.69 131.299C1481.79 89.999 1548.39 51.299 1617.99 17.299C1652.79 0.299026 1688.29 -15.701 1724.59 -30.001C1760.89 -44.301 1798.19 -56.901 1836.29 -66.601C1874.39 -76.101 1913.59 -83.001 1952.79 -83.001C1962.59 -83.001 1972.29 -82.501 1981.89 -81.301C1991.49 -80.201 2000.99 -78.501 2010.09 -76.001C2028.29 -71.001 2045.19 -62.801 2058.39 -51.301C2071.49 -39.801 2080.59 -25.201 2085.69 -9.60098C2088.29 -1.80097 2089.79 6.19903 2090.69 14.299C2091.59 22.399 2091.79 30.599 2091.29 38.799C2089.39 71.699 2079.19 104.299 2065.89 135.899C2052.39 167.499 2035.39 198.099 2016.59 227.899C1997.69 257.699 1976.89 286.799 1954.59 315.099C1865.09 428.199 1756.09 530.699 1637.99 624.099C1578.69 670.699 1516.69 714.899 1452.09 756.199C1435.99 766.499 1419.69 776.699 1403.09 786.599C1386.59 796.499 1369.89 806.199 1353.09 815.699C1319.39 834.699 1284.99 852.699 1249.89 869.599C1214.79 886.499 1178.89 902.099 1142.19 916.099C1105.49 929.999 1067.89 942.299 1029.39 951.599C990.994 960.699 951.494 967.299 912.094 966.799C902.294 966.699 892.494 965.999 882.894 964.799C873.294 963.599 863.794 961.799 854.694 959.099C836.494 953.899 819.694 945.399 806.694 933.699C793.794 921.999 784.994 907.299 780.194 891.799C777.694 883.999 776.394 875.999 775.594 867.899C774.894 859.799 774.794 851.599 775.394 843.499C777.794 810.799 788.494 778.399 802.194 747.199C816.194 715.899 833.494 685.599 852.794 656.099C872.094 626.599 893.294 597.899 915.794 569.899C960.694 513.799 1010.99 460.599 1064.19 409.599C1117.39 358.499 1173.89 309.699 1232.99 263.299ZM1232.99 263.299C1174.09 309.899 1117.69 358.699 1064.69 409.899C1011.79 461.099 962.294 514.699 917.894 570.899C895.694 598.999 875.094 627.899 856.294 657.399C837.594 686.999 820.894 717.299 807.594 748.299C794.494 779.299 784.594 811.299 782.794 843.099C782.294 850.999 782.494 858.899 783.394 866.699C784.194 874.399 785.694 882.099 788.194 889.399C792.994 904.099 801.494 917.599 813.594 928.299C825.794 938.999 841.494 946.599 858.694 951.299C867.294 953.699 876.294 955.299 885.394 956.299C894.594 957.399 903.894 957.899 913.294 957.899C951.094 957.899 989.494 951.199 1026.99 941.799C1064.49 932.199 1101.29 919.799 1137.29 905.599C1173.29 891.399 1208.49 875.599 1243.09 858.699C1312.29 824.799 1378.49 786.299 1442.29 745.299C1506.19 704.199 1567.39 660.199 1626.19 613.899C1684.99 567.699 1741.29 519.199 1794.29 468.399C1847.19 417.599 1897.19 364.599 1941.89 308.899C1964.19 281.099 1985.29 252.599 2004.39 223.399C2023.49 194.199 2040.59 164.199 2054.39 133.399C2067.89 102.699 2078.39 70.999 2080.69 39.399C2081.29 31.499 2081.29 23.699 2080.59 15.999C2079.89 8.29902 2078.59 0.599027 2076.29 -6.70097C2071.79 -21.401 2063.59 -34.901 2051.69 -45.801C2039.69 -56.601 2024.09 -64.501 2006.99 -69.501C1998.39 -72.001 1989.39 -73.701 1980.19 -74.901C1970.99 -76.101 1961.59 -76.701 1952.19 -76.801C1914.19 -77.301 1875.49 -70.901 1837.69 -61.901C1799.79 -52.701 1762.69 -40.601 1726.29 -26.801C1689.89 -13.001 1654.19 2.49903 1619.39 19.299C1549.69 52.899 1482.69 90.899 1418.39 131.999C1353.79 172.899 1292.09 216.999 1232.99 263.299Z" fill="url(#paint7_linear)"/>
</g>
<path d="M902.085 217.572C726.263 354.002 680.273 493.038 467.502 515.887C390.881 524.115 398.472 406.245 304.991 372.499C219.488 341.634 3.30977 389.486 -16.01 462.459L-16.0099 483.499C-17.9014 476.296 -17.8128 469.268 -16.01 462.459L-16.0099 -10.0007L2575.99 -3.00194L2575.99 231.999C2475.5 305.82 2148.59 513.245 2079.31 247.998C2053.76 150.164 1987.55 109.06 1744.99 277.377C1450.49 496.452 1083.1 77.1129 902.085 217.572Z" fill="white"/>
<path d="M1715.01 342.338L1724.18 343.211C1724.7 343.265 1725.13 343.566 1725.34 344.003L1729.79 352.27C1730.42 353.39 1731.96 353.315 1732.45 352.13L1736.19 343.453C1736.4 343.006 1736.79 342.641 1737.27 342.531L1746.3 340.717C1747.5 340.479 1747.92 338.893 1747.04 338.056L1740.16 331.796C1739.78 331.468 1739.58 330.958 1739.65 330.476L1740.75 321.1C1740.88 319.824 1739.59 318.923 1738.53 319.581L1730.56 324.391C1730.12 324.665 1729.62 324.656 1729.13 324.456L1720.87 320.503C1719.73 319.948 1718.48 320.979 1718.77 322.245L1720.76 331.472C1720.88 331.964 1720.72 332.501 1720.38 332.839L1714.09 339.761C1713.19 340.691 1713.78 342.221 1715.01 342.338Z" fill="url(#paint8_linear)"/>
<path d="M1039.19 241.127L1046.11 241.786C1046.5 241.827 1046.83 242.053 1046.98 242.383L1050.34 248.622C1050.82 249.467 1051.98 249.411 1052.35 248.517L1055.17 241.968C1055.33 241.631 1055.62 241.356 1055.99 241.273L1062.8 239.904C1063.71 239.724 1064.03 238.528 1063.36 237.896L1058.17 233.172C1057.88 232.925 1057.73 232.54 1057.78 232.175L1058.62 225.1C1058.71 224.137 1057.74 223.458 1056.94 223.954L1050.92 227.584C1050.59 227.79 1050.22 227.784 1049.85 227.633L1043.61 224.649C1042.75 224.231 1041.81 225.009 1042.03 225.964L1043.53 232.927C1043.62 233.298 1043.5 233.704 1043.24 233.959L1038.49 239.182C1037.82 239.884 1038.26 241.039 1039.19 241.127Z" fill="url(#paint9_linear)"/>
</g>
<defs>
<linearGradient id="paint0_linear" x1="1280" y1="22.999" x2="1280" y2="621.999" gradientUnits="userSpaceOnUse">
<stop stop-color="#EA4C89"/>
<stop offset="1" stop-color="#370D24"/>
</linearGradient>
<linearGradient id="paint1_linear" x1="1280" y1="220.499" x2="1280" y2="621.999" gradientUnits="userSpaceOnUse">
<stop stop-color="#231E33"/>
<stop offset="1" stop-color="#431C48"/>
</linearGradient>
<linearGradient id="paint2_linear" x1="857.3" y1="140.999" x2="857.3" y2="725.648" gradientUnits="userSpaceOnUse">
<stop offset="0.611311" stop-color="#231E33"/>
<stop offset="1" stop-color="#522359"/>
</linearGradient>
<linearGradient id="paint3_linear" x1="1403.76" y1="-22.8614" x2="1191.27" y2="1024.31" gradientUnits="userSpaceOnUse">
<stop offset="0.611311" stop-color="#231E33"/>
<stop offset="1" stop-color="#522359"/>
</linearGradient>
<linearGradient id="paint4_linear" x1="1387.44" y1="244.585" x2="1387.44" y2="393.381" gradientUnits="userSpaceOnUse">
<stop stop-color="#623997"/>
<stop offset="1" stop-color="#662A67"/>
</linearGradient>
<linearGradient id="paint5_linear" x1="1397.44" y1="164.899" x2="1397.44" y2="506.927" gradientUnits="userSpaceOnUse">
<stop stop-color="#623997"/>
<stop offset="1" stop-color="#662A67"/>
</linearGradient>
<linearGradient id="paint6_linear" x1="1425.34" y1="87.9111" x2="1425.34" y2="662.418" gradientUnits="userSpaceOnUse">
<stop stop-color="#623997"/>
<stop offset="1" stop-color="#662A67"/>
</linearGradient>
<linearGradient id="paint7_linear" x1="1433.28" y1="-83.001" x2="1433.28" y2="966.826" gradientUnits="userSpaceOnUse">
<stop stop-color="#623997"/>
<stop offset="1" stop-color="#662A67"/>
</linearGradient>
<linearGradient id="paint8_linear" x1="1738.34" y1="348.833" x2="1720.45" y2="319.952" gradientUnits="userSpaceOnUse">
<stop stop-color="#FBB40D"/>
<stop offset="1" stop-color="#FB710D"/>
</linearGradient>
<linearGradient id="paint9_linear" x1="1056.8" y1="246.028" x2="1043.3" y2="224.234" gradientUnits="userSpaceOnUse">
<stop stop-color="#FBB40D"/>
<stop offset="1" stop-color="#FB710D"/>
</linearGradient>
</defs>
</svg>
