<svg width="1131" height="755" viewBox="0 0 1131 755" fill="none" xmlns="http://www.w3.org/2000/svg">
<mask id="mask0" mask-type="alpha" maskUnits="userSpaceOnUse" x="-46" y="0" width="1177" height="755">
<path d="M610.227 274.806C590.356 215.2 599.578 202.401 537.622 164C475.666 125.599 452.505 203.453 373 66C293.495 -71.4532 65.2098 29.6226 -46 164V676C63.1526 838.5 405.701 703.243 444 676C482.299 648.758 500.754 649.408 547.175 676C737.166 784.833 966.874 729.782 1101 537.5C1195.54 401.964 1041.33 406.579 933 407C879.776 407.207 635.065 349.313 610.227 274.806Z" fill="url(#paint0_linear)"/>
</mask>
<g mask="url(#mask0)">
<path d="M610.227 274.806C590.356 215.2 599.578 202.4 537.622 164C475.666 125.599 452.505 203.453 373 66C293.495 -71.4532 65.2098 29.6225 -46 164V676C63.1526 838.5 405.701 703.242 444 676C482.299 648.758 500.754 649.408 547.175 676C737.166 784.833 966.874 729.782 1101 537.5C1195.54 401.964 1041.33 406.579 933 407C879.776 407.207 635.065 349.313 610.227 274.806Z" fill="url(#paint1_linear)"/>
<path opacity="0.3" d="M561.838 576.312C509.677 585.029 472.357 610.497 460.217 622.141L448 699.904L873.777 766.797L887.241 681.099C895.968 625.554 889.903 488.003 819.037 431.336C748.171 374.67 707.763 434.994 685.393 473.76C663.023 512.526 627.039 565.415 561.838 576.312Z" fill="url(#paint2_linear)"/>
<g opacity="0.3">
<path d="M884.194 420.4C885.685 420.4 886.894 419.191 886.894 417.7C886.894 416.209 885.685 415 884.194 415C882.703 415 881.494 416.209 881.494 417.7C881.494 419.191 882.703 420.4 884.194 420.4Z" fill="#8118B4"/>
<path d="M823.994 449.5C824.491 449.5 824.894 449.097 824.894 448.6C824.894 448.103 824.491 447.7 823.994 447.7C823.497 447.7 823.094 448.103 823.094 448.6C823.094 449.097 823.497 449.5 823.994 449.5Z" fill="#FF73A7"/>
<path d="M801.994 466C803.043 466 803.894 465.149 803.894 464.1C803.894 463.051 803.043 462.2 801.994 462.2C800.944 462.2 800.094 463.051 800.094 464.1C800.094 465.149 800.944 466 801.994 466Z" fill="#FFA600"/>
<path d="M737.994 435.5C738.877 435.5 739.594 434.784 739.594 433.9C739.594 433.016 738.877 432.3 737.994 432.3C737.11 432.3 736.394 433.016 736.394 433.9C736.394 434.784 737.11 435.5 737.994 435.5Z" fill="#FF73A7"/>
<path d="M791.093 296C792.143 296 792.993 295.149 792.993 294.1C792.993 293.051 792.143 292.2 791.093 292.2C790.044 292.2 789.193 293.051 789.193 294.1C789.193 295.149 790.044 296 791.093 296Z" fill="#B8E4FA"/>
<path d="M833.994 340.5C835.043 340.5 835.894 339.649 835.894 338.6C835.894 337.551 835.043 336.7 833.994 336.7C832.944 336.7 832.094 337.551 832.094 338.6C832.094 339.649 832.944 340.5 833.994 340.5Z" fill="#B8E4FA"/>
<path d="M855.994 393.4C857.043 393.4 857.894 392.549 857.894 391.5C857.894 390.451 857.043 389.6 855.994 389.6C854.944 389.6 854.094 390.451 854.094 391.5C854.094 392.549 854.944 393.4 855.994 393.4Z" fill="#FFA600"/>
<path d="M804.393 392.4C805.442 392.4 806.293 391.549 806.293 390.5C806.293 389.451 805.442 388.6 804.393 388.6C803.344 388.6 802.493 389.451 802.493 390.5C802.493 391.549 803.344 392.4 804.393 392.4Z" fill="#8118B4"/>
<path d="M807.593 407.2C808.643 407.2 809.493 406.349 809.493 405.3C809.493 404.251 808.643 403.4 807.593 403.4C806.544 403.4 805.693 404.251 805.693 405.3C805.693 406.349 806.544 407.2 807.593 407.2Z" fill="#8118B4"/>
<path d="M958.193 492.9C958.69 492.9 959.093 492.497 959.093 492C959.093 491.503 958.69 491.1 958.193 491.1C957.696 491.1 957.293 491.503 957.293 492C957.293 492.497 957.696 492.9 958.193 492.9Z" fill="#FF73A7"/>
<path d="M932.994 503.3C934.043 503.3 934.894 502.449 934.894 501.4C934.894 500.351 934.043 499.5 932.994 499.5C931.944 499.5 931.094 500.351 931.094 501.4C931.094 502.449 931.944 503.3 932.994 503.3Z" fill="#FFA600"/>
<path d="M878.793 457.4C879.677 457.4 880.393 456.684 880.393 455.8C880.393 454.916 879.677 454.2 878.793 454.2C877.91 454.2 877.193 454.916 877.193 455.8C877.193 456.684 877.91 457.4 878.793 457.4Z" fill="#FF73A7"/>
<path d="M1017.09 566.6C1018.47 566.6 1019.59 565.481 1019.59 564.1C1019.59 562.719 1018.47 561.6 1017.09 561.6C1015.71 561.6 1014.59 562.719 1014.59 564.1C1014.59 565.481 1015.71 566.6 1017.09 566.6Z" fill="#FFA600"/>
<path d="M992.593 588.6C993.643 588.6 994.493 587.749 994.493 586.7C994.493 585.651 993.643 584.8 992.593 584.8C991.544 584.8 990.693 585.651 990.693 586.7C990.693 587.749 991.544 588.6 992.593 588.6Z" fill="#B8E4FA"/>
<path d="M1104.19 540.5C1104.97 540.5 1105.59 539.873 1105.59 539.1C1105.59 538.327 1104.97 537.7 1104.19 537.7C1103.42 537.7 1102.79 538.327 1102.79 539.1C1102.79 539.873 1103.42 540.5 1104.19 540.5Z" fill="#B8E4FA"/>
<path d="M994.593 526.8C995.643 526.8 996.493 525.949 996.493 524.9C996.493 523.851 995.643 523 994.593 523C993.544 523 992.693 523.851 992.693 524.9C992.693 525.949 993.544 526.8 994.593 526.8Z" fill="#B8E4FA"/>
<path d="M1017.09 474.1C1018.14 474.1 1018.99 473.249 1018.99 472.2C1018.99 471.151 1018.14 470.3 1017.09 470.3C1016.04 470.3 1015.19 471.151 1015.19 472.2C1015.19 473.249 1016.04 474.1 1017.09 474.1Z" fill="#FFA600"/>
<path d="M1052.39 511.8C1053.44 511.8 1054.29 510.949 1054.29 509.9C1054.29 508.851 1053.44 508 1052.39 508C1051.34 508 1050.49 508.851 1050.49 509.9C1050.49 510.949 1051.34 511.8 1052.39 511.8Z" fill="#8118B4"/>
<path d="M924.594 396.5C925.974 396.5 927.094 395.381 927.094 394C927.094 392.619 925.974 391.5 924.594 391.5C923.213 391.5 922.094 392.619 922.094 394C922.094 395.381 923.213 396.5 924.594 396.5Z" fill="#FFA600"/>
<path d="M933.994 363.9C935.043 363.9 935.894 363.049 935.894 362C935.894 360.951 935.043 360.1 933.994 360.1C932.944 360.1 932.094 360.951 932.094 362C932.094 363.049 932.944 363.9 933.994 363.9Z" fill="#B8E4FA"/>
<path d="M991.794 425.8C993.561 425.8 994.994 424.367 994.994 422.6C994.994 420.833 993.561 419.4 991.794 419.4C990.026 419.4 988.594 420.833 988.594 422.6C988.594 424.367 990.026 425.8 991.794 425.8Z" fill="#FF73A7"/>
<path d="M964.093 417.9C965.143 417.9 965.993 417.049 965.993 416C965.993 414.951 965.143 414.1 964.093 414.1C963.044 414.1 962.193 414.951 962.193 416C962.193 417.049 963.044 417.9 964.093 417.9Z" fill="#B8E4FA"/>
<path d="M971.794 474.7C972.843 474.7 973.694 473.849 973.694 472.8C973.694 471.751 972.843 470.9 971.794 470.9C970.744 470.9 969.894 471.751 969.894 472.8C969.894 473.849 970.744 474.7 971.794 474.7Z" fill="#FFA600"/>
<path d="M922.093 460.5C923.143 460.5 923.993 459.649 923.993 458.6C923.993 457.551 923.143 456.7 922.093 456.7C921.044 456.7 920.193 457.551 920.193 458.6C920.193 459.649 921.044 460.5 922.093 460.5Z" fill="#8118B4"/>
<path d="M953.393 447.9C954.442 447.9 955.293 447.049 955.293 446C955.293 444.951 954.442 444.1 953.393 444.1C952.344 444.1 951.493 444.951 951.493 446C951.493 447.049 952.344 447.9 953.393 447.9Z" fill="#8118B4"/>
<path d="M1076.99 662.7C1077.88 662.7 1078.59 661.984 1078.59 661.1C1078.59 660.216 1077.88 659.5 1076.99 659.5C1076.11 659.5 1075.39 660.216 1075.39 661.1C1075.39 661.984 1076.11 662.7 1076.99 662.7Z" fill="#FF73A7"/>
<path d="M1053.09 587.7C1054.53 587.7 1055.69 586.536 1055.69 585.1C1055.69 583.664 1054.53 582.5 1053.09 582.5C1051.66 582.5 1050.49 583.664 1050.49 585.1C1050.49 586.536 1051.66 587.7 1053.09 587.7Z" fill="#FFA600"/>
<path d="M1032.09 559.6C1033.14 559.6 1033.99 558.749 1033.99 557.7C1033.99 556.651 1033.14 555.8 1032.09 555.8C1031.05 555.8 1030.19 556.651 1030.19 557.7C1030.19 558.749 1031.05 559.6 1032.09 559.6Z" fill="#B8E4FA"/>
<path d="M1059.49 642.9C1061.32 642.9 1062.79 641.423 1062.79 639.6C1062.79 637.777 1061.32 636.3 1059.49 636.3C1057.67 636.3 1056.19 637.777 1056.19 639.6C1056.19 641.423 1057.67 642.9 1059.49 642.9Z" fill="#FF73A7"/>
<path d="M1117.99 549.6C1119.82 549.6 1121.29 548.123 1121.29 546.3C1121.29 544.477 1119.82 543 1117.99 543C1116.17 543 1114.69 544.477 1114.69 546.3C1114.69 548.123 1116.17 549.6 1117.99 549.6Z" fill="#FF73A7"/>
<path d="M1095.59 567.4C1096.64 567.4 1097.49 566.549 1097.49 565.5C1097.49 564.451 1096.64 563.6 1095.59 563.6C1094.55 563.6 1093.69 564.451 1093.69 565.5C1093.69 566.549 1094.55 567.4 1095.59 567.4Z" fill="#B8E4FA"/>
<path d="M1105.69 628.4C1106.74 628.4 1107.59 627.549 1107.59 626.5C1107.59 625.451 1106.74 624.6 1105.69 624.6C1104.64 624.6 1103.79 625.451 1103.79 626.5C1103.79 627.549 1104.64 628.4 1105.69 628.4Z" fill="#8118B4"/>
<path d="M1114.19 594.5C1115.24 594.5 1116.09 593.649 1116.09 592.6C1116.09 591.551 1115.24 590.7 1114.19 590.7C1113.14 590.7 1112.29 591.551 1112.29 592.6C1112.29 593.649 1113.14 594.5 1114.19 594.5Z" fill="#8118B4"/>
<g opacity="0.29">
<path opacity="0.29" d="M618.494 449.9C620.151 449.9 621.494 448.557 621.494 446.9C621.494 445.243 620.151 443.9 618.494 443.9C616.837 443.9 615.494 445.243 615.494 446.9C615.494 448.557 616.837 449.9 618.494 449.9Z" fill="#8118B4"/>
<path opacity="0.29" d="M559.594 497.1C560.202 497.1 560.694 496.607 560.694 496C560.694 495.392 560.202 494.9 559.594 494.9C558.987 494.9 558.494 495.392 558.494 496C558.494 496.607 558.987 497.1 559.594 497.1Z" fill="#FF73A7"/>
<path opacity="0.29" d="M539.094 520.7C540.254 520.7 541.194 519.76 541.194 518.6C541.194 517.44 540.254 516.5 539.094 516.5C537.934 516.5 536.994 517.44 536.994 518.6C536.994 519.76 537.934 520.7 539.094 520.7Z" fill="#FFA600"/>
<path opacity="0.29" d="M460.794 502.9C461.788 502.9 462.594 502.094 462.594 501.1C462.594 500.106 461.788 499.3 460.794 499.3C459.8 499.3 458.994 500.106 458.994 501.1C458.994 502.094 459.8 502.9 460.794 502.9Z" fill="#FF73A7"/>
<g opacity="0.29">
<path opacity="0.29" d="M656.494 540.7C658.095 540.7 659.394 539.402 659.394 537.8C659.394 536.198 658.095 534.9 656.494 534.9C654.892 534.9 653.594 536.198 653.594 537.8C653.594 539.402 654.892 540.7 656.494 540.7Z" fill="#FFA600"/>
<path opacity="0.29" d="M643.694 575.4C644.854 575.4 645.794 574.46 645.794 573.3C645.794 572.14 644.854 571.2 643.694 571.2C642.534 571.2 641.594 572.14 641.594 573.3C641.594 574.46 642.534 575.4 643.694 575.4Z" fill="#B8E4FA"/>
<path opacity="0.29" d="M703.094 503.3C705.082 503.3 706.694 501.688 706.694 499.7C706.694 497.712 705.082 496.1 703.094 496.1C701.106 496.1 699.494 497.712 699.494 499.7C699.494 501.688 701.106 503.3 703.094 503.3Z" fill="#FF73A7"/>
<path opacity="0.29" d="M582.494 504.3C584.482 504.3 586.094 502.688 586.094 500.7C586.094 498.712 584.482 497.1 582.494 497.1C580.505 497.1 578.894 498.712 578.894 500.7C578.894 502.688 580.505 504.3 582.494 504.3Z" fill="#FF73A7"/>
<path opacity="0.29" d="M731.194 468.7C732.077 468.7 732.794 467.984 732.794 467.1C732.794 466.216 732.077 465.5 731.194 465.5C730.31 465.5 729.594 466.216 729.594 467.1C729.594 467.984 730.31 468.7 731.194 468.7Z" fill="#B8E4FA"/>
<path opacity="0.29" d="M613.394 512.2C614.554 512.2 615.494 511.26 615.494 510.1C615.494 508.94 614.554 508 613.394 508C612.234 508 611.294 508.94 611.294 510.1C611.294 511.26 612.234 512.2 613.394 512.2Z" fill="#B8E4FA"/>
<path opacity="0.29" d="M608.594 447.4C609.754 447.4 610.694 446.46 610.694 445.3C610.694 444.14 609.754 443.2 608.594 443.2C607.434 443.2 606.494 444.14 606.494 445.3C606.494 446.46 607.434 447.4 608.594 447.4Z" fill="#FFA600"/>
<path opacity="0.29" d="M663.793 466.9C664.953 466.9 665.893 465.96 665.893 464.8C665.893 463.64 664.953 462.7 663.793 462.7C662.634 462.7 661.693 463.64 661.693 464.8C661.693 465.96 662.634 466.9 663.793 466.9Z" fill="#8118B4"/>
</g>
<g opacity="0.29">
<path opacity="0.29" d="M474.593 417.8C476.195 417.8 477.493 416.502 477.493 414.9C477.493 413.298 476.195 412 474.593 412C472.992 412 471.693 413.298 471.693 414.9C471.693 416.502 472.992 417.8 474.593 417.8Z" fill="#FFA600"/>
<path opacity="0.29" d="M467.293 380C468.453 380 469.393 379.06 469.393 377.9C469.393 376.74 468.453 375.8 467.293 375.8C466.134 375.8 465.193 376.74 465.193 377.9C465.193 379.06 466.134 380 467.293 380Z" fill="#B8E4FA"/>
<path opacity="0.29" d="M454.194 475.1C456.182 475.1 457.794 473.488 457.794 471.5C457.794 469.512 456.182 467.9 454.194 467.9C452.206 467.9 450.594 469.512 450.594 471.5C450.594 473.488 452.206 475.1 454.194 475.1Z" fill="#FF73A7"/>
<path opacity="0.29" d="M557.094 412.2C559.082 412.2 560.694 410.588 560.694 408.6C560.694 406.612 559.082 405 557.094 405C555.106 405 553.494 406.612 553.494 408.6C553.494 410.588 555.106 412.2 557.094 412.2Z" fill="#FF73A7"/>
<path opacity="0.29" d="M525.793 418.6C526.953 418.6 527.893 417.66 527.893 416.5C527.893 415.34 526.953 414.4 525.793 414.4C524.634 414.4 523.693 415.34 523.693 416.5C523.693 417.66 524.634 418.6 525.793 418.6Z" fill="#B8E4FA"/>
<path opacity="0.29" d="M563.194 471.7C564.354 471.7 565.294 470.76 565.294 469.6C565.294 468.44 564.354 467.5 563.194 467.5C562.034 467.5 561.094 468.44 561.094 469.6C561.094 470.76 562.034 471.7 563.194 471.7Z" fill="#FFA600"/>
<path opacity="0.29" d="M505.894 483.4C507.054 483.4 507.994 482.46 507.994 481.3C507.994 480.14 507.054 479.2 505.894 479.2C504.734 479.2 503.794 480.14 503.794 481.3C503.794 482.46 504.734 483.4 505.894 483.4Z" fill="#8118B4"/>
</g>
<path opacity="0.29" d="M530.694 454.3C531.854 454.3 532.794 453.36 532.794 452.2C532.794 451.04 531.854 450.1 530.694 450.1C529.534 450.1 528.594 451.04 528.594 452.2C528.594 453.36 529.534 454.3 530.694 454.3Z" fill="#8118B4"/>
</g>
<path d="M733.594 338.2C735.251 338.2 736.594 336.857 736.594 335.2C736.594 333.543 735.251 332.2 733.594 332.2C731.937 332.2 730.594 333.543 730.594 335.2C730.594 336.857 731.937 338.2 733.594 338.2Z" fill="#8118B4"/>
<path d="M674.594 385.4C675.202 385.4 675.694 384.907 675.694 384.3C675.694 383.692 675.202 383.2 674.594 383.2C673.987 383.2 673.494 383.692 673.494 384.3C673.494 384.907 673.987 385.4 674.594 385.4Z" fill="#FF73A7"/>
<path d="M654.094 409C655.254 409 656.194 408.06 656.194 406.9C656.194 405.74 655.254 404.8 654.094 404.8C652.934 404.8 651.994 405.74 651.994 406.9C651.994 408.06 652.934 409 654.094 409Z" fill="#FFA600"/>
<path d="M575.794 391.2C576.788 391.2 577.594 390.394 577.594 389.4C577.594 388.406 576.788 387.6 575.794 387.6C574.8 387.6 573.994 388.406 573.994 389.4C573.994 390.394 574.8 391.2 575.794 391.2Z" fill="#FF73A7"/>
<path d="M775.094 431.9C776.696 431.9 777.994 430.602 777.994 429C777.994 427.398 776.696 426.1 775.094 426.1C773.493 426.1 772.194 427.398 772.194 429C772.194 430.602 773.493 431.9 775.094 431.9Z" fill="#FFA600"/>
<path d="M762.294 466.6C763.454 466.6 764.394 465.66 764.394 464.5C764.394 463.34 763.454 462.4 762.294 462.4C761.135 462.4 760.194 463.34 760.194 464.5C760.194 465.66 761.135 466.6 762.294 466.6Z" fill="#B8E4FA"/>
<path d="M821.694 394.5C823.682 394.5 825.294 392.888 825.294 390.9C825.294 388.912 823.682 387.3 821.694 387.3C819.706 387.3 818.094 388.912 818.094 390.9C818.094 392.888 819.706 394.5 821.694 394.5Z" fill="#FF73A7"/>
<path d="M701.094 395.6C703.082 395.6 704.694 393.988 704.694 392C704.694 390.012 703.082 388.4 701.094 388.4C699.106 388.4 697.494 390.012 697.494 392C697.494 393.988 699.106 395.6 701.094 395.6Z" fill="#FF73A7"/>
<path d="M849.794 359.9C850.678 359.9 851.394 359.184 851.394 358.3C851.394 357.416 850.678 356.7 849.794 356.7C848.911 356.7 848.194 357.416 848.194 358.3C848.194 359.184 848.911 359.9 849.794 359.9Z" fill="#B8E4FA"/>
<path d="M731.995 403.4C733.154 403.4 734.095 402.46 734.095 401.3C734.095 400.14 733.154 399.2 731.995 399.2C730.835 399.2 729.895 400.14 729.895 401.3C729.895 402.46 730.835 403.4 731.995 403.4Z" fill="#B8E4FA"/>
<path d="M727.194 338.6C728.354 338.6 729.294 337.66 729.294 336.5C729.294 335.34 728.354 334.4 727.194 334.4C726.034 334.4 725.094 335.34 725.094 336.5C725.094 337.66 726.034 338.6 727.194 338.6Z" fill="#FFA600"/>
<path d="M782.394 358.1C783.554 358.1 784.494 357.16 784.494 356C784.494 354.84 783.554 353.9 782.394 353.9C781.234 353.9 780.294 354.84 780.294 356C780.294 357.16 781.234 358.1 782.394 358.1Z" fill="#8118B4"/>
<path d="M589.593 306.1C591.195 306.1 592.493 304.802 592.493 303.2C592.493 301.598 591.195 300.3 589.593 300.3C587.992 300.3 586.693 301.598 586.693 303.2C586.693 304.802 587.992 306.1 589.593 306.1Z" fill="#FFA600"/>
<path d="M582.293 268.3C583.453 268.3 584.393 267.36 584.393 266.2C584.393 265.04 583.453 264.1 582.293 264.1C581.134 264.1 580.193 265.04 580.193 266.2C580.193 267.36 581.134 268.3 582.293 268.3Z" fill="#B8E4FA"/>
<path d="M569.194 363.4C571.182 363.4 572.794 361.788 572.794 359.8C572.794 357.812 571.182 356.2 569.194 356.2C567.206 356.2 565.594 357.812 565.594 359.8C565.594 361.788 567.206 363.4 569.194 363.4Z" fill="#FF73A7"/>
<path d="M672.094 300.5C674.082 300.5 675.694 298.888 675.694 296.9C675.694 294.912 674.082 293.3 672.094 293.3C670.106 293.3 668.494 294.912 668.494 296.9C668.494 298.888 670.106 300.5 672.094 300.5Z" fill="#FF73A7"/>
<path d="M640.793 306.9C641.953 306.9 642.893 305.96 642.893 304.8C642.893 303.64 641.953 302.7 640.793 302.7C639.634 302.7 638.693 303.64 638.693 304.8C638.693 305.96 639.634 306.9 640.793 306.9Z" fill="#B8E4FA"/>
<path d="M678.293 360C679.453 360 680.393 359.06 680.393 357.9C680.393 356.74 679.453 355.8 678.293 355.8C677.134 355.8 676.193 356.74 676.193 357.9C676.193 359.06 677.134 360 678.293 360Z" fill="#FFA600"/>
<path d="M620.894 371.7C622.054 371.7 622.994 370.76 622.994 369.6C622.994 368.44 622.054 367.5 620.894 367.5C619.734 367.5 618.794 368.44 618.794 369.6C618.794 370.76 619.734 371.7 620.894 371.7Z" fill="#8118B4"/>
<path d="M645.694 342.6C646.854 342.6 647.794 341.66 647.794 340.5C647.794 339.34 646.854 338.4 645.694 338.4C644.534 338.4 643.594 339.34 643.594 340.5C643.594 341.66 644.534 342.6 645.694 342.6Z" fill="#8118B4"/>
<path d="M877.294 500.1C878.84 500.1 880.094 498.846 880.094 497.3C880.094 495.754 878.84 494.5 877.294 494.5C875.748 494.5 874.494 495.754 874.494 497.3C874.494 498.846 875.748 500.1 877.294 500.1Z" fill="#8118B4"/>
<path d="M823.494 543.1C824.046 543.1 824.494 542.652 824.494 542.1C824.494 541.548 824.046 541.1 823.494 541.1C822.942 541.1 822.494 541.548 822.494 542.1C822.494 542.652 822.942 543.1 823.494 543.1Z" fill="#FF73A7"/>
<path d="M804.795 564.6C805.844 564.6 806.695 563.749 806.695 562.7C806.695 561.651 805.844 560.8 804.795 560.8C803.745 560.8 802.895 561.651 802.895 562.7C802.895 563.749 803.745 564.6 804.795 564.6Z" fill="#FFA600"/>
<path d="M733.294 548.3C734.178 548.3 734.894 547.584 734.894 546.7C734.894 545.816 734.178 545.1 733.294 545.1C732.411 545.1 731.694 545.816 731.694 546.7C731.694 547.584 732.411 548.3 733.294 548.3Z" fill="#FF73A7"/>
<path d="M911.994 582.8C913.43 582.8 914.594 581.636 914.594 580.2C914.594 578.764 913.43 577.6 911.994 577.6C910.558 577.6 909.394 578.764 909.394 580.2C909.394 581.636 910.558 582.8 911.994 582.8Z" fill="#FFA600"/>
<path d="M900.294 614.6C901.343 614.6 902.194 613.749 902.194 612.7C902.194 611.651 901.343 610.8 900.294 610.8C899.244 610.8 898.394 611.651 898.394 612.7C898.394 613.749 899.244 614.6 900.294 614.6Z" fill="#B8E4FA"/>
<path d="M954.493 548.8C956.316 548.8 957.793 547.322 957.793 545.5C957.793 543.677 956.316 542.2 954.493 542.2C952.671 542.2 951.193 543.677 951.193 545.5C951.193 547.322 952.671 548.8 954.493 548.8Z" fill="#FF73A7"/>
<path d="M844.394 549.7C846.216 549.7 847.694 548.223 847.694 546.4C847.694 544.577 846.216 543.1 844.394 543.1C842.571 543.1 841.094 544.577 841.094 546.4C841.094 548.223 842.571 549.7 844.394 549.7Z" fill="#FF73A7"/>
<path d="M980.193 517.2C981.022 517.2 981.693 516.528 981.693 515.7C981.693 514.872 981.022 514.2 980.193 514.2C979.365 514.2 978.693 514.872 978.693 515.7C978.693 516.528 979.365 517.2 980.193 517.2Z" fill="#B8E4FA"/>
<path d="M872.593 556.9C873.643 556.9 874.493 556.049 874.493 555C874.493 553.951 873.643 553.1 872.593 553.1C871.544 553.1 870.693 553.951 870.693 555C870.693 556.049 871.544 556.9 872.593 556.9Z" fill="#B8E4FA"/>
<path d="M868.194 497.7C869.243 497.7 870.094 496.849 870.094 495.8C870.094 494.751 869.243 493.9 868.194 493.9C867.145 493.9 866.294 494.751 866.294 495.8C866.294 496.849 867.145 497.7 868.194 497.7Z" fill="#FFA600"/>
<path d="M918.593 515.5C919.643 515.5 920.493 514.649 920.493 513.6C920.493 512.551 919.643 511.7 918.593 511.7C917.544 511.7 916.693 512.551 916.693 513.6C916.693 514.649 917.544 515.5 918.593 515.5Z" fill="#8118B4"/>
<path d="M745.894 470.7C747.33 470.7 748.494 469.536 748.494 468.1C748.494 466.664 747.33 465.5 745.894 465.5C744.458 465.5 743.294 466.664 743.294 468.1C743.294 469.536 744.458 470.7 745.894 470.7Z" fill="#FFA600"/>
<path d="M739.194 436.1C740.243 436.1 741.094 435.249 741.094 434.2C741.094 433.151 740.243 432.3 739.194 432.3C738.145 432.3 737.294 433.151 737.294 434.2C737.294 435.249 738.145 436.1 739.194 436.1Z" fill="#B8E4FA"/>
<path d="M727.294 523C729.117 523 730.594 521.522 730.594 519.7C730.594 517.877 729.117 516.4 727.294 516.4C725.472 516.4 723.994 517.877 723.994 519.7C723.994 521.522 725.472 523 727.294 523Z" fill="#FF73A7"/>
<path d="M821.195 465.6C823.017 465.6 824.495 464.122 824.495 462.3C824.495 460.477 823.017 459 821.195 459C819.372 459 817.895 460.477 817.895 462.3C817.895 464.122 819.372 465.6 821.195 465.6Z" fill="#FF73A7"/>
<path d="M792.694 471.4C793.743 471.4 794.594 470.549 794.594 469.5C794.594 468.451 793.743 467.6 792.694 467.6C791.645 467.6 790.794 468.451 790.794 469.5C790.794 470.549 791.645 471.4 792.694 471.4Z" fill="#B8E4FA"/>
<path d="M826.795 519.9C827.844 519.9 828.695 519.049 828.695 518C828.695 516.951 827.844 516.1 826.795 516.1C825.745 516.1 824.895 516.951 824.895 518C824.895 519.049 825.745 519.9 826.795 519.9Z" fill="#FFA600"/>
<path d="M774.494 530.6C775.543 530.6 776.394 529.749 776.394 528.7C776.394 527.651 775.543 526.8 774.494 526.8C773.444 526.8 772.594 527.651 772.594 528.7C772.594 529.749 773.444 530.6 774.494 530.6Z" fill="#8118B4"/>
<path d="M797.094 504C798.144 504 798.994 503.149 798.994 502.1C798.994 501.051 798.144 500.2 797.094 500.2C796.045 500.2 795.194 501.051 795.194 502.1C795.194 503.149 796.045 504 797.094 504Z" fill="#8118B4"/>
<path d="M176.6 503.3C178.092 503.3 179.3 502.091 179.3 500.6C179.3 499.109 178.092 497.9 176.6 497.9C175.109 497.9 173.9 499.109 173.9 500.6C173.9 502.091 175.109 503.3 176.6 503.3Z" fill="#8118B4"/>
<path d="M116.4 532.4C116.897 532.4 117.3 531.997 117.3 531.5C117.3 531.003 116.897 530.6 116.4 530.6C115.903 530.6 115.5 531.003 115.5 531.5C115.5 531.997 115.903 532.4 116.4 532.4Z" fill="#FF73A7"/>
<path d="M94.4 548.9C95.4494 548.9 96.2999 548.049 96.2999 547C96.2999 545.951 95.4494 545.1 94.4 545.1C93.3507 545.1 92.5 545.951 92.5 547C92.5 548.049 93.3507 548.9 94.4 548.9Z" fill="#FFA600"/>
<path d="M30.3999 518.4C31.2836 518.4 31.9999 517.684 31.9999 516.8C31.9999 515.916 31.2836 515.2 30.3999 515.2C29.5162 515.2 28.7998 515.916 28.7998 516.8C28.7998 517.684 29.5162 518.4 30.3999 518.4Z" fill="#FF73A7"/>
<path d="M83.4996 378.9C84.549 378.9 85.3997 378.049 85.3997 377C85.3997 375.951 84.549 375.1 83.4996 375.1C82.4503 375.1 81.5996 375.951 81.5996 377C81.5996 378.049 82.4503 378.9 83.4996 378.9Z" fill="#B8E4FA"/>
<path d="M126.4 423.4C127.449 423.4 128.3 422.549 128.3 421.5C128.3 420.451 127.449 419.6 126.4 419.6C125.351 419.6 124.5 420.451 124.5 421.5C124.5 422.549 125.351 423.4 126.4 423.4Z" fill="#B8E4FA"/>
<path d="M148.4 476.3C149.449 476.3 150.3 475.449 150.3 474.4C150.3 473.351 149.449 472.5 148.4 472.5C147.351 472.5 146.5 473.351 146.5 474.4C146.5 475.449 147.351 476.3 148.4 476.3Z" fill="#FFA600"/>
<path d="M96.7993 475.3C97.8487 475.3 98.6993 474.449 98.6993 473.4C98.6993 472.351 97.8487 471.5 96.7993 471.5C95.75 471.5 94.8994 472.351 94.8994 473.4C94.8994 474.449 95.75 475.3 96.7993 475.3Z" fill="#8118B4"/>
<path d="M99.9996 490.1C101.049 490.1 101.9 489.249 101.9 488.2C101.9 487.151 101.049 486.3 99.9996 486.3C98.9503 486.3 98.0996 487.151 98.0996 488.2C98.0996 489.249 98.9503 490.1 99.9996 490.1Z" fill="#8118B4"/>
<path d="M250.599 575.8C251.096 575.8 251.499 575.397 251.499 574.9C251.499 574.403 251.096 574 250.599 574C250.102 574 249.699 574.403 249.699 574.9C249.699 575.397 250.102 575.8 250.599 575.8Z" fill="#FF73A7"/>
<path d="M225.4 586.2C226.449 586.2 227.3 585.349 227.3 584.3C227.3 583.251 226.449 582.4 225.4 582.4C224.351 582.4 223.5 583.251 223.5 584.3C223.5 585.349 224.351 586.2 225.4 586.2Z" fill="#FFA600"/>
<path d="M171.2 540.3C172.083 540.3 172.8 539.584 172.8 538.7C172.8 537.816 172.083 537.1 171.2 537.1C170.316 537.1 169.6 537.816 169.6 538.7C169.6 539.584 170.316 540.3 171.2 540.3Z" fill="#FF73A7"/>
<path d="M309.5 649.5C310.881 649.5 312 648.381 312 647C312 645.619 310.881 644.5 309.5 644.5C308.119 644.5 307 645.619 307 647C307 648.381 308.119 649.5 309.5 649.5Z" fill="#FFA600"/>
<path d="M285 671.5C286.049 671.5 286.9 670.649 286.9 669.6C286.9 668.551 286.049 667.7 285 667.7C283.95 667.7 283.1 668.551 283.1 669.6C283.1 670.649 283.95 671.5 285 671.5Z" fill="#B8E4FA"/>
<path d="M396.599 623.4C397.372 623.4 397.999 622.773 397.999 622C397.999 621.227 397.372 620.6 396.599 620.6C395.826 620.6 395.199 621.227 395.199 622C395.199 622.773 395.826 623.4 396.599 623.4Z" fill="#B8E4FA"/>
<path d="M287 609.7C288.049 609.7 288.9 608.849 288.9 607.8C288.9 606.751 288.049 605.9 287 605.9C285.95 605.9 285.1 606.751 285.1 607.8C285.1 608.849 285.95 609.7 287 609.7Z" fill="#B8E4FA"/>
<path d="M309.5 557C310.549 557 311.4 556.149 311.4 555.1C311.4 554.051 310.549 553.2 309.5 553.2C308.45 553.2 307.6 554.051 307.6 555.1C307.6 556.149 308.45 557 309.5 557Z" fill="#FFA600"/>
<path d="M344.799 594.7C345.849 594.7 346.699 593.849 346.699 592.8C346.699 591.751 345.849 590.9 344.799 590.9C343.75 590.9 342.899 591.751 342.899 592.8C342.899 593.849 343.75 594.7 344.799 594.7Z" fill="#8118B4"/>
<path d="M217 479.4C218.381 479.4 219.5 478.281 219.5 476.9C219.5 475.519 218.381 474.4 217 474.4C215.619 474.4 214.5 475.519 214.5 476.9C214.5 478.281 215.619 479.4 217 479.4Z" fill="#FFA600"/>
<path d="M226.4 446.8C227.449 446.8 228.3 445.949 228.3 444.9C228.3 443.851 227.449 443 226.4 443C225.351 443 224.5 443.851 224.5 444.9C224.5 445.949 225.351 446.8 226.4 446.8Z" fill="#B8E4FA"/>
<path d="M284.2 508.7C285.967 508.7 287.4 507.267 287.4 505.5C287.4 503.733 285.967 502.3 284.2 502.3C282.433 502.3 281 503.733 281 505.5C281 507.267 282.433 508.7 284.2 508.7Z" fill="#FF73A7"/>
<path d="M256.5 500.8C257.549 500.8 258.4 499.949 258.4 498.9C258.4 497.851 257.549 497 256.5 497C255.45 497 254.6 497.851 254.6 498.9C254.6 499.949 255.45 500.8 256.5 500.8Z" fill="#B8E4FA"/>
<path d="M264.2 557.6C265.249 557.6 266.1 556.749 266.1 555.7C266.1 554.651 265.249 553.8 264.2 553.8C263.15 553.8 262.3 554.651 262.3 555.7C262.3 556.749 263.15 557.6 264.2 557.6Z" fill="#FFA600"/>
<path d="M214.5 543.4C215.549 543.4 216.4 542.549 216.4 541.5C216.4 540.451 215.549 539.6 214.5 539.6C213.45 539.6 212.6 540.451 212.6 541.5C212.6 542.549 213.45 543.4 214.5 543.4Z" fill="#8118B4"/>
<path d="M245.799 530.8C246.849 530.8 247.699 529.949 247.699 528.9C247.699 527.851 246.849 527 245.799 527C244.75 527 243.899 527.851 243.899 528.9C243.899 529.949 244.75 530.8 245.799 530.8Z" fill="#8118B4"/>
<path d="M476.2 638.2C477.747 638.2 479 636.946 479 635.4C479 633.854 477.747 632.6 476.2 632.6C474.654 632.6 473.4 633.854 473.4 635.4C473.4 636.946 474.654 638.2 476.2 638.2Z" fill="#8118B4"/>
<path d="M448.101 700.6C448.653 700.6 449.101 700.152 449.101 699.6C449.101 699.048 448.653 698.6 448.101 698.6C447.548 698.6 447.101 699.048 447.101 699.6C447.101 700.152 447.548 700.6 448.101 700.6Z" fill="#FF73A7"/>
<path d="M440.501 728.3C441.55 728.3 442.401 727.449 442.401 726.4C442.401 725.351 441.55 724.5 440.501 724.5C439.451 724.5 438.601 725.351 438.601 726.4C438.601 727.449 439.451 728.3 440.501 728.3Z" fill="#FFA600"/>
<path d="M369.401 745.6C370.285 745.6 371.001 744.884 371.001 744C371.001 743.116 370.285 742.4 369.401 742.4C368.517 742.4 367.801 743.116 367.801 744C367.801 744.884 368.517 745.6 369.401 745.6Z" fill="#FF73A7"/>
<path d="M345.5 670.6C346.936 670.6 348.1 669.436 348.1 668C348.1 666.564 346.936 665.4 345.5 665.4C344.064 665.4 342.9 666.564 342.9 668C342.9 669.436 344.064 670.6 345.5 670.6Z" fill="#FFA600"/>
<path d="M324.501 642.5C325.55 642.5 326.401 641.649 326.401 640.6C326.401 639.551 325.55 638.7 324.501 638.7C323.451 638.7 322.601 639.551 322.601 640.6C322.601 641.649 323.451 642.5 324.501 642.5Z" fill="#B8E4FA"/>
<path d="M351.901 725.8C353.723 725.8 355.201 724.323 355.201 722.5C355.201 720.677 353.723 719.2 351.901 719.2C350.078 719.2 348.601 720.677 348.601 722.5C348.601 724.323 350.078 725.8 351.901 725.8Z" fill="#FF73A7"/>
<path d="M410.401 632.5C412.223 632.5 413.701 631.023 413.701 629.2C413.701 627.377 412.223 625.9 410.401 625.9C408.578 625.9 407.101 627.377 407.101 629.2C407.101 631.023 408.578 632.5 410.401 632.5Z" fill="#FF73A7"/>
<path d="M388.001 650.3C389.05 650.3 389.901 649.449 389.901 648.4C389.901 647.351 389.05 646.5 388.001 646.5C386.951 646.5 386.101 647.351 386.101 648.4C386.101 649.449 386.951 650.3 388.001 650.3Z" fill="#B8E4FA"/>
<path d="M440.201 678.4C441.25 678.4 442.101 677.549 442.101 676.5C442.101 675.451 441.25 674.6 440.201 674.6C439.151 674.6 438.301 675.451 438.301 676.5C438.301 677.549 439.151 678.4 440.201 678.4Z" fill="#FFA600"/>
<path d="M398.1 711.3C399.15 711.3 400 710.449 400 709.4C400 708.351 399.15 707.5 398.1 707.5C397.051 707.5 396.2 708.351 396.2 709.4C396.2 710.449 397.051 711.3 398.1 711.3Z" fill="#8118B4"/>
<path d="M406.6 677.4C407.65 677.4 408.5 676.549 408.5 675.5C408.5 674.451 407.65 673.6 406.6 673.6C405.551 673.6 404.7 674.451 404.7 675.5C404.7 676.549 405.551 677.4 406.6 677.4Z" fill="#8118B4"/>
<g opacity="0.29">
<g opacity="0.29">
<path opacity="0.29" d="M23.6 551.6C24.4836 551.6 25.2 550.884 25.2 550C25.2 549.116 24.4836 548.4 23.6 548.4C22.7163 548.4 22 549.116 22 550C22 550.884 22.7163 551.6 23.6 551.6Z" fill="#B8E4FA"/>
</g>
</g>
<path d="M26 421.1C27.6569 421.1 29 419.757 29 418.1C29 416.443 27.6569 415.1 26 415.1C24.3431 415.1 23 416.443 23 418.1C23 419.757 24.3431 421.1 26 421.1Z" fill="#8118B4"/>
<path d="M67.5006 514.8C69.1022 514.8 70.4006 513.502 70.4006 511.9C70.4006 510.298 69.1022 509 67.5006 509C65.899 509 64.6006 510.298 64.6006 511.9C64.6006 513.502 65.899 514.8 67.5006 514.8Z" fill="#FFA600"/>
<path d="M54.7006 549.5C55.8604 549.5 56.8005 548.56 56.8005 547.4C56.8005 546.24 55.8604 545.3 54.7006 545.3C53.5408 545.3 52.6006 546.24 52.6006 547.4C52.6006 548.56 53.5408 549.5 54.7006 549.5Z" fill="#B8E4FA"/>
<path d="M114.1 477.4C116.088 477.4 117.7 475.788 117.7 473.8C117.7 471.812 116.088 470.2 114.1 470.2C112.112 470.2 110.5 471.812 110.5 473.8C110.5 475.788 112.112 477.4 114.1 477.4Z" fill="#FF73A7"/>
<path d="M142.201 442.8C143.084 442.8 143.801 442.084 143.801 441.2C143.801 440.316 143.084 439.6 142.201 439.6C141.317 439.6 140.601 440.316 140.601 441.2C140.601 442.084 141.317 442.8 142.201 442.8Z" fill="#B8E4FA"/>
<path d="M24.4009 486.3C25.5607 486.3 26.5009 485.36 26.5009 484.2C26.5009 483.04 25.5607 482.1 24.4009 482.1C23.2411 482.1 22.3008 483.04 22.3008 484.2C22.3008 485.36 23.2411 486.3 24.4009 486.3Z" fill="#B8E4FA"/>
<path d="M19.6 421.5C20.7598 421.5 21.7 420.56 21.7 419.4C21.7 418.24 20.7598 417.3 19.6 417.3C18.4402 417.3 17.5 418.24 17.5 419.4C17.5 420.56 18.4402 421.5 19.6 421.5Z" fill="#FFA600"/>
<path d="M74.8002 441C75.96 441 76.9003 440.06 76.9003 438.9C76.9003 437.74 75.96 436.8 74.8002 436.8C73.6404 436.8 72.7002 437.74 72.7002 438.9C72.7002 440.06 73.6404 441 74.8002 441Z" fill="#8118B4"/>
<path d="M169.7 583C171.247 583 172.5 581.746 172.5 580.2C172.5 578.654 171.247 577.4 169.7 577.4C168.154 577.4 166.9 578.654 166.9 580.2C166.9 581.746 168.154 583 169.7 583Z" fill="#8118B4"/>
<path d="M115.9 626C116.453 626 116.9 625.552 116.9 625C116.9 624.448 116.453 624 115.9 624C115.348 624 114.9 624.448 114.9 625C114.9 625.552 115.348 626 115.9 626Z" fill="#FF73A7"/>
<path d="M97.2008 647.5C98.2501 647.5 99.1008 646.649 99.1008 645.6C99.1008 644.551 98.2501 643.7 97.2008 643.7C96.1515 643.7 95.3008 644.551 95.3008 645.6C95.3008 646.649 96.1515 647.5 97.2008 647.5Z" fill="#FFA600"/>
<path d="M25.7006 631.2C26.5842 631.2 27.3005 630.484 27.3005 629.6C27.3005 628.716 26.5842 628 25.7006 628C24.8169 628 24.1006 628.716 24.1006 629.6C24.1006 630.484 24.8169 631.2 25.7006 631.2Z" fill="#FF73A7"/>
<path d="M204.4 665.7C205.836 665.7 207 664.536 207 663.1C207 661.664 205.836 660.5 204.4 660.5C202.964 660.5 201.8 661.664 201.8 663.1C201.8 664.536 202.964 665.7 204.4 665.7Z" fill="#FFA600"/>
<path d="M192.7 697.5C193.749 697.5 194.6 696.649 194.6 695.6C194.6 694.551 193.749 693.7 192.7 693.7C191.65 693.7 190.8 694.551 190.8 695.6C190.8 696.649 191.65 697.5 192.7 697.5Z" fill="#B8E4FA"/>
<path d="M246.9 631.7C248.722 631.7 250.2 630.223 250.2 628.4C250.2 626.577 248.722 625.1 246.9 625.1C245.077 625.1 243.6 626.577 243.6 628.4C243.6 630.223 245.077 631.7 246.9 631.7Z" fill="#FF73A7"/>
<path d="M136.8 632.6C138.622 632.6 140.1 631.123 140.1 629.3C140.1 627.477 138.622 626 136.8 626C134.977 626 133.5 627.477 133.5 629.3C133.5 631.123 134.977 632.6 136.8 632.6Z" fill="#FF73A7"/>
<path d="M272.6 600.1C273.428 600.1 274.1 599.428 274.1 598.6C274.1 597.772 273.428 597.1 272.6 597.1C271.771 597.1 271.1 597.772 271.1 598.6C271.1 599.428 271.771 600.1 272.6 600.1Z" fill="#B8E4FA"/>
<path d="M165 639.8C166.049 639.8 166.9 638.949 166.9 637.9C166.9 636.851 166.049 636 165 636C163.95 636 163.1 636.851 163.1 637.9C163.1 638.949 163.95 639.8 165 639.8Z" fill="#B8E4FA"/>
<path d="M160.6 580.6C161.65 580.6 162.5 579.749 162.5 578.7C162.5 577.651 161.65 576.8 160.6 576.8C159.551 576.8 158.7 577.651 158.7 578.7C158.7 579.749 159.551 580.6 160.6 580.6Z" fill="#FFA600"/>
<path d="M211 598.4C212.049 598.4 212.9 597.549 212.9 596.5C212.9 595.451 212.049 594.6 211 594.6C209.95 594.6 209.1 595.451 209.1 596.5C209.1 597.549 209.95 598.4 211 598.4Z" fill="#8118B4"/>
<path d="M38.3002 553.6C39.7361 553.6 40.9003 552.436 40.9003 551C40.9003 549.564 39.7361 548.4 38.3002 548.4C36.8642 548.4 35.7002 549.564 35.7002 551C35.7002 552.436 36.8642 553.6 38.3002 553.6Z" fill="#FFA600"/>
<path d="M31.6002 519C32.6496 519 33.5002 518.149 33.5002 517.1C33.5002 516.051 32.6496 515.2 31.6002 515.2C30.5509 515.2 29.7002 516.051 29.7002 517.1C29.7002 518.149 30.5509 519 31.6002 519Z" fill="#B8E4FA"/>
<path d="M19.7003 605.9C21.5229 605.9 23.0004 604.423 23.0004 602.6C23.0004 600.777 21.5229 599.3 19.7003 599.3C17.8778 599.3 16.4004 600.777 16.4004 602.6C16.4004 604.423 17.8778 605.9 19.7003 605.9Z" fill="#FF73A7"/>
<path d="M113.601 548.5C115.423 548.5 116.901 547.022 116.901 545.2C116.901 543.377 115.423 541.9 113.601 541.9C111.778 541.9 110.301 543.377 110.301 545.2C110.301 547.022 111.778 548.5 113.601 548.5Z" fill="#FF73A7"/>
<path d="M85.1002 554.3C86.1496 554.3 87.0002 553.449 87.0002 552.4C87.0002 551.351 86.1496 550.5 85.1002 550.5C84.0509 550.5 83.2002 551.351 83.2002 552.4C83.2002 553.449 84.0509 554.3 85.1002 554.3Z" fill="#B8E4FA"/>
<path d="M119.201 602.8C120.25 602.8 121.101 601.949 121.101 600.9C121.101 599.851 120.25 599 119.201 599C118.151 599 117.301 599.851 117.301 600.9C117.301 601.949 118.151 602.8 119.201 602.8Z" fill="#FFA600"/>
<path d="M66.9 613.5C67.9494 613.5 68.7999 612.649 68.7999 611.6C68.7999 610.551 67.9494 609.7 66.9 609.7C65.8507 609.7 65 610.551 65 611.6C65 612.649 65.8507 613.5 66.9 613.5Z" fill="#8118B4"/>
<path d="M89.5006 586.9C90.55 586.9 91.4006 586.049 91.4006 585C91.4006 583.951 90.55 583.1 89.5006 583.1C88.4513 583.1 87.6006 583.951 87.6006 585C87.6006 586.049 88.4513 586.9 89.5006 586.9Z" fill="#8118B4"/>
<path d="M248.794 204C266.794 191.7 285.894 180.6 306.094 172.1C316.194 167.9 326.594 164.2 337.494 162C342.894 161 348.494 160.3 353.994 160.7C356.794 160.9 359.594 161.4 362.194 162.4C364.794 163.4 367.294 165.1 368.994 167.5C370.694 169.9 371.494 172.8 371.594 175.6C371.694 178.4 371.194 181.2 370.494 183.9C368.994 189.3 366.494 194.2 363.694 198.9C357.994 208.3 350.894 216.8 343.394 224.8C328.194 240.7 311.094 254.5 292.994 267C274.794 279.3 255.594 290.2 235.194 298.6C224.994 302.7 214.394 306.2 203.494 308.2C197.994 309.1 192.394 309.7 186.794 309.2C183.994 308.9 181.194 308.4 178.494 307.3C175.894 306.2 173.394 304.5 171.694 302C169.994 299.6 169.294 296.7 169.294 293.9C169.194 291.1 169.794 288.3 170.594 285.7C172.194 280.4 174.794 275.5 177.694 270.9C183.494 261.6 190.794 253.4 198.294 245.5C213.594 230 230.794 216.3 248.794 204ZM248.794 204C230.794 216.4 213.794 230.3 198.694 246C191.194 253.9 184.194 262.3 178.594 271.6C175.794 276.2 173.394 281.1 171.894 286.2C171.194 288.8 170.694 291.4 170.794 294C170.894 296.6 171.594 299.2 173.094 301.2C174.594 303.3 176.794 304.8 179.194 305.7C181.594 306.7 184.294 307.1 186.994 307.3C192.294 307.7 197.794 307 203.094 306C213.794 303.9 224.094 300.2 234.094 296C254.194 287.5 273.194 276.6 291.094 264.3C309.094 252 326.194 238.4 341.294 222.8C348.794 215 355.994 206.8 361.694 197.7C364.494 193.1 367.094 188.4 368.594 183.3C369.294 180.8 369.894 178.2 369.794 175.6C369.694 173 369.094 170.5 367.594 168.4C366.194 166.3 363.994 164.7 361.594 163.7C359.194 162.7 356.494 162.2 353.794 161.9C348.394 161.4 342.894 162 337.594 162.9C326.794 164.8 316.394 168.3 306.194 172.4C286.094 180.9 266.994 191.8 248.794 204Z" fill="url(#paint3_linear)"/>
<path d="M220.694 166.9C241.394 152.8 262.894 139.8 285.094 128.2C296.194 122.4 307.494 116.9 318.994 111.8C330.494 106.7 342.194 102.1 353.994 97.9C365.894 93.8 377.894 90.1 390.194 87.2C402.494 84.3 414.894 82.1 427.594 81.3C430.794 81.1 433.894 80.9 437.094 80.9H441.893L446.694 81.1C449.894 81.2 452.994 81.7 456.194 82L460.893 82.8C461.693 82.9 462.494 83.1 463.194 83.2L465.494 83.8C466.994 84.2 468.594 84.5 470.094 85.1L474.594 86.7C477.494 88 480.494 89.2 483.194 90.9C488.694 94.2 493.694 98.5 497.494 103.7C501.194 109 503.693 115.1 504.893 121.3C505.594 124.4 505.794 127.6 505.994 130.8V135.6C505.994 137.2 505.694 138.8 505.594 140.3L505.393 142.7C505.293 143.5 505.094 144.3 504.994 145C504.694 146.6 504.494 148.1 504.194 149.7C503.394 152.7 502.794 155.9 501.794 158.8L500.393 163.3L498.694 167.7C497.694 170.7 496.294 173.5 495.094 176.4C489.994 187.9 483.594 198.7 476.694 209.1C469.694 219.5 462.094 229.5 453.994 239.1C421.594 277.4 382.793 310.1 341.393 338.5C320.594 352.6 298.994 365.6 276.594 377.2C254.194 388.8 230.994 398.9 207.094 407C195.094 411.1 182.894 414.6 170.594 417.3C158.194 420 145.594 422 132.894 422.7C129.694 422.8 126.494 423 123.294 422.9H118.494L113.694 422.6C110.494 422.5 107.294 421.9 104.194 421.6C102.594 421.3 100.994 421 99.4935 420.7C98.6935 420.5 97.8936 420.4 97.0936 420.2L94.7935 419.6C93.2935 419.1 91.6935 418.8 90.1935 418.3L85.6935 416.7C82.7935 415.4 79.7936 414.1 77.0936 412.3C71.5936 408.9 66.6935 404.5 62.9935 399.3C59.3935 394 56.9936 387.9 55.8936 381.6C55.1936 378.5 55.0936 375.3 54.8936 372.2L54.9935 367.5C54.9935 365.9 55.2936 364.4 55.3936 362.8L55.6935 360.5C55.7935 359.7 55.9936 359 56.0936 358.2L56.9935 353.6C57.7935 350.6 58.4935 347.5 59.4935 344.6L60.9935 340.2L62.6935 335.8C63.7935 332.9 65.1936 330.1 66.3936 327.2C71.6936 315.9 78.1935 305.2 85.1935 294.9C92.2935 284.6 99.9935 274.9 108.194 265.4C116.294 255.9 124.894 246.9 133.794 238.1C142.694 229.3 151.894 220.9 161.394 212.7C179.994 196.1 199.994 181 220.694 166.9ZM220.694 166.9C179.494 195.2 140.894 227.7 108.694 265.7C100.694 275.2 93.0935 285.1 86.1935 295.4C79.2935 305.7 73.0935 316.4 67.9935 327.7C66.7935 330.5 65.4935 333.3 64.4935 336.2L62.8936 340.5L61.4935 344.9C60.4935 347.8 59.8935 350.8 59.1935 353.8L58.3936 358.3C58.2936 359.1 58.0935 359.8 57.9935 360.6L57.7935 362.9C57.6935 364.4 57.3936 365.9 57.3936 367.4V371.9C57.5936 374.9 57.7935 377.9 58.4935 380.9C59.6935 386.8 61.9936 392.4 65.3936 397.3C68.8936 402.1 73.4935 406.2 78.6935 409.2C81.1935 410.8 84.0936 412 86.8936 413.2L91.1935 414.7C92.5935 415.2 94.1936 415.5 95.5936 415.9L97.7935 416.5C98.5935 416.7 99.2936 416.8 100.094 416.9L104.594 417.7C107.694 418 110.694 418.5 113.794 418.5L118.394 418.7H123.094C126.194 418.7 129.294 418.5 132.394 418.3C144.794 417.5 157.094 415.3 169.194 412.4C181.294 409.5 193.294 405.9 205.094 401.8C216.894 397.7 228.494 393 239.894 388C251.294 383 262.494 377.4 273.594 371.7C284.694 366 295.494 359.8 306.194 353.4C316.894 347 327.294 340.2 337.694 333.2C358.294 319.2 378.193 304.1 396.893 287.9C406.293 279.7 415.494 271.4 424.294 262.7C433.094 254 441.594 244.9 449.694 235.6C457.794 226.2 465.494 216.5 472.494 206.4C479.494 196.3 485.894 185.7 491.094 174.6C492.294 171.8 493.694 169 494.694 166.2L496.393 161.9L497.794 157.6C498.794 154.7 499.394 151.7 500.294 148.8L501.194 144.3C501.294 143.6 501.494 142.8 501.594 142.1L501.794 139.9C501.894 138.4 502.194 136.9 502.194 135.4L502.294 130.9C502.094 127.9 501.993 124.9 501.393 122C500.293 116.1 498.094 110.5 494.794 105.5C491.394 100.6 486.794 96.5 481.594 93.3C479.094 91.6 476.193 90.4 473.393 89.2L469.094 87.6C467.694 87.1 466.094 86.8 464.694 86.3L462.494 85.7C461.694 85.5 460.994 85.4 460.194 85.3L455.594 84.4C452.494 84.1 449.394 83.5 446.294 83.4L441.594 83.1H436.893C433.793 83 430.694 83.2 427.494 83.3C414.994 84 402.594 85.9 390.294 88.6C377.994 91.3 365.994 94.7 354.094 98.8C306.694 114.9 262.094 138.9 220.694 166.9Z" fill="url(#paint4_linear)"/>
<path d="M212.694 154C247.394 130.3 283.294 108.3 320.494 88.5C357.594 68.7 395.894 50.8 435.494 36.2C455.294 28.9 475.394 22.4 495.794 17.1C516.194 11.8 536.994 7.59997 558.094 5.39997C579.194 3.29997 600.694 2.99998 621.694 7.29998C626.894 8.29998 632.094 9.69997 637.194 11.5C642.294 13.3 647.294 15.3 651.994 18C661.494 23.2 669.994 30.3 676.294 39.2C682.594 48.1 686.494 58.5 688.194 69.1C689.094 74.4 689.394 79.8 689.294 85.1C689.194 90.4 688.794 95.8 687.994 101C684.894 122.1 677.194 142.1 667.994 161C658.694 180 647.594 197.9 635.494 215.2C623.394 232.4 610.394 249 596.494 264.9C540.994 328.4 475.894 383 406.394 430.8C371.494 454.5 335.394 476.5 297.994 496.3C288.694 501.3 279.194 506.1 269.694 510.7C260.194 515.3 250.594 519.8 240.994 524.1C221.694 532.8 201.994 540.7 182.094 547.9C162.194 555.1 141.794 561.3 121.194 566.4C100.594 571.5 79.5938 575.4 58.2938 577.3C37.0938 579.1 15.3938 579.1 -5.70615 574.5C-11.0062 573.4 -16.2061 571.9 -21.3061 570.1C-26.4061 568.3 -31.4061 566.1 -36.1061 563.4C-45.5061 558.1 -54.0062 550.8 -60.2062 541.8C-66.4062 532.8 -70.1062 522.4 -71.7062 511.9C-72.5062 506.6 -72.7061 501.3 -72.6061 496C-72.5061 490.7 -72.0061 485.4 -71.1061 480.2C-67.7061 459.3 -59.8061 439.5 -50.4061 420.8C-40.9061 402.1 -29.6061 384.3 -17.3061 367.3C-5.00613 350.3 8.29389 334 22.0939 318.3C49.8939 286.9 80.2939 257.8 112.194 230.5C144.494 203.1 177.994 177.7 212.694 154ZM212.694 154C177.994 177.8 144.594 203.3 112.794 230.7C80.9938 258.1 50.9939 287.5 23.4939 319.1C9.69386 334.9 -3.20616 351.3 -15.2062 368.4C-27.2062 385.5 -38.1061 403.3 -47.3061 422C-56.3061 440.7 -63.8061 460.3 -66.8061 480.6C-67.6061 485.7 -68.0061 490.8 -68.0061 495.9C-68.0061 501 -67.8061 506.1 -66.9061 511.1C-65.3061 521.1 -61.6061 530.7 -55.8061 538.9C-49.9061 547.1 -42.0061 553.7 -33.1061 558.6C-28.7061 561.1 -23.9061 563 -19.1061 564.7C-14.3061 566.4 -9.30615 567.7 -4.20615 568.7C16.0938 572.8 37.1939 572.5 57.8939 570.5C78.6939 568.3 99.1938 564.2 119.494 558.9C139.794 553.6 159.694 547.1 179.394 539.9C218.694 525.4 256.794 507.6 293.794 487.9C330.794 468.2 366.494 446.3 401.094 422.7C435.694 399.1 469.094 373.8 500.794 346.6C532.494 319.4 562.794 290.5 590.394 259.3C604.194 243.7 617.394 227.6 629.494 210.7C641.594 193.9 652.794 176.3 662.194 157.9C671.494 139.5 679.094 120.1 682.394 99.9C683.194 94.9 683.694 89.8 683.894 84.7C683.994 79.6 683.794 74.6 682.994 69.6C681.494 59.6 677.994 50 672.294 41.7C666.594 33.4 658.694 26.6 649.794 21.6C645.394 19 640.594 17 635.794 15.2C630.894 13.4 625.894 12 620.894 10.9C600.494 6.49997 579.294 6.49997 558.394 8.19997C537.494 10.1 516.694 13.9 496.294 18.9C475.894 23.9 455.694 30.1 435.894 37.2C396.294 51.4 357.794 68.9 320.594 88.5C283.494 108.5 247.494 130.4 212.694 154Z" fill="url(#paint5_linear)"/>
<path d="M115.994 179.3C174.994 132.8 236.494 88.6 300.694 47.3C364.794 5.99997 431.394 -32.7 500.994 -66.7C535.794 -83.7 571.294 -99.7 607.594 -114C643.894 -128.3 681.194 -140.9 719.294 -150.6C757.394 -160.1 796.594 -167 835.794 -167C845.594 -167 855.294 -166.5 864.894 -165.3C874.494 -164.2 883.994 -162.5 893.094 -160C911.294 -155 928.194 -146.8 941.394 -135.3C954.494 -123.8 963.594 -109.2 968.694 -93.6C971.294 -85.8 972.794 -77.8 973.694 -69.7C974.594 -61.6 974.794 -53.4 974.294 -45.2C972.394 -12.3 962.194 20.3 948.894 51.9C935.394 83.5 918.394 114.1 899.594 143.9C880.694 173.7 859.894 202.8 837.594 231.1C748.094 344.2 639.094 446.7 520.994 540.1C461.694 586.7 399.694 630.9 335.094 672.2C318.994 682.5 302.694 692.7 286.094 702.6C269.594 712.5 252.894 722.2 236.094 731.7C202.394 750.7 167.994 768.7 132.894 785.6C97.794 802.5 61.894 818.1 25.194 832.1C-11.506 846 -49.106 858.3 -87.606 867.6C-126.006 876.7 -165.506 883.3 -204.906 882.8C-214.706 882.7 -224.506 882 -234.106 880.8C-243.706 879.6 -253.206 877.8 -262.306 875.1C-280.506 869.9 -297.306 861.4 -310.306 849.7C-323.206 838 -332.006 823.3 -336.806 807.8C-339.306 800 -340.606 792 -341.406 783.9C-342.106 775.8 -342.206 767.6 -341.606 759.5C-339.206 726.8 -328.506 694.4 -314.806 663.2C-300.806 631.9 -283.506 601.6 -264.206 572.1C-244.906 542.6 -223.706 513.9 -201.206 485.9C-156.306 429.8 -106.006 376.6 -52.806 325.6C0.393982 274.5 56.894 225.7 115.994 179.3ZM115.994 179.3C57.094 225.9 0.69397 274.7 -52.306 325.9C-105.206 377.1 -154.706 430.7 -199.106 486.9C-221.306 515 -241.906 543.9 -260.706 573.4C-279.406 603 -296.106 633.3 -309.406 664.3C-322.506 695.3 -332.406 727.3 -334.206 759.1C-334.706 767 -334.506 774.9 -333.606 782.7C-332.806 790.4 -331.306 798.1 -328.806 805.4C-324.006 820.1 -315.506 833.6 -303.406 844.3C-291.206 855 -275.506 862.6 -258.306 867.3C-249.706 869.7 -240.706 871.3 -231.606 872.3C-222.406 873.4 -213.106 873.9 -203.706 873.9C-165.906 873.9 -127.506 867.2 -90.006 857.8C-52.506 848.2 -15.7061 835.8 20.2939 821.6C56.2939 807.4 91.494 791.6 126.094 774.7C195.294 740.8 261.494 702.3 325.294 661.3C389.194 620.2 450.394 576.2 509.194 529.9C567.994 483.7 624.294 435.2 677.294 384.4C730.194 333.6 780.194 280.6 824.894 224.9C847.194 197.1 868.294 168.6 887.394 139.4C906.494 110.2 923.594 80.2 937.394 49.4C950.894 18.7 961.394 -13 963.694 -44.6C964.294 -52.5 964.294 -60.3 963.594 -68C962.894 -75.7 961.594 -83.4 959.294 -90.7C954.794 -105.4 946.594 -118.9 934.694 -129.8C922.694 -140.6 907.094 -148.5 889.994 -153.5C881.394 -156 872.394 -157.7 863.194 -158.9C853.994 -160.1 844.594 -160.7 835.194 -160.8C797.194 -161.3 758.494 -154.9 720.694 -145.9C682.794 -136.7 645.694 -124.6 609.294 -110.8C572.894 -97 537.194 -81.5 502.394 -64.7C432.694 -31.1 365.694 6.89996 301.394 48C236.794 88.9 175.094 133 115.994 179.3Z" fill="url(#paint6_linear)"/>
</g>
<path d="M641.394 454.3L643.894 454.7C643.994 454.7 644.094 454.8 644.194 454.9L645.194 457.2C645.294 457.5 645.794 457.5 645.894 457.2L647.194 454.9C647.294 454.8 647.395 454.7 647.495 454.7L649.995 454.4C650.295 454.4 650.494 453.9 650.294 453.7L648.594 451.8C648.494 451.7 648.495 451.6 648.495 451.4L649.094 448.9C649.194 448.6 648.795 448.3 648.495 448.4L646.194 449.5C646.094 449.6 645.894 449.6 645.794 449.5L643.594 448.2C643.294 448 642.895 448.3 642.995 448.6L643.294 451.1C643.294 451.2 643.294 451.4 643.194 451.5L641.294 453.2C640.994 453.9 641.094 454.3 641.394 454.3Z" fill="url(#paint7_linear)"/>
<path d="M923.494 633.1C919.694 629.7 918.694 626 909.594 622.4C903.094 619.8 897.194 614.6 894.894 608C892.894 602.2 884.594 604.5 879.494 601.5C874.594 598.7 868.494 599.6 863.494 597.1C858.894 594.8 855.394 589.1 850.694 587C817.194 572.5 780.194 564.5 741.394 564.5C727.794 564.5 714.394 565.5 701.294 567.4C697.194 568 694.194 570.8 690.094 571.6C686.794 572.2 682.394 570.8 679.094 571.6C661.194 575.7 643.894 581.6 627.494 589.1C622.694 591.3 619.194 596.7 614.494 599.2C608.094 602.6 600.594 603.1 594.494 606.9C577.194 617.8 561.294 630.5 546.794 644.9C546.394 644.9 545.994 644.8 545.594 644.7C541.994 644 537.494 640.4 534.894 640.9C531.894 639.8 524.594 643.9 517.694 650.8C510.094 658.4 505.894 666.4 508.194 668.7C510.594 674.3 513.694 677.7 515.294 682.2C483.894 727 465.394 781.6 465.394 840.5C465.394 992.9 588.994 1116.5 741.394 1116.5C893.794 1116.5 1017.39 992.9 1017.39 840.5C1017.29 757.8 980.994 683.7 923.494 633.1Z" fill="url(#paint8_linear)"/>
<path opacity="0.3" d="M923.494 633.1C919.694 629.7 918.694 626 909.594 622.4C903.094 619.8 897.194 614.6 894.894 608C892.894 602.2 884.594 604.5 879.494 601.5C874.594 598.7 868.494 599.6 863.494 597.1C858.894 594.8 855.394 589.1 850.694 587C817.194 572.5 780.194 564.5 741.394 564.5C727.794 564.5 714.394 565.5 701.294 567.4C697.194 568 694.194 570.8 690.094 571.6C688.394 571.9 686.394 571.7 684.494 571.5C691.094 590.8 705.494 612.3 728.594 619.8C759.094 629.7 813.394 611.4 847.794 662.7C871.994 698.8 895.394 810.3 891.594 874.9C890.294 897.2 969.894 880.9 1014.29 882.2C1016.39 868.6 1017.39 854.7 1017.39 840.5C1017.29 757.8 980.994 683.7 923.494 633.1Z" fill="#392E66"/>
<path opacity="0.2" d="M923.494 633.1C919.694 629.7 918.694 626 909.594 622.4C903.094 619.8 897.194 614.6 894.894 608C892.894 602.2 884.594 604.5 879.494 601.5C874.594 598.7 868.494 599.6 863.494 597.1C858.894 594.8 855.394 589.1 850.694 587C842.994 583.7 835.094 580.7 827.094 578.1C810.894 572.8 825.894 576.8 854.194 601.8C965.994 700.3 957.294 791.3 953.494 855.8C952.394 873.4 984.394 869.6 1015.49 872.9C1016.69 862.3 1017.39 851.5 1017.39 840.5C1017.29 757.8 980.994 683.7 923.494 633.1Z" fill="url(#paint9_linear)"/>
<path opacity="0.3" d="M841.094 889.1C841.094 889.1 887.494 629.2 776.394 646.3C716.994 655.5 684.794 648.5 653.494 616.6C643.494 606.4 628.294 601 615.294 598.6C614.994 598.8 614.794 598.9 614.494 599.1C608.094 602.5 600.594 603 594.494 606.8C593.994 607.1 593.494 607.4 593.094 607.7C612.094 607.1 627.794 612.4 638.394 624.7C663.394 653.6 653.794 741.1 528.694 791.3C467.094 816 841.094 889.1 841.094 889.1Z" fill="#392E66"/>
<path d="M629.593 542.5L632.993 541.1C633.193 541 633.393 541 633.593 541.2L636.593 543.3C636.993 543.6 637.593 543.2 637.493 542.7L637.193 538.9C637.193 538.7 637.293 538.5 637.393 538.4L640.293 536C640.693 535.7 640.593 535 640.093 534.9L636.593 534C636.393 534 636.293 533.8 636.193 533.6L634.893 530.1C634.693 529.6 634.093 529.6 633.793 530L631.893 533.2C631.793 533.4 631.593 533.5 631.393 533.5L627.693 533.7C627.193 533.7 626.993 534.3 627.293 534.7L629.593 537.6C629.693 537.8 629.793 538 629.693 538.2L628.693 541.8C628.693 542.3 629.093 542.7 629.593 542.5Z" fill="url(#paint10_linear)"/>
<path opacity="0.05" d="M628.793 541.8L629.793 538.2C629.893 538 629.793 537.8 629.693 537.6L627.393 534.7C627.193 534.5 627.193 534.1 627.393 533.9C628.493 534.9 630.793 534.3 631.593 535.1C631.993 535.6 632.393 536 632.893 536.2C633.493 536.5 634.193 536.6 634.893 537.5C635.393 538.1 635.393 540.6 635.893 541.3C636.293 541.8 636.693 542 637.293 542.9C637.393 543 637.393 543.1 637.393 543.2C637.193 543.3 636.993 543.3 636.793 543.2L633.793 541.1C633.593 541 633.393 541 633.193 541L629.793 542.4C629.093 542.7 628.693 542.3 628.793 541.8Z" fill="#351656"/>
<path d="M1004.59 571.8L1010.39 569.6C1010.69 569.5 1011.09 569.5 1011.29 569.7L1016.29 573.4C1016.99 573.9 1017.89 573.4 1017.89 572.5L1017.79 566.1C1017.79 565.8 1017.89 565.4 1018.19 565.2L1023.19 561.4C1023.89 560.9 1023.69 559.8 1022.89 559.6L1016.99 557.8C1016.69 557.7 1016.39 557.5 1016.29 557.1L1014.39 551.1C1014.09 550.3 1013.09 550.1 1012.59 550.8L1009.09 556.1C1008.89 556.4 1008.59 556.6 1008.29 556.6H1002.09C1001.29 556.6 1000.79 557.6 1001.29 558.3L1004.99 563.3C1005.19 563.6 1005.29 563.9 1005.19 564.2L1003.29 570.3C1003.09 571.4 1003.89 572.1 1004.59 571.8Z" fill="url(#paint11_linear)"/>
<path opacity="0.05" d="M1003.39 570.5L1005.29 564.4C1005.39 564.1 1005.29 563.7 1005.09 563.5L1001.39 558.5C1001.09 558.1 1001.19 557.5 1001.39 557.2C1003.09 559 1007.19 558.1 1008.29 559.5C1008.99 560.3 1009.59 561.1 1010.39 561.5C1011.49 562.1 1012.59 562.3 1013.59 563.8C1014.29 564.9 1014.19 569 1014.99 570.2C1015.59 571.1 1016.29 571.4 1017.19 573.1C1017.29 573.2 1017.29 573.4 1017.39 573.5C1017.09 573.7 1016.69 573.7 1016.29 573.4L1011.29 569.7C1010.99 569.5 1010.69 569.5 1010.39 569.6L1004.59 571.8C1003.89 572.1 1003.09 571.4 1003.39 570.5Z" fill="#351656"/>
<path opacity="0.6" d="M525.095 657.869C530.758 652.206 533.924 646.191 532.166 644.434C530.409 642.676 524.394 645.842 518.731 651.505C513.069 657.167 509.903 663.182 511.66 664.94C513.418 666.697 519.433 663.531 525.095 657.869Z" fill="#351656"/>
<path d="M901.8 458.6C927.095 458.6 947.6 438.095 947.6 412.8C947.6 387.505 927.095 367 901.8 367C876.505 367 856 387.505 856 412.8C856 438.095 876.505 458.6 901.8 458.6Z" fill="url(#paint12_linear)"/>
</g>
<defs>
<linearGradient id="paint0_linear" x1="542.209" y1="0.448685" x2="542.209" y2="754.666" gradientUnits="userSpaceOnUse">
<stop stop-color="#370D24"/>
<stop offset="0.502762" stop-color="#602A6B"/>
<stop offset="1" stop-color="#EA4C89"/>
</linearGradient>
<linearGradient id="paint1_linear" x1="542.209" y1="0.448669" x2="542.209" y2="754.666" gradientUnits="userSpaceOnUse">
<stop offset="0.611311" stop-color="#231E33"/>
<stop offset="1" stop-color="#522359"/>
</linearGradient>
<linearGradient id="paint2_linear" x1="474.23" y1="532.952" x2="900.007" y2="599.845" gradientUnits="userSpaceOnUse">
<stop offset="0.611311" stop-color="#231E33"/>
<stop offset="1" stop-color="#522359"/>
</linearGradient>
<linearGradient id="paint3_linear" x1="270.445" y1="160.586" x2="270.445" y2="309.381" gradientUnits="userSpaceOnUse">
<stop stop-color="#370D24"/>
<stop offset="0.502762" stop-color="#602A6B"/>
<stop offset="1" stop-color="#EA4C89"/>
</linearGradient>
<linearGradient id="paint4_linear" x1="280.444" y1="80.9" x2="280.444" y2="422.927" gradientUnits="userSpaceOnUse">
<stop stop-color="#370D24"/>
<stop offset="0.502762" stop-color="#602A6B"/>
<stop offset="1" stop-color="#EA4C89"/>
</linearGradient>
<linearGradient id="paint5_linear" x1="308.341" y1="3.91176" x2="308.341" y2="578.419" gradientUnits="userSpaceOnUse">
<stop stop-color="#370D24"/>
<stop offset="0.502762" stop-color="#602A6B"/>
<stop offset="1" stop-color="#EA4C89"/>
</linearGradient>
<linearGradient id="paint6_linear" x1="316.281" y1="-167" x2="316.281" y2="882.827" gradientUnits="userSpaceOnUse">
<stop stop-color="#370D24"/>
<stop offset="0.502762" stop-color="#602A6B"/>
<stop offset="1" stop-color="#EA4C89"/>
</linearGradient>
<linearGradient id="paint7_linear" x1="649.364" y1="455.178" x2="642.664" y2="448.799" gradientUnits="userSpaceOnUse">
<stop offset="0.0567568" stop-color="#FF7E48"/>
<stop offset="0.3352" stop-color="#FF796F"/>
<stop offset="0.6072" stop-color="#FF768E"/>
<stop offset="0.838" stop-color="#FF74A0"/>
<stop offset="1" stop-color="#FF73A7"/>
</linearGradient>
<linearGradient id="paint8_linear" x1="741.394" y1="564.5" x2="741.394" y2="1116.5" gradientUnits="userSpaceOnUse">
<stop stop-color="#623997"/>
<stop offset="1" stop-color="#662A67"/>
</linearGradient>
<linearGradient id="paint9_linear" x1="918.912" y1="576.051" x2="918.912" y2="872.9" gradientUnits="userSpaceOnUse">
<stop offset="0.611311" stop-color="#231E33"/>
<stop offset="1" stop-color="#522359"/>
</linearGradient>
<linearGradient id="paint10_linear" x1="640.54" y1="536.557" x2="627.152" y2="536.557" gradientUnits="userSpaceOnUse">
<stop stop-color="#FBB40D"/>
<stop offset="1" stop-color="#FB710D"/>
</linearGradient>
<linearGradient id="paint11_linear" x1="1023.62" y1="561.985" x2="1001.09" y2="561.985" gradientUnits="userSpaceOnUse">
<stop stop-color="#FBB40D"/>
<stop offset="1" stop-color="#FB710D"/>
</linearGradient>
<linearGradient id="paint12_linear" x1="901.8" y1="367" x2="901.8" y2="458.6" gradientUnits="userSpaceOnUse">
<stop stop-color="#623997"/>
<stop offset="1" stop-color="#662A67"/>
</linearGradient>
</defs>
</svg>
