<svg width="1280" height="718" viewBox="0 0 1280 718" fill="none" xmlns="http://www.w3.org/2000/svg">
<mask id="mask0" mask-type="alpha" maskUnits="userSpaceOnUse" x="0" y="0" width="1284" height="718">
<path d="M385.001 12.9323C542.201 -24.6677 687.834 28.599 741.001 59.9323C947.169 160.18 1064.82 180.04 1283 69.5V595C1236.92 437.061 953.492 420.829 790.501 690.932C774.001 700.599 712.701 719.332 599.501 716.932C458.001 713.932 421.501 609.932 403.001 565.432C384.593 521.153 348.362 507.567 273.128 479.355L272.001 478.932C173.702 442.07 0.000976562 513.353 0.000976562 332.432C0.000976562 204.432 188.501 59.9323 385.001 12.9323Z" fill="url(#paint0_linear)"/>
</mask>
<g mask="url(#mask0)">
<path d="M385.001 12.9323C542.201 -24.6677 687.834 28.599 741.001 59.9323C947.169 160.18 1064.82 180.04 1283 69.5V595C1236.92 437.061 953.492 420.829 790.501 690.932C774.001 700.599 712.701 719.332 599.501 716.932C458.001 713.932 421.501 609.932 403.001 565.432C384.593 521.153 348.362 507.567 273.128 479.355L272.001 478.932C173.702 442.07 0.000976562 513.353 0.000976562 332.432C0.000976562 204.432 188.501 59.9323 385.001 12.9323Z" fill="url(#paint1_linear)"/>
<path opacity="0.2" d="M561.497 591.32C510.901 723.681 400.252 802.672 351.253 825.622L-130.026 548.936C-128.856 532.21 -112.073 478.58 -54.3015 397.864C17.9132 296.969 111.266 322.066 152.636 330.719C193.802 339.329 221.571 319.844 279.235 279.381L280.099 278.775C326.7 246.075 340.106 205.82 340.984 189.78C370.033 156.898 446.663 103.813 520.79 154.527C613.448 217.918 624.742 425.868 561.497 591.32Z" fill="#662A67"/>
<path d="M897.857 563.301C818.68 511.589 714.073 505.226 626.65 555.7C502.81 627.199 460.439 785.664 532.014 909.636C539.271 922.205 547.419 933.912 556.294 944.712C569.1 933.564 563.221 921.937 574.631 915.35C585.78 908.913 604.274 925.425 619.223 911.371C645.419 886.719 608.53 804.056 636.629 776.081C666.91 745.872 845.328 737.019 897.857 563.301Z" fill="url(#paint2_linear)"/>
<path d="M262.262 705.198C296.297 595.755 365.397 496.347 466.287 425.772C695.967 264.876 1009.06 310.073 1184.85 522.31L1187.29 513.228C1008.25 301.533 693.34 257.33 461.857 419.436C359.712 491.014 289.65 591.646 255.048 702.418C257.475 703.35 259.836 704.265 262.262 705.198Z" fill="#662A67"/>
<path d="M64.0554 651.042C110.173 502.801 203.789 368.138 340.428 272.443C651.606 54.4655 1075.7 115.731 1313.9 403.166L1317.19 390.86C1074.7 104.18 648.067 44.277 334.401 263.915C196.025 360.837 101.174 497.215 54.2828 647.294C57.5462 648.521 60.8096 649.749 64.0554 651.042Z" fill="#662A67"/>
<path d="M508.077 588.717C641.611 445.71 866.4 437.968 1009.23 571.61C1058.33 617.571 1091.45 674.338 1108.35 734.802C1109.79 733.636 1111.22 732.536 1112.72 731.387C1095.35 670.8 1061.98 613.963 1012.69 567.884C867.833 432.357 639.792 440.144 504.291 585.234C456.092 636.852 426.049 699.05 413.854 763.774C415.386 764.89 416.901 766.072 418.433 767.188C430.199 702.489 459.962 640.287 508.077 588.717Z" fill="#662A67"/>
<g opacity="0.5">
<path d="M80.4002 426.8C81.8914 426.8 83.1002 425.591 83.1002 424.1C83.1002 422.609 81.8914 421.4 80.4002 421.4C78.909 421.4 77.7002 422.609 77.7002 424.1C77.7002 425.591 78.909 426.8 80.4002 426.8Z" fill="#8118B4"/>
<path d="M20.2008 455.8C20.6978 455.8 21.1008 455.397 21.1008 454.9C21.1008 454.403 20.6978 454 20.2008 454C19.7037 454 19.3008 454.403 19.3008 454.9C19.3008 455.397 19.7037 455.8 20.2008 455.8Z" fill="#FF73A7"/>
<path d="M-1.79922 472.3C-0.749884 472.3 0.100777 471.449 0.100777 470.4C0.100777 469.351 -0.749884 468.5 -1.79922 468.5C-2.84857 468.5 -3.69922 469.351 -3.69922 470.4C-3.69922 471.449 -2.84857 472.3 -1.79922 472.3Z" fill="#FFA600"/>
<path d="M30.3014 346.8C31.3507 346.8 32.2014 345.949 32.2014 344.9C32.2014 343.851 31.3507 343 30.3014 343C29.252 343 28.4014 343.851 28.4014 344.9C28.4014 345.949 29.252 346.8 30.3014 346.8Z" fill="#B8E4FA"/>
<path d="M52.2008 399.8C53.2501 399.8 54.1008 398.949 54.1008 397.9C54.1008 396.851 53.2501 396 52.2008 396C51.1514 396 50.3008 396.851 50.3008 397.9C50.3008 398.949 51.1514 399.8 52.2008 399.8Z" fill="#FFA600"/>
<path d="M0.601173 398.7C1.65051 398.7 2.50117 397.849 2.50117 396.8C2.50117 395.751 1.65051 394.9 0.601173 394.9C-0.448168 394.9 -1.29883 395.751 -1.29883 396.8C-1.29883 397.849 -0.448168 398.7 0.601173 398.7Z" fill="#8118B4"/>
<path d="M3.80039 413.5C4.84973 413.5 5.70039 412.649 5.70039 411.6C5.70039 410.551 4.84973 409.7 3.80039 409.7C2.75105 409.7 1.90039 410.551 1.90039 411.6C1.90039 412.649 2.75105 413.5 3.80039 413.5Z" fill="#8118B4"/>
<path d="M154.4 499.3C154.897 499.3 155.3 498.897 155.3 498.4C155.3 497.903 154.897 497.5 154.4 497.5C153.903 497.5 153.5 497.903 153.5 498.4C153.5 498.897 153.903 499.3 154.4 499.3Z" fill="#FF73A7"/>
<path d="M129.201 509.6C130.25 509.6 131.101 508.749 131.101 507.7C131.101 506.651 130.25 505.8 129.201 505.8C128.151 505.8 127.301 506.651 127.301 507.7C127.301 508.749 128.151 509.6 129.201 509.6Z" fill="#FFA600"/>
<path d="M75.0004 463.8C75.8841 463.8 76.6004 463.084 76.6004 462.2C76.6004 461.316 75.8841 460.6 75.0004 460.6C74.1167 460.6 73.4004 461.316 73.4004 462.2C73.4004 463.084 74.1167 463.8 75.0004 463.8Z" fill="#FF73A7"/>
<path d="M213.301 573C214.681 573 215.801 571.881 215.801 570.5C215.801 569.119 214.681 568 213.301 568C211.92 568 210.801 569.119 210.801 570.5C210.801 571.881 211.92 573 213.301 573Z" fill="#FFA600"/>
<path d="M188.8 595C189.85 595 190.7 594.149 190.7 593.1C190.7 592.051 189.85 591.2 188.8 591.2C187.751 591.2 186.9 592.051 186.9 593.1C186.9 594.149 187.751 595 188.8 595Z" fill="#B8E4FA"/>
<path d="M300.501 546.9C301.274 546.9 301.901 546.273 301.901 545.5C301.901 544.727 301.274 544.1 300.501 544.1C299.727 544.1 299.101 544.727 299.101 545.5C299.101 546.273 299.727 546.9 300.501 546.9Z" fill="#B8E4FA"/>
<path d="M190.8 533.1C191.85 533.1 192.7 532.249 192.7 531.2C192.7 530.151 191.85 529.3 190.8 529.3C189.751 529.3 188.9 530.151 188.9 531.2C188.9 532.249 189.751 533.1 190.8 533.1Z" fill="#B8E4FA"/>
<path d="M213.4 480.5C214.449 480.5 215.3 479.649 215.3 478.6C215.3 477.551 214.449 476.7 213.4 476.7C212.351 476.7 211.5 477.551 211.5 478.6C211.5 479.649 212.351 480.5 213.4 480.5Z" fill="#FFA600"/>
<path d="M248.7 518.2C249.75 518.2 250.6 517.349 250.6 516.3C250.6 515.251 249.75 514.4 248.7 514.4C247.651 514.4 246.8 515.251 246.8 516.3C246.8 517.349 247.651 518.2 248.7 518.2Z" fill="#8118B4"/>
<path d="M120.801 402.8C122.181 402.8 123.301 401.681 123.301 400.3C123.301 398.919 122.181 397.8 120.801 397.8C119.42 397.8 118.301 398.919 118.301 400.3C118.301 401.681 119.42 402.8 120.801 402.8Z" fill="#FFA600"/>
<path d="M130.201 370.3C131.25 370.3 132.101 369.449 132.101 368.4C132.101 367.351 131.25 366.5 130.201 366.5C129.151 366.5 128.301 367.351 128.301 368.4C128.301 369.449 129.151 370.3 130.201 370.3Z" fill="#B8E4FA"/>
<path d="M188.001 432.2C189.768 432.2 191.201 430.767 191.201 429C191.201 427.233 189.768 425.8 188.001 425.8C186.233 425.8 184.801 427.233 184.801 429C184.801 430.767 186.233 432.2 188.001 432.2Z" fill="#FF73A7"/>
<path d="M160.3 424.3C161.35 424.3 162.2 423.449 162.2 422.4C162.2 421.351 161.35 420.5 160.3 420.5C159.251 420.5 158.4 421.351 158.4 422.4C158.4 423.449 159.251 424.3 160.3 424.3Z" fill="#B8E4FA"/>
<path d="M168.001 481.1C169.05 481.1 169.901 480.249 169.901 479.2C169.901 478.151 169.05 477.3 168.001 477.3C166.951 477.3 166.101 478.151 166.101 479.2C166.101 480.249 166.951 481.1 168.001 481.1Z" fill="#FFA600"/>
<path d="M118.3 466.9C119.35 466.9 120.2 466.049 120.2 465C120.2 463.951 119.35 463.1 118.3 463.1C117.251 463.1 116.4 463.951 116.4 465C116.4 466.049 117.251 466.9 118.3 466.9Z" fill="#8118B4"/>
<path d="M149.6 454.2C150.65 454.2 151.5 453.349 151.5 452.3C151.5 451.251 150.65 450.4 149.6 450.4C148.551 450.4 147.7 451.251 147.7 452.3C147.7 453.349 148.551 454.2 149.6 454.2Z" fill="#8118B4"/>
<path d="M235.701 387.3C237.026 387.3 238.101 386.225 238.101 384.9C238.101 383.575 237.026 382.5 235.701 382.5C234.375 382.5 233.301 383.575 233.301 384.9C233.301 386.225 234.375 387.3 235.701 387.3Z" fill="#8118B4"/>
<path d="M175.301 398.6C175.798 398.6 176.201 398.197 176.201 397.7C176.201 397.203 175.798 396.8 175.301 396.8C174.804 396.8 174.401 397.203 174.401 397.7C174.401 398.197 174.804 398.6 175.301 398.6Z" fill="#FF73A7"/>
<path d="M152.201 407.7C153.14 407.7 153.901 406.939 153.901 406C153.901 405.061 153.14 404.3 152.201 404.3C151.262 404.3 150.501 405.061 150.501 406C150.501 406.939 151.262 407.7 152.201 407.7Z" fill="#FFA600"/>
<path d="M103.001 365.6C103.829 365.6 104.501 364.928 104.501 364.1C104.501 363.272 103.829 362.6 103.001 362.6C102.173 362.6 101.501 363.272 101.501 364.1C101.501 364.928 102.173 365.6 103.001 365.6Z" fill="#FF73A7"/>
<path d="M183.201 255.4C184.14 255.4 184.901 254.639 184.901 253.7C184.901 252.761 184.14 252 183.201 252C182.262 252 181.501 252.761 181.501 253.7C181.501 254.639 182.262 255.4 183.201 255.4Z" fill="#B8E4FA"/>
<path d="M210.4 304.9C211.339 304.9 212.1 304.139 212.1 303.2C212.1 302.261 211.339 301.5 210.4 301.5C209.461 301.5 208.7 302.261 208.7 303.2C208.7 304.139 209.461 304.9 210.4 304.9Z" fill="#B8E4FA"/>
<path d="M217.1 356.7C218.039 356.7 218.8 355.939 218.8 355C218.8 354.061 218.039 353.3 217.1 353.3C216.162 353.3 215.4 354.061 215.4 355C215.4 355.939 216.162 356.7 217.1 356.7Z" fill="#FFA600"/>
<path d="M171.801 343.5C172.739 343.5 173.501 342.739 173.501 341.8C173.501 340.861 172.739 340.1 171.801 340.1C170.862 340.1 170.101 340.861 170.101 341.8C170.101 342.739 170.862 343.5 171.801 343.5Z" fill="#8118B4"/>
<path d="M171.201 357.3C172.14 357.3 172.901 356.539 172.901 355.6C172.901 354.661 172.14 353.9 171.201 353.9C170.262 353.9 169.501 354.661 169.501 355.6C169.501 356.539 170.262 357.3 171.201 357.3Z" fill="#8118B4"/>
<path d="M283.101 468.9C283.598 468.9 284.001 468.497 284.001 468C284.001 467.503 283.598 467.1 283.101 467.1C282.604 467.1 282.201 467.503 282.201 468C282.201 468.497 282.604 468.9 283.101 468.9Z" fill="#FF73A7"/>
<path d="M258.701 471.9C259.64 471.9 260.401 471.139 260.401 470.2C260.401 469.261 259.64 468.5 258.701 468.5C257.762 468.5 257.001 469.261 257.001 470.2C257.001 471.139 257.762 471.9 258.701 471.9Z" fill="#FFA600"/>
<path d="M221.801 418.6C222.629 418.6 223.301 417.928 223.301 417.1C223.301 416.272 222.629 415.6 221.801 415.6C220.972 415.6 220.301 416.272 220.301 417.1C220.301 417.928 220.972 418.6 221.801 418.6Z" fill="#FF73A7"/>
<path d="M317.8 547.9C319.071 547.9 320.1 546.87 320.1 545.6C320.1 544.33 319.071 543.3 317.8 543.3C316.53 543.3 315.5 544.33 315.5 545.6C315.5 546.87 316.53 547.9 317.8 547.9Z" fill="#FFA600"/>
<path d="M290.801 561.4C291.739 561.4 292.501 560.639 292.501 559.7C292.501 558.761 291.739 558 290.801 558C289.862 558 289.101 558.761 289.101 559.7C289.101 560.639 289.862 561.4 290.801 561.4Z" fill="#B8E4FA"/>
<path d="M400.601 545.7C401.319 545.7 401.901 545.118 401.901 544.4C401.901 543.682 401.319 543.1 400.601 543.1C399.883 543.1 399.301 543.682 399.301 544.4C399.301 545.118 399.883 545.7 400.601 545.7Z" fill="#B8E4FA"/>
<path d="M307.301 507.4C308.239 507.4 309.001 506.639 309.001 505.7C309.001 504.761 308.239 504 307.301 504C306.362 504 305.601 504.761 305.601 505.7C305.601 506.639 306.362 507.4 307.301 507.4Z" fill="#B8E4FA"/>
<path d="M339.801 466.4C340.739 466.4 341.501 465.639 341.501 464.7C341.501 463.761 340.739 463 339.801 463C338.862 463 338.101 463.761 338.101 464.7C338.101 465.639 338.862 466.4 339.801 466.4Z" fill="#FFA600"/>
<path d="M361.901 508C362.84 508 363.601 507.239 363.601 506.3C363.601 505.361 362.84 504.6 361.901 504.6C360.962 504.6 360.201 505.361 360.201 506.3C360.201 507.239 360.962 508 361.901 508Z" fill="#8118B4"/>
<path d="M277.001 375.9C278.271 375.9 279.301 374.87 279.301 373.6C279.301 372.33 278.271 371.3 277.001 371.3C275.73 371.3 274.701 372.33 274.701 373.6C274.701 374.87 275.73 375.9 277.001 375.9Z" fill="#FFA600"/>
<path d="M292.901 349.4C293.84 349.4 294.601 348.639 294.601 347.7C294.601 346.761 293.84 346 292.901 346C291.962 346 291.201 346.761 291.201 347.7C291.201 348.639 291.962 349.4 292.901 349.4Z" fill="#B8E4FA"/>
<path d="M329.3 417.8C330.902 417.8 332.2 416.502 332.2 414.9C332.2 413.298 330.902 412 329.3 412C327.699 412 326.4 413.298 326.4 414.9C326.4 416.502 327.699 417.8 329.3 417.8Z" fill="#FF73A7"/>
<path d="M306.501 404.2C307.44 404.2 308.201 403.439 308.201 402.5C308.201 401.561 307.44 400.8 306.501 400.8C305.562 400.8 304.801 401.561 304.801 402.5C304.801 403.439 305.562 404.2 306.501 404.2Z" fill="#B8E4FA"/>
<path d="M299.701 456.1C300.639 456.1 301.4 455.339 301.4 454.4C301.4 453.461 300.639 452.7 299.701 452.7C298.762 452.7 298 453.461 298 454.4C298 455.339 298.762 456.1 299.701 456.1Z" fill="#FFA600"/>
<path d="M259.301 431.7C260.239 431.7 261.001 430.939 261.001 430C261.001 429.061 260.239 428.3 259.301 428.3C258.362 428.3 257.601 429.061 257.601 430C257.601 430.939 258.362 431.7 259.301 431.7Z" fill="#8118B4"/>
<path d="M289.901 428C290.84 428 291.601 427.239 291.601 426.3C291.601 425.361 290.84 424.6 289.901 424.6C288.962 424.6 288.201 425.361 288.201 426.3C288.201 427.239 288.962 428 289.901 428Z" fill="#8118B4"/>
<path d="M581.201 310.2C581.753 310.2 582.201 309.752 582.201 309.2C582.201 308.648 581.753 308.2 581.201 308.2C580.649 308.2 580.201 308.648 580.201 309.2C580.201 309.752 580.649 310.2 581.201 310.2Z" fill="#FF73A7"/>
<path d="M575.901 338.4C576.95 338.4 577.801 337.549 577.801 336.5C577.801 335.451 576.95 334.6 575.901 334.6C574.852 334.6 574.001 335.451 574.001 336.5C574.001 337.549 574.852 338.4 575.901 338.4Z" fill="#FFA600"/>
<path d="M506.601 361.7C507.485 361.7 508.201 360.984 508.201 360.1C508.201 359.216 507.485 358.5 506.601 358.5C505.717 358.5 505.001 359.216 505.001 360.1C505.001 360.984 505.717 361.7 506.601 361.7Z" fill="#FF73A7"/>
<path d="M676.601 298.2C678.037 298.2 679.201 297.036 679.201 295.6C679.201 294.164 678.037 293 676.601 293C675.166 293 674.001 294.164 674.001 295.6C674.001 297.036 675.166 298.2 676.601 298.2Z" fill="#FFA600"/>
<path d="M683.501 331.3C684.55 331.3 685.401 330.449 685.401 329.4C685.401 328.351 684.55 327.5 683.501 327.5C682.452 327.5 681.601 328.351 681.601 329.4C681.601 330.449 682.452 331.3 683.501 331.3Z" fill="#B8E4FA"/>
<path d="M601.301 305.3C603.124 305.3 604.601 303.822 604.601 302C604.601 300.177 603.124 298.7 601.301 298.7C599.479 298.7 598.001 300.177 598.001 302C598.001 303.822 599.479 305.3 601.301 305.3Z" fill="#FF73A7"/>
<path d="M701.101 206.5C701.93 206.5 702.601 205.828 702.601 205C702.601 204.172 701.93 203.5 701.101 203.5C700.273 203.5 699.601 204.172 699.601 205C699.601 205.828 700.273 206.5 701.101 206.5Z" fill="#B8E4FA"/>
<path d="M629.801 296.5C630.851 296.5 631.701 295.649 631.701 294.6C631.701 293.551 630.851 292.7 629.801 292.7C628.752 292.7 627.901 293.551 627.901 294.6C627.901 295.649 628.752 296.5 629.801 296.5Z" fill="#B8E4FA"/>
<path d="M595.201 248.3C596.251 248.3 597.101 247.449 597.101 246.4C597.101 245.351 596.251 244.5 595.201 244.5C594.152 244.5 593.301 245.351 593.301 246.4C593.301 247.449 594.152 248.3 595.201 248.3Z" fill="#FFA600"/>
<path d="M647.501 237.2C648.55 237.2 649.401 236.349 649.401 235.3C649.401 234.251 648.55 233.4 647.501 233.4C646.452 233.4 645.601 234.251 645.601 235.3C645.601 236.349 646.452 237.2 647.501 237.2Z" fill="#8118B4"/>
<path d="M468.801 245.8C470.237 245.8 471.401 244.636 471.401 243.2C471.401 241.764 470.237 240.6 468.801 240.6C467.365 240.6 466.201 241.764 466.201 243.2C466.201 244.636 467.365 245.8 468.801 245.8Z" fill="#FFA600"/>
<path d="M445.601 219.7C446.65 219.7 447.501 218.849 447.501 217.8C447.501 216.751 446.65 215.9 445.601 215.9C444.552 215.9 443.701 216.751 443.701 217.8C443.701 218.849 444.552 219.7 445.601 219.7Z" fill="#B8E4FA"/>
<path d="M479.901 300.3C481.724 300.3 483.201 298.823 483.201 297C483.201 295.177 481.724 293.7 479.901 293.7C478.079 293.7 476.601 295.177 476.601 297C476.601 298.823 478.079 300.3 479.901 300.3Z" fill="#FF73A7"/>
<path d="M530.201 202.4C532.024 202.4 533.501 200.923 533.501 199.1C533.501 197.277 532.024 195.8 530.201 195.8C528.379 195.8 526.901 197.277 526.901 199.1C526.901 200.923 528.379 202.4 530.201 202.4Z" fill="#FF73A7"/>
<path d="M509.501 222C510.55 222 511.401 221.149 511.401 220.1C511.401 219.051 510.55 218.2 509.501 218.2C508.452 218.2 507.601 219.051 507.601 220.1C507.601 221.149 508.452 222 509.501 222Z" fill="#B8E4FA"/>
<path d="M564.001 245.6C565.05 245.6 565.901 244.749 565.901 243.7C565.901 242.651 565.05 241.8 564.001 241.8C562.952 241.8 562.101 242.651 562.101 243.7C562.101 244.749 562.952 245.6 564.001 245.6Z" fill="#FFA600"/>
<path d="M524.801 282C525.851 282 526.701 281.149 526.701 280.1C526.701 279.051 525.851 278.2 524.801 278.2C523.752 278.2 522.901 279.051 522.901 280.1C522.901 281.149 523.752 282 524.801 282Z" fill="#8118B4"/>
<path d="M537.801 290.7C538.851 290.7 539.701 289.849 539.701 288.8C539.701 287.751 538.851 286.9 537.801 286.9C536.752 286.9 535.901 287.751 535.901 288.8C535.901 289.849 536.752 290.7 537.801 290.7Z" fill="#8118B4"/>
<path d="M751.101 189.5C752.648 189.5 753.901 188.246 753.901 186.7C753.901 185.154 752.648 183.9 751.101 183.9C749.555 183.9 748.301 185.154 748.301 186.7C748.301 188.246 749.555 189.5 751.101 189.5Z" fill="#8118B4"/>
<path d="M808.001 258.9C809.437 258.9 810.601 257.736 810.601 256.3C810.601 254.864 809.437 253.7 808.001 253.7C806.565 253.7 805.401 254.864 805.401 256.3C805.401 257.736 806.565 258.9 808.001 258.9Z" fill="#FFA600"/>
<path d="M806.001 292.6C807.05 292.6 807.901 291.749 807.901 290.7C807.901 289.651 807.05 288.8 806.001 288.8C804.952 288.8 804.101 289.651 804.101 290.7C804.101 291.749 804.952 292.6 806.001 292.6Z" fill="#B8E4FA"/>
<path d="M838.901 214.1C840.724 214.1 842.201 212.623 842.201 210.8C842.201 208.977 840.724 207.5 838.901 207.5C837.079 207.5 835.601 208.977 835.601 210.8C835.601 212.623 837.079 214.1 838.901 214.1Z" fill="#FF73A7"/>
<path d="M733.601 246.4C735.424 246.4 736.901 244.923 736.901 243.1C736.901 241.277 735.424 239.8 733.601 239.8C731.779 239.8 730.301 241.277 730.301 243.1C730.301 244.923 731.779 246.4 733.601 246.4Z" fill="#FF73A7"/>
<path d="M854.901 176.5C855.73 176.5 856.401 175.828 856.401 175C856.401 174.172 855.73 173.5 854.901 173.5C854.073 173.5 853.401 174.172 853.401 175C853.401 175.828 854.073 176.5 854.901 176.5Z" fill="#B8E4FA"/>
<path d="M795.401 192.4C796.451 192.4 797.301 191.549 797.301 190.5C797.301 189.451 796.451 188.6 795.401 188.6C794.352 188.6 793.501 189.451 793.501 190.5C793.501 191.549 794.352 192.4 795.401 192.4Z" fill="#8118B4"/>
<path d="M675.601 216.1C676.65 216.1 677.501 215.249 677.501 214.2C677.501 213.151 676.65 212.3 675.601 212.3C674.552 212.3 673.701 213.151 673.701 214.2C673.701 215.249 674.552 216.1 675.601 216.1Z" fill="#8118B4"/>
<path d="M702.101 88.4C703.647 88.4 704.901 87.1464 704.901 85.6C704.901 84.0536 703.647 82.8 702.101 82.8C700.554 82.8 699.301 84.0536 699.301 85.6C699.301 87.1464 700.554 88.4 702.101 88.4Z" fill="#8118B4"/>
<path d="M673.901 150.7C674.453 150.7 674.901 150.252 674.901 149.7C674.901 149.148 674.453 148.7 673.901 148.7C673.349 148.7 672.901 149.148 672.901 149.7C672.901 150.252 673.349 150.7 673.901 150.7Z" fill="#FF73A7"/>
<path d="M666.301 178.4C667.35 178.4 668.201 177.549 668.201 176.5C668.201 175.451 667.35 174.6 666.301 174.6C665.252 174.6 664.401 175.451 664.401 176.5C664.401 177.549 665.252 178.4 666.301 178.4Z" fill="#FFA600"/>
<path d="M595.201 195.7C596.084 195.7 596.801 194.984 596.801 194.1C596.801 193.216 596.084 192.5 595.201 192.5C594.317 192.5 593.601 193.216 593.601 194.1C593.601 194.984 594.317 195.7 595.201 195.7Z" fill="#FF73A7"/>
<path d="M571.401 120.7C572.837 120.7 574.001 119.536 574.001 118.1C574.001 116.664 572.837 115.5 571.401 115.5C569.965 115.5 568.801 116.664 568.801 118.1C568.801 119.536 569.965 120.7 571.401 120.7Z" fill="#FFA600"/>
<path d="M550.301 92.7C551.35 92.7 552.201 91.8493 552.201 90.8C552.201 89.7506 551.35 88.9 550.301 88.9C549.252 88.9 548.401 89.7506 548.401 90.8C548.401 91.8493 549.252 92.7 550.301 92.7Z" fill="#B8E4FA"/>
<path d="M577.801 175.9C579.624 175.9 581.101 174.423 581.101 172.6C581.101 170.777 579.624 169.3 577.801 169.3C575.978 169.3 574.501 170.777 574.501 172.6C574.501 174.423 575.978 175.9 577.801 175.9Z" fill="#FF73A7"/>
<path d="M636.301 82.6C638.124 82.6 639.601 81.1225 639.601 79.3C639.601 77.4774 638.124 76 636.301 76C634.478 76 633.001 77.4774 633.001 79.3C633.001 81.1225 634.478 82.6 636.301 82.6Z" fill="#FF73A7"/>
<path d="M613.901 100.4C614.95 100.4 615.801 99.5493 615.801 98.5C615.801 97.4506 614.95 96.6 613.901 96.6C612.852 96.6 612.001 97.4506 612.001 98.5C612.001 99.5493 612.852 100.4 613.901 100.4Z" fill="#B8E4FA"/>
<path d="M666.101 128.5C667.15 128.5 668.001 127.649 668.001 126.6C668.001 125.551 667.15 124.7 666.101 124.7C665.051 124.7 664.201 125.551 664.201 126.6C664.201 127.649 665.051 128.5 666.101 128.5Z" fill="#FFA600"/>
<path d="M624.001 161.4C625.05 161.4 625.901 160.549 625.901 159.5C625.901 158.451 625.05 157.6 624.001 157.6C622.951 157.6 622.101 158.451 622.101 159.5C622.101 160.549 622.951 161.4 624.001 161.4Z" fill="#8118B4"/>
<path d="M632.401 127.6C633.45 127.6 634.301 126.749 634.301 125.7C634.301 124.651 633.45 123.8 632.401 123.8C631.352 123.8 630.501 124.651 630.501 125.7C630.501 126.749 631.352 127.6 632.401 127.6Z" fill="#8118B4"/>
<path d="M500.501 304.8C502.047 304.8 503.301 303.546 503.301 302C503.301 300.454 502.047 299.2 500.501 299.2C498.954 299.2 497.701 300.454 497.701 302C497.701 303.546 498.954 304.8 500.501 304.8Z" fill="#8118B4"/>
<path d="M472.401 367.1C472.953 367.1 473.401 366.652 473.401 366.1C473.401 365.548 472.953 365.1 472.401 365.1C471.849 365.1 471.401 365.548 471.401 366.1C471.401 366.652 471.849 367.1 472.401 367.1Z" fill="#FF73A7"/>
<path d="M464.801 394.8C465.85 394.8 466.701 393.949 466.701 392.9C466.701 391.851 465.85 391 464.801 391C463.752 391 462.901 391.851 462.901 392.9C462.901 393.949 463.752 394.8 464.801 394.8Z" fill="#FFA600"/>
<path d="M393.701 412.1C394.585 412.1 395.301 411.384 395.301 410.5C395.301 409.616 394.585 408.9 393.701 408.9C392.817 408.9 392.101 409.616 392.101 410.5C392.101 411.384 392.817 412.1 393.701 412.1Z" fill="#FF73A7"/>
<path d="M369.901 337.1C371.337 337.1 372.501 335.936 372.501 334.5C372.501 333.064 371.337 331.9 369.901 331.9C368.465 331.9 367.301 333.064 367.301 334.5C367.301 335.936 368.465 337.1 369.901 337.1Z" fill="#FFA600"/>
<path d="M348.801 309.1C349.85 309.1 350.701 308.249 350.701 307.2C350.701 306.151 349.85 305.3 348.801 305.3C347.752 305.3 346.901 306.151 346.901 307.2C346.901 308.249 347.752 309.1 348.801 309.1Z" fill="#B8E4FA"/>
<path d="M376.301 392.4C378.124 392.4 379.601 390.922 379.601 389.1C379.601 387.277 378.124 385.8 376.301 385.8C374.478 385.8 373.001 387.277 373.001 389.1C373.001 390.922 374.478 392.4 376.301 392.4Z" fill="#FF73A7"/>
<path d="M434.701 299C436.523 299 438.001 297.523 438.001 295.7C438.001 293.877 436.523 292.4 434.701 292.4C432.878 292.4 431.401 293.877 431.401 295.7C431.401 297.523 432.878 299 434.701 299Z" fill="#FF73A7"/>
<path d="M412.401 316.8C413.45 316.8 414.301 315.949 414.301 314.9C414.301 313.851 413.45 313 412.401 313C411.352 313 410.501 313.851 410.501 314.9C410.501 315.949 411.352 316.8 412.401 316.8Z" fill="#B8E4FA"/>
<path d="M464.601 345C465.65 345 466.501 344.149 466.501 343.1C466.501 342.051 465.65 341.2 464.601 341.2C463.551 341.2 462.701 342.051 462.701 343.1C462.701 344.149 463.551 345 464.601 345Z" fill="#FFA600"/>
<path d="M422.501 377.9C423.55 377.9 424.401 377.049 424.401 376C424.401 374.951 423.55 374.1 422.501 374.1C421.452 374.1 420.601 374.951 420.601 376C420.601 377.049 421.452 377.9 422.501 377.9Z" fill="#8118B4"/>
<path d="M430.901 344C431.95 344 432.801 343.149 432.801 342.1C432.801 341.051 431.95 340.2 430.901 340.2C429.852 340.2 429.001 341.051 429.001 342.1C429.001 343.149 429.852 344 430.901 344Z" fill="#8118B4"/>
<g opacity="0.67">
<path opacity="0.67" d="M52.7014 152.4C54.2478 152.4 55.5014 151.146 55.5014 149.6C55.5014 148.054 54.2478 146.8 52.7014 146.8C51.155 146.8 49.9014 148.054 49.9014 149.6C49.9014 151.146 51.155 152.4 52.7014 152.4Z" fill="#8118B4"/>
<path opacity="0.67" d="M24.501 214.7C25.0533 214.7 25.501 214.252 25.501 213.7C25.501 213.148 25.0533 212.7 24.501 212.7C23.9487 212.7 23.501 213.148 23.501 213.7C23.501 214.252 23.9487 214.7 24.501 214.7Z" fill="#FF73A7"/>
<path opacity="0.67" d="M16.901 242.4C17.9503 242.4 18.801 241.549 18.801 240.5C18.801 239.451 17.9503 238.6 16.901 238.6C15.8516 238.6 15.001 239.451 15.001 240.5C15.001 241.549 15.8516 242.4 16.901 242.4Z" fill="#FFA600"/>
<g opacity="0.67">
<path opacity="0.67" d="M16.7008 192.5C17.7501 192.5 18.6008 191.649 18.6008 190.6C18.6008 189.551 17.7501 188.7 16.7008 188.7C15.6514 188.7 14.8008 189.551 14.8008 190.6C14.8008 191.649 15.6514 192.5 16.7008 192.5Z" fill="#FFA600"/>
</g>
</g>
<path d="M428.101 302C429.647 302 430.901 300.746 430.901 299.2C430.901 297.654 429.647 296.4 428.101 296.4C426.554 296.4 425.301 297.654 425.301 299.2C425.301 300.746 426.554 302 428.101 302Z" fill="#8118B4"/>
<path d="M363.101 274.2C363.653 274.2 364.101 273.752 364.101 273.2C364.101 272.648 363.653 272.2 363.101 272.2C362.549 272.2 362.101 272.648 362.101 273.2C362.101 273.752 362.549 274.2 363.101 274.2Z" fill="#FF73A7"/>
<path d="M336.001 268.4C337.05 268.4 337.901 267.549 337.901 266.5C337.901 265.451 337.05 264.6 336.001 264.6C334.952 264.6 334.101 265.451 334.101 266.5C334.101 267.549 334.952 268.4 336.001 268.4Z" fill="#FFA600"/>
<path d="M316.101 197.6C316.985 197.6 317.701 196.884 317.701 196C317.701 195.116 316.985 194.4 316.101 194.4C315.217 194.4 314.501 195.116 314.501 196C314.501 196.884 315.217 197.6 316.101 197.6Z" fill="#FF73A7"/>
<path d="M371.601 371.7C373.037 371.7 374.201 370.536 374.201 369.1C374.201 367.664 373.037 366.5 371.601 366.5C370.165 366.5 369.001 367.664 369.001 369.1C369.001 370.536 370.165 371.7 371.601 371.7Z" fill="#FFA600"/>
<path d="M337.501 376.2C338.55 376.2 339.401 375.349 339.401 374.3C339.401 373.251 338.55 372.4 337.501 372.4C336.452 372.4 335.601 373.251 335.601 374.3C335.601 375.349 336.452 376.2 337.501 376.2Z" fill="#B8E4FA"/>
<path d="M422.401 393.3C424.224 393.3 425.701 391.823 425.701 390C425.701 388.177 424.224 386.7 422.401 386.7C420.579 386.7 419.101 388.177 419.101 390C419.101 391.823 420.579 393.3 422.401 393.3Z" fill="#FF73A7"/>
<path d="M369.201 296.9C371.023 296.9 372.501 295.423 372.501 293.6C372.501 291.777 371.023 290.3 369.201 290.3C367.378 290.3 365.901 291.777 365.901 293.6C365.901 295.423 367.378 296.9 369.201 296.9Z" fill="#FF73A7"/>
<path d="M460.801 399.9C461.63 399.9 462.301 399.228 462.301 398.4C462.301 397.572 461.63 396.9 460.801 396.9C459.973 396.9 459.301 397.572 459.301 398.4C459.301 399.228 459.973 399.9 460.801 399.9Z" fill="#B8E4FA"/>
<path d="M375.101 324.4C376.151 324.4 377.001 323.549 377.001 322.5C377.001 321.451 376.151 320.6 375.101 320.6C374.052 320.6 373.201 321.451 373.201 322.5C373.201 323.549 374.052 324.4 375.101 324.4Z" fill="#B8E4FA"/>
<path d="M425.101 292.3C426.15 292.3 427.001 291.449 427.001 290.4C427.001 289.351 426.15 288.5 425.101 288.5C424.052 288.5 423.201 289.351 423.201 290.4C423.201 291.449 424.052 292.3 425.101 292.3Z" fill="#FFA600"/>
<path d="M433.401 345.2C434.45 345.2 435.301 344.349 435.301 343.3C435.301 342.251 434.45 341.4 433.401 341.4C432.352 341.4 431.501 342.251 431.501 343.3C431.501 344.349 432.352 345.2 433.401 345.2Z" fill="#8118B4"/>
<path d="M391.301 172.3C392.737 172.3 393.901 171.136 393.901 169.7C393.901 168.264 392.737 167.1 391.301 167.1C389.865 167.1 388.701 168.264 388.701 169.7C388.701 171.136 389.865 172.3 391.301 172.3Z" fill="#FFA600"/>
<path d="M417.901 149.6C418.95 149.6 419.801 148.749 419.801 147.7C419.801 146.651 418.95 145.8 417.901 145.8C416.852 145.8 416.001 146.651 416.001 147.7C416.001 148.749 416.852 149.6 417.901 149.6Z" fill="#B8E4FA"/>
<path d="M337.001 181.2C338.824 181.2 340.301 179.723 340.301 177.9C340.301 176.077 338.824 174.6 337.001 174.6C335.179 174.6 333.701 176.077 333.701 177.9C333.701 179.723 335.179 181.2 337.001 181.2Z" fill="#FF73A7"/>
<path d="M432.201 236.5C434.024 236.5 435.501 235.023 435.501 233.2C435.501 231.377 434.024 229.9 432.201 229.9C430.379 229.9 428.901 231.377 428.901 233.2C428.901 235.023 430.379 236.5 432.201 236.5Z" fill="#FF73A7"/>
<path d="M412.301 213.4C413.351 213.4 414.201 212.549 414.201 211.5C414.201 210.451 413.351 209.6 412.301 209.6C411.252 209.6 410.401 210.451 410.401 211.5C410.401 212.549 411.252 213.4 412.301 213.4Z" fill="#B8E4FA"/>
<path d="M385.901 266.5C386.95 266.5 387.801 265.649 387.801 264.6C387.801 263.551 386.95 262.7 385.901 262.7C384.852 262.7 384.001 263.551 384.001 264.6C384.001 265.649 384.852 266.5 385.901 266.5Z" fill="#FFA600"/>
<path d="M351.601 225.5C352.651 225.5 353.501 224.649 353.501 223.6C353.501 222.551 352.651 221.7 351.601 221.7C350.552 221.7 349.701 222.551 349.701 223.6C349.701 224.649 350.552 225.5 351.601 225.5Z" fill="#8118B4"/>
<path d="M385.701 232.8C386.75 232.8 387.601 231.949 387.601 230.9C387.601 229.851 386.75 229 385.701 229C384.651 229 383.801 229.851 383.801 230.9C383.801 231.949 384.651 232.8 385.701 232.8Z" fill="#8118B4"/>
<path d="M296.101 86.5L299.601 88.2C299.801 88.3 299.901 88.5 299.901 88.7L300.301 92.5C300.401 93 301.001 93.2 301.401 92.9L304.201 90.1C304.401 90 304.601 89.9 304.801 89.9L308.601 90.6C309.101 90.7 309.501 90.2 309.301 89.7L307.601 86.3C307.501 86.1 307.501 85.9 307.601 85.7L309.501 82.3C309.801 81.8 309.401 81.3 308.901 81.4L305.001 82C304.801 82 304.601 82 304.401 81.8L301.801 79C301.401 78.6 300.801 78.8 300.701 79.3L300.001 83.2C300.001 83.4 299.801 83.6 299.601 83.7L296.001 85.4C295.601 85.6 295.601 86.3 296.101 86.5Z" fill="url(#paint3_linear)"/>
<path opacity="0.17" d="M296.101 85.4L299.701 83.7C299.901 83.6 300.001 83.4 300.101 83.2L300.801 79.4C300.901 79.1 301.101 78.9 301.401 78.9C301.301 80.4 303.401 81.9 303.301 83C303.201 83.7 303.101 84.3 303.301 84.8C303.501 85.5 303.901 86.1 303.601 87.2C303.401 88 301.501 89.7 301.301 90.5C301.101 91.1 301.301 91.6 300.901 92.7C300.901 92.8 300.801 92.9 300.801 93C300.601 92.9 300.401 92.7 300.401 92.5L300.001 88.7C300.001 88.5 299.901 88.3 299.701 88.2L296.201 86.5C295.601 86.3 295.601 85.6 296.101 85.4Z" fill="#351656"/>
</g>
<path d="M89.9013 211.4L93.8013 206.9C94.0013 206.7 94.3013 206.5 94.6013 206.6L100.501 207.4C101.301 207.5 101.801 206.6 101.401 205.9L98.3013 200.6C98.1013 200.3 98.1013 200 98.2013 199.7L100.601 194.2C100.901 193.5 100.301 192.6 99.5013 192.8L93.7013 194.1C93.4013 194.2 93.1013 194.1 92.8013 193.9L88.4013 189.7C87.8013 189.1 86.9013 189.5 86.8013 190.3L86.3013 196.3C86.3013 196.6 86.1013 196.9 85.8013 197.1L80.7013 200C80.0013 200.4 80.1013 201.4 80.8013 201.8L86.3013 204.3C86.6013 204.4 86.8013 204.7 86.9013 205L88.1013 211C88.4013 211.7 89.4013 212 89.9013 211.4Z" fill="url(#paint4_linear)"/>
</g>
<defs>
<linearGradient id="paint0_linear" x1="641.501" y1="0" x2="641.501" y2="717.143" gradientUnits="userSpaceOnUse">
<stop offset="0.611311" stop-color="#231E33"/>
<stop offset="1" stop-color="#522359"/>
</linearGradient>
<linearGradient id="paint1_linear" x1="641.501" y1="0" x2="641.501" y2="717.143" gradientUnits="userSpaceOnUse">
<stop offset="0.611311" stop-color="#231E33"/>
<stop offset="1" stop-color="#522359"/>
</linearGradient>
<linearGradient id="paint2_linear" x1="614.589" y1="562.663" x2="767.052" y2="826.737" gradientUnits="userSpaceOnUse">
<stop stop-color="#623997"/>
<stop offset="1" stop-color="#662A67"/>
</linearGradient>
<linearGradient id="paint3_linear" x1="307.117" y1="91.6609" x2="300.083" y2="79.4942" gradientUnits="userSpaceOnUse">
<stop offset="0.0567568" stop-color="#FF7E48"/>
<stop offset="0.3352" stop-color="#FF796F"/>
<stop offset="0.6072" stop-color="#FF768E"/>
<stop offset="0.838" stop-color="#FF74A0"/>
<stop offset="1" stop-color="#FF73A7"/>
</linearGradient>
<linearGradient id="paint4_linear" x1="101.542" y1="200.566" x2="80.2236" y2="200.566" gradientUnits="userSpaceOnUse">
<stop stop-color="#FBB40D"/>
<stop offset="1" stop-color="#FB710D"/>
</linearGradient>
</defs>
</svg>
