<svg width="2560" height="1206" viewBox="0 0 2560 1206" fill="none" xmlns="http://www.w3.org/2000/svg">
<path d="M523.034 270.073C528.65 265.156 534.061 260.743 539.28 256.801C556.255 239.876 575.394 227.056 600.766 229.032C626.14 227.055 645.28 239.876 662.256 256.802C667.474 260.743 672.885 265.156 678.5 270.073C694.235 283.852 710.064 298.708 726.146 313.801C808.689 391.271 897.91 475.008 1015.5 451.573C1071.78 440.357 1093.32 409.566 1112.33 382.401C1140.76 341.751 1163.52 309.224 1288.5 362.573C1464 437.487 1466.62 434.111 1522.7 361.987C1533.24 348.425 1545.67 332.433 1561.5 314.073C1593.57 276.868 1616.59 241.308 1637.71 208.698C1682.42 139.635 1718.56 83.8005 1814 53.5733C1924.57 18.5539 2007.88 -5.93742 2042.27 2.76119C2076.65 -5.93705 2159.97 18.5542 2270.53 53.5734C2365.97 83.8006 2402.11 139.635 2446.83 208.698C2467.94 241.308 2490.96 276.868 2523.03 314.073C2538.86 332.433 2551.29 348.425 2561.83 361.987C2617.91 434.111 2620.53 437.487 2796.03 362.573C2921.01 309.224 2943.77 341.752 2972.21 382.401C2991.21 409.566 3012.75 440.358 3069.03 451.573C3186.62 475.008 3275.84 391.271 3358.39 313.802L3358.4 313.784C3374.48 298.697 3390.3 283.847 3406.03 270.073C3492.61 194.264 3530.49 238.382 3566.25 280.032C3570.35 284.806 3574.42 289.548 3578.53 294.073L3602.53 687.573H3142V849.997L3362 849.998C3344.67 869.998 3284.4 925.198 3182 985.998C3176.4 989.321 3170.97 992.568 3165.67 995.734L3165.4 995.892C3049.67 1065.02 2998.62 1095.51 2754 1042C2587.36 1005.54 2577.5 1016.55 2537.96 1060.67C2516.75 1084.33 2487.02 1117.51 2420 1158C2228 1274 2098 1154 1986 1042C1958.82 1014.82 1934.47 995.653 1912.44 982.148C1910.31 983.428 1908.16 984.711 1906 985.996C1900.4 989.32 1894.97 992.566 1889.67 995.733L1889.4 995.891C1773.67 1065.02 1722.62 1095.51 1478 1042C1311.36 1005.54 1301.5 1016.55 1261.96 1060.67C1240.75 1084.33 1211.02 1117.51 1144 1158C955.088 1272.13 826.197 1157.8 715.418 1047.41C645.926 1075.83 569.35 1079.04 399.998 1042C233.356 1005.55 223.494 1016.55 183.955 1060.67C162.753 1084.33 133.016 1117.51 65.9979 1158C-126.002 1274 -256.002 1154 -368.002 1042C-461.049 948.951 -520.967 949.77 -568.398 950.418C-578.059 950.55 -587.202 950.675 -596.002 949.998V849.998H-555V687.573H-857.466C-860.133 476.24 -863.866 46.3731 -857.466 17.5732C-849.466 -18.4268 -752.966 9.0732 -612.466 53.5732C-517.029 83.8004 -480.883 139.635 -436.172 208.697C-415.061 241.308 -392.04 276.868 -359.966 314.073C-344.139 332.433 -331.706 348.425 -321.163 361.987C-265.091 434.111 -262.466 437.487 -86.9659 362.573C38.0155 309.224 60.7714 341.751 89.2089 382.401C108.213 409.566 129.754 440.357 186.034 451.573C303.624 475.007 392.845 391.271 475.388 313.801C491.47 298.708 507.299 283.852 523.034 270.073Z" fill="#F5F9FC"/>
</svg>
