<svg width="17" height="16" viewBox="0 0 17 16" fill="none" xmlns="http://www.w3.org/2000/svg">
<path d="M16.3055 7.25093C16.6335 6.93057 16.7493 6.46039 16.6078 6.02332C16.466 5.58626 16.0965 5.27426 15.6427 5.20804L11.6072 4.62049C11.4353 4.59541 11.2868 4.4874 11.2101 4.33123L9.40593 0.667475C9.20335 0.255821 8.7922 0 8.33399 0C7.87611 0 7.46496 0.255821 7.26238 0.667475L5.4579 4.33156C5.38115 4.48773 5.2323 4.59574 5.06043 4.62083L1.02497 5.20838C0.571431 5.27425 0.201658 5.58659 0.059823 6.02366C-0.0816785 6.46073 0.0341257 6.9309 0.362182 7.25126L3.28199 10.1031C3.40647 10.2248 3.46353 10.4 3.43417 10.5712L2.74535 14.5982C2.68427 14.9526 2.77705 15.2974 3.00599 15.5693C3.36175 15.993 3.98282 16.1221 4.47941 15.8606L8.08836 13.9591C8.23921 13.8799 8.4291 13.8805 8.57961 13.9591L12.1889 15.8606C12.3644 15.9532 12.5517 16 12.7449 16C13.0976 16 13.432 15.8428 13.662 15.5693C13.8913 15.2974 13.9837 14.952 13.9226 14.5982L13.2335 10.5712C13.2041 10.3997 13.2612 10.2248 13.3857 10.1031L16.3055 7.25093Z" fill="#FBB40D"/>
</svg>
