<svg width="66" height="71" viewBox="0 0 66 71" fill="none" xmlns="http://www.w3.org/2000/svg">
<g filter="url(#filter0_f)">
<circle cx="33" cy="37.9995" r="13" fill="#392E66"/>
</g>
<circle cx="33" cy="24.9995" r="25" fill="url(#paint0_linear)"/>
<path d="M30.25 22.937C30.25 22.1778 29.6343 21.562 28.875 21.562H28.1875C26.6686 21.562 25.4375 22.7931 25.4375 24.312V26.3745C25.4375 27.8935 26.6686 29.1245 28.1875 29.1245H28.875C29.6343 29.1245 30.25 28.5088 30.25 27.7495V22.937ZM37.8125 29.1245C39.3314 29.1245 40.5625 27.8935 40.5625 26.3745V24.312C40.5625 22.7931 39.3314 21.562 37.8125 21.562H37.125C36.3657 21.562 35.75 22.1778 35.75 22.937V27.7495C35.75 28.5088 36.3657 29.1245 37.125 29.1245H37.8125ZM33 13.9995C26.8632 13.9995 22.1968 19.1055 22 24.9995V25.687C22 26.0669 22.3077 26.3745 22.6875 26.3745H23.375C23.7548 26.3745 24.0625 26.0669 24.0625 25.687V24.9995C24.0625 20.0714 28.0719 16.062 33 16.062C37.9281 16.062 41.9375 20.0714 41.9375 24.9995H41.9323C41.9358 25.1039 41.9375 32.1203 41.9375 32.1203C41.9375 33.1236 41.1241 33.937 40.1208 33.937H35.75C35.75 32.7979 34.8266 31.8745 33.6875 31.8745H32.3125C31.1734 31.8745 30.25 32.7979 30.25 33.937C30.25 35.0761 31.1734 35.9995 32.3125 35.9995H40.1208C42.2632 35.9995 44 34.2627 44 32.1203V24.9995C43.8032 19.1055 39.1368 13.9995 33 13.9995Z" fill="white"/>
<defs>
<filter id="filter0_f" x="0" y="4.99951" width="66" height="66" filterUnits="userSpaceOnUse" color-interpolation-filters="sRGB">
<feFlood flood-opacity="0" result="BackgroundImageFix"/>
<feBlend mode="normal" in="SourceGraphic" in2="BackgroundImageFix" result="shape"/>
<feGaussianBlur stdDeviation="10" result="effect1_foregroundBlur"/>
</filter>
<linearGradient id="paint0_linear" x1="33" y1="-0.000488281" x2="33" y2="49.9995" gradientUnits="userSpaceOnUse">
<stop stop-color="#4E3D95"/>
<stop offset="1" stop-color="#3A2E60"/>
</linearGradient>
</defs>
</svg>
