<svg width="66" height="71" viewBox="0 0 66 71" fill="none" xmlns="http://www.w3.org/2000/svg">
<g filter="url(#filter0_f)">
<circle cx="33" cy="38" r="13" fill="#392E66"/>
</g>
<circle cx="33" cy="25" r="25" fill="url(#paint0_linear)"/>
<path d="M42.2735 15.9613L38.211 15.0239C37.7696 14.9223 37.3165 15.1528 37.1368 15.5668L35.2619 19.9417C35.0978 20.3245 35.2072 20.7737 35.5314 21.0355L37.8985 22.9729C36.4923 25.9689 34.0353 28.4611 30.9768 29.8946L29.0393 27.5275C28.7737 27.2033 28.3284 27.0939 27.9456 27.258L23.5707 29.1329C23.1527 29.3165 22.9223 29.7696 23.0238 30.211L23.9613 34.2735C24.059 34.6953 24.434 35 24.8754 35C34.8791 35 43 26.8947 43 16.8754C43 16.4379 42.6992 16.059 42.2735 15.9613Z" fill="white"/>
<defs>
<filter id="filter0_f" x="0" y="5" width="66" height="66" filterUnits="userSpaceOnUse" color-interpolation-filters="sRGB">
<feFlood flood-opacity="0" result="BackgroundImageFix"/>
<feBlend mode="normal" in="SourceGraphic" in2="BackgroundImageFix" result="shape"/>
<feGaussianBlur stdDeviation="10" result="effect1_foregroundBlur"/>
</filter>
<linearGradient id="paint0_linear" x1="33" y1="0" x2="33" y2="50" gradientUnits="userSpaceOnUse">
<stop stop-color="#4E3D95"/>
<stop offset="1" stop-color="#3A2E60"/>
</linearGradient>
</defs>
</svg>
