<svg width="66" height="71" viewBox="0 0 66 71" fill="none" xmlns="http://www.w3.org/2000/svg">
<g filter="url(#filter0_f)">
<circle cx="33" cy="38" r="13" fill="#392E66"/>
</g>
<circle cx="33" cy="25" r="25" fill="url(#paint0_linear)"/>
<path d="M33 16C27.4771 16 23 20.4771 23 26C23 31.5229 27.4771 36 33 36C38.5229 36 43 31.5229 43 26C43 20.4771 38.5229 16 33 16ZM37.7231 29.982C37.659 30.0573 36.1193 31.826 33.2937 31.826C29.8787 31.826 27.4677 29.2752 27.4677 25.9563C27.4677 22.678 29.9679 20.174 33.2646 20.174C35.9644 20.174 37.376 21.6787 37.4348 21.7427C37.5072 21.8216 37.5514 21.9223 37.5604 22.029C37.5694 22.1357 37.5428 22.2424 37.4847 22.3324L36.5823 23.7298C36.419 23.9825 36.0672 24.0262 35.8471 23.8223C35.8377 23.8137 34.7773 22.8594 33.3519 22.8594C31.4924 22.8594 30.3714 24.2132 30.3714 25.9272C30.3714 27.5241 31.4002 29.1406 33.3665 29.1406C34.9268 29.1406 35.9987 27.9979 36.0094 27.9864C36.2163 27.762 36.5763 27.7834 36.7556 28.0288L37.7454 29.3825C37.8097 29.4704 37.8424 29.5774 37.8384 29.6861C37.8343 29.7949 37.7937 29.8991 37.7231 29.982Z" fill="white"/>
<defs>
<filter id="filter0_f" x="0" y="5" width="66" height="66" filterUnits="userSpaceOnUse" color-interpolation-filters="sRGB">
<feFlood flood-opacity="0" result="BackgroundImageFix"/>
<feBlend mode="normal" in="SourceGraphic" in2="BackgroundImageFix" result="shape"/>
<feGaussianBlur stdDeviation="10" result="effect1_foregroundBlur"/>
</filter>
<linearGradient id="paint0_linear" x1="33" y1="0" x2="33" y2="50" gradientUnits="userSpaceOnUse">
<stop stop-color="#4E3D95"/>
<stop offset="1" stop-color="#3A2E60"/>
</linearGradient>
</defs>
</svg>
