<svg width="66" height="71" viewBox="0 0 66 71" fill="none" xmlns="http://www.w3.org/2000/svg">
<g filter="url(#filter0_f)">
<circle cx="33" cy="37.9995" r="13" fill="#392E66"/>
</g>
<circle cx="33" cy="24.9995" r="25" fill="url(#paint0_linear)"/>
<path d="M33 14.9995C27.4758 14.9995 23 19.4753 23 24.9995C23 30.5237 27.4758 34.9995 33 34.9995C38.5242 34.9995 43 30.5237 43 24.9995C43 19.4753 38.5242 14.9995 33 14.9995ZM35.3024 29.1164L31.746 26.5318C31.621 26.439 31.5484 26.2939 31.5484 26.1406V19.3544C31.5484 19.0882 31.7661 18.8705 32.0323 18.8705H33.9677C34.2339 18.8705 34.4516 19.0882 34.4516 19.3544V24.9068L37.0121 26.7697C37.2298 26.9269 37.2742 27.2294 37.1169 27.4471L35.9798 29.0116C35.8226 29.2253 35.5202 29.2737 35.3024 29.1164Z" fill="white"/>
<defs>
<filter id="filter0_f" x="0" y="4.99951" width="66" height="66" filterUnits="userSpaceOnUse" color-interpolation-filters="sRGB">
<feFlood flood-opacity="0" result="BackgroundImageFix"/>
<feBlend mode="normal" in="SourceGraphic" in2="BackgroundImageFix" result="shape"/>
<feGaussianBlur stdDeviation="10" result="effect1_foregroundBlur"/>
</filter>
<linearGradient id="paint0_linear" x1="33" y1="-0.000488281" x2="33" y2="49.9995" gradientUnits="userSpaceOnUse">
<stop stop-color="#4E3D95"/>
<stop offset="1" stop-color="#3A2E60"/>
</linearGradient>
</defs>
</svg>
