<svg width="66" height="71" viewBox="0 0 66 71" fill="none" xmlns="http://www.w3.org/2000/svg">
<g filter="url(#filter0_f)">
<circle cx="33" cy="38" r="13" fill="#392E66"/>
</g>
<circle cx="33" cy="25" r="25" fill="url(#paint0_linear)"/>
<path d="M36.1261 27.5751L35.1938 30.8817C35.183 30.9213 35.1595 30.9562 35.1276 30.9827L32.2608 33.3345C32.2236 33.3648 32.1776 33.3809 32.1306 33.3809C32.1104 33.3809 32.0908 33.378 32.071 33.372C32.0051 33.352 31.9541 33.301 31.935 33.2361L30.9502 29.8973C30.2326 29.9259 29.5994 29.7639 29.0783 29.4107L27.7734 30.4682C27.6906 30.5349 27.5702 30.5281 27.496 30.4514L26.5272 29.4457C26.4896 29.4068 26.4697 29.3543 26.4715 29.3001C26.4733 29.2463 26.4972 29.1952 26.5377 29.1588L27.8295 27.99C27.7192 27.6932 27.5213 26.9536 27.7311 25.8283L24.4111 24.6324C24.3464 24.6092 24.2983 24.5553 24.2827 24.4893C24.2668 24.4233 24.2864 24.3541 24.3337 24.3049L26.9044 21.6404C26.9344 21.6094 26.9731 21.5887 27.0161 21.5809L30.4022 20.9836C31.0395 20.2569 31.7809 19.5215 32.6065 18.7966C37.3608 14.623 41.0772 14 42.8691 14C43.459 14 43.7841 14.0707 43.7978 14.0735C43.8785 14.0913 43.94 14.1555 43.9541 14.2358C43.9902 14.4435 44.7635 19.3913 38.2367 25.8301C38.228 25.8382 37.3532 26.6749 36.1261 27.5751ZM35.8176 23.9759C36.9532 23.9759 37.8736 23.0679 37.8736 21.9476C37.8736 20.8273 36.9533 19.9194 35.8176 19.9194C34.682 19.9194 33.7616 20.8273 33.7616 21.9476C33.7617 23.0679 34.6821 23.9759 35.8176 23.9759Z" fill="white"/>
<path d="M28.079 31.2316C28.1231 31.1888 28.1871 31.1717 28.2475 31.1862C28.3079 31.2009 28.3564 31.2447 28.3759 31.3025L28.8435 32.6729C28.866 32.7386 28.8479 32.811 28.7972 32.8588L26.5796 34.9499C26.5456 34.9817 26.5011 34.9995 26.4544 34.9995H24.585C24.5113 34.9995 24.4451 34.9552 24.4172 34.8882C24.3897 34.8207 24.4064 34.7436 24.4592 34.693L28.079 31.2316Z" fill="white"/>
<path d="M25.6024 30.1142C25.6368 30.0788 25.6842 30.0046 25.7334 30.0046C25.7348 30.0046 25.7362 30.0046 25.738 30.0046C25.7891 30.0046 25.8368 30.0824 25.87 30.1206L26.674 31.0925C26.7355 31.1627 26.7322 31.2676 26.6664 31.334L23.0832 34.9463C23.0492 34.9806 23.0025 34.9999 22.9541 34.9999H22.3617H22.1809C22.081 34.9999 22.0001 34.9199 22.0001 34.8215V33.9674C22.0001 33.9217 22.0182 33.8503 22.0499 33.8171L25.6024 30.1142Z" fill="white"/>
<path d="M22.0547 30.5538L24.6437 28.0641C24.7038 28.006 24.7967 27.9971 24.8665 28.0414L25.9265 28.7035C25.9731 28.7328 26.0035 28.7809 26.0093 28.8349C26.0151 28.8887 25.9959 28.9426 25.9568 28.9807L22.3078 32.5514C22.2731 32.5853 22.2268 32.6031 22.1801 32.6031C22.157 32.6031 22.1331 32.5985 22.1107 32.5892C22.0438 32.5617 22 32.4968 22 32.4247V30.6812C22.0001 30.6334 22.02 30.587 22.0547 30.5538Z" fill="white"/>
<defs>
<filter id="filter0_f" x="0" y="5" width="66" height="66" filterUnits="userSpaceOnUse" color-interpolation-filters="sRGB">
<feFlood flood-opacity="0" result="BackgroundImageFix"/>
<feBlend mode="normal" in="SourceGraphic" in2="BackgroundImageFix" result="shape"/>
<feGaussianBlur stdDeviation="10" result="effect1_foregroundBlur"/>
</filter>
<linearGradient id="paint0_linear" x1="33" y1="0" x2="33" y2="50" gradientUnits="userSpaceOnUse">
<stop stop-color="#4E3D95"/>
<stop offset="1" stop-color="#3A2E60"/>
</linearGradient>
</defs>
</svg>
