<svg width="66" height="71" viewBox="0 0 66 71" fill="none" xmlns="http://www.w3.org/2000/svg">
<g filter="url(#filter0_f)">
<circle cx="33" cy="38" r="13" fill="#392E66"/>
</g>
<circle cx="33" cy="25" r="25" fill="url(#paint0_linear)"/>
<path d="M41.1148 20.4286H26.9688C26.6407 20.4286 26.375 20.1729 26.375 19.8571C26.375 19.5414 26.6407 19.2857 26.9688 19.2857H41.2188C41.5468 19.2857 41.8125 19.03 41.8125 18.7143C41.8125 17.7675 41.015 17 40.0312 17H26.375C25.0632 17 24 18.0232 24 19.2857V30.7143C24 31.9768 25.0632 33 26.375 33H41.1148C42.1546 33 43 32.2311 43 31.2857V22.1429C43 21.1975 42.1546 20.4286 41.1148 20.4286ZM39.4375 27.8571C38.7818 27.8571 38.25 27.3454 38.25 26.7143C38.25 26.0832 38.7818 25.5714 39.4375 25.5714C40.0932 25.5714 40.625 26.0832 40.625 26.7143C40.625 27.3454 40.0932 27.8571 39.4375 27.8571Z" fill="white"/>
<defs>
<filter id="filter0_f" x="0" y="5" width="66" height="66" filterUnits="userSpaceOnUse" color-interpolation-filters="sRGB">
<feFlood flood-opacity="0" result="BackgroundImageFix"/>
<feBlend mode="normal" in="SourceGraphic" in2="BackgroundImageFix" result="shape"/>
<feGaussianBlur stdDeviation="10" result="effect1_foregroundBlur"/>
</filter>
<linearGradient id="paint0_linear" x1="33" y1="0" x2="33" y2="50" gradientUnits="userSpaceOnUse">
<stop stop-color="#4E3D95"/>
<stop offset="1" stop-color="#3A2E60"/>
</linearGradient>
</defs>
</svg>
