<svg width="66" height="71" viewBox="0 0 66 71" fill="none" xmlns="http://www.w3.org/2000/svg">
<g filter="url(#filter0_f)">
<circle cx="33" cy="38" r="13" fill="#392E66"/>
</g>
<circle cx="33" cy="25" r="25" fill="url(#paint0_linear)"/>
<path d="M24.3125 32.7143C24.3125 33.4254 24.899 34 25.625 34H32.1875V27.5714H24.3125V32.7143ZM42.6875 21.1429H40.9607C41.215 20.6567 41.375 20.1183 41.375 19.5357C41.375 17.5871 39.7549 16 37.7656 16C36.0594 16 34.9561 16.8558 33.541 18.7442C32.126 16.8558 31.0227 16 29.3164 16C27.3271 16 25.707 17.5871 25.707 19.5357C25.707 20.1183 25.8629 20.6567 26.1213 21.1429H24.3125C23.5865 21.1429 23 21.7174 23 22.4286V25.6429C23 25.9964 23.2953 26.2857 23.6562 26.2857H43.3438C43.7047 26.2857 44 25.9964 44 25.6429V22.4286C44 21.7174 43.4135 21.1429 42.6875 21.1429ZM29.3123 21.1429C28.4059 21.1429 27.6717 20.4237 27.6717 19.5357C27.6717 18.6478 28.4059 17.9286 29.3123 17.9286C30.1285 17.9286 30.7314 18.0612 32.8438 21.1429H29.3123ZM37.7656 21.1429H34.2342C36.3424 18.0692 36.9289 17.9286 37.7656 17.9286C38.6721 17.9286 39.4062 18.6478 39.4062 19.5357C39.4062 20.4237 38.6721 21.1429 37.7656 21.1429ZM34.8125 34H41.375C42.101 34 42.6875 33.4254 42.6875 32.7143V27.5714H34.8125V34Z" fill="white"/>
<defs>
<filter id="filter0_f" x="0" y="5" width="66" height="66" filterUnits="userSpaceOnUse" color-interpolation-filters="sRGB">
<feFlood flood-opacity="0" result="BackgroundImageFix"/>
<feBlend mode="normal" in="SourceGraphic" in2="BackgroundImageFix" result="shape"/>
<feGaussianBlur stdDeviation="10" result="effect1_foregroundBlur"/>
</filter>
<linearGradient id="paint0_linear" x1="33" y1="0" x2="33" y2="50" gradientUnits="userSpaceOnUse">
<stop stop-color="#4E3D95"/>
<stop offset="1" stop-color="#3A2E60"/>
</linearGradient>
</defs>
</svg>
