<?xml version="1.0" encoding="utf-8"?>
<!-- Generator: Adobe Illustrator 17.0.0, SVG Export Plug-In . SVG Version: 6.00 Build 0)  -->
<!DOCTYPE svg PUBLIC "-//W3C//DTD SVG 1.1//EN" "http://www.w3.org/Graphics/SVG/1.1/DTD/svg11.dtd">
<svg version="1.1" id="Layer_1" xmlns="http://www.w3.org/2000/svg" xmlns:xlink="http://www.w3.org/1999/xlink" x="0px" y="0px"
	 width="320px" height="157px" viewBox="0 0 320 157" style="enable-background:new 0 0 320 157;" xml:space="preserve">
<style type="text/css">
	.st0{clip-path:url(#SVGID_2_);}
	.st1{clip-path:url(#SVGID_4_);}
	.st2{fill:url(#SVGID_5_);}
	.st3{opacity:0.2;fill:url(#SVGID_6_);enable-background:new    ;}
	.st4{opacity:0.3;}
	.st5{fill:#8118B4;}
	.st6{fill:#FF73A7;}
	.st7{fill:#FFA600;}
	.st8{fill:#B8E4FA;}
	.st9{opacity:0.67;}
	.st10{opacity:0.67;fill:#B8E4FA;enable-background:new    ;}
	.st11{opacity:0.67;fill:#8118B4;enable-background:new    ;}
	.st12{opacity:0.67;fill:#FF73A7;enable-background:new    ;}
	.st13{opacity:0.67;fill:#FFA600;enable-background:new    ;}
	.st14{fill:url(#SVGID_7_);}
	.st15{fill:url(#SVGID_8_);}
	.st16{opacity:5.000000e-02;fill:#351656;enable-background:new    ;}
	.st17{fill:url(#SVGID_9_);}
	.st18{opacity:0.2;fill:#351656;enable-background:new    ;}
	.st19{opacity:0.26;fill:url(#SVGID_10_);enable-background:new    ;}
	.st20{fill:url(#SVGID_11_);}
	.st21{opacity:0.17;fill:#351656;enable-background:new    ;}
	.st22{opacity:0.6;fill:#351656;enable-background:new    ;}
	.st23{fill:#FF901F;}
	.st24{opacity:0.5;fill:#FF522D;enable-background:new    ;}
	.st25{fill:#171642;}
	.st26{fill:url(#SVGID_12_);}
	.st27{fill:#6392F8;}
	.st28{fill:#FFFFFF;}
	.st29{fill:url(#SVGID_13_);}
	.st30{fill:url(#SVGID_14_);}
</style>
<g>
	<defs>
		<rect id="SVGID_1_" y="0" width="320" height="157"/>
	</defs>
	<clipPath id="SVGID_2_">
		<use xlink:href="#SVGID_1_"  style="overflow:visible;"/>
	</clipPath>
	<g class="st0">
		<defs>
			<path id="SVGID_3_" d="M157.7,119.1c-75.8-28.5-220.4-14.5-254.3-63C-231.3-136.4,100.8-31.5,205.8-66.5
				c3,7.8-0.8-90.6,123.5-62.1c124.3,28.4,63,197.1,15.8,254.6C297.9,183.5,233.5,147.6,157.7,119.1z"/>
		</defs>
		<clipPath id="SVGID_4_">
			<use xlink:href="#SVGID_3_"  style="overflow:visible;"/>
		</clipPath>
		<g class="st1">
			
				<linearGradient id="SVGID_5_" gradientUnits="userSpaceOnUse" x1="537.1868" y1="364.8995" x2="-257.4067" y2="-289.5937" gradientTransform="matrix(1 0 0 -1 0 58.7244)">
				<stop  offset="0.3558" style="stop-color:#231E33"/>
				<stop  offset="1" style="stop-color:#843490"/>
			</linearGradient>
			<path class="st2" d="M157.7,119.1c-75.8-28.5-220.4-14.5-254.3-63C-231.3-136.4,100.8-31.5,205.8-66.5c3,7.8-0.8-90.6,123.5-62.1
				c124.3,28.4,63,197.1,15.8,254.6C297.9,183.5,233.5,147.6,157.7,119.1z"/>
			
				<linearGradient id="SVGID_6_" gradientUnits="userSpaceOnUse" x1="473.6733" y1="222.4953" x2="245.6221" y2="-113.9642" gradientTransform="matrix(1 0 0 -1 0 58.7244)">
				<stop  offset="0.6113" style="stop-color:#231E33"/>
				<stop  offset="1" style="stop-color:#522359"/>
			</linearGradient>
			<path class="st3" d="M319.6-55.2c62-15.9,149.2-90.7,193.1-74.7c174.5,63.5-88,146.3-140.1,216.6c-5.5-3.7,41.6,58.2-51.7,96.2
				c-93.3,38-130.3-99-125.8-157.6C199.6-33.2,257.6-39.2,319.6-55.2z"/>
			<g class="st4">
				<path class="st5" d="M71.2-63.1c0.8,0,1.5,0.7,1.5,1.5c0,0.8-0.7,1.5-1.5,1.5c-0.8,0-1.5-0.7-1.5-1.5
					C69.7-62.4,70.4-63.1,71.2-63.1z"/>
				<path class="st6" d="M38.2-79c0.3,0,0.5,0.2,0.5,0.5c0,0.3-0.2,0.5-0.5,0.5c-0.3,0-0.5-0.2-0.5-0.5C37.7-78.8,38-79,38.2-79z"/>
				<path class="st7" d="M26.2-88c0.6,0,1,0.5,1,1c0,0.6-0.5,1-1,1s-1-0.5-1-1C25.2-87.6,25.6-88,26.2-88z"/>
				<path class="st8" d="M20.3,5c0.6,0,1,0.5,1,1c0,0.6-0.5,1-1,1c-0.6,0-1-0.5-1-1C19.2,5.5,19.7,5,20.3,5z"/>
				<path class="st8" d="M43.8-19.3c0.6,0,1,0.5,1,1c0,0.6-0.5,1-1,1c-0.6,0-1-0.5-1-1C42.7-18.9,43.2-19.3,43.8-19.3z"/>
				<path class="st7" d="M55.8-48.3c0.6,0,1,0.5,1,1c0,0.6-0.5,1-1,1c-0.6,0-1-0.5-1-1C54.7-47.8,55.2-48.3,55.8-48.3z"/>
				<path class="st5" d="M27.5-47.7c0.6,0,1,0.5,1,1c0,0.6-0.5,1-1,1c-0.6,0-1-0.5-1-1C26.5-47.3,26.9-47.7,27.5-47.7z"/>
				<path class="st5" d="M29.3-55.8c0.6,0,1,0.5,1,1c0,0.6-0.5,1-1,1c-0.6,0-1-0.5-1-1C28.2-55.4,28.7-55.8,29.3-55.8z"/>
				<path class="st6" d="M111.7-102.8c0.3,0,0.5,0.2,0.5,0.5c0,0.3-0.2,0.5-0.5,0.5c-0.3,0-0.5-0.2-0.5-0.5
					C111.2-102.6,111.4-102.8,111.7-102.8z"/>
				<path class="st7" d="M97.9-108.5c0.6,0,1,0.5,1,1c0,0.6-0.5,1-1,1c-0.6,0-1-0.5-1-1C96.9-108,97.3-108.5,97.9-108.5z"/>
				<path class="st6" d="M68.2-83.3c0.5,0,0.9,0.4,0.9,0.9s-0.4,0.9-0.9,0.9c-0.5,0-0.9-0.4-0.9-0.9S67.8-83.3,68.2-83.3z"/>
				<path class="st8" d="M191.7-128.9c0.4,0,0.8,0.3,0.8,0.8c0,0.4-0.3,0.8-0.8,0.8c-0.4,0-0.8-0.3-0.8-0.8
					C190.9-128.5,191.3-128.9,191.7-128.9z"/>
				<path class="st8" d="M131.6-121.3c0.6,0,1,0.5,1,1c0,0.6-0.5,1-1,1c-0.6,0-1-0.5-1-1C130.6-120.8,131.1-121.3,131.6-121.3z"/>
				<path class="st7" d="M144-92.5c0.6,0,1,0.5,1,1c0,0.6-0.5,1-1,1c-0.6,0-1-0.5-1-1C143-92.1,143.4-92.5,144-92.5z"/>
				<path class="st5" d="M163.3-113.2c0.6,0,1,0.5,1,1c0,0.6-0.5,1-1,1c-0.6,0-1-0.5-1-1C162.3-112.7,162.8-113.2,163.3-113.2z"/>
				<path class="st7" d="M93.3-50c0.8,0,1.4,0.6,1.4,1.4s-0.6,1.4-1.4,1.4c-0.8,0-1.4-0.6-1.4-1.4S92.6-50,93.3-50z"/>
				<path class="st8" d="M98.5-32.1c0.6,0,1,0.5,1,1c0,0.6-0.5,1-1,1c-0.6,0-1-0.5-1-1C97.4-31.7,97.9-32.1,98.5-32.1z"/>
				<path class="st6" d="M130.1-66c1,0,1.8,0.8,1.8,1.8c0,1-0.8,1.8-1.8,1.8c-1,0-1.8-0.8-1.8-1.8C128.3-65.2,129.1-66,130.1-66z"/>
				<path class="st8" d="M114.9-61.8c0.6,0,1,0.5,1,1c0,0.6-0.5,1-1,1c-0.6,0-1-0.5-1-1C113.9-61.3,114.4-61.8,114.9-61.8z"/>
				<path class="st7" d="M119.2-92.8c0.6,0,1,0.5,1,1c0,0.6-0.5,1-1,1c-0.6,0-1-0.5-1-1C118.1-92.3,118.6-92.8,119.2-92.8z"/>
				<path class="st5" d="M91.9-85.1c0.6,0,1,0.5,1,1c0,0.6-0.5,1-1,1s-1-0.5-1-1C90.9-84.6,91.4-85.1,91.9-85.1z"/>
				<path class="st5" d="M109.1-78.1c0.6,0,1,0.5,1,1c0,0.6-0.5,1-1,1c-0.6,0-1-0.5-1-1C108-77.7,108.5-78.1,109.1-78.1z"/>
				<path class="st5" d="M156.2-41.4c0.7,0,1.3,0.6,1.3,1.3c0,0.7-0.6,1.3-1.3,1.3c-0.7,0-1.3-0.6-1.3-1.3
					C154.9-40.9,155.5-41.4,156.2-41.4z"/>
				<path class="st6" d="M123.1-47.6c0.3,0,0.5,0.2,0.5,0.5c0,0.3-0.2,0.5-0.5,0.5c-0.3,0-0.5-0.2-0.5-0.5
					C122.7-47.4,122.9-47.6,123.1-47.6z"/>
				<path class="st7" d="M110.5-52.7c0.5,0,0.9,0.4,0.9,0.9s-0.4,0.9-0.9,0.9s-0.9-0.4-0.9-0.9S110-52.7,110.5-52.7z"/>
				<path class="st6" d="M83.6-29.6c0.5,0,0.8,0.4,0.8,0.8c0,0.5-0.4,0.8-0.8,0.8c-0.5,0-0.8-0.4-0.8-0.8
					C82.7-29.3,83.1-29.6,83.6-29.6z"/>
				<path class="st8" d="M127.5,30.8c0.5,0,0.9,0.4,0.9,0.9c0,0.5-0.4,0.9-0.9,0.9s-0.9-0.4-0.9-0.9C126.5,31.2,127,30.8,127.5,30.8
					z"/>
				<path class="st8" d="M142.4,3.7c0.5,0,0.9,0.4,0.9,0.9s-0.4,0.9-0.9,0.9c-0.5,0-0.9-0.4-0.9-0.9S141.8,3.7,142.4,3.7z"/>
				<path class="st7" d="M146-24.7c0.5,0,0.9,0.4,0.9,0.9s-0.4,0.9-0.9,0.9c-0.5,0-0.9-0.4-0.9-0.9S145.5-24.7,146-24.7z"/>
				<path class="st5" d="M121.2-17.5c0.5,0,0.9,0.4,0.9,0.9s-0.4,0.9-0.9,0.9s-0.9-0.4-0.9-0.9S120.7-17.5,121.2-17.5z"/>
				<path class="st5" d="M120.9-25.1c0.5,0,0.9,0.4,0.9,0.9s-0.4,0.9-0.9,0.9s-0.9-0.4-0.9-0.9S120.4-25.1,120.9-25.1z"/>
				<path class="st6" d="M182.2-86.2c0.3,0,0.5,0.2,0.5,0.5c0,0.3-0.2,0.5-0.5,0.5c-0.3,0-0.5-0.2-0.5-0.5
					C181.7-85.9,181.9-86.2,182.2-86.2z"/>
				<path class="st7" d="M168.8-87.8c0.5,0,0.9,0.4,0.9,0.9s-0.4,0.9-0.9,0.9c-0.5,0-0.9-0.4-0.9-0.9S168.3-87.8,168.8-87.8z"/>
				<path class="st6" d="M148.6-58.6c0.5,0,0.8,0.4,0.8,0.8c0,0.5-0.4,0.8-0.8,0.8c-0.5,0-0.8-0.4-0.8-0.8
					C147.8-58.3,148.2-58.6,148.6-58.6z"/>
				<path class="st7" d="M201.2-129.4c0.7,0,1.3,0.6,1.3,1.3c0,0.7-0.6,1.3-1.3,1.3c-0.7,0-1.3-0.6-1.3-1.3
					C199.9-128.9,200.5-129.4,201.2-129.4z"/>
				<path class="st8" d="M246.5-128.2c0.4,0,0.7,0.3,0.7,0.7c0,0.4-0.3,0.7-0.7,0.7s-0.7-0.3-0.7-0.7
					C245.8-127.9,246.1-128.2,246.5-128.2z"/>
				<path class="st8" d="M195.4-107.2c0.5,0,0.9,0.4,0.9,0.9s-0.4,0.9-0.9,0.9c-0.5,0-0.9-0.4-0.9-0.9S194.9-107.2,195.4-107.2z"/>
				<path class="st7" d="M213.2-84.7c0.5,0,0.9,0.4,0.9,0.9s-0.4,0.9-0.9,0.9c-0.5,0-0.9-0.4-0.9-0.9S212.7-84.7,213.2-84.7z"/>
				<path class="st5" d="M225.3-107.6c0.5,0,0.9,0.4,0.9,0.9s-0.4,0.9-0.9,0.9c-0.5,0-0.9-0.4-0.9-0.9S224.8-107.6,225.3-107.6z"/>
				<path class="st7" d="M178.8-35.3c0.7,0,1.3,0.6,1.3,1.3s-0.6,1.3-1.3,1.3c-0.7,0-1.3-0.6-1.3-1.3S178.1-35.3,178.8-35.3z"/>
				<path class="st8" d="M187.5-20.8c0.5,0,0.9,0.4,0.9,0.9s-0.4,0.9-0.9,0.9c-0.5,0-0.9-0.4-0.9-0.9S187-20.8,187.5-20.8z"/>
				<path class="st6" d="M207.5-58.2c0.9,0,1.6,0.7,1.6,1.6c0,0.9-0.7,1.6-1.6,1.6c-0.9,0-1.6-0.7-1.6-1.6
					C205.9-57.5,206.6-58.2,207.5-58.2z"/>
				<path class="st8" d="M195-50.8c0.5,0,0.9,0.4,0.9,0.9s-0.4,0.9-0.9,0.9c-0.5,0-0.9-0.4-0.9-0.9S194.5-50.8,195-50.8z"/>
				<path class="st7" d="M191.3-79.1c0.5,0,0.9,0.4,0.9,0.9s-0.4,0.9-0.9,0.9c-0.5,0-0.9-0.4-0.9-0.9S190.7-79.1,191.3-79.1z"/>
				<path class="st5" d="M169.1-65.8c0.5,0,0.9,0.4,0.9,0.9s-0.4,0.9-0.9,0.9c-0.5,0-0.9-0.4-0.9-0.9S168.6-65.8,169.1-65.8z"/>
				<path class="st5" d="M185.9-63.8c0.5,0,0.9,0.4,0.9,0.9s-0.4,0.9-0.9,0.9c-0.5,0-0.9-0.4-0.9-0.9S185.4-63.8,185.9-63.8z"/>
				<path class="st6" d="M304.5-27.5c0.5,0,0.9,0.4,0.9,0.9c0,0.5-0.4,0.9-0.9,0.9c-0.5,0-0.9-0.4-0.9-0.9
					C303.6-27.1,304-27.5,304.5-27.5z"/>
				<path class="st7" d="M283.8,36c0.8,0,1.4,0.6,1.4,1.4c0,0.8-0.6,1.4-1.4,1.4c-0.8,0-1.4-0.6-1.4-1.4C282.4,36.6,283,36,283.8,36
					z"/>
				<path class="st8" d="M271.1,50.2c0.6,0,1,0.5,1,1c0,0.6-0.5,1-1,1c-0.6,0-1-0.5-1-1C270.1,50.7,270.5,50.2,271.1,50.2z"/>
				<path class="st6" d="M289.9,6.1c1,0,1.8,0.8,1.8,1.8s-0.8,1.8-1.8,1.8c-1,0-1.8-0.8-1.8-1.8S288.9,6.1,289.9,6.1z"/>
				<path class="st6" d="M317.4,59.7c1,0,1.8,0.8,1.8,1.8c0,1-0.8,1.8-1.8,1.8c-1,0-1.8-0.8-1.8-1.8
					C315.6,60.5,316.4,59.7,317.4,59.7z"/>
				<path class="st8" d="M306.1,49c0.6,0,1,0.5,1,1c0,0.6-0.5,1-1,1c-0.6,0-1-0.5-1-1C305.1,49.5,305.5,49,306.1,49z"/>
				<path class="st5" d="M314.5,16.1c0.6,0,1,0.5,1,1c0,0.6-0.5,1-1,1c-0.6,0-1-0.5-1-1C313.4,16.6,313.9,16.1,314.5,16.1z"/>
				<path class="st6" d="M304-124.3c0.5,0,0.9,0.4,0.9,0.9c0,0.5-0.4,0.9-0.9,0.9c-0.5,0-0.9-0.4-0.9-0.9
					C303.1-123.9,303.5-124.3,304-124.3z"/>
				<path class="st7" d="M290.9-83.2c0.8,0,1.4,0.6,1.4,1.4c0,0.8-0.6,1.4-1.4,1.4c-0.8,0-1.4-0.6-1.4-1.4
					C289.5-82.6,290.2-83.2,290.9-83.2z"/>
				<path class="st8" d="M279.4-67.9c0.6,0,1,0.5,1,1c0,0.6-0.5,1-1,1c-0.6,0-1-0.5-1-1C278.4-67.4,278.8-67.9,279.4-67.9z"/>
				<path class="st6" d="M294.4-113.5c1,0,1.8,0.8,1.8,1.8c0,1-0.8,1.8-1.8,1.8c-1,0-1.8-0.8-1.8-1.8
					C292.6-112.7,293.4-113.5,294.4-113.5z"/>
				<path class="st8" d="M314.2-72.1c0.6,0,1,0.5,1,1c0,0.6-0.5,1-1,1c-0.6,0-1-0.5-1-1C313.2-71.6,313.6-72.1,314.2-72.1z"/>
				<path class="st5" d="M319.7-105.5c0.6,0,1,0.5,1,1c0,0.6-0.5,1-1,1c-0.6,0-1-0.5-1-1C318.7-105.1,319.2-105.5,319.7-105.5z"/>
				<path class="st5" d="M301.2,3.7c0.8,0,1.5,0.7,1.5,1.5c0,0.8-0.7,1.5-1.5,1.5c-0.8,0-1.5-0.7-1.5-1.5
					C299.6,4.3,300.3,3.7,301.2,3.7z"/>
				<path class="st6" d="M285.8-30.4c0.3,0,0.5,0.2,0.5,0.5c0,0.3-0.2,0.5-0.5,0.5c-0.3,0-0.5-0.2-0.5-0.5
					C285.2-30.2,285.5-30.4,285.8-30.4z"/>
				<path class="st7" d="M281.6-45.6c0.6,0,1,0.5,1,1c0,0.6-0.5,1-1,1c-0.6,0-1-0.5-1-1C280.6-45.1,281.1-45.6,281.6-45.6z"/>
				<path class="st6" d="M242.7-55.1c0.5,0,0.9,0.4,0.9,0.9c0,0.5-0.4,0.9-0.9,0.9c-0.5,0-0.9-0.4-0.9-0.9
					C241.8-54.7,242.2-55.1,242.7-55.1z"/>
				<path class="st7" d="M229.7-14c0.8,0,1.4,0.6,1.4,1.4s-0.6,1.4-1.4,1.4c-0.8,0-1.4-0.6-1.4-1.4S228.9-14,229.7-14z"/>
				<path class="st8" d="M218.1,1.3c0.6,0,1,0.5,1,1s-0.5,1-1,1c-0.6,0-1-0.5-1-1S217.6,1.3,218.1,1.3z"/>
				<path class="st6" d="M233.2-44.2c1,0,1.8,0.8,1.8,1.8s-0.8,1.8-1.8,1.8s-1.8-0.8-1.8-1.8S232.2-44.2,233.2-44.2z"/>
				<path class="st6" d="M265.2,6.8c1,0,1.8,0.8,1.8,1.8s-0.8,1.8-1.8,1.8c-1,0-1.8-0.8-1.8-1.8S264.2,6.8,265.2,6.8z"/>
				<path class="st8" d="M252.9-2.9c0.6,0,1,0.5,1,1c0,0.6-0.5,1-1,1c-0.6,0-1-0.5-1-1C251.9-2.4,252.4-2.9,252.9-2.9z"/>
				<path class="st7" d="M281.5-18.3c0.6,0,1,0.5,1,1c0,0.6-0.5,1-1,1c-0.6,0-1-0.5-1-1C280.5-17.8,281-18.3,281.5-18.3z"/>
				<path class="st5" d="M258.5-36.4c0.6,0,1,0.5,1,1c0,0.6-0.5,1-1,1c-0.6,0-1-0.5-1-1C257.4-35.9,257.9-36.4,258.5-36.4z"/>
				<path class="st5" d="M263.1-17.8c0.6,0,1,0.5,1,1c0,0.6-0.5,1-1,1c-0.6,0-1-0.5-1-1C262-17.3,262.5-17.8,263.1-17.8z"/>
				<path class="st8" d="M300.6-134.7c0.6,0,1,0.5,1,1s-0.5,1-1,1c-0.6,0-1-0.5-1-1S300.1-134.7,300.6-134.7z"/>
				<path class="st7" d="M274.6-118c0.8,0,1.4,0.6,1.4,1.4c0,0.8-0.6,1.4-1.4,1.4c-0.8,0-1.4-0.6-1.4-1.4
					C273.2-117.4,273.8-118,274.6-118z"/>
				<path class="st8" d="M263.1-102.7c0.6,0,1,0.5,1,1c0,0.6-0.5,1-1,1c-0.6,0-1-0.5-1-1C262.1-102.2,262.6-102.7,263.1-102.7z"/>
				<path class="st6" d="M310.2-97.2c1,0,1.8,0.8,1.8,1.8c0,1-0.8,1.8-1.8,1.8c-1,0-1.8-0.8-1.8-1.8
					C308.4-96.4,309.2-97.2,310.2-97.2z"/>
				<path class="st8" d="M297.9-106.9c0.6,0,1,0.5,1,1c0,0.6-0.5,1-1,1c-0.6,0-1-0.5-1-1C296.9-106.5,297.3-106.9,297.9-106.9z"/>
				<path class="st5" d="M308.1-121.8c0.6,0,1,0.5,1,1c0,0.6-0.5,1-1,1c-0.6,0-1-0.5-1-1C307-121.3,307.5-121.8,308.1-121.8z"/>
				<g class="st9">
					<g class="st9">
						<path class="st10" d="M316.8-10.3c0.6,0,1,0.5,1,1c0,0.6-0.5,1-1,1c-0.6,0-1-0.5-1-1C315.8-9.8,316.3-10.3,316.8-10.3z"/>
					</g>
				</g>
				<g class="st9">
					<path class="st11" d="M56,87.1c0.8,0,1.5,0.7,1.5,1.5c0,0.8-0.7,1.5-1.5,1.5c-0.8,0-1.5-0.7-1.5-1.5
						C54.4,87.8,55.1,87.1,56,87.1z"/>
					<path class="st12" d="M40.6,53c0.3,0,0.5,0.2,0.5,0.5c0,0.3-0.2,0.5-0.5,0.5c-0.3,0-0.5-0.2-0.5-0.5C40,53.2,40.3,53,40.6,53z"
						/>
					<path class="st13" d="M36.4,37.8c0.6,0,1,0.5,1,1c0,0.6-0.5,1-1,1c-0.6,0-1-0.5-1-1C35.4,38.3,35.9,37.8,36.4,37.8z"/>
					<g class="st9">
						<path class="st12" d="M20,90.3c1,0,1.8,0.8,1.8,1.8s-0.8,1.8-1.8,1.8c-1,0-1.8-0.8-1.8-1.8S19,90.3,20,90.3z"/>
						<path class="st10" d="M7.7,80.5c0.6,0,1,0.5,1,1c0,0.6-0.5,1-1,1c-0.6,0-1-0.5-1-1C6.7,81,7.2,80.5,7.7,80.5z"/>
						<path class="st13" d="M36.3,65.1c0.6,0,1,0.5,1,1c0,0.6-0.5,1-1,1c-0.6,0-1-0.5-1-1C35.3,65.6,35.7,65.1,36.3,65.1z"/>
						<path class="st11" d="M13.3,47.1c0.6,0,1,0.5,1,1c0,0.6-0.5,1-1,1c-0.6,0-1-0.5-1-1C12.2,47.6,12.7,47.1,13.3,47.1z"/>
					</g>
					<path class="st11" d="M17.9,65.7c0.6,0,1,0.5,1,1c0,0.6-0.5,1-1,1c-0.6,0-1-0.5-1-1C16.8,66.2,17.3,65.7,17.9,65.7z"/>
				</g>
				<path class="st6" d="M199.2-133.8c1,0,1.8,0.8,1.8,1.8c0,1-0.8,1.8-1.8,1.8s-1.8-0.8-1.8-1.8C197.4-133,198.2-133.8,199.2-133.8
					z"/>
				<path class="st7" d="M11.5-69.4c0.9,0,1.6,0.7,1.6,1.6c0,0.9-0.7,1.6-1.6,1.6c-0.9,0-1.6-0.7-1.6-1.6
					C9.9-68.7,10.6-69.4,11.5-69.4z"/>
				<path class="st8" d="M4.5-88.4c0.6,0,1.1,0.5,1.1,1.1c0,0.6-0.5,1.2-1.1,1.2s-1.1-0.5-1.1-1.2C3.3-87.8,3.8-88.4,4.5-88.4z"/>
				<path class="st6" d="M37-48.9c1.1,0,2,0.9,2,2c0,1.1-0.9,2-2,2c-1.1,0-2-0.9-2-2C35-48,35.9-48.9,37-48.9z"/>
				<path class="st8" d="M52.4-30c0.5,0,0.9,0.4,0.9,0.9c0,0.5-0.4,0.9-0.9,0.9s-0.9-0.4-0.9-0.9C51.5-29.6,51.9-30,52.4-30z"/>
				<path class="st5" d="M15.5-29c0.6,0,1.1,0.5,1.1,1.1c0,0.6-0.5,1.1-1.1,1.1c-0.6,0-1.1-0.5-1.1-1.1C14.3-28.5,14.8-29,15.5-29z"
					/>
				<path class="st5" d="M67.5-106.7c0.8,0,1.5,0.7,1.5,1.5c0,0.8-0.7,1.5-1.5,1.5s-1.5-0.7-1.5-1.5C65.9-106,66.6-106.7,67.5-106.7
					z"/>
				<path class="st6" d="M38-130.2c0.3,0,0.5,0.2,0.5,0.5c0,0.3-0.2,0.5-0.5,0.5c-0.3,0-0.5-0.2-0.5-0.5
					C37.5-130,37.7-130.2,38-130.2z"/>
				<path class="st6" d="M109.7-133.4c1,0,1.8,0.8,1.8,1.8s-0.8,1.8-1.8,1.8s-1.8-0.8-1.8-1.8S108.7-133.4,109.7-133.4z"/>
				<path class="st6" d="M49.4-133.9c1,0,1.8,0.8,1.8,1.8c0,1-0.8,1.8-1.8,1.8c-1,0-1.8-0.8-1.8-1.8C47.6-133,48.4-133.9,49.4-133.9
					z"/>
				<path class="st8" d="M123.8-116.1c0.5,0,0.8,0.4,0.8,0.8c0,0.5-0.4,0.8-0.8,0.8c-0.5,0-0.8-0.4-0.8-0.8
					C122.9-115.7,123.3-116.1,123.8-116.1z"/>
				<path class="st7" d="M62.4-105.4c0.6,0,1,0.5,1,1c0,0.6-0.5,1-1,1s-1-0.5-1-1C61.4-104.9,61.9-105.4,62.4-105.4z"/>
				<path class="st5" d="M90.1-115.1c0.6,0,1,0.5,1,1c0,0.6-0.5,1-1,1c-0.6,0-1-0.5-1-1C89-114.7,89.5-115.1,90.1-115.1z"/>
				<path class="st6" d="M36.8-87.8c1,0,1.8,0.8,1.8,1.8c0,1-0.8,1.8-1.8,1.8c-1,0-1.8-0.8-1.8-1.8C35-87,35.8-87.8,36.8-87.8z"/>
				<path class="st8" d="M21.1-91c0.6,0,1,0.5,1,1c0,0.6-0.5,1-1,1c-0.6,0-1-0.5-1-1C20.1-90.5,20.5-91,21.1-91z"/>
				<path class="st7" d="M39.8-117.5c0.6,0,1,0.5,1,1c0,0.6-0.5,1-1,1s-1-0.5-1-1C38.8-117.1,39.3-117.5,39.8-117.5z"/>
				<path class="st5" d="M11.1-123.4c0.6,0,1,0.5,1,1c0,0.6-0.5,1-1,1c-0.6,0-1-0.5-1-1C10.1-122.9,10.6-123.4,11.1-123.4z"/>
				<path class="st5" d="M23.6-108.8c0.6,0,1,0.5,1,1c0,0.6-0.5,1-1,1c-0.6,0-1-0.5-1-1C22.5-108.4,23-108.8,23.6-108.8z"/>
				<path class="st5" d="M261.5,5.2c0.8,0,1.5,0.7,1.5,1.5c0,0.8-0.7,1.5-1.5,1.5c-0.8,0-1.5-0.7-1.5-1.5
					C260,5.9,260.7,5.2,261.5,5.2z"/>
				<path class="st6" d="M226,20.4c0.3,0,0.5,0.2,0.5,0.5c0,0.3-0.2,0.5-0.5,0.5c-0.3,0-0.5-0.2-0.5-0.5
					C225.4,20.7,225.7,20.4,226,20.4z"/>
				<path class="st7" d="M211.1,23.6c0.6,0,1,0.5,1,1c0,0.6-0.5,1-1,1c-0.6,0-1-0.5-1-1C210.1,24.1,210.5,23.6,211.1,23.6z"/>
				<path class="st6" d="M200.2,62.3c0.5,0,0.9,0.4,0.9,0.9s-0.4,0.9-0.9,0.9c-0.5,0-0.9-0.4-0.9-0.9S199.7,62.3,200.2,62.3z"/>
				<path class="st7" d="M230.6-33c0.8,0,1.4,0.6,1.4,1.4s-0.6,1.4-1.4,1.4c-0.8,0-1.4-0.6-1.4-1.4S229.8-33,230.6-33z"/>
				<path class="st8" d="M211.9-35.4c0.6,0,1,0.5,1,1c0,0.6-0.5,1-1,1c-0.6,0-1-0.5-1-1C210.9-34.9,211.4-35.4,211.9-35.4z"/>
				<path class="st6" d="M258.4-44.8c1,0,1.8,0.8,1.8,1.8c0,1-0.8,1.8-1.8,1.8c-1,0-1.8-0.8-1.8-1.8C256.6-44,257.4-44.8,258.4-44.8
					z"/>
				<path class="st6" d="M229.3,8c1,0,1.8,0.8,1.8,1.8c0,1-0.8,1.8-1.8,1.8c-1,0-1.8-0.8-1.8-1.8C227.5,8.8,228.3,8,229.3,8z"/>
				<path class="st8" d="M279.4-48.3c0.5,0,0.8,0.4,0.8,0.8c0,0.5-0.4,0.8-0.8,0.8c-0.5,0-0.8-0.4-0.8-0.8
					C278.6-48,279-48.3,279.4-48.3z"/>
				<path class="st8" d="M232.5-7c0.6,0,1,0.5,1,1c0,0.6-0.5,1-1,1c-0.6,0-1-0.5-1-1C231.5-6.5,232-7,232.5-7z"/>
				<path class="st7" d="M259.9,10.5c0.6,0,1,0.5,1,1c0,0.6-0.5,1-1,1c-0.6,0-1-0.5-1-1C258.9,11,259.3,10.5,259.9,10.5z"/>
				<path class="st5" d="M264.4-18.4c0.6,0,1,0.5,1,1c0,0.6-0.5,1-1,1c-0.6,0-1-0.5-1-1C263.4-17.9,263.9-18.4,264.4-18.4z"/>
				<path class="st7" d="M241.4,76.3c0.8,0,1.4,0.6,1.4,1.4c0,0.8-0.6,1.4-1.4,1.4c-0.8,0-1.4-0.6-1.4-1.4
					C240,76.9,240.6,76.3,241.4,76.3z"/>
				<path class="st8" d="M256,88.6c0.6,0,1,0.5,1,1c0,0.6-0.5,1-1,1c-0.6,0-1-0.5-1-1C254.9,89.1,255.4,88.6,256,88.6z"/>
				<path class="st6" d="M211.7,71.4c1,0,1.8,0.8,1.8,1.8s-0.8,1.8-1.8,1.8c-1,0-1.8-0.8-1.8-1.8S210.7,71.4,211.7,71.4z"/>
				<path class="st6" d="M263.8,41.1c1,0,1.8,0.8,1.8,1.8c0,1-0.8,1.8-1.8,1.8c-1,0-1.8-0.8-1.8-1.8C262,41.9,262.8,41.1,263.8,41.1
					z"/>
				<path class="st8" d="M252.9,53.7c0.6,0,1,0.5,1,1c0,0.6-0.5,1-1,1c-0.6,0-1-0.5-1-1C251.9,54.2,252.3,53.7,252.9,53.7z"/>
				<path class="st7" d="M238.4,24.6c0.6,0,1,0.5,1,1c0,0.6-0.5,1-1,1c-0.6,0-1-0.5-1-1C237.4,25.1,237.9,24.6,238.4,24.6z"/>
				<path class="st5" d="M219.7,47.1c0.6,0,1,0.5,1,1c0,0.6-0.5,1-1,1c-0.6,0-1-0.5-1-1C218.6,47.5,219.1,47.1,219.7,47.1z"/>
				<path class="st5" d="M238.3,43.1c0.6,0,1,0.5,1,1c0,0.6-0.5,1-1,1c-0.6,0-1-0.5-1-1C237.3,43.5,237.8,43.1,238.3,43.1z"/>
			</g>
			
				<linearGradient id="SVGID_7_" gradientUnits="userSpaceOnUse" x1="82.7676" y1="-1.9978" x2="71.0967" y2="-1.9978" gradientTransform="matrix(1 0 0 -1 0 58.7244)">
				<stop  offset="0" style="stop-color:#FBB40D"/>
				<stop  offset="1" style="stop-color:#FB710D"/>
			</linearGradient>
			<path class="st14" d="M76.4,54.8l2.1,2.5c0.1,0.1,0.3,0.2,0.4,0.2l3.2-0.4c0.4-0.1,0.7,0.4,0.5,0.8L81,60.7
				c-0.1,0.2-0.1,0.3-0.1,0.5l1.3,3c0.2,0.4-0.2,0.9-0.6,0.8l-3.2-0.7c-0.2-0.1-0.3,0-0.5,0.1l-2.4,2.3c-0.3,0.3-0.8,0.1-0.9-0.3
				l-0.3-3.3c0-0.2-0.1-0.3-0.3-0.4L71.4,61c-0.4-0.2-0.3-0.8,0.1-1l3-1.4c0.2-0.1,0.3-0.2,0.3-0.4l0.7-3.3
				C75.6,54.6,76.1,54.5,76.4,54.8z"/>
			
				<linearGradient id="SVGID_8_" gradientUnits="userSpaceOnUse" x1="196.6725" y1="-64.7597" x2="189.0679" y2="-64.7597" gradientTransform="matrix(1 0 0 -1 0 58.7244)">
				<stop  offset="0" style="stop-color:#FBB40D"/>
				<stop  offset="1" style="stop-color:#FB710D"/>
			</linearGradient>
			<path class="st15" d="M189.3,123.2l1.9-0.9c0.1-0.1,0.2-0.2,0.2-0.3l0.2-2.1c0.1-0.3,0.4-0.4,0.6-0.2l1.5,1.5
				c0.1,0.1,0.2,0.1,0.3,0.1l2.1-0.4c0.3-0.1,0.5,0.2,0.4,0.5l-0.9,1.9c-0.1,0.1-0.1,0.2,0,0.3l1,1.9c0.2,0.3-0.1,0.5-0.3,0.5
				l-2.1-0.3c-0.1,0-0.2,0-0.3,0.1l-1.4,1.5c-0.2,0.2-0.5,0.1-0.6-0.2l-0.4-2.1c0-0.1-0.1-0.2-0.2-0.3l-2-0.9
				C189,123.7,189,123.3,189.3,123.2z"/>
			<path class="st16" d="M189.3,123.8l2,0.9c0.1,0.1,0.2,0.2,0.2,0.3l0.4,2.1c0.1,0.2,0.2,0.3,0.3,0.3c-0.1-0.8,1.1-1.6,1-2.2
				c-0.1-0.4-0.1-0.7,0-1c0.1-0.4,0.3-0.7,0.2-1.3c-0.1-0.4-1.1-1.4-1.3-1.8c-0.1-0.3,0-0.6-0.2-1.2c0-0.1-0.1-0.1-0.1-0.2
				c-0.1,0.1-0.2,0.2-0.2,0.3l-0.2,2.1c0,0.1-0.1,0.2-0.2,0.3l-1.9,0.9C189,123.3,189,123.7,189.3,123.8z"/>
			
				<linearGradient id="SVGID_9_" gradientUnits="userSpaceOnUse" x1="282.0565" y1="-52.257" x2="282.0565" y2="-268.519" gradientTransform="matrix(1 0 0 -1 0 58.7244)">
				<stop  offset="0" style="stop-color:#623997"/>
				<stop  offset="1" style="stop-color:#662A67"/>
			</linearGradient>
			<path class="st17" d="M353.5,137.9c-1.5-1.3-1.9-2.8-5.5-4.2c-2.5-1-4.9-3.1-5.8-5.6c-0.8-2.3-4-1.4-6-2.5
				c-1.9-1.1-4.3-0.7-6.3-1.7c-1.8-0.9-3.2-3.1-5-4c-13.1-5.7-27.7-8.8-42.9-8.8c-5.3,0-10.6,0.4-15.7,1.1c-1.6,0.2-2.8,1.3-4.4,1.6
				c-1.3,0.2-3-0.3-4.3,0c-7,1.6-13.8,3.9-20.2,6.9c-1.9,0.9-3.3,3-5.1,4c-2.5,1.3-5.5,1.5-7.8,3c-6.8,4.3-13,9.2-18.7,14.9
				c-0.2,0-0.3,0-0.5-0.1c-1.4-0.3-3.2-1.7-4.2-1.5c-1.2-0.4-4,1.2-6.7,3.9c-3,3-4.6,6.1-3.7,7c0.9,2.2,2.2,3.5,2.8,5.3
				c-12.3,17.6-19.6,38.9-19.6,62c0,59.7,48.5,108.1,108.3,108.1c59.8,0,108.3-48.4,108.3-108.1C390.3,186.7,376,157.7,353.5,137.9z
				"/>
			<path class="st18" d="M353.5,137.9c-1.5-1.3-1.9-2.8-5.5-4.2c-2.5-1-4.9-3.1-5.8-5.6c-0.8-2.3-4-1.4-6-2.5
				c-1.9-1.1-4.3-0.7-6.3-1.7c-1.8-0.9-3.2-3.1-5-4c-13.1-5.7-27.7-8.8-42.9-8.8c-5.3,0-10.6,0.4-15.7,1.1c-1.6,0.2-2.8,1.3-4.4,1.6
				c-0.7,0.1-1.5,0-2.2,0c2.6,7.6,8.2,16,17.3,18.9c12,3.9,33.3-3.3,46.8,16.8c9.5,14.1,18.7,57.8,17.2,83.1
				c-0.5,8.7,30.7,2.4,48.1,2.9c0.8-5.3,1.2-10.8,1.2-16.3C390.3,186.7,376,157.7,353.5,137.9z"/>
			
				<linearGradient id="SVGID_10_" gradientUnits="userSpaceOnUse" x1="351.6935" y1="-56.7815" x2="351.6935" y2="-173.08" gradientTransform="matrix(1 0 0 -1 0 58.7244)">
				<stop  offset="0" style="stop-color:#392E66"/>
				<stop  offset="1" style="stop-color:#231E33"/>
			</linearGradient>
			<path class="st19" d="M353.5,137.9c-1.5-1.3-1.9-2.8-5.5-4.2c-2.5-1-4.9-3.1-5.8-5.6c-0.8-2.3-4-1.4-6-2.5
				c-1.9-1.1-4.3-0.7-6.3-1.7c-1.8-0.9-3.2-3.1-5-4c-3-1.3-6.1-2.5-9.3-3.5c-6.4-2.1-0.5-0.5,10.6,9.3c43.9,38.6,40.4,74.2,39,99.5
				c-0.4,6.9,12.1,5.4,24.3,6.7c0.5-4.2,0.7-8.4,0.7-12.7C390.3,186.7,376,157.7,353.5,137.9z"/>
			<path class="st18" d="M321.2,238.2c0,0,18.2-101.8-25.4-95.1c-23.3,3.6-35.9,0.9-48.2-11.6c-3.9-4-9.9-6.1-15-7.1
				c-0.1,0.1-0.2,0.1-0.3,0.2c-2.5,1.3-5.5,1.5-7.8,3c-0.2,0.1-0.4,0.2-0.5,0.4c7.5-0.2,13.6,1.8,17.8,6.7c9.8,11.3,6,45.6-43,65.3
				C174.5,209.5,321.2,238.2,321.2,238.2z"/>
			
				<linearGradient id="SVGID_11_" gradientUnits="userSpaceOnUse" x1="242.4962" y1="-41.7738" x2="237.3247" y2="-40.8176" gradientTransform="matrix(1 0 0 -1 0 58.7244)">
				<stop  offset="5.675680e-02" style="stop-color:#FF7E48"/>
				<stop  offset="0.3352" style="stop-color:#FF796F"/>
				<stop  offset="0.6072" style="stop-color:#FF768E"/>
				<stop  offset="0.838" style="stop-color:#FF74A0"/>
				<stop  offset="1" style="stop-color:#FF73A7"/>
			</linearGradient>
			<path class="st20" d="M238.2,102.4l1.3-0.5c0.1,0,0.2,0,0.2,0l1.2,0.8c0.2,0.1,0.4,0,0.4-0.2l-0.1-1.5c0-0.1,0-0.2,0.1-0.2
				l1.1-0.9c0.2-0.1,0.1-0.4-0.1-0.4l-1.4-0.4c-0.1,0-0.1-0.1-0.2-0.2l-0.5-1.4c-0.1-0.2-0.3-0.2-0.4,0l-0.7,1.3
				c0,0.1-0.1,0.1-0.2,0.1l-1.5,0.1c-0.2,0-0.3,0.2-0.2,0.4l0.9,1.1c0,0.1,0.1,0.2,0,0.2l-0.4,1.4
				C237.8,102.3,238,102.4,238.2,102.4z"/>
			<path class="st21" d="M237.9,102.1l0.4-1.4c0-0.1,0-0.2,0-0.2l-0.9-1.1c-0.1-0.1-0.1-0.2,0-0.3c0.4,0.4,1.3,0.2,1.6,0.5
				c0.2,0.2,0.3,0.4,0.5,0.4c0.2,0.1,0.5,0.2,0.8,0.5c0.2,0.2,0.2,1.2,0.4,1.5c0.2,0.2,0.3,0.3,0.5,0.6c0,0,0,0.1,0,0.1
				c-0.1,0-0.2,0-0.2,0l-1.2-0.8c-0.1,0-0.2,0-0.2,0l-1.3,0.5C238,102.4,237.8,102.3,237.9,102.1z"/>
			<path class="st18" d="M215.4,178.3c22.9-15.8,22.4-27.7,18.5-35c-5.1-9.3-16-0.1-20.9-1.1c-2.7-0.5-1.3-2-3.1-3.8
				c-0.1,0.1-0.3,0.2-0.4,0.4c-0.2,0.2-0.5,0.4-0.7,0.6c-1.1,1-2.1,2-3.1,3c-0.2,0-0.3,0-0.5-0.1c-1.4-0.3-3.2-1.7-4.2-1.5
				c-1.2-0.4-4,1.2-6.7,3.9c-3,3-4.6,6.1-3.7,7c0.9,2.2,2.2,3.5,2.8,5.3c-0.7,1.1-1.5,2.2-2.2,3.3c-0.3,0.4-0.5,0.8-0.8,1.3
				c-0.2,0.2-0.3,0.5-0.5,0.7c-0.3,0.5-0.6,1-0.9,1.5c-0.1,0.2-0.3,0.4-0.4,0.7c-0.2,0.4-0.4,0.8-0.7,1.1c-0.2,0.2-0.3,0.5-0.4,0.7
				c-0.2,0.4-0.4,0.7-0.6,1.1c-0.2,0.2-0.3,0.5-0.4,0.8c-0.2,0.4-0.4,0.7-0.6,1.1c-0.1,0.3-0.3,0.5-0.4,0.8
				c-0.2,0.4-0.4,0.7-0.6,1.1c-0.1,0.3-0.2,0.5-0.4,0.8c-0.2,0.4-0.4,0.8-0.5,1.2c-0.1,0.2-0.2,0.5-0.4,0.7
				c-0.2,0.4-0.4,0.8-0.5,1.2c-0.1,0.2-0.2,0.5-0.3,0.7c-0.2,0.4-0.4,0.9-0.5,1.3c-0.1,0.2-0.2,0.5-0.3,0.7
				c-0.2,0.4-0.4,0.9-0.5,1.4c-0.1,0.2-0.2,0.4-0.2,0.6c-0.2,0.5-0.4,1-0.6,1.5c-0.1,0.2-0.1,0.3-0.2,0.5c-0.2,0.6-0.4,1.2-0.7,1.8
				c0,0.1,0,0.1-0.1,0.2c-0.7,2.1-1.4,4.2-2,6.3c0,0,0,0.1,0,0.2c-0.2,0.6-0.4,1.3-0.5,1.9c0,0,0,0,0,0.1
				C193.8,188.2,210.1,182,215.4,178.3z"/>
			<path class="st22" d="M197.2,147.6c2.2-2.2,3.5-4.6,2.8-5.3c-0.7-0.7-3,0.6-5.3,2.8c-2.2,2.2-3.5,4.6-2.8,5.3
				C192.6,151,195,149.8,197.2,147.6z"/>
			<path class="st23" d="M263.7,172.4c11.8-0.6,22.7-4.3,32-10.2c-1-0.9-2.5-2-4.9-1.9c-4.2,0.1-6.8,4.2-8.3,3.7
				c-2.6-0.8-0.3-10.1-6.1-13.9c-4.2-2.7-8.7,0.9-10.3,0c-1.7-1,4.5-4.9-1.1-10.3c-3.3-3.1-9.5,0.6-10.5-0.4c-1-1,5.6-4-0.7-11.9
				c-4.3-5.3,12.6-7.7,12.4-16.5c-0.1-6.6-5.5-8.5-5.2-10.7c0.4-2.8,5.2-2,7.1-5.4c1.1-1.9-0.7-6.1-0.7-6.1l-15.6-11.4
				c0,0-3.3,0.2-5.3,2.8c-1.6,2.1,0.2,3.2-1.8,5.7c-2,2.5-8.1,0.4-12.2,5.3c-3.7,4.3,0,10.6-1.2,12.2c-1.5,2.1-7.2-1.1-14.2,7.9
				c-7,9,0.3,17.4-4,19c-4.6,1.7-3.8-4.7-8.8-5.8c-2.4-0.5-12.2,6.9-13.5,7.1c-0.3,0,8.9,4.5,8.5,4.2
				C207.3,164,233,173.9,263.7,172.4z"/>
			<path class="st24" d="M275.2,170.8c-0.7-0.2-1.5-0.5-2.1-0.7c-20.2-8.4-11.1-17.1-13-20.9c-1.9-3.8-8.5,5.6-10.6,0
				c-0.6-1.5,2.4-12.6,0.8-14.4c-3.9-4.7-5.9,4.3-7.6,3.3c-4.1-2.3,4.8-7.7,4.3-10.3c-0.9-4.7-7.2-3.9-7.3-6.7c-0.2-3,8.1-4.9,9.1-7
				c1.2-2.9-4.1-8.3-2.3-13.1c1.5-4,9.7-4.4,12.3-6.5c2.6-2.1,4.9-6.8,4.9-6.8l-9.2-5.8c-2.5,3.5-11.8,7.1-14.8,11.4
				c-2.4,3.5,0.1,9.5-1.3,12.3c-2.9,5.6-8.6,5-10.8,10.3c-2.2,5,3.8,7.1,3.4,13.1c-0.5,7.6-11.4,6-12.8,17.4c-0.3,2.4,0,6.9,0.9,11
				c12,10,27.7,15.7,44.6,14.9C267.7,172.2,271.5,171.7,275.2,170.8z"/>
			<path class="st8" d="M251.4,73l-1.5,2.3c-1.3,2,2.4,6.8,8.3,10.7c5.9,4,11.8,5.6,13.1,3.6l1.5-2.3L251.4,73z"/>
			<path class="st25" d="M301,22c-0.5-0.3-1.1-0.2-1.5,0.3c-0.2,0.4-0.2,0.8,0,1.2l-3,4.5l0.7,0.5l3-4.5c0.4,0.1,0.8-0.1,1.1-0.5
				C301.6,23,301.5,22.3,301,22z"/>
			
				<linearGradient id="SVGID_12_" gradientUnits="userSpaceOnUse" x1="250.385" y1="4.5661" x2="296.3865" y2="-7.265379e-02" gradientTransform="matrix(1 0 0 -1 0 58.7244)">
				<stop  offset="0" style="stop-color:#C7E8FF"/>
				<stop  offset="1" style="stop-color:#B2C0FF"/>
			</linearGradient>
			<path class="st26" d="M298.1,28.5c-0.1-1-1.1-1.6-2.1-1.4c-5.4,1.4-23,8.1-32,21.5L249,69.1c-1.3,1.9,4,7.6,11.7,12.8
				c7.7,5.2,15,7.8,16.3,6L290.2,66C299.2,52.7,298.9,34,298.1,28.5z"/>
			<path class="st27" d="M262.6,50.5c-1.7-1.1-9.7-0.9-16,4c-6.6,5-11.8,15.2-9.2,16.9c2.7,1.8,12.4-9,15.1-7.2L262.6,50.5z"/>
			<path class="st18" d="M252.9,56.3c-2.4,0.5-5.1,3.4-6.5,5.6c-1.8,2.9-3.5,4.1-6.1,3.9c-1.6-0.1-2.4,3.6-2.9,5.5l0,0
				c2.7,1.8,12.4-9,15.1-7.2l6.3-8.4C256.8,56.2,254.3,56,252.9,56.3z"/>
			<path class="st27" d="M289,68.2c1.7,1.1,4.5,8.6,2.4,16.3c-2.1,8-9.5,16.7-12.1,15c-2.7-1.8,3.6-14.9,0.9-16.7L289,68.2z"/>
			<path class="st18" d="M280.9,95.8c0.1-1.5,3-4.3,3.9-6.2c0.9-1.9,0.1-4,0.5-5.3c0.4-1.4,2-3.4,2.3-5.1c0.3-1.4-1.2-2.9-2.3-4.9
				l-5.1,8.4c2.7,1.8-3.5,14.9-0.9,16.7C280.3,98.4,280.8,97.4,280.9,95.8z"/>
			<path class="st27" d="M283.4,54.9c3.4-0.2,6-3,5.8-6.4c-0.2-3.4-3-6-6.4-5.8s-6,3-5.8,6.4C277.2,52.4,280.1,55,283.4,54.9z"/>
			<path class="st28" d="M283.4,52.9c2.4-0.1,4.2-2.1,4.1-4.5c-0.1-2.4-2.1-4.2-4.5-4.1c-2.4,0.1-4.2,2.1-4.1,4.5
				C279.1,51.2,281.1,53.1,283.4,52.9z"/>
			<path class="st25" d="M285.6,45.1c-0.8-0.5-1.7-0.7-2.6-0.7c-1.3,2-0.8,4.6,1.2,6c0.8,0.5,1.7,0.8,2.6,0.7
				C288.1,49.1,287.6,46.4,285.6,45.1z"/>
			
				<linearGradient id="SVGID_13_" gradientUnits="userSpaceOnUse" x1="248.2553" y1="-16.5548" x2="280.1025" y2="-19.7662" gradientTransform="matrix(1 0 0 -1 0 58.7244)">
				<stop  offset="0" style="stop-color:#87478C"/>
				<stop  offset="0.1651" style="stop-color:#6B3D88"/>
				<stop  offset="0.3594" style="stop-color:#513485"/>
				<stop  offset="0.5601" style="stop-color:#3F2E82"/>
				<stop  offset="0.7692" style="stop-color:#342A80"/>
				<stop  offset="1" style="stop-color:#302980"/>
			</linearGradient>
			<path class="st29" d="M264,77c-7.7-5.2-13.1-10.3-12.2-11.8l-2.8,3.9c-1.3,1.9,4,7.6,11.7,12.8c7.7,5.2,15,7.8,16.3,6l2.5-4.2
				C278.6,85.1,271.7,82.2,264,77z"/>
			
				<linearGradient id="SVGID_14_" gradientUnits="userSpaceOnUse" x1="289.2235" y1="28.2227" x2="298.8657" y2="27.2509" gradientTransform="matrix(1 0 0 -1 0 58.7244)">
				<stop  offset="0" style="stop-color:#87478C"/>
				<stop  offset="0.1651" style="stop-color:#6B3D88"/>
				<stop  offset="0.3594" style="stop-color:#513485"/>
				<stop  offset="0.5601" style="stop-color:#3F2E82"/>
				<stop  offset="0.7692" style="stop-color:#342A80"/>
				<stop  offset="1" style="stop-color:#302980"/>
			</linearGradient>
			<path class="st30" d="M289.3,29.5c0.9,1.3,2.3,2.7,4.1,3.9c1.8,1.2,3.6,2,5.1,2.3c0-3.1-0.1-5.6-0.3-7.1c-0.1-1-1.1-1.6-2.1-1.4
				C294.6,27.5,292.2,28.3,289.3,29.5z"/>
			<path class="st18" d="M298.1,28.5c0-0.1,0-0.2-0.1-0.3c-16.8,7-10.5,39.6-26.3,40c-8.7,0.2-16.1,8.6-19,13.5
				c1.4,1.5,3.3,3,5.5,4.5c5.9,4,11.8,5.6,13.1,3.6l1.2-1.8c2.3,0.7,4,0.8,4.5-0.1L290.2,66C299.2,52.7,298.9,34,298.1,28.5z"/>
			<path class="st27" d="M268.2,77.2c5.1-7.6,8-14.7,6.4-15.7c-1.6-1-7,4.3-12.1,11.9s-8,14.7-6.4,15.7
				C257.7,90.1,263.1,84.8,268.2,77.2z"/>
		</g>
	</g>
</g>
</svg>
