<svg width="572" height="460" viewBox="0 0 572 460" fill="none" xmlns="http://www.w3.org/2000/svg">
<mask id="mask0" mask-type="alpha" maskUnits="userSpaceOnUse" x="0" y="0" width="572" height="460">
<rect width="572" height="460" fill="#C4C4C4"/>
</mask>
<g mask="url(#mask0)">
<path d="M416.894 316.48C414.185 314.115 413.495 311.455 407.141 308.893C402.51 307.02 398.422 303.424 396.747 298.694C395.319 294.605 389.506 296.23 385.861 294.112C382.413 292.141 378.127 292.782 374.58 291.008C371.329 289.382 368.866 285.342 365.566 283.913C341.922 273.715 315.863 268.049 288.525 268.049C278.919 268.049 269.461 268.738 260.25 270.069C257.344 270.512 255.225 272.434 252.368 273.025C250.053 273.468 246.95 272.483 244.635 273.025C231.975 275.932 219.808 280.07 208.232 285.342C204.833 286.869 202.37 290.712 199.07 292.437C194.538 294.802 189.267 295.196 184.933 297.856C172.765 305.542 161.485 314.509 151.338 324.609C151.042 324.56 150.796 324.56 150.55 324.511C148.037 324.018 144.836 321.456 143.013 321.801C140.944 321.013 135.772 323.92 130.895 328.797C125.575 334.118 122.57 339.784 124.196 341.41C125.92 345.352 128.087 347.766 129.22 350.919C107.004 382.648 94 421.127 94 462.612C94 570.068 181.09 657.126 288.475 657.126C395.86 657.126 483 570.068 483 462.612C483 404.376 457.434 352.151 416.894 316.48Z" fill="#573381"/>
<path opacity="0.24" d="M168.726 389.349C209.956 360.921 209.02 339.439 201.976 326.383C192.913 309.681 173.209 326.186 164.49 324.462C159.663 323.476 162.076 320.963 158.874 317.662C158.628 317.86 158.382 318.106 158.136 318.303C157.741 318.648 157.347 319.042 156.904 319.387C154.983 321.111 153.16 322.934 151.288 324.757C150.993 324.708 150.747 324.708 150.5 324.659C147.988 324.166 144.786 321.604 142.964 321.949C140.895 321.161 135.723 324.067 130.846 328.945C125.526 334.266 122.521 339.932 124.147 341.558C125.871 345.499 128.038 347.914 129.171 351.067C127.792 352.988 126.462 354.959 125.181 356.979C124.689 357.718 124.196 358.506 123.753 359.246C123.457 359.689 123.211 360.132 122.915 360.576C122.373 361.512 121.782 362.399 121.24 363.335C120.994 363.729 120.748 364.123 120.551 364.567C120.157 365.256 119.763 365.946 119.369 366.636C119.122 367.079 118.876 367.523 118.63 367.966C118.236 368.607 117.891 369.296 117.546 369.986C117.3 370.43 117.053 370.922 116.807 371.366C116.462 372.006 116.117 372.696 115.773 373.386C115.526 373.829 115.28 374.322 115.083 374.765C114.738 375.455 114.393 376.096 114.049 376.785C113.802 377.229 113.605 377.721 113.359 378.165C113.014 378.855 112.669 379.544 112.374 380.234C112.177 380.678 111.93 381.121 111.733 381.614C111.389 382.353 111.093 383.042 110.748 383.781C110.551 384.225 110.354 384.668 110.157 385.112C109.812 385.851 109.517 386.639 109.172 387.378C108.975 387.772 108.827 388.216 108.63 388.61C108.285 389.398 107.99 390.236 107.645 391.073C107.497 391.467 107.349 391.812 107.201 392.206C106.857 393.093 106.512 394.029 106.167 394.916C106.069 395.212 105.97 395.507 105.822 395.803C105.428 396.887 105.034 397.971 104.64 399.104C104.591 399.203 104.541 399.35 104.541 399.449C103.261 403.193 102.079 406.987 100.995 410.83C100.946 410.929 100.946 411.027 100.896 411.126C100.601 412.259 100.256 413.441 99.9604 414.624C99.9604 414.673 99.9111 414.722 99.9111 414.772C129.959 407.086 159.268 395.852 168.726 389.349Z" fill="#351656"/>
<path opacity="0.6" d="M136.073 333.892C140.055 329.909 142.285 325.682 141.054 324.451C139.823 323.219 135.597 325.45 131.615 329.433C127.633 333.415 125.403 337.642 126.634 338.874C127.865 340.105 132.091 337.875 136.073 333.892Z" fill="#351656"/>
<path opacity="0.24" d="M215.867 310.519C233.502 330.916 225.079 388.708 138.53 427.976C123.014 435.071 108.334 441.968 94.4926 448.767C94.1478 453.349 94 457.981 94 462.612C94 539.816 138.924 606.477 204.094 637.911C264.782 610.173 318.425 567.259 346.7 507.25C365.566 467.194 391.575 313.672 313.203 325.792C271.333 332.246 248.625 327.369 226.557 304.853C219.512 297.61 208.823 293.866 199.612 292.19C199.415 292.289 199.218 292.437 199.021 292.535C194.489 294.9 189.218 295.294 184.883 297.955C184.538 298.152 184.194 298.398 183.849 298.595C197.297 298.201 208.38 301.896 215.867 310.519Z" fill="#351656"/>
<path opacity="0.24" d="M251.728 273.123C251.629 273.123 251.531 273.123 251.432 273.173C251.383 273.173 251.285 273.173 251.235 273.173C251.137 273.173 251.038 273.173 250.989 273.173C250.891 273.173 250.841 273.173 250.743 273.173C250.644 273.173 250.595 273.173 250.497 273.173C250.398 273.173 250.299 273.173 250.25 273.173C250.152 273.173 250.102 273.173 250.004 273.173C249.905 273.173 249.807 273.173 249.708 273.173C249.659 273.173 249.561 273.173 249.511 273.173C249.364 273.173 249.265 273.173 249.117 273.123C249.068 273.123 249.068 273.123 249.019 273.123C248.822 273.123 248.625 273.074 248.428 273.074C253.107 286.623 263.255 301.847 279.51 307.119C300.987 314.066 337.439 302.488 363.546 337.37C416.648 408.317 370.787 580.562 360.886 643.281C423.741 618.056 470.39 561.002 480.833 492.025C480.98 490.942 481.177 489.808 481.325 488.724C481.325 488.527 481.374 488.38 481.374 488.183C481.67 485.965 481.916 483.748 482.113 481.482C482.113 481.285 482.163 481.039 482.163 480.841C482.261 479.708 482.36 478.575 482.458 477.491C482.557 476.407 482.606 475.323 482.655 474.19C482.655 473.944 482.704 473.697 482.704 473.451C482.754 472.318 482.803 471.234 482.852 470.101V470.052C482.901 468.968 482.901 467.884 482.951 466.8C482.951 466.504 482.951 466.258 482.951 465.962C482.951 464.878 483 463.745 483 462.612C483 404.376 457.434 352.151 416.894 316.48C414.185 314.115 413.495 311.455 407.141 308.893C402.51 307.02 398.422 303.424 396.747 298.694C395.319 294.605 389.506 296.23 385.861 294.112C382.413 292.141 378.127 292.782 374.58 291.008C371.329 289.382 368.866 285.342 365.566 283.913C341.922 273.715 315.863 268.049 288.525 268.049C278.919 268.049 269.461 268.738 260.25 270.069C257.344 270.512 255.225 272.434 252.368 273.025C252.221 273.074 252.073 273.074 251.925 273.074C251.827 273.123 251.777 273.123 251.728 273.123Z" fill="#351656"/>
<path d="M281.138 261.453C279.187 262.38 276.401 263.875 274.551 267.347C272.136 271.847 272.946 279.952 274.601 281.906C275.933 283.499 277.333 284.547 278.459 285.235C280.57 286.508 282.075 285.964 282.075 285.964L281.138 261.453Z" fill="url(#paint0_linear)"/>
<path d="M274.693 282.009C274.969 282.318 275.2 282.575 275.478 282.835C276.445 281.274 277.958 279.185 280.201 278.12C280.591 277.934 281.22 277.757 281.802 277.579L281.748 276.431C281.07 276.606 280.295 276.827 279.712 277.055C277.368 278.267 275.759 280.352 274.693 282.009Z" fill="#6392F8"/>
<path d="M277.116 264C277.245 264.403 279.612 270.521 279.612 270.521L280.216 261.769C280.216 261.769 278.875 261.72 278.129 262.491C277.731 262.876 277.116 264 277.116 264Z" fill="#6392F8"/>
<path opacity="0.2" d="M278.505 285.287C280.616 286.56 282.121 286.016 282.121 286.016L281.122 261.901C279.616 262.445 278.664 263.607 278.158 264.337C277.402 265.357 277.292 267.097 276.952 268.531C276.675 269.568 274.356 271.428 274.711 273.535C274.985 275.24 275.954 276.272 275.376 277.696C274.797 279.121 274.926 280.871 275.42 281.786C275.599 282.141 275.771 282.696 275.941 283.3C276.821 284.13 277.707 284.81 278.505 285.287Z" fill="#351656"/>
<path d="M300.095 262.087C301.973 263.151 304.595 264.891 306.19 268.488C308.225 273.198 306.835 281.174 304.948 283C303.506 284.443 302.033 285.437 300.814 285.991C298.619 287.059 297.157 286.408 297.157 286.408L300.095 262.087Z" fill="url(#paint1_linear)"/>
<path d="M304.847 283.146C304.549 283.434 304.301 283.674 304.004 283.913C303.2 282.289 301.794 280.095 299.683 278.822C299.307 278.609 298.694 278.338 298.125 278.168L298.262 277.026C298.925 277.249 299.682 277.526 300.245 277.845C302.498 279.173 303.951 281.419 304.847 283.146Z" fill="#6392F8"/>
<path d="M303.871 265.014C303.713 265.408 300.865 271.287 300.865 271.287L300.942 262.516C300.942 262.516 302.28 262.614 302.971 263.387C303.34 263.799 303.871 265.014 303.871 265.014Z" fill="#6392F8"/>
<path opacity="0.2" d="M300.812 286.042C298.617 287.109 297.155 286.458 297.155 286.458L300.995 262.369C302.409 263.018 302.343 263.514 302.648 264.373C303.128 265.686 302.9 268.021 303.135 269.475C303.289 270.527 305.192 272.241 305.106 274.631C305.043 276.373 302.402 277.824 302.927 279.238C304.146 282.622 303.018 284.675 302.772 284.866C302.083 285.34 301.397 285.764 300.812 286.042Z" fill="#351656"/>
<path d="M281.391 294.314C280.373 294.627 279.326 295.736 279.003 296.721C278.68 297.706 278.362 298.542 278.972 298.913C279.674 299.387 282.477 300.087 282.859 300.1C283.528 300.174 281.875 294.182 281.391 294.314Z" fill="url(#paint2_linear)"/>
<path d="M297.172 295.282C298.165 295.667 299.377 296.608 299.628 297.614C299.879 298.62 300.187 299.379 299.503 299.753C298.623 300.22 296.023 300.575 295.64 300.561C294.92 300.585 296.699 295.115 297.172 295.282Z" fill="url(#paint3_linear)"/>
<path d="M281.607 257.731C280.303 260.675 279.057 271.299 278.969 273.738C278.858 276.825 279.414 285.32 279.479 287.516C279.589 291.109 281.415 298.951 281.964 299.669C282.696 300.643 286.107 300.417 286.545 300.233C287.228 299.909 287.481 299.519 287.615 298.477C287.748 297.435 288.065 287.327 288.267 287.035C288.782 286.056 290.115 286.304 290.331 286.96C290.547 287.615 290.475 297.583 290.453 298.181C290.432 298.778 291.057 300.047 291.576 300.265C293.088 300.868 296.253 300.832 296.843 300.405C297.583 299.834 300.207 278.891 300.395 276.355C300.582 273.819 301.35 260.487 300.42 259.706C299.44 258.972 281.607 257.731 281.607 257.731Z" fill="url(#paint4_linear)"/>
<path d="M309.818 250.274C309.93 247.187 309.014 244.661 305.711 244.542C305.711 244.542 305.561 248.724 305.51 250.118C305.46 251.512 305.309 255.694 305.309 255.694C308.61 255.863 309.707 253.36 309.818 250.274Z" fill="#6392F8"/>
<path opacity="0.6" d="M309.818 250.274C309.93 247.187 309.014 244.661 305.711 244.542C305.711 244.542 305.561 248.724 305.51 250.118C305.46 251.512 305.309 255.694 305.309 255.694C308.61 255.863 309.707 253.36 309.818 250.274Z" fill="#351656"/>
<path d="M290.255 266.468C296.43 266.69 302.508 264.267 301.703 260.001C301.703 260.001 293.236 260.892 290.46 260.792C287.683 260.692 279.302 259.193 279.302 259.193C278.366 263.895 284.08 266.245 290.255 266.468Z" fill="#6392F8"/>
<path d="M272.1 248.914C272.211 245.827 273.306 243.374 276.609 243.493C276.609 243.493 276.458 247.675 276.408 249.069C276.358 250.463 276.207 254.645 276.207 254.645C272.854 254.574 271.989 252 272.1 248.914Z" fill="#6392F8"/>
<path opacity="0.6" d="M273.297 248.957C272.691 251.128 273.583 251.659 274.073 252.674C274.52 253.587 275.257 254.411 276.161 254.593C276.181 254.046 276.314 250.362 276.36 249.067C276.41 247.673 276.561 243.491 276.561 243.491C276.466 243.487 276.322 243.482 276.226 243.479C275.111 243.837 274.029 244.596 273.513 245.624C272.991 246.802 273.624 247.872 273.297 248.957Z" fill="#351656"/>
<path d="M290.352 263.779C299.208 264.099 306.619 257.916 306.906 249.969C307.192 242.023 300.245 235.322 291.389 235.003C282.534 234.683 275.122 240.866 274.836 248.813C274.549 256.759 281.496 263.46 290.352 263.779Z" fill="url(#paint5_linear)"/>
<path opacity="0.6" d="M285.36 258.664C285.704 258.676 285.993 258.397 286.006 258.039C286.018 257.682 285.75 257.382 285.407 257.37C285.063 257.357 284.774 257.637 284.761 257.994C284.748 258.352 285.016 258.652 285.36 258.664Z" fill="#351656"/>
<path opacity="0.6" d="M296.032 259.098C296.376 259.111 296.665 258.831 296.678 258.473C296.691 258.116 296.422 257.816 296.079 257.804C295.735 257.791 295.446 258.071 295.433 258.428C295.42 258.786 295.688 259.086 296.032 259.098Z" fill="#351656"/>
<path d="M293.552 284.034L285.175 283.732C284.792 283.719 284.42 283.406 284.436 282.958L284.241 279.063C284.21 278.613 284.609 278.178 285.039 278.194L294.044 278.369C294.522 278.386 294.843 278.797 294.827 279.245L294.392 283.317C294.33 283.714 293.983 284.05 293.552 284.034Z" fill="#6392F8"/>
<path d="M287.837 293.649C287.851 293.251 287.864 292.903 287.878 292.504L285.389 292.415C284.624 292.387 281.901 292.139 279.903 291.718C279.984 292.12 280.018 292.52 280.099 292.922C282.099 293.293 284.582 293.532 285.348 293.56L287.837 293.649Z" fill="#6392F8"/>
<path d="M293.007 293.836C295.16 293.914 296.838 293.924 298.132 293.921C298.192 293.574 298.254 293.178 298.317 292.781C296.925 292.831 294.53 292.794 290.559 292.601L290.511 292.599C290.497 292.998 290.532 293.348 290.518 293.746C291.379 293.777 292.241 293.808 293.007 293.836Z" fill="#6392F8"/>
<path opacity="0.2" d="M291.39 235.002C290.001 234.952 285.322 237.127 283.139 239.192C281.551 240.68 276.692 247.833 282.225 252.569C283.712 253.869 286.145 255.502 285.407 257.369C284.669 259.237 286.243 259.444 287.745 261.641C289.247 263.839 288.445 266.153 287.526 267.715C286.607 269.277 285.781 272.239 287.021 275.075C288.263 277.862 287.707 279.985 286.149 281.973C284.642 283.913 282.627 285.286 284.011 289.424C285.396 293.561 285.843 295.771 283.552 298.181C283.004 298.759 282.456 299.338 281.954 299.968C282.096 300.023 282.287 300.03 282.381 300.083C283.558 300.674 286.106 300.466 286.544 300.283C287.226 299.958 287.48 299.569 287.613 298.527C287.747 297.485 288.063 287.376 288.266 287.084C288.78 286.106 290.113 286.353 290.329 287.009C290.545 287.665 290.473 297.633 290.452 298.23C290.43 298.828 291.055 300.096 291.575 300.315C292.943 300.912 295.725 300.863 296.647 300.547C297.609 300.432 298.913 300.18 299.5 299.853C300.184 299.478 299.924 298.721 299.625 297.713C299.414 296.908 298.673 296.184 297.876 295.706C298.925 289.213 300.28 278.195 300.393 276.405C300.553 274.616 300.95 267.601 300.867 263.261C301.619 262.341 301.993 261.258 301.749 260.052C304.762 257.569 306.806 254.053 306.95 250.07C307.191 242.053 299.814 235.306 291.39 235.002Z" fill="#351656"/>
<path d="M292.596 237.439C292.578 237.937 291.897 238.211 291.035 238.18C290.174 238.149 289.514 237.826 289.532 237.329C289.55 236.831 290.236 236.407 291.098 236.438C291.96 236.469 292.614 236.941 292.596 237.439Z" fill="#4F3570"/>
<path d="M290.604 236.869L290.792 231.641L291.749 231.676L291.561 236.903C291.555 237.053 291.456 237.149 291.313 237.144L290.882 237.128C290.738 237.123 290.598 237.018 290.604 236.869Z" fill="#4F3570"/>
<path d="M291.233 232.804C292.052 232.833 292.742 232.166 292.772 231.314C292.803 230.461 292.164 229.746 291.344 229.717C290.525 229.687 289.835 230.354 289.805 231.207C289.774 232.059 290.413 232.774 291.233 232.804Z" fill="#4F3570"/>
<path d="M316.142 298.192C313.732 299.336 310.292 301.182 308.006 305.472C305.024 311.029 306.024 321.039 308.068 323.453C309.714 325.421 311.443 326.715 312.833 327.565C315.44 329.137 317.299 328.465 317.299 328.465L316.142 298.192Z" fill="url(#paint6_linear)"/>
<path d="M308.182 323.58C308.523 323.962 308.808 324.28 309.151 324.6C310.345 322.673 312.214 320.093 314.985 318.776C315.467 318.547 316.244 318.329 316.962 318.109L316.895 316.69C316.059 316.906 315.102 317.18 314.381 317.462C311.486 318.958 309.499 321.534 308.182 323.58Z" fill="#6392F8"/>
<path d="M311.174 301.337C311.334 301.836 314.258 309.391 314.258 309.391L315.003 298.581C315.003 298.581 313.347 298.522 312.425 299.474C311.935 299.949 311.174 301.337 311.174 301.337Z" fill="#6392F8"/>
<path opacity="0.2" d="M312.89 327.629C315.497 329.2 317.356 328.529 317.356 328.529L316.122 298.745C314.262 299.417 313.086 300.852 312.461 301.753C311.528 303.013 311.391 305.163 310.972 306.933C310.63 308.214 307.765 310.512 308.204 313.114C308.542 315.219 309.74 316.494 309.025 318.254C308.31 320.013 308.469 322.174 309.08 323.304C309.301 323.743 309.513 324.428 309.723 325.175C310.81 326.199 311.905 327.039 312.89 327.629Z" fill="#351656"/>
<path d="M339.555 298.974C341.875 300.289 345.113 302.438 347.084 306.881C349.597 312.697 347.88 322.548 345.549 324.804C343.768 326.587 341.948 327.814 340.444 328.499C337.732 329.817 335.926 329.013 335.926 329.013L339.555 298.974Z" fill="url(#paint7_linear)"/>
<path d="M345.425 324.984C345.057 325.34 344.75 325.637 344.384 325.932C343.391 323.926 341.654 321.216 339.046 319.644C338.582 319.381 337.825 319.046 337.122 318.836L337.291 317.426C338.11 317.701 339.045 318.043 339.741 318.438C342.523 320.077 344.318 322.851 345.425 324.984Z" fill="#6392F8"/>
<path d="M344.219 302.59C344.024 303.076 340.507 310.338 340.507 310.338L340.601 299.505C340.601 299.505 342.255 299.626 343.108 300.58C343.563 301.089 344.219 302.59 344.219 302.59Z" fill="#6392F8"/>
<path opacity="0.2" d="M340.442 328.56C337.73 329.879 335.924 329.075 335.924 329.075L340.667 299.322C342.414 300.124 342.333 300.737 342.709 301.797C343.302 303.419 343.02 306.303 343.31 308.099C343.5 309.399 345.851 311.515 345.745 314.467C345.667 316.619 342.406 318.41 343.053 320.158C344.56 324.337 343.166 326.873 342.862 327.108C342.012 327.693 341.164 328.217 340.442 328.56Z" fill="#351656"/>
<path d="M316.454 338.778C315.197 339.164 313.905 340.534 313.506 341.751C313.107 342.968 312.714 344 313.467 344.458C314.334 345.044 317.795 345.907 318.268 345.924C319.094 346.016 317.052 338.615 316.454 338.778Z" fill="url(#paint8_linear)"/>
<path d="M335.946 339.974C337.172 340.449 338.669 341.611 338.979 342.854C339.289 344.096 339.67 345.034 338.825 345.496C337.738 346.072 334.526 346.511 334.053 346.494C333.164 346.523 335.361 339.768 335.946 339.974Z" fill="url(#paint9_linear)"/>
<path d="M316.722 293.595C315.111 297.231 313.572 310.352 313.463 313.365C313.326 317.177 314.013 327.669 314.093 330.381C314.229 334.819 316.484 344.506 317.163 345.392C318.066 346.594 322.279 346.315 322.82 346.089C323.663 345.688 323.977 345.207 324.142 343.92C324.306 342.633 324.697 330.148 324.947 329.787C325.583 328.579 327.229 328.884 327.496 329.694C327.763 330.505 327.674 342.816 327.647 343.554C327.621 344.291 328.393 345.859 329.034 346.128C330.902 346.873 334.81 346.829 335.54 346.301C336.453 345.595 339.694 319.729 339.926 316.597C340.157 313.465 341.106 296.998 339.957 296.033C338.746 295.128 316.722 293.595 316.722 293.595Z" fill="url(#paint10_linear)"/>
<path d="M351.565 284.384C351.702 280.571 350.572 277.452 346.492 277.305C346.492 277.305 346.306 282.47 346.244 284.192C346.182 285.914 345.996 291.079 345.996 291.079C350.073 291.288 351.427 288.196 351.565 284.384Z" fill="#6392F8"/>
<path opacity="0.6" d="M351.565 284.384C351.702 280.571 350.572 277.452 346.492 277.305C346.492 277.305 346.306 282.47 346.244 284.192C346.182 285.914 345.996 291.079 345.996 291.079C350.073 291.288 351.427 288.196 351.565 284.384Z" fill="#351656"/>
<path d="M327.402 304.385C335.029 304.66 342.536 301.668 341.542 296.398C341.542 296.398 331.084 297.499 327.655 297.375C324.226 297.251 313.874 295.401 313.874 295.401C312.718 301.208 319.776 304.11 327.402 304.385Z" fill="#6392F8"/>
<path d="M304.979 282.704C305.117 278.892 306.469 275.862 310.548 276.009C310.548 276.009 310.362 281.174 310.3 282.896C310.238 284.618 310.052 289.783 310.052 289.783C305.911 289.695 304.842 286.517 304.979 282.704Z" fill="#6392F8"/>
<path opacity="0.6" d="M306.457 282.757C305.709 285.439 306.811 286.095 307.416 287.348C307.968 288.476 308.878 289.494 309.995 289.719C310.019 289.043 310.183 284.492 310.241 282.894C310.303 281.172 310.489 276.007 310.489 276.007C310.371 276.002 310.194 275.996 310.075 275.992C308.698 276.435 307.362 277.372 306.724 278.642C306.08 280.096 306.861 281.417 306.457 282.757Z" fill="#351656"/>
<path d="M327.522 301.065C338.46 301.459 347.613 293.822 347.967 284.008C348.321 274.193 339.741 265.917 328.803 265.523C317.866 265.128 308.712 272.765 308.358 282.58C308.004 292.394 316.584 300.67 327.522 301.065Z" fill="url(#paint11_linear)"/>
<path opacity="0.6" d="M321.357 294.747C321.781 294.762 322.138 294.417 322.154 293.975C322.17 293.534 321.839 293.163 321.414 293.148C320.99 293.133 320.633 293.478 320.617 293.92C320.601 294.361 320.932 294.732 321.357 294.747Z" fill="#351656"/>
<path opacity="0.6" d="M334.538 295.283C334.962 295.298 335.319 294.953 335.335 294.511C335.351 294.07 335.02 293.7 334.595 293.684C334.171 293.669 333.814 294.015 333.798 294.456C333.782 294.897 334.113 295.268 334.538 295.283Z" fill="#351656"/>
<path d="M331.474 326.082L321.128 325.709C320.655 325.692 320.196 325.306 320.215 324.752L319.975 319.941C319.935 319.386 320.428 318.849 320.96 318.868L332.081 319.085C332.673 319.106 333.069 319.613 333.049 320.166L332.512 325.196C332.435 325.686 332.006 326.101 331.474 326.082Z" fill="#6392F8"/>
<path d="M324.416 337.957C324.433 337.465 324.449 337.035 324.467 336.543L321.393 336.432C320.447 336.398 317.084 336.092 314.616 335.572C314.717 336.068 314.758 336.562 314.858 337.058C317.328 337.517 320.396 337.812 321.342 337.846L324.416 337.957Z" fill="#6392F8"/>
<path d="M330.801 338.187C333.461 338.283 335.532 338.296 337.131 338.292C337.205 337.864 337.282 337.374 337.359 336.884C335.64 336.946 332.682 336.901 327.777 336.662L327.718 336.66C327.7 337.152 327.744 337.584 327.726 338.076C328.79 338.115 329.855 338.153 330.801 338.187Z" fill="#6392F8"/>
<path opacity="0.2" d="M328.804 265.522C327.089 265.461 321.309 268.146 318.613 270.696C316.652 272.534 310.651 281.369 317.484 287.218C319.321 288.824 322.326 290.841 321.414 293.148C320.502 295.455 322.447 295.71 324.302 298.424C326.158 301.138 325.167 303.997 324.032 305.926C322.897 307.855 321.877 311.513 323.408 315.016C324.941 318.458 324.255 321.081 322.331 323.536C320.469 325.931 317.981 327.627 319.691 332.738C321.401 337.848 321.954 340.577 319.123 343.554C318.446 344.268 317.769 344.983 317.149 345.761C317.325 345.829 317.561 345.837 317.677 345.903C319.131 346.633 322.277 346.377 322.818 346.15C323.661 345.749 323.975 345.268 324.139 343.981C324.304 342.694 324.695 330.209 324.945 329.849C325.581 328.64 327.227 328.946 327.494 329.756C327.761 330.566 327.672 342.877 327.645 343.615C327.619 344.353 328.391 345.92 329.032 346.189C330.722 346.927 334.158 346.867 335.297 346.477C336.486 346.335 338.095 346.023 338.82 345.619C339.665 345.157 339.344 344.221 338.975 342.977C338.714 341.982 337.8 341.087 336.815 340.497C338.11 332.478 339.785 318.87 339.923 316.658C340.122 314.449 340.612 305.785 340.509 300.425C341.438 299.288 341.9 297.95 341.599 296.462C345.32 293.394 347.845 289.052 348.022 284.133C348.32 274.23 339.208 265.898 328.804 265.522Z" fill="#351656"/>
<path d="M330.293 268.532C330.271 269.147 329.43 269.486 328.366 269.447C327.302 269.409 326.488 269.01 326.51 268.395C326.532 267.78 327.38 267.257 328.444 267.295C329.508 267.334 330.316 267.917 330.293 268.532Z" fill="#4F3570"/>
<path d="M327.833 267.827L328.065 261.371L329.248 261.413L329.015 267.87C329.008 268.055 328.886 268.173 328.708 268.167L328.176 268.148C327.999 268.141 327.826 268.012 327.833 267.827Z" fill="#4F3570"/>
<path d="M328.607 262.806C329.619 262.843 330.47 262.019 330.508 260.966C330.546 259.913 329.757 259.03 328.744 258.994C327.732 258.957 326.881 259.781 326.843 260.834C326.805 261.887 327.595 262.77 328.607 262.806Z" fill="#4F3570"/>
<path d="M234.104 282.057C231.904 283.103 228.761 284.789 226.673 288.707C223.949 293.783 224.862 302.927 226.73 305.131C228.233 306.929 229.812 308.111 231.082 308.888C233.463 310.323 235.162 309.71 235.162 309.71L234.104 282.057Z" fill="url(#paint12_linear)"/>
<path d="M226.833 305.248C227.145 305.596 227.405 305.887 227.719 306.179C228.81 304.419 230.517 302.062 233.048 300.86C233.488 300.651 234.198 300.451 234.854 300.25L234.793 298.954C234.028 299.152 233.154 299.401 232.496 299.659C229.851 301.026 228.036 303.379 226.833 305.248Z" fill="#6392F8"/>
<path d="M229.567 284.931C229.713 285.386 232.384 292.287 232.384 292.287L233.064 282.413C233.064 282.413 231.552 282.359 230.71 283.228C230.261 283.662 229.567 284.931 229.567 284.931Z" fill="#6392F8"/>
<path opacity="0.2" d="M231.134 308.946C233.515 310.381 235.214 309.768 235.214 309.768L234.086 282.563C232.388 283.176 231.313 284.487 230.743 285.31C229.89 286.461 229.765 288.425 229.382 290.042C229.07 291.212 226.453 293.311 226.854 295.687C227.163 297.611 228.256 298.775 227.604 300.382C226.951 301.99 227.096 303.963 227.654 304.996C227.856 305.397 228.049 306.022 228.241 306.704C229.235 307.64 230.234 308.407 231.134 308.946Z" fill="#351656"/>
<path d="M255.491 282.772C257.61 283.973 260.567 285.936 262.368 289.994C264.663 295.307 263.095 304.306 260.966 306.366C259.339 307.995 257.677 309.116 256.303 309.741C253.826 310.945 252.176 310.211 252.176 310.211L255.491 282.772Z" fill="url(#paint13_linear)"/>
<path d="M260.852 306.531C260.516 306.856 260.236 307.127 259.902 307.396C258.995 305.564 257.408 303.088 255.026 301.652C254.602 301.412 253.91 301.106 253.268 300.914L253.423 299.626C254.171 299.878 255.025 300.19 255.661 300.551C258.202 302.048 259.841 304.582 260.852 306.531Z" fill="#6392F8"/>
<path d="M259.751 286.075C259.573 286.519 256.36 293.152 256.36 293.152L256.447 283.256C256.447 283.256 257.957 283.367 258.736 284.239C259.152 284.704 259.751 286.075 259.751 286.075Z" fill="#6392F8"/>
<path opacity="0.2" d="M256.301 309.798C253.824 311.002 252.174 310.268 252.174 310.268L256.507 283.091C258.102 283.823 258.028 284.383 258.372 285.351C258.913 286.833 258.656 289.467 258.921 291.108C259.095 292.295 261.242 294.229 261.145 296.925C261.074 298.891 258.095 300.527 258.686 302.123C260.062 305.941 258.789 308.257 258.511 308.472C257.735 309.006 256.961 309.484 256.301 309.798Z" fill="#351656"/>
<path d="M234.39 319.13C233.241 319.483 232.061 320.734 231.696 321.845C231.332 322.957 230.973 323.9 231.661 324.319C232.453 324.853 235.615 325.642 236.047 325.658C236.801 325.741 234.936 318.981 234.39 319.13Z" fill="url(#paint14_linear)"/>
<path d="M252.194 320.222C253.314 320.656 254.681 321.718 254.965 322.853C255.248 323.988 255.596 324.844 254.824 325.266C253.831 325.793 250.897 326.193 250.465 326.178C249.653 326.205 251.66 320.034 252.194 320.222Z" fill="url(#paint15_linear)"/>
<path d="M234.634 277.858C233.163 281.179 231.757 293.164 231.658 295.917C231.532 299.399 232.16 308.983 232.233 311.46C232.357 315.514 234.417 324.362 235.037 325.172C235.862 326.27 239.711 326.015 240.205 325.808C240.975 325.442 241.261 325.002 241.412 323.827C241.562 322.651 241.919 311.247 242.148 310.918C242.728 309.814 244.232 310.093 244.476 310.833C244.719 311.573 244.638 322.818 244.614 323.492C244.59 324.166 245.295 325.598 245.881 325.844C247.587 326.524 251.157 326.484 251.823 326.002C252.657 325.357 255.618 301.73 255.829 298.869C256.041 296.008 256.907 280.967 255.858 280.086C254.752 279.258 234.634 277.858 234.634 277.858Z" fill="url(#paint16_linear)"/>
<path d="M266.461 269.444C266.587 265.962 265.554 263.113 261.828 262.978C261.828 262.978 261.658 267.697 261.601 269.269C261.544 270.842 261.374 275.56 261.374 275.56C265.098 275.751 266.335 272.927 266.461 269.444Z" fill="#6392F8"/>
<path opacity="0.6" d="M266.461 269.444C266.587 265.962 265.554 263.113 261.828 262.978C261.828 262.978 261.658 267.697 261.601 269.269C261.544 270.842 261.374 275.56 261.374 275.56C265.098 275.751 266.335 272.927 266.461 269.444Z" fill="#351656"/>
<path d="M244.39 287.714C251.356 287.966 258.214 285.232 257.306 280.419C257.306 280.419 247.753 281.424 244.621 281.311C241.489 281.198 232.034 279.508 232.034 279.508C230.977 284.812 237.424 287.463 244.39 287.714Z" fill="#6392F8"/>
<path d="M223.908 267.91C224.034 264.428 225.269 261.66 228.995 261.795C228.995 261.795 228.825 266.513 228.768 268.085C228.712 269.658 228.542 274.376 228.542 274.376C224.76 274.296 223.783 271.393 223.908 267.91Z" fill="#6392F8"/>
<path opacity="0.6" d="M225.258 267.959C224.575 270.409 225.581 271.007 226.134 272.152C226.638 273.183 227.469 274.113 228.489 274.318C228.512 273.7 228.662 269.544 228.714 268.083C228.771 266.511 228.941 261.793 228.941 261.793C228.833 261.789 228.671 261.783 228.563 261.779C227.305 262.183 226.084 263.039 225.502 264.199C224.913 265.528 225.627 266.735 225.258 267.959Z" fill="#351656"/>
<path d="M244.5 284.681C254.491 285.042 262.852 278.066 263.175 269.101C263.498 260.136 255.661 252.576 245.67 252.216C235.679 251.856 227.318 258.831 226.995 267.796C226.671 276.761 234.509 284.321 244.5 284.681Z" fill="url(#paint17_linear)"/>
<path opacity="0.6" d="M238.868 278.911C239.255 278.925 239.582 278.609 239.596 278.206C239.611 277.802 239.308 277.464 238.92 277.45C238.533 277.436 238.207 277.752 238.192 278.155C238.178 278.558 238.48 278.897 238.868 278.911Z" fill="#351656"/>
<path opacity="0.6" d="M250.908 279.4C251.296 279.414 251.622 279.099 251.636 278.696C251.651 278.292 251.348 277.954 250.961 277.94C250.573 277.926 250.247 278.242 250.232 278.645C250.218 279.048 250.52 279.386 250.908 279.4Z" fill="#351656"/>
<path d="M248.109 307.533L238.659 307.192C238.227 307.177 237.807 306.824 237.826 306.319L237.605 301.924C237.57 301.416 238.02 300.926 238.506 300.944L248.664 301.142C249.204 301.161 249.566 301.624 249.548 302.129L249.058 306.724C248.987 307.171 248.595 307.551 248.109 307.533Z" fill="#6392F8"/>
<path d="M241.662 318.38C241.678 317.931 241.692 317.538 241.709 317.088L238.901 316.987C238.037 316.956 234.965 316.676 232.711 316.202C232.803 316.655 232.84 317.106 232.932 317.559C235.188 317.978 237.99 318.248 238.854 318.279L241.662 318.38Z" fill="#6392F8"/>
<path d="M247.494 318.591C249.924 318.678 251.816 318.69 253.276 318.687C253.345 318.295 253.415 317.848 253.485 317.401C251.915 317.456 249.213 317.415 244.733 317.197L244.679 317.195C244.663 317.645 244.702 318.04 244.686 318.489C245.658 318.524 246.63 318.559 247.494 318.591Z" fill="#6392F8"/>
<path opacity="0.2" d="M245.67 252.216C244.104 252.16 238.825 254.613 236.362 256.942C234.571 258.621 229.089 266.691 235.331 272.034C237.008 273.5 239.753 275.343 238.92 277.45C238.087 279.557 239.863 279.79 241.558 282.269C243.253 284.749 242.348 287.36 241.311 289.122C240.274 290.884 239.343 294.225 240.741 297.425C242.142 300.569 241.515 302.965 239.758 305.207C238.057 307.396 235.784 308.945 237.346 313.613C238.908 318.281 239.413 320.774 236.828 323.493C236.209 324.145 235.591 324.798 235.025 325.508C235.185 325.57 235.401 325.578 235.507 325.638C236.834 326.305 239.709 326.071 240.203 325.864C240.973 325.498 241.259 325.058 241.41 323.883C241.56 322.707 241.917 311.303 242.145 310.974C242.726 309.87 244.23 310.149 244.474 310.889C244.717 311.629 244.636 322.874 244.612 323.548C244.588 324.222 245.293 325.654 245.879 325.9C247.423 326.574 250.561 326.519 251.601 326.162C252.687 326.033 254.157 325.748 254.819 325.379C255.592 324.956 255.298 324.102 254.96 322.965C254.723 322.057 253.887 321.239 252.987 320.701C254.171 313.376 255.7 300.945 255.827 298.925C256.008 296.907 256.456 288.993 256.362 284.097C257.21 283.059 257.633 281.837 257.358 280.477C260.757 277.675 263.063 273.709 263.225 269.215C263.497 260.17 255.174 252.559 245.67 252.216Z" fill="#351656"/>
<path d="M247.031 254.965C247.011 255.527 246.242 255.836 245.27 255.801C244.298 255.766 243.554 255.402 243.575 254.84C243.595 254.279 244.369 253.8 245.341 253.835C246.313 253.87 247.051 254.403 247.031 254.965Z" fill="#4F3570"/>
<path d="M244.783 254.321L244.995 248.424L246.075 248.463L245.863 254.36C245.857 254.529 245.745 254.637 245.583 254.631L245.097 254.614C244.935 254.608 244.777 254.49 244.783 254.321Z" fill="#4F3570"/>
<path d="M245.492 249.735C246.417 249.768 247.194 249.016 247.229 248.054C247.264 247.093 246.542 246.286 245.618 246.253C244.693 246.219 243.916 246.972 243.881 247.933C243.846 248.895 244.568 249.702 245.492 249.735Z" fill="#4F3570"/>
<path d="M270.482 347.729C267.936 348.938 264.3 350.889 261.884 355.422C258.732 361.295 259.79 371.874 261.95 374.425C263.689 376.504 265.517 377.872 266.986 378.771C269.741 380.432 271.706 379.722 271.706 379.722L270.482 347.729Z" fill="url(#paint18_linear)"/>
<path d="M262.07 374.559C262.431 374.963 262.732 375.299 263.095 375.637C264.357 373.6 266.332 370.874 269.26 369.483C269.769 369.241 270.59 369.01 271.349 368.777L271.278 367.278C270.394 367.506 269.383 367.795 268.622 368.093C265.562 369.675 263.462 372.397 262.07 374.559Z" fill="#6392F8"/>
<path d="M265.232 351.053C265.401 351.58 268.491 359.564 268.491 359.564L269.279 348.141C269.279 348.141 267.529 348.078 266.555 349.083C266.036 349.585 265.232 351.053 265.232 351.053Z" fill="#6392F8"/>
<path opacity="0.2" d="M267.046 378.838C269.801 380.499 271.766 379.789 271.766 379.789L270.461 348.313C268.496 349.023 267.253 350.54 266.593 351.493C265.606 352.823 265.462 355.096 265.019 356.967C264.657 358.32 261.63 360.749 262.094 363.498C262.451 365.723 263.716 367.07 262.961 368.93C262.206 370.79 262.374 373.073 263.019 374.268C263.252 374.732 263.477 375.456 263.698 376.244C264.848 377.327 266.005 378.215 267.046 378.838Z" fill="#351656"/>
<path d="M295.225 348.556C297.677 349.946 301.099 352.216 303.181 356.911C305.837 363.058 304.023 373.469 301.56 375.853C299.678 377.737 297.754 379.034 296.164 379.758C293.299 381.151 291.39 380.301 291.39 380.301L295.225 348.556Z" fill="url(#paint19_linear)"/>
<path d="M301.428 376.043C301.039 376.42 300.715 376.733 300.328 377.045C299.279 374.925 297.443 372.06 294.688 370.399C294.197 370.121 293.397 369.767 292.654 369.545L292.833 368.055C293.698 368.347 294.686 368.708 295.422 369.125C298.362 370.857 300.258 373.789 301.428 376.043Z" fill="#6392F8"/>
<path d="M300.154 352.377C299.948 352.89 296.231 360.565 296.231 360.565L296.331 349.116C296.331 349.116 298.078 349.244 298.98 350.253C299.461 350.791 300.154 352.377 300.154 352.377Z" fill="#6392F8"/>
<path opacity="0.2" d="M296.162 379.824C293.297 381.217 291.388 380.367 291.388 380.367L296.4 348.924C298.246 349.772 298.161 350.419 298.558 351.54C299.184 353.254 298.887 356.302 299.194 358.2C299.394 359.574 301.879 361.81 301.766 364.93C301.684 367.204 298.238 369.097 298.922 370.944C300.514 375.361 299.041 378.04 298.72 378.289C297.821 378.907 296.926 379.461 296.162 379.824Z" fill="#351656"/>
<path d="M270.812 390.621C269.483 391.028 268.118 392.476 267.696 393.762C267.274 395.048 266.859 396.139 267.655 396.624C268.571 397.242 272.229 398.155 272.729 398.173C273.601 398.269 271.444 390.448 270.812 390.621Z" fill="url(#paint20_linear)"/>
<path d="M291.411 391.884C292.706 392.386 294.288 393.615 294.616 394.928C294.944 396.241 295.347 397.232 294.453 397.72C293.305 398.329 289.91 398.792 289.411 398.774C288.471 398.806 290.793 391.667 291.411 391.884Z" fill="url(#paint21_linear)"/>
<path d="M271.095 342.87C269.392 346.713 267.766 360.579 267.652 363.764C267.506 367.793 268.233 378.88 268.317 381.747C268.461 386.437 270.844 396.673 271.561 397.61C272.516 398.881 276.968 398.586 277.54 398.346C278.431 397.923 278.762 397.414 278.936 396.054C279.11 394.694 279.524 381.5 279.788 381.119C280.459 379.842 282.199 380.165 282.481 381.021C282.763 381.877 282.669 394.887 282.641 395.667C282.613 396.447 283.429 398.103 284.107 398.388C286.081 399.175 290.211 399.129 290.982 398.571C291.947 397.825 295.372 370.489 295.617 367.179C295.861 363.87 296.864 346.467 295.65 345.448C294.371 344.491 271.095 342.87 271.095 342.87Z" fill="url(#paint22_linear)"/>
<path d="M307.917 333.136C308.063 329.107 306.868 325.811 302.557 325.655C302.557 325.655 302.36 331.114 302.294 332.934C302.229 334.753 302.032 340.212 302.032 340.212C306.341 340.432 307.772 337.165 307.917 333.136Z" fill="#6392F8"/>
<path opacity="0.6" d="M307.917 333.136C308.063 329.107 306.868 325.811 302.557 325.655C302.557 325.655 302.36 331.114 302.294 332.934C302.229 334.753 302.032 340.212 302.032 340.212C306.341 340.432 307.772 337.165 307.917 333.136Z" fill="#351656"/>
<path d="M282.382 354.274C290.442 354.565 298.375 351.402 297.325 345.833C297.325 345.833 286.273 346.997 282.649 346.866C279.026 346.735 268.086 344.779 268.086 344.779C266.864 350.917 274.323 353.983 282.382 354.274Z" fill="#6392F8"/>
<path d="M258.686 331.361C258.831 327.332 260.26 324.13 264.571 324.286C264.571 324.286 264.374 329.744 264.309 331.564C264.243 333.384 264.046 338.842 264.046 338.842C259.67 338.75 258.54 335.39 258.686 331.361Z" fill="#6392F8"/>
<path opacity="0.6" d="M260.248 331.418C259.457 334.252 260.621 334.945 261.261 336.269C261.844 337.462 262.806 338.537 263.986 338.775C264.012 338.06 264.185 333.251 264.246 331.562C264.312 329.742 264.509 324.284 264.509 324.284C264.384 324.279 264.196 324.272 264.071 324.268C262.616 324.736 261.204 325.726 260.53 327.068C259.849 328.605 260.674 330.002 260.248 331.418Z" fill="#351656"/>
<path d="M282.509 350.765C294.068 351.182 303.742 343.111 304.116 332.739C304.49 322.367 295.422 313.621 283.863 313.204C272.304 312.787 262.63 320.857 262.256 331.23C261.882 341.602 270.95 350.348 282.509 350.765Z" fill="url(#paint23_linear)"/>
<path opacity="0.6" d="M275.993 344.088C276.442 344.104 276.819 343.739 276.836 343.273C276.853 342.806 276.503 342.415 276.054 342.399C275.606 342.382 275.228 342.748 275.211 343.214C275.195 343.681 275.545 344.072 275.993 344.088Z" fill="#351656"/>
<path opacity="0.6" d="M289.923 344.655C290.372 344.671 290.749 344.306 290.766 343.839C290.783 343.373 290.433 342.981 289.984 342.965C289.536 342.949 289.158 343.314 289.141 343.781C289.125 344.247 289.475 344.639 289.923 344.655Z" fill="#351656"/>
<path d="M286.685 377.203L275.752 376.809C275.252 376.791 274.766 376.383 274.787 375.798L274.533 370.714C274.491 370.127 275.012 369.56 275.575 369.58L287.327 369.808C287.952 369.831 288.371 370.367 288.349 370.952L287.782 376.267C287.701 376.784 287.248 377.223 286.685 377.203Z" fill="#6392F8"/>
<path d="M279.226 389.753C279.245 389.233 279.261 388.778 279.28 388.258L276.031 388.141C275.032 388.105 271.477 387.782 268.87 387.232C268.976 387.757 269.02 388.279 269.126 388.803C271.736 389.288 274.978 389.6 275.977 389.636L279.226 389.753Z" fill="#6392F8"/>
<path d="M285.974 389.996C288.785 390.098 290.974 390.111 292.663 390.107C292.742 389.655 292.824 389.137 292.905 388.619C291.088 388.684 287.962 388.636 282.779 388.384L282.716 388.382C282.698 388.902 282.744 389.359 282.725 389.879C283.85 389.92 284.974 389.96 285.974 389.996Z" fill="#6392F8"/>
<path opacity="0.2" d="M283.863 313.204C282.051 313.139 275.943 315.977 273.094 318.672C271.022 320.614 264.679 329.951 271.901 336.132C273.842 337.829 277.018 339.961 276.054 342.399C275.09 344.836 277.145 345.106 279.106 347.974C281.067 350.843 280.02 353.863 278.82 355.902C277.621 357.941 276.543 361.807 278.161 365.509C279.781 369.146 279.056 371.918 277.023 374.512C275.055 377.044 272.426 378.836 274.233 384.237C276.04 389.638 276.624 392.522 273.633 395.668C272.918 396.423 272.202 397.178 271.547 398C271.732 398.072 271.982 398.081 272.105 398.15C273.641 398.921 276.966 398.651 277.538 398.411C278.429 397.988 278.76 397.479 278.934 396.119C279.108 394.759 279.521 381.565 279.785 381.184C280.457 379.907 282.197 380.23 282.479 381.086C282.761 381.942 282.667 394.952 282.639 395.732C282.611 396.512 283.427 398.168 284.105 398.453C285.891 399.233 289.521 399.169 290.725 398.757C291.981 398.607 293.682 398.278 294.449 397.85C295.342 397.361 295.002 396.373 294.612 395.058C294.337 394.007 293.37 393.061 292.329 392.438C293.698 383.963 295.468 369.582 295.615 367.244C295.824 364.909 296.342 355.753 296.233 350.088C297.215 348.888 297.704 347.474 297.385 345.901C301.318 342.659 303.986 338.07 304.173 332.871C304.488 322.407 294.859 313.6 283.863 313.204Z" fill="#351656"/>
<path d="M285.438 316.384C285.414 317.034 284.525 317.392 283.401 317.352C282.276 317.311 281.416 316.89 281.439 316.24C281.462 315.59 282.358 315.037 283.483 315.077C284.607 315.118 285.461 315.734 285.438 316.384Z" fill="#4F3570"/>
<path d="M282.837 315.64L283.083 308.816L284.333 308.861L284.087 315.685C284.079 315.88 283.95 316.005 283.762 315.998L283.2 315.978C283.013 315.971 282.83 315.834 282.837 315.64Z" fill="#4F3570"/>
<path d="M283.656 310.333C284.725 310.372 285.625 309.501 285.665 308.389C285.705 307.276 284.871 306.343 283.801 306.304C282.731 306.266 281.832 307.136 281.791 308.249C281.751 309.362 282.586 310.295 283.656 310.333Z" fill="#4F3570"/>
<path d="M349.174 337.838C346.532 339.093 342.757 341.118 340.25 345.823C336.979 351.918 338.076 362.899 340.318 365.546C342.123 367.705 344.02 369.124 345.545 370.057C348.405 371.781 350.444 371.044 350.444 371.044L349.174 337.838Z" fill="url(#paint24_linear)"/>
<path d="M340.443 365.686C340.817 366.104 341.13 366.453 341.506 366.805C342.816 364.691 344.866 361.861 347.905 360.417C348.434 360.166 349.286 359.926 350.074 359.685L350.001 358.129C349.083 358.366 348.033 358.665 347.243 358.975C344.067 360.616 341.887 363.442 340.443 365.686Z" fill="#6392F8"/>
<path d="M343.725 341.288C343.9 341.835 347.108 350.122 347.108 350.122L347.925 338.265C347.925 338.265 346.109 338.2 345.098 339.244C344.559 339.765 343.725 341.288 343.725 341.288Z" fill="#6392F8"/>
<path opacity="0.2" d="M345.607 370.127C348.467 371.851 350.506 371.114 350.506 371.114L349.152 338.445C347.113 339.182 345.822 340.756 345.137 341.744C344.113 343.126 343.963 345.484 343.504 347.426C343.129 348.831 339.986 351.351 340.467 354.205C340.839 356.515 342.152 357.913 341.368 359.843C340.584 361.774 340.758 364.144 341.428 365.384C341.67 365.865 341.903 366.616 342.133 367.435C343.326 368.559 344.527 369.48 345.607 370.127Z" fill="#351656"/>
<path d="M374.857 338.696C377.402 340.138 380.953 342.495 383.115 347.368C385.872 353.749 383.989 364.554 381.432 367.028C379.479 368.984 377.482 370.33 375.832 371.081C372.858 372.527 370.877 371.646 370.877 371.646L374.857 338.696Z" fill="url(#paint25_linear)"/>
<path d="M381.294 367.226C380.891 367.617 380.554 367.942 380.153 368.266C379.064 366.065 377.158 363.092 374.298 361.368C373.789 361.08 372.958 360.712 372.188 360.482L372.373 358.935C373.271 359.238 374.297 359.612 375.06 360.045C378.112 361.844 380.08 364.886 381.294 367.226Z" fill="#6392F8"/>
<path d="M379.972 342.662C379.758 343.195 375.9 351.16 375.9 351.16L376.004 339.277C376.004 339.277 377.817 339.41 378.753 340.457C379.252 341.016 379.972 342.662 379.972 342.662Z" fill="#6392F8"/>
<path opacity="0.2" d="M375.829 371.148C372.855 372.594 370.873 371.712 370.873 371.712L376.076 339.076C377.992 339.956 377.903 340.628 378.316 341.791C378.966 343.571 378.657 346.734 378.975 348.704C379.184 350.13 381.762 352.451 381.645 355.689C381.56 358.05 377.983 360.014 378.693 361.931C380.346 366.516 378.817 369.297 378.483 369.555C377.551 370.197 376.621 370.771 375.829 371.148Z" fill="#351656"/>
<path d="M349.517 382.357C348.138 382.78 346.72 384.282 346.283 385.617C345.845 386.952 345.415 388.085 346.241 388.587C347.191 389.229 350.988 390.177 351.507 390.195C352.412 390.295 350.173 382.178 349.517 382.357Z" fill="url(#paint26_linear)"/>
<path d="M370.897 383.668C372.242 384.189 373.884 385.464 374.224 386.827C374.565 388.19 374.982 389.218 374.055 389.725C372.863 390.357 369.34 390.838 368.821 390.82C367.846 390.852 370.256 383.442 370.897 383.668Z" fill="url(#paint27_linear)"/>
<path d="M349.811 332.795C348.043 336.784 346.356 351.176 346.237 354.481C346.086 358.663 346.84 370.171 346.927 373.146C347.076 378.014 349.55 388.639 350.294 389.611C351.286 390.93 355.907 390.624 356.5 390.375C357.425 389.936 357.769 389.408 357.949 387.996C358.13 386.585 358.559 372.89 358.833 372.495C359.53 371.169 361.336 371.504 361.629 372.393C361.921 373.281 361.824 386.785 361.795 387.595C361.766 388.404 362.613 390.123 363.316 390.419C365.365 391.235 369.652 391.187 370.452 390.608C371.454 389.834 375.009 361.461 375.263 358.026C375.516 354.591 376.557 336.529 375.297 335.47C373.969 334.477 349.811 332.795 349.811 332.795Z" fill="url(#paint28_linear)"/>
<path d="M388.029 322.692C388.18 318.51 386.94 315.088 382.466 314.927C382.466 314.927 382.261 320.593 382.193 322.481C382.125 324.37 381.921 330.036 381.921 330.036C386.393 330.264 387.879 326.874 388.029 322.692Z" fill="#6392F8"/>
<path opacity="0.6" d="M388.029 322.692C388.18 318.51 386.94 315.088 382.466 314.927C382.466 314.927 382.261 320.593 382.193 322.481C382.125 324.37 381.921 330.036 381.921 330.036C386.393 330.264 387.879 326.874 388.029 322.692Z" fill="#351656"/>
<path d="M361.526 344.631C369.891 344.933 378.126 341.65 377.036 335.87C377.036 335.87 365.564 337.077 361.803 336.942C358.042 336.806 346.688 334.776 346.688 334.776C345.419 341.146 353.161 344.329 361.526 344.631Z" fill="#6392F8"/>
<path d="M336.931 320.849C337.081 316.667 338.565 313.344 343.039 313.505C343.039 313.505 342.835 319.171 342.767 321.06C342.699 322.948 342.494 328.614 342.494 328.614C337.953 328.518 336.78 325.031 336.931 320.849Z" fill="#6392F8"/>
<path opacity="0.6" d="M338.552 320.908C337.731 323.85 338.939 324.569 339.604 325.943C340.209 327.181 341.207 328.297 342.432 328.544C342.459 327.802 342.639 322.811 342.702 321.057C342.77 319.169 342.974 313.503 342.974 313.503C342.845 313.498 342.65 313.491 342.52 313.487C341.009 313.972 339.544 315 338.844 316.393C338.138 317.989 338.994 319.438 338.552 320.908Z" fill="#351656"/>
<path d="M361.657 340.989C373.655 341.421 383.695 333.045 384.084 322.279C384.472 311.514 375.06 302.436 363.063 302.003C351.065 301.57 341.025 309.947 340.636 320.713C340.248 331.478 349.66 340.556 361.657 340.989Z" fill="url(#paint29_linear)"/>
<path opacity="0.6" d="M354.895 334.059C355.36 334.076 355.752 333.697 355.769 333.213C355.787 332.728 355.423 332.322 354.958 332.305C354.492 332.289 354.101 332.667 354.083 333.152C354.066 333.636 354.429 334.042 354.895 334.059Z" fill="#351656"/>
<path opacity="0.6" d="M369.353 334.647C369.818 334.664 370.21 334.285 370.228 333.801C370.245 333.316 369.882 332.91 369.416 332.893C368.951 332.877 368.559 333.255 368.542 333.74C368.524 334.224 368.887 334.63 369.353 334.647Z" fill="#351656"/>
<path d="M365.992 368.43L354.644 368.021C354.125 368.002 353.621 367.579 353.643 366.972L353.379 361.694C353.336 361.085 353.876 360.497 354.46 360.518L366.659 360.755C367.307 360.778 367.741 361.334 367.72 361.941L367.131 367.458C367.047 367.995 366.576 368.451 365.992 368.43Z" fill="#6392F8"/>
<path d="M358.25 381.456C358.27 380.916 358.287 380.444 358.306 379.905L354.934 379.783C353.897 379.746 350.208 379.41 347.501 378.84C347.611 379.384 347.657 379.926 347.767 380.47C350.476 380.973 353.841 381.297 354.878 381.334L358.25 381.456Z" fill="#6392F8"/>
<path d="M365.254 381.708C368.172 381.813 370.444 381.828 372.197 381.823C372.279 381.354 372.363 380.816 372.448 380.279C370.562 380.346 367.317 380.297 361.938 380.035L361.873 380.033C361.853 380.573 361.901 381.047 361.882 381.587C363.049 381.629 364.216 381.671 365.254 381.708Z" fill="#6392F8"/>
<path opacity="0.2" d="M363.063 302.003C361.182 301.935 354.843 304.881 351.885 307.678C349.735 309.694 343.152 319.385 350.647 325.801C352.661 327.562 355.958 329.775 354.958 332.305C353.958 334.835 356.09 335.115 358.126 338.092C360.161 341.07 359.074 344.205 357.829 346.321C356.584 348.438 355.465 352.449 357.145 356.292C358.827 360.067 358.074 362.944 355.964 365.637C353.921 368.265 351.192 370.125 353.067 375.731C354.943 381.337 355.549 384.33 352.445 387.595C351.702 388.379 350.96 389.162 350.28 390.016C350.472 390.09 350.731 390.1 350.858 390.172C352.453 390.972 355.904 390.691 356.498 390.443C357.423 390.003 357.766 389.475 357.947 388.063C358.128 386.652 358.557 372.957 358.831 372.562C359.528 371.236 361.334 371.571 361.626 372.46C361.919 373.349 361.822 386.852 361.792 387.662C361.763 388.471 362.61 390.19 363.314 390.486C365.168 391.295 368.936 391.229 370.185 390.801C371.489 390.645 373.255 390.304 374.05 389.86C374.977 389.353 374.625 388.327 374.22 386.962C373.934 385.871 372.931 384.889 371.85 384.242C373.271 375.446 375.108 360.519 375.26 358.093C375.478 355.67 376.015 346.167 375.902 340.287C376.921 339.04 377.429 337.573 377.098 335.94C381.18 332.575 383.949 327.812 384.144 322.416C384.47 311.555 374.476 302.414 363.063 302.003Z" fill="#351656"/>
<path d="M364.697 305.304C364.673 305.978 363.75 306.35 362.583 306.308C361.416 306.266 360.523 305.829 360.547 305.154C360.571 304.48 361.501 303.905 362.668 303.948C363.836 303.99 364.722 304.629 364.697 305.304Z" fill="#4F3570"/>
<path d="M361.998 304.531L362.253 297.449L363.55 297.496L363.295 304.578C363.288 304.78 363.153 304.911 362.958 304.904L362.375 304.883C362.18 304.876 361.991 304.734 361.998 304.531Z" fill="#4F3570"/>
<path d="M362.85 299.024C363.96 299.064 364.894 298.16 364.935 297.005C364.977 295.851 364.111 294.882 363 294.842C361.89 294.802 360.956 295.706 360.915 296.86C360.873 298.015 361.739 298.984 362.85 299.024Z" fill="#4F3570"/>
<path d="M198.621 331.39C195.641 332.806 191.384 335.09 188.557 340.396C184.867 347.27 186.105 359.655 188.633 362.64C190.669 365.075 192.808 366.675 194.528 367.728C197.753 369.672 200.053 368.841 200.053 368.841L198.621 331.39Z" fill="url(#paint30_linear)"/>
<path d="M188.774 362.798C189.196 363.27 189.548 363.663 189.973 364.059C191.451 361.675 193.763 358.483 197.19 356.855C197.786 356.572 198.748 356.302 199.636 356.029L199.553 354.274C198.518 354.542 197.334 354.88 196.443 355.229C192.861 357.08 190.403 360.266 188.774 362.798Z" fill="#6392F8"/>
<path d="M192.476 335.281C192.673 335.898 196.291 345.245 196.291 345.245L197.212 331.872C197.212 331.872 195.164 331.798 194.024 332.976C193.416 333.563 192.476 335.281 192.476 335.281Z" fill="#6392F8"/>
<path opacity="0.2" d="M194.598 367.806C197.824 369.751 200.124 368.92 200.124 368.92L198.596 332.074C196.296 332.905 194.841 334.681 194.068 335.796C192.914 337.354 192.745 340.014 192.226 342.204C191.803 343.788 188.259 346.631 188.802 349.85C189.22 352.455 190.701 354.031 189.817 356.208C188.933 358.385 189.13 361.058 189.885 362.457C190.158 363 190.421 363.847 190.68 364.771C192.026 366.038 193.38 367.077 194.598 367.806Z" fill="#351656"/>
<path d="M227.585 332.358C230.456 333.985 234.461 336.643 236.899 342.139C240.008 349.335 237.885 361.521 235.001 364.312C232.798 366.518 230.546 368.036 228.685 368.883C225.331 370.514 223.097 369.519 223.097 369.519L227.585 332.358Z" fill="url(#paint31_linear)"/>
<path d="M234.847 364.535C234.392 364.975 234.012 365.343 233.56 365.707C232.331 363.225 230.182 359.873 226.957 357.928C226.382 357.603 225.445 357.188 224.576 356.928L224.785 355.184C225.798 355.525 226.955 355.948 227.816 356.436C231.258 358.464 233.477 361.896 234.847 364.535Z" fill="#6392F8"/>
<path d="M233.356 336.831C233.114 337.432 228.763 346.415 228.763 346.415L228.88 333.014C228.88 333.014 230.925 333.164 231.981 334.344C232.544 334.974 233.356 336.831 233.356 336.831Z" fill="#6392F8"/>
<path opacity="0.2" d="M228.682 368.959C225.328 370.59 223.094 369.595 223.094 369.595L228.961 332.788C231.123 333.78 231.022 334.538 231.487 335.85C232.221 337.857 231.872 341.424 232.231 343.646C232.466 345.254 235.374 347.872 235.243 351.524C235.147 354.186 231.112 356.402 231.913 358.564C233.777 363.734 232.053 366.871 231.676 367.162C230.625 367.886 229.577 368.534 228.682 368.959Z" fill="#351656"/>
<path d="M199.008 381.6C197.453 382.077 195.854 383.771 195.36 385.277C194.866 386.782 194.381 388.059 195.312 388.626C196.385 389.35 200.667 390.419 201.252 390.44C202.273 390.553 199.747 381.398 199.008 381.6Z" fill="url(#paint32_linear)"/>
<path d="M223.12 383.078C224.637 383.666 226.489 385.104 226.873 386.641C227.257 388.178 227.728 389.338 226.682 389.91C225.338 390.623 221.364 391.165 220.779 391.144C219.679 391.181 222.397 382.824 223.12 383.078Z" fill="url(#paint33_linear)"/>
<path d="M199.339 325.703C197.346 330.201 195.442 346.433 195.308 350.16C195.138 354.877 195.988 367.856 196.087 371.211C196.255 376.702 199.045 388.685 199.884 389.782C201.002 391.269 206.214 390.924 206.883 390.643C207.927 390.148 208.314 389.552 208.518 387.96C208.722 386.368 209.206 370.923 209.515 370.477C210.301 368.982 212.338 369.36 212.668 370.362C212.998 371.364 212.888 386.594 212.855 387.507C212.822 388.42 213.777 390.359 214.571 390.692C216.881 391.613 221.716 391.559 222.619 390.906C223.749 390.033 227.758 358.033 228.044 354.159C228.331 350.285 229.505 329.914 228.083 328.72C226.586 327.599 199.339 325.703 199.339 325.703Z" fill="url(#paint34_linear)"/>
<path d="M242.443 314.308C242.613 309.591 241.214 305.732 236.168 305.551C236.168 305.551 235.938 311.941 235.861 314.071C235.784 316.2 235.554 322.59 235.554 322.59C240.597 322.848 242.273 319.024 242.443 314.308Z" fill="#6392F8"/>
<path opacity="0.6" d="M242.443 314.308C242.613 309.591 241.214 305.732 236.168 305.551C236.168 305.551 235.938 311.941 235.861 314.071C235.784 316.2 235.554 322.59 235.554 322.59C240.597 322.848 242.273 319.024 242.443 314.308Z" fill="#351656"/>
<path d="M212.551 339.052C221.986 339.392 231.273 335.69 230.044 329.171C230.044 329.171 217.106 330.532 212.864 330.38C208.622 330.227 195.816 327.937 195.816 327.937C194.386 335.121 203.117 338.711 212.551 339.052Z" fill="#6392F8"/>
<path d="M184.812 312.23C184.982 307.513 186.655 303.765 191.702 303.947C191.702 303.947 191.471 310.337 191.394 312.467C191.318 314.597 191.087 320.987 191.087 320.987C185.965 320.879 184.642 316.946 184.812 312.23Z" fill="#6392F8"/>
<path opacity="0.6" d="M186.641 312.296C185.716 315.614 187.078 316.425 187.827 317.975C188.509 319.371 189.636 320.63 191.017 320.908C191.047 320.072 191.25 314.442 191.321 312.465C191.398 310.335 191.629 303.945 191.629 303.945C191.482 303.939 191.263 303.931 191.117 303.926C189.413 304.474 187.76 305.633 186.971 307.204C186.174 309.004 187.14 310.638 186.641 312.296Z" fill="#351656"/>
<path d="M212.7 334.944C226.231 335.432 237.555 325.984 237.993 313.843C238.431 301.701 227.816 291.463 214.285 290.975C200.754 290.487 189.43 299.934 188.992 312.076C188.554 324.218 199.168 334.456 212.7 334.944Z" fill="url(#paint35_linear)"/>
<path opacity="0.6" d="M205.073 327.128C205.598 327.147 206.039 326.72 206.059 326.174C206.079 325.627 205.669 325.169 205.144 325.15C204.619 325.131 204.177 325.559 204.157 326.105C204.138 326.651 204.547 327.109 205.073 327.128Z" fill="#351656"/>
<path opacity="0.6" d="M221.379 327.791C221.904 327.81 222.346 327.383 222.365 326.837C222.385 326.291 221.975 325.833 221.45 325.814C220.925 325.795 220.484 326.222 220.464 326.768C220.444 327.314 220.854 327.772 221.379 327.791Z" fill="#351656"/>
<path d="M217.589 365.893L204.79 365.431C204.205 365.41 203.636 364.933 203.661 364.248L203.363 358.296C203.315 357.609 203.924 356.945 204.583 356.969L218.34 357.237C219.072 357.263 219.562 357.89 219.537 358.575L218.873 364.797C218.778 365.403 218.247 365.917 217.589 365.893Z" fill="#6392F8"/>
<path d="M208.857 380.584C208.879 379.975 208.898 379.442 208.92 378.834L205.117 378.697C203.947 378.655 199.787 378.276 196.734 377.633C196.858 378.247 196.91 378.858 197.034 379.472C200.089 380.039 203.884 380.404 205.054 380.446L208.857 380.584Z" fill="#6392F8"/>
<path d="M216.756 380.868C220.047 380.987 222.609 381.003 224.587 380.998C224.679 380.468 224.774 379.862 224.869 379.256C222.743 379.332 219.083 379.276 213.016 378.981L212.943 378.979C212.921 379.587 212.975 380.123 212.953 380.731C214.269 380.779 215.585 380.826 216.756 380.868Z" fill="#6392F8"/>
<path opacity="0.2" d="M214.285 290.975C212.164 290.898 205.014 294.22 201.678 297.375C199.253 299.649 191.829 310.579 200.282 317.815C202.554 319.801 206.272 322.296 205.144 325.15C204.016 328.004 206.421 328.319 208.716 331.677C211.012 335.035 209.786 338.571 208.382 340.958C206.978 343.345 205.716 347.869 207.61 352.203C209.507 356.461 208.658 359.706 206.278 362.743C203.974 365.707 200.896 367.805 203.012 374.127C205.127 380.449 205.811 383.825 202.31 387.507C201.472 388.391 200.635 389.275 199.868 390.238C200.084 390.322 200.377 390.332 200.52 390.414C202.319 391.316 206.211 391 206.881 390.719C207.924 390.223 208.311 389.628 208.515 388.036C208.719 386.444 209.203 370.999 209.512 370.553C210.298 369.058 212.335 369.436 212.665 370.438C212.995 371.44 212.885 386.67 212.852 387.583C212.819 388.496 213.774 390.434 214.568 390.768C216.659 391.681 220.909 391.606 222.318 391.123C223.789 390.948 225.78 390.563 226.677 390.062C227.722 389.49 227.325 388.333 226.868 386.793C226.546 385.563 225.414 384.456 224.195 383.726C225.798 373.806 227.87 356.971 228.042 354.235C228.287 351.502 228.893 340.783 228.766 334.152C229.915 332.746 230.487 331.091 230.114 329.25C234.718 325.455 237.841 320.083 238.06 313.997C238.429 301.747 227.157 291.439 214.285 290.975Z" fill="#351656"/>
<path d="M216.128 294.697C216.101 295.458 215.06 295.878 213.744 295.83C212.427 295.783 211.42 295.289 211.447 294.529C211.475 293.768 212.523 293.12 213.84 293.168C215.156 293.215 216.155 293.937 216.128 294.697Z" fill="#4F3570"/>
<path d="M213.084 293.826L213.372 285.839L214.834 285.891L214.546 293.879C214.538 294.107 214.386 294.254 214.167 294.246L213.509 294.222C213.289 294.214 213.075 294.054 213.084 293.826Z" fill="#4F3570"/>
<path d="M214.043 287.615C215.295 287.66 216.348 286.641 216.395 285.338C216.442 284.036 215.465 282.943 214.213 282.898C212.961 282.853 211.908 283.872 211.861 285.175C211.814 286.477 212.791 287.57 214.043 287.615Z" fill="#4F3570"/>
<path d="M55.0102 339.387L64.1753 340.26C64.6981 340.314 65.1287 340.614 65.3383 341.051L69.7869 349.319C70.4195 350.439 71.9635 350.364 72.4528 349.179L76.1906 340.502C76.4032 340.055 76.7888 339.69 77.2712 339.58L86.3005 337.766C87.4985 337.528 87.923 335.942 87.0374 335.105L80.1622 328.845C79.7759 328.517 79.5823 328.007 79.6501 327.524L80.7533 318.148C80.8805 316.873 79.5887 315.972 78.5279 316.629L70.5595 321.44C70.1175 321.713 69.6229 321.705 69.1321 321.505L60.8723 317.551C59.7337 316.997 58.4763 318.028 58.7713 319.294L60.7561 328.521C60.8773 329.012 60.7211 329.55 60.3797 329.888L54.0865 336.81C53.1948 337.74 53.7756 339.27 55.0102 339.387Z" fill="url(#paint36_linear)"/>
<path d="M144.989 158.83L151.081 159.41C151.428 159.446 151.714 159.646 151.854 159.936L154.811 165.431C155.231 166.176 156.257 166.126 156.583 165.338L159.067 159.571C159.208 159.274 159.465 159.031 159.785 158.958L165.787 157.752C166.583 157.594 166.865 156.54 166.277 155.984L161.707 151.823C161.45 151.605 161.321 151.266 161.366 150.945L162.1 144.713C162.184 143.865 161.326 143.266 160.621 143.703L155.324 146.901C155.03 147.083 154.702 147.077 154.375 146.944L148.885 144.316C148.128 143.948 147.293 144.633 147.489 145.474L148.808 151.607C148.889 151.934 148.785 152.291 148.558 152.516L144.375 157.117C143.782 157.735 144.168 158.752 144.989 158.83Z" fill="url(#paint37_linear)"/>
<path d="M487.799 305.697L494.716 306.356C495.11 306.397 495.435 306.624 495.593 306.953L498.95 313.192C499.428 314.037 500.593 313.981 500.962 313.087L503.783 306.539C503.943 306.201 504.234 305.926 504.598 305.843L511.412 304.474C512.316 304.294 512.636 303.098 511.968 302.466L506.78 297.742C506.488 297.495 506.342 297.11 506.393 296.745L507.226 289.67C507.322 288.707 506.347 288.028 505.546 288.524L499.533 292.154C499.2 292.36 498.826 292.354 498.456 292.203L492.223 289.22C491.364 288.801 490.415 289.579 490.638 290.535L492.135 297.497C492.227 297.868 492.109 298.274 491.851 298.529L487.102 303.752C486.429 304.454 486.868 305.609 487.799 305.697Z" fill="url(#paint38_linear)"/>
<path d="M326.272 101.056C333.771 109.277 335.046 121.24 334.448 121.91C333.831 122.608 319.911 118.334 313.102 118.269C301.096 118.153 293.494 120.93 292.592 117.409C290.415 121.124 275.582 111.771 293.938 104.165C305.976 100.956 315.132 103.172 322.332 101.809C324.565 101.389 326.272 101.056 326.272 101.056Z" fill="url(#paint39_linear)"/>
<path d="M326.75 100.569C320.31 102.981 327.145 123.415 330.895 123.84C331.331 123.891 332.066 124.021 332.619 123.716C333.517 123.244 333.698 122.614 333.698 122.614C333.698 122.614 330.078 118.728 328.147 110.202C327.141 105.793 326.75 100.569 326.75 100.569Z" fill="#6392F8"/>
<path d="M385.353 117.3C389.034 113.14 394.141 109.014 393.042 103.673C391.942 98.3311 386.105 86.0378 381.69 81.5079C377.276 76.9779 367.597 70.1583 364.339 72.4278C361.082 74.6972 354.494 84.3959 354.554 87.2758C354.596 90.1832 385.353 117.3 385.353 117.3Z" fill="#6392F8"/>
<g clip-path="url(#clip0)">
<path d="M299.355 117.054L300.188 116.055C300.561 115.608 300.514 114.95 300.085 114.586L284.635 101.482C284.205 101.118 283.555 101.185 283.182 101.632L281.169 104.046C280.796 104.493 280.842 105.15 281.272 105.514L295.361 117.465C296.542 118.466 298.33 118.282 299.355 117.054Z" fill="url(#paint40_radial)"/>
<path d="M287.242 91.3605L287.416 91.1513C289.101 89.1322 288.892 86.1606 286.951 84.5141L283.667 81.7287C281.726 80.0823 278.787 80.3843 277.103 82.4037L276.928 82.6128C276.6 83.006 276.641 83.5846 277.019 83.9054L285.963 91.4919C286.342 91.8125 286.914 91.7537 287.242 91.3605Z" fill="url(#paint41_radial)"/>
<path d="M233.367 137.836L232.989 138.29C231.684 139.854 231.845 142.157 233.349 143.432L235.286 145.075C236.791 146.351 239.068 146.117 240.373 144.552L240.751 144.099C241.006 143.794 240.974 143.345 240.681 143.097L234.358 137.734C234.065 137.486 233.621 137.531 233.367 137.836Z" fill="url(#paint42_radial)"/>
<path d="M219.35 126.193C215.898 122.997 217.339 123.207 218.02 123.246C236.689 126.641 262.507 90.295 269.318 80.133C270.405 78.5113 272.456 77.8509 274.184 78.615C276.401 79.5956 279.711 81.4345 283.875 84.8409C287.351 87.6847 289.945 91.1213 291.506 93.4966C292.547 95.0811 292.274 97.2261 290.879 98.5835C281.997 107.22 251.141 138.942 257.635 156.846C257.79 157.516 258.235 158.92 254.529 156.031C243.801 147.671 228.82 134.965 219.35 126.193Z" fill="#C2DEFF"/>
<path d="M219.349 126.193C215.898 122.997 217.339 123.207 218.02 123.246C218.142 123.269 218.272 123.247 218.396 123.266C218.726 123.702 219.281 124.302 220.21 125.162C229.681 133.933 244.662 146.639 255.389 155C256.39 155.779 257.07 156.228 257.553 156.482C257.592 156.599 257.593 156.73 257.636 156.846C257.79 157.515 258.235 158.92 254.529 156.031C243.801 147.67 228.821 134.964 219.349 126.193Z" fill="#6392F8"/>
<path d="M269.318 80.1332C270.405 78.5114 272.455 77.8509 274.184 78.6151C276.401 79.5957 279.71 81.4346 283.874 84.841C287.351 87.6848 289.945 91.1214 291.506 93.4966C292.547 95.0811 292.274 97.2261 290.878 98.5833C286.529 102.813 277.785 113.317 269.916 124.328C269.526 124.873 268.776 124.984 268.28 124.567L247.664 107.236C246.561 106.3 247.779 105.509 248.811 104.431C257.87 94.9671 266.096 84.9401 269.318 80.1332Z" fill="#93C4FD"/>
</g>
<path opacity="0.2" d="M378.136 86.1317C376.289 84.4787 375.126 79.8843 372.47 78.0922C368.385 75.3182 364.567 74.8121 362.598 76.196C359.793 78.134 356.899 85.8527 356.18 89.7972C362.581 97.2562 385.317 117.306 385.317 117.306C388.5 113.724 392.728 110.161 393.129 105.809C391.009 104.094 386.408 102.756 384.712 99.3876C382.578 95.0201 387.02 94.0441 378.136 86.1317Z" fill="#351656"/>
<path d="M326.773 95.1225C326.417 109.325 330.165 117.122 333.071 121.682C335.95 126.224 342.037 132.016 345.469 136.252C347.39 138.624 346.435 147.855 353.909 156.533C358.533 161.872 370.401 164.653 372.319 165.011C374.881 165.518 377.027 176.756 382.068 176.65C386.492 176.531 387.213 153.103 385.574 150.838C384.909 149.886 376.928 152.076 372.112 146.138C369.554 142.951 366.451 135.421 369.235 132.801C371.602 130.576 383.329 140.403 390.76 140.651C396.238 140.833 402.404 139.852 403.903 139.894C406.083 139.913 411.127 151.09 416.857 150.058C421.461 149.19 415.138 124.034 411.532 123.982C405.046 123.845 396.988 123.301 390.641 114.933C389.193 113.031 379.057 98.4148 377.545 96.1946C375.65 93.3668 360.712 75.938 360.712 75.938L326.773 95.1225Z" fill="url(#paint43_linear)"/>
<path d="M360.855 76.5044C361.594 74.3166 359.887 72.2855 358.617 71.7234C358.1 71.5004 351.765 85.616 340.287 91.7749C335.281 94.4529 325.363 96.1718 325.363 96.1718C325.321 98.1902 326.891 99.777 329.909 99.8791C340.529 100.236 355.059 93.4154 360.855 76.5044Z" fill="#6392F8"/>
<path d="M358.876 96.5349C359.732 98.3213 359.217 99.6366 357.304 100.581C356.805 100.804 356.561 101.352 356.752 101.715L357.363 102.984C357.536 103.374 357.31 103.895 356.811 104.118C356.313 104.34 355.75 104.245 355.577 103.855L352.416 97.3171C352.243 96.9271 352.469 96.4063 352.968 96.1836L354.863 95.2665C355.787 94.8127 356.577 94.7424 357.339 95.0091C358.011 95.2948 358.511 95.7823 358.876 96.5349ZM357.062 97.3876C356.816 96.8707 356.48 96.6095 356.026 96.586C355.954 96.5775 355.908 96.587 355.836 96.5785C355.137 96.6298 354.639 97.3259 354.885 97.8428L355.332 98.7677C355.614 99.348 356.666 99.2937 357.028 98.6261C357.282 98.2416 357.29 97.8136 357.062 97.3876Z" fill="#6392F8"/>
<path d="M373.341 147.247C371.669 152.978 368.243 159.714 364.584 162.603C365.272 162.86 365.905 163.082 366.557 163.276C367.704 162.187 368.796 160.825 369.807 159.292C371.954 156.034 373.712 152.008 374.845 148.396C374.338 148.1 373.84 147.733 373.341 147.247Z" fill="#6392F8"/>
<path d="M342.392 96.4395C343.255 100.72 348.775 111.075 352.485 116.208C354.673 119.191 359.177 125.44 364.486 129.574C365.834 130.621 367.675 132.822 368.413 133.783C368.594 133.39 368.83 133.032 369.13 132.756C369.293 132.626 369.484 132.515 369.711 132.468C368.854 131.389 367.023 129.233 365.593 128.132C360.484 124.17 356.053 118.048 353.929 115.147C350 109.751 344.862 99.7672 344.147 96.0964L342.392 96.4395Z" fill="#6392F8"/>
<path d="M401.942 122.836C401.216 122.633 400.481 122.384 399.737 122.09C401.749 126.449 400.543 136.401 398.846 140.518C399.544 140.466 400.215 140.397 400.795 140.347C402.256 135.996 403.365 127.909 401.942 122.836Z" fill="#6392F8"/>
<path opacity="0.1" d="M377.489 96.2111C375.591 93.3789 361.002 76.3669 361.002 76.3669L340.303 87.722C342.75 92.2201 345.94 95.4706 348.728 97.4281C351.653 99.4758 359.692 102.211 362.868 102.449C366.045 102.687 372.49 104.213 374.652 107.654C376.815 111.096 376.891 117.823 382.251 118.317C385.919 118.642 382.974 125.787 385.618 128.677C393.486 137.265 404.296 126.814 409.214 129.228C411.081 130.144 410.443 134.978 412.332 138.12C413.665 140.382 416.782 143.387 418.45 144.961C418.173 137.351 414.127 124.093 411.516 124.07C405.018 123.932 396.946 123.388 390.589 115.007C389.13 113.056 378.976 98.4169 377.489 96.2111Z" fill="#351656"/>
<path d="M362.71 79.1634C357.401 85.2627 369.073 95.5204 371.838 96.1246C382.852 98.551 393.297 76.5987 395.917 66.9943C396.655 64.3335 398.132 58.8935 398.226 55.6107C398.406 49.7088 397.553 43.9519 396.474 43.6336C394.606 43.1492 394.546 44.8407 393.675 44.6207C392.805 44.4007 393.164 42.1976 391.695 41.9371C389.764 41.6077 389.586 43.1821 388.807 43.1795C387.556 43.1808 387.723 40.2611 385.422 40.553C383.719 40.7673 383.787 43.3305 383.089 43.5C382.636 43.5947 381.646 42.1938 380.37 43.1227C379.049 44.061 381.086 48.1988 379.665 49.1108C377.692 50.3273 376.762 47.3531 375.026 49.395C373.914 50.668 374.849 51.6784 376.339 54.0389C378.111 56.8606 378.814 59.8822 377.685 62.01C373.404 69.9281 366.444 74.8592 362.71 79.1634Z" fill="url(#paint44_linear)"/>
<path d="M379.287 94.3651C378.336 96.1051 376.577 97.9429 373.125 98.546C368.211 99.4074 360.011 91.7093 359.737 85.6496C359.576 82.032 360.309 80.2666 361.687 78.5322C363.446 76.3388 364.483 77.1415 364.483 77.1415C363.052 80.0249 361.749 82.5973 364.302 87.7537C366.071 91.367 370.185 95.2251 373.283 95.573C376.846 95.9899 379.287 94.3651 379.287 94.3651Z" fill="#6392F8"/>
<path d="M396.609 64.6649C391.607 67.7979 384.143 66.7022 377.745 61.9683C377.727 61.9958 377.709 62.0233 377.69 62.0508C377.446 62.4814 377.201 62.9121 376.957 63.3427C380.178 65.7049 383.707 67.2438 387.226 67.7889C390.481 68.318 393.507 67.9462 396.058 66.7485C396.203 66.1729 396.392 65.4691 396.609 64.6649Z" fill="#6392F8"/>
<path opacity="0.2" d="M366.809 133.782C365.278 135.69 363.757 142.927 366.012 145.086C368.268 147.244 364.596 150.145 365.918 153.304C367.241 156.463 375.044 158.339 377.949 158.087C382.453 157.667 379.751 164.914 381.244 167.043C382.6 168.963 383.324 172.437 383.221 176.036C386.684 172.564 387.157 152.845 385.645 150.744C384.981 149.793 377.003 151.982 372.189 146.045C369.631 142.86 366.531 135.333 369.313 132.713C369.73 132.318 370.411 132.294 371.311 132.533C371.083 132.343 368.893 131.214 366.809 133.782Z" fill="#351656"/>
<path d="M295.11 83.675C304.257 99.1653 326.529 102.867 344.855 91.9091C363.181 80.9512 370.655 59.5239 361.526 44.0062C352.38 28.5159 330.108 24.8142 311.782 35.7721C293.456 46.73 285.982 68.1573 295.11 83.675Z" fill="url(#paint45_linear)"/>
<path d="M297.142 82.4945C299.838 88.7258 307.469 93.7599 313.168 94.4863C322.86 95.68 343.68 84.4376 348.082 80.4867C354.794 74.514 355.795 65.6394 352.314 57.2754C345.744 41.673 329.677 42.6168 314.619 49.3873C299.562 56.1577 291.711 69.8501 297.142 82.4945Z" fill="#6392F8"/>
<path d="M298.954 81.6395C301.65 87.3974 307.427 91.5639 312.836 92.2562C323.045 93.5549 341.653 83.1776 345.72 79.5573C351.916 74.0714 352.89 66.0073 349.71 58.4329C343.787 44.2818 329 45.2423 315.157 51.4746C301.315 57.7068 293.707 70.3775 298.954 81.6395Z" fill="url(#paint46_radial)"/>
<path opacity="0.2" d="M352.205 34.505C352.096 34.433 351.987 34.3611 351.851 34.2711C351.742 34.1991 351.633 34.1272 351.506 34.0827C351.397 34.0107 351.288 33.9388 351.133 33.8763C351.024 33.8044 350.897 33.7599 350.788 33.6879C350.679 33.6159 350.552 33.5715 350.415 33.4815C350.306 33.4096 350.179 33.3651 350.07 33.2931C349.961 33.2211 349.834 33.1767 349.697 33.0867C349.588 33.0148 349.461 32.9703 349.334 32.9258C349.207 32.8813 349.098 32.8093 348.943 32.7469C348.816 32.7024 348.707 32.6304 348.58 32.5859C348.453 32.5414 348.343 32.4695 348.189 32.407C348.062 32.3625 347.953 32.2906 347.826 32.2461C347.698 32.2016 347.571 32.1571 347.435 32.0672C347.308 32.0227 347.181 31.9782 347.071 31.9062C346.944 31.8618 346.817 31.8173 346.663 31.7548C346.535 31.7103 346.408 31.6658 346.281 31.6213C346.154 31.5769 346.027 31.5324 345.9 31.4879C345.772 31.4434 345.645 31.3989 345.518 31.3544C345.391 31.31 345.264 31.2655 345.137 31.221C345.009 31.1765 344.882 31.132 344.755 31.0875C344.628 31.0431 344.501 30.9986 344.355 30.9816C344.228 30.9371 344.101 30.8926 343.956 30.8756C343.829 30.8311 343.683 30.8141 343.556 30.7696C343.429 30.7251 343.284 30.7081 343.156 30.6636C343.029 30.6191 342.884 30.6021 342.757 30.5576C342.63 30.5132 342.484 30.4962 342.357 30.4517C342.23 30.4072 342.085 30.3902 341.939 30.3732C341.794 30.3562 341.667 30.3117 341.522 30.2947C341.376 30.2777 341.249 30.2332 341.104 30.2162C340.959 30.1992 340.831 30.1547 340.686 30.1377C340.541 30.1207 340.414 30.0762 340.268 30.0592C340.123 30.0422 339.996 29.9977 339.851 29.9807C339.705 29.9637 339.56 29.9466 339.433 29.9022C339.288 29.8852 339.142 29.8681 339.015 29.8237C338.87 29.8067 338.725 29.7896 338.579 29.7726C338.434 29.7556 338.289 29.7386 338.143 29.7216C337.998 29.7046 337.853 29.6876 337.708 29.6706C337.562 29.6536 337.417 29.6366 337.299 29.6376C337.154 29.6205 337.008 29.6035 336.863 29.5865C336.718 29.5695 336.573 29.5525 336.455 29.5535C336.309 29.5365 336.164 29.5195 336.001 29.5299C335.855 29.5129 335.71 29.4959 335.574 29.5244C335.429 29.5074 335.265 29.5179 335.12 29.5008C334.975 29.4838 334.838 29.5123 334.693 29.4953C334.548 29.4783 334.385 29.4887 334.266 29.4897C334.121 29.4727 333.985 29.5012 333.84 29.4842C333.695 29.4672 333.531 29.4776 333.395 29.5061C333.25 29.4891 333.114 29.5175 332.968 29.5005C332.805 29.511 332.687 29.512 332.523 29.5224C332.36 29.5329 332.242 29.5339 332.079 29.5444C331.915 29.5548 331.797 29.5558 331.634 29.5663C331.47 29.5768 331.352 29.5777 331.189 29.5882C331.026 29.5987 330.89 29.6271 330.744 29.6101C330.581 29.6206 330.463 29.6216 330.299 29.632C330.136 29.6425 330 29.671 329.837 29.6814C329.7 29.7099 329.537 29.7204 329.419 29.7213C329.256 29.7318 329.12 29.7603 328.956 29.7707C328.82 29.7992 328.657 29.8097 328.52 29.8381C328.357 29.8486 328.221 29.877 328.058 29.8875C327.921 29.916 327.758 29.9264 327.622 29.9549C327.486 29.9834 327.322 29.9938 327.168 30.0498C327.032 30.0782 326.869 30.0887 326.733 30.1171C326.596 30.1456 326.415 30.1835 326.279 30.212C326.143 30.2405 325.979 30.2509 325.843 30.2794C325.707 30.3078 325.526 30.3458 325.389 30.3742C325.253 30.4027 325.117 30.4312 324.936 30.4691C324.8 30.4976 324.618 30.5355 324.482 30.564C324.346 30.5924 324.192 30.6484 324.055 30.6768C323.901 30.7328 323.765 30.7612 323.584 30.7991C323.447 30.8276 323.293 30.8835 323.157 30.912C323.003 30.9679 322.867 30.9964 322.685 31.0343C322.549 31.0628 322.395 31.1187 322.259 31.1472C322.104 31.2031 321.968 31.2316 321.814 31.2875C321.66 31.3435 321.524 31.3719 321.37 31.4278C321.215 31.4838 321.061 31.5397 320.907 31.5956C320.753 31.6516 320.616 31.68 320.462 31.736C320.308 31.7919 320.154 31.8478 320 31.9038C319.845 31.9597 319.709 31.9882 319.582 32.0621C319.428 32.118 319.274 32.174 319.12 32.2299C318.965 32.2858 318.829 32.3143 318.702 32.3882C318.548 32.4441 318.394 32.5001 318.24 32.556C318.085 32.612 317.958 32.6859 317.822 32.7143C317.668 32.7703 317.496 32.8537 317.341 32.9096C317.187 32.9655 317.06 33.0395 316.924 33.0679C316.77 33.1239 316.598 33.2073 316.471 33.2812C316.344 33.3551 316.189 33.4111 316.062 33.485C315.89 33.5684 315.736 33.6243 315.591 33.7257C315.464 33.7997 315.31 33.8556 315.183 33.9295C315.01 34.0129 314.838 34.0963 314.711 34.1703C314.584 34.2442 314.475 34.2906 314.348 34.3645C314.176 34.448 314.003 34.5314 313.813 34.6423C313.704 34.6887 313.577 34.7626 313.468 34.8091C313.278 34.92 313.042 35.0403 312.852 35.1512C312.788 35.1882 312.679 35.2346 312.616 35.2716C309.567 41.3814 324.38 39.3272 325.926 45.7085C327.828 53.6262 335.357 50.3938 338.139 52.1104C347.754 58.0602 320.037 82.6652 342.163 93.4386C343.061 92.9666 343.958 92.4946 344.865 91.9496C351.975 87.6914 357.448 81.8802 360.95 75.4387C361.293 74.7983 361.637 74.1578 361.936 73.5268C361.936 73.5268 361.936 73.5268 361.954 73.4994C362.108 73.2066 362.234 72.8959 362.361 72.5851C362.379 72.5576 362.397 72.5302 362.388 72.4847C362.514 72.174 362.65 71.9087 362.776 71.5979C362.795 71.5705 362.813 71.543 362.813 71.543C363.21 70.5833 363.554 69.5876 363.861 68.6469C363.879 68.6194 363.869 68.5739 363.906 68.519C363.987 68.2177 364.077 67.9619 364.158 67.6607C364.176 67.6332 364.185 67.5603 364.203 67.5328C364.285 67.2315 364.366 66.9303 364.465 66.6015L364.483 66.5741C364.636 65.9261 364.808 65.2506 364.915 64.6121C364.933 64.5847 364.924 64.5392 364.942 64.5117C365.005 64.2379 365.041 63.9462 365.104 63.6724C365.113 63.5994 365.122 63.5265 365.14 63.499C365.176 63.2073 365.221 62.961 365.257 62.6692C365.248 62.6237 365.284 62.5688 365.275 62.5233C365.355 61.8668 365.418 61.2378 365.471 60.5633C365.462 60.5179 365.48 60.4904 365.471 60.4449C365.488 60.1806 365.497 59.8709 365.515 59.6066C365.524 59.5336 365.532 59.4607 365.514 59.3698C365.514 59.133 365.531 58.8687 365.531 58.6318C365.54 58.5589 365.522 58.468 365.531 58.395C365.521 58.1127 365.521 57.8759 365.511 57.5936C365.502 57.5482 365.493 57.5027 365.502 57.4298C365.483 57.102 365.464 56.7743 365.445 56.4465C365.445 56.4465 365.463 56.419 365.436 56.401C365.399 56.1008 365.39 55.8185 365.353 55.5182C365.335 55.4273 365.343 55.3543 365.325 55.2634C365.307 55.0541 365.279 54.7993 365.233 54.5719C365.215 54.481 365.196 54.3901 365.196 54.2717C365.15 54.0443 365.132 53.835 365.086 53.6076C365.068 53.5167 365.049 53.4258 365.058 53.3528C365.022 53.0526 364.939 52.7618 364.902 52.4615C364.838 52.1432 364.756 51.8525 364.692 51.5342C364.674 51.4433 364.637 51.3798 364.619 51.2889C364.573 51.0615 364.509 50.8617 364.436 50.6164C364.418 50.5254 364.372 50.4165 364.354 50.3256C364.29 50.1257 364.226 49.9259 364.162 49.726C364.144 49.6351 364.098 49.5261 364.08 49.4352C363.989 49.2174 363.943 48.99 363.852 48.7722C363.815 48.7087 363.797 48.6178 363.788 48.5723C363.678 48.2636 363.578 48.0002 363.45 47.7189C363.414 47.6555 363.405 47.61 363.368 47.5466C363.277 47.3287 363.186 47.1109 363.068 46.875C363.022 46.7661 362.958 46.6847 362.94 46.5937C362.858 46.4214 362.767 46.2035 362.685 46.0311C362.639 45.9222 362.575 45.8408 362.53 45.7318C362.421 45.5415 362.329 45.3236 362.247 45.1512C362.184 45.0698 362.165 44.9789 362.102 44.8974C361.947 44.5981 361.801 44.3443 361.628 44.0725C361.628 44.0725 361.601 44.0545 361.619 44.027C361.5 43.7912 361.337 43.5648 361.2 43.3565C361.136 43.275 361.1 43.2116 361.054 43.1026C360.954 42.9577 360.854 42.8128 360.772 42.6405C360.708 42.559 360.663 42.4501 360.572 42.3507C360.472 42.2058 360.399 42.0788 360.299 41.9339C360.235 41.8525 360.162 41.7256 360.099 41.6441C360.026 41.5172 359.907 41.3998 359.835 41.2729C359.744 41.1735 359.68 41.092 359.607 40.9651C359.516 40.8657 359.416 40.7207 359.325 40.6213C359.234 40.5219 359.17 40.4404 359.079 40.341C358.988 40.2416 358.888 40.0967 358.797 39.9972C358.706 39.8978 358.615 39.7983 358.552 39.7169C358.461 39.6175 358.342 39.5 358.252 39.4006C358.161 39.3012 358.07 39.2017 357.979 39.1023C357.888 39.0028 357.797 38.9034 357.678 38.786C357.587 38.6865 357.497 38.5871 357.387 38.5151C357.296 38.4157 357.206 38.3163 357.087 38.1989C356.996 38.0994 356.887 38.0275 356.796 37.928C356.705 37.8286 356.614 37.7291 356.478 37.6392C356.387 37.5398 356.278 37.4678 356.187 37.3684C356.096 37.2689 355.987 37.197 355.869 37.0795C355.778 36.9801 355.669 36.9081 355.56 36.8362C355.451 36.7642 355.36 36.6648 355.223 36.5748C355.114 36.5029 355.023 36.4034 354.914 36.3315C354.805 36.2595 354.714 36.1601 354.578 36.0701C354.469 35.9982 354.378 35.8987 354.269 35.8268C354.16 35.7548 354.069 35.6554 353.932 35.5654C353.823 35.4935 353.714 35.4215 353.605 35.3495C353.496 35.2776 353.387 35.2056 353.251 35.1157C353.142 35.0437 353.032 34.9717 352.923 34.8998C352.814 34.8278 352.705 34.7559 352.569 34.6659C352.424 34.6489 352.315 34.5769 352.205 34.505Z" fill="#351656"/>
<path d="M312.152 35.0204C312.389 35.6099 313.857 35.2792 315.589 34.6095C317.32 33.9399 318.561 32.9467 318.36 32.4205C317.995 31.4316 316.226 31.0915 314.495 31.7612C312.764 32.4308 311.714 33.9047 312.152 35.0204Z" fill="url(#paint47_linear)"/>
<path d="M315.308 31.6127L311.796 22.3945L310.063 23.0649L313.575 32.2832C313.675 32.5466 313.957 32.6535 314.22 32.5511L315.01 32.2439C315.282 32.1869 315.409 31.8761 315.308 31.6127Z" fill="url(#paint48_linear)"/>
<path d="M313.086 23.6636C313.985 22.2983 313.616 20.4669 312.262 19.573C310.907 18.6791 309.079 19.0612 308.179 20.4265C307.28 21.7918 307.649 23.6233 309.003 24.5172C310.358 25.411 312.186 25.0289 313.086 23.6636Z" fill="url(#paint49_radial)"/>
<path d="M370.25 43.2898C367.525 38.6778 362.224 36.7801 358.412 39.0511C354.599 41.322 353.717 46.9018 356.443 51.5138C359.168 56.1258 364.468 58.0235 368.281 55.7525C372.094 53.4815 372.976 47.9018 370.25 43.2898Z" fill="#6392F8"/>
<path d="M359.52 49.6879C361.788 53.55 365.841 55.3564 368.517 53.7307C371.22 52.1229 371.557 47.6925 369.289 43.8304C367.021 39.9683 362.968 38.1619 360.293 39.7876C357.59 41.3954 357.252 45.8258 359.52 49.6879Z" fill="url(#paint50_linear)"/>
<path d="M363.465 47.3266C364.257 48.6776 365.62 49.3404 366.482 48.8048C367.371 48.2871 367.423 46.7834 366.631 45.4324C365.838 44.0814 364.475 43.4186 363.613 43.9542C362.724 44.4719 362.672 45.9757 363.465 47.3266Z" fill="url(#paint51_linear)"/>
<path opacity="0.3" d="M370.25 43.2898C367.525 38.6778 362.224 36.7801 358.412 39.0511C354.599 41.322 353.717 46.9018 356.443 51.5138C359.168 56.1258 364.468 58.0235 368.281 55.7525C372.094 53.4815 372.976 47.9018 370.25 43.2898Z" fill="#351656"/>
<path opacity="0.2" d="M396.027 66.7564C396.072 66.6289 396.09 66.4834 396.153 66.3285C396.171 66.3011 396.171 66.3011 396.162 66.2558C396.198 66.0829 396.243 65.9553 396.279 65.7825C396.279 65.7825 396.279 65.7825 396.297 65.7551C396.396 65.4273 396.486 65.0541 396.594 64.6536C397.322 61.8318 398.203 58.1277 398.261 55.6113C398.441 49.715 397.589 43.9636 396.511 43.6456C394.645 43.1616 394.585 44.8515 393.715 44.6317C392.873 44.4298 393.186 42.3563 391.863 41.995C391.635 46.2477 395.122 51.8499 394.468 55.7429C393.689 60.2999 386.379 63.6943 385.409 68.0077C384.61 71.6475 386.905 74.4985 385.105 80.0723C383.34 85.4732 376.358 89.7913 372.522 91.3493C370.604 92.1283 369.424 95.7531 369.491 97.9597C370.778 98.4939 372.001 98.7108 373.096 98.529C376.445 97.947 378.316 96.1148 379.236 94.3632C387.257 89.119 393.913 74.4037 395.955 66.9841C395.991 66.9293 396 66.8566 396.027 66.7564Z" fill="#351656"/>
<path d="M288.102 107.521C289.227 108.442 288.306 109.036 288.806 109.498C289.298 109.93 290.422 108.903 291.198 109.698C292.22 110.709 291.508 111.499 291.815 111.949C292.332 112.72 293.641 111.675 294.401 113.26C294.95 114.399 293.891 115.188 293.998 115.724C294.144 116.407 295.833 116.578 295.651 117.82C295.398 119.647 293.359 121.047 291.035 120.137C289.209 119.437 288.128 118.442 286.588 116.535C285.288 114.94 284.547 113.915 283.883 112.336C283.227 110.787 283.866 108.259 285.557 107.707C286.761 107.35 287.7 107.19 288.102 107.521Z" fill="url(#paint52_linear)"/>
</g>
<defs>
<linearGradient id="paint0_linear" x1="272.999" y1="274.162" x2="281.638" y2="273.807" gradientUnits="userSpaceOnUse">
<stop stop-color="#C7E8FF"/>
<stop offset="0.4078" stop-color="#C0DBFF"/>
<stop offset="1" stop-color="#B2C0FF"/>
</linearGradient>
<linearGradient id="paint1_linear" x1="310.287" y1="275.83" x2="299.441" y2="274.519" gradientUnits="userSpaceOnUse">
<stop stop-color="#C7E8FF"/>
<stop offset="1" stop-color="#B2C0FF"/>
</linearGradient>
<linearGradient id="paint2_linear" x1="278.651" y1="297.097" x2="283.096" y2="297.257" gradientUnits="userSpaceOnUse">
<stop stop-color="#B2C0FF"/>
<stop offset="0.5922" stop-color="#C0DBFF"/>
<stop offset="1" stop-color="#C7E8FF"/>
</linearGradient>
<linearGradient id="paint3_linear" x1="295.521" y1="297.915" x2="299.925" y2="298.074" gradientUnits="userSpaceOnUse">
<stop stop-color="#B2C0FF"/>
<stop offset="0.5922" stop-color="#C0DBFF"/>
<stop offset="1" stop-color="#C7E8FF"/>
</linearGradient>
<linearGradient id="paint4_linear" x1="278.752" y1="278.945" x2="300.371" y2="279.724" gradientUnits="userSpaceOnUse">
<stop stop-color="#C7E8FF"/>
<stop offset="0.4078" stop-color="#C0DBFF"/>
<stop offset="1" stop-color="#B2C0FF"/>
</linearGradient>
<linearGradient id="paint5_linear" x1="274.836" y1="248.834" x2="306.909" y2="249.991" gradientUnits="userSpaceOnUse">
<stop stop-color="#C7E8FF"/>
<stop offset="0.4078" stop-color="#C0DBFF"/>
<stop offset="1" stop-color="#B2C0FF"/>
</linearGradient>
<linearGradient id="paint6_linear" x1="306.09" y1="313.888" x2="316.76" y2="313.45" gradientUnits="userSpaceOnUse">
<stop stop-color="#C7E8FF"/>
<stop offset="0.4078" stop-color="#C0DBFF"/>
<stop offset="1" stop-color="#B2C0FF"/>
</linearGradient>
<linearGradient id="paint7_linear" x1="352.144" y1="315.949" x2="338.747" y2="314.329" gradientUnits="userSpaceOnUse">
<stop stop-color="#C7E8FF"/>
<stop offset="1" stop-color="#B2C0FF"/>
</linearGradient>
<linearGradient id="paint8_linear" x1="313.071" y1="342.215" x2="318.56" y2="342.413" gradientUnits="userSpaceOnUse">
<stop stop-color="#B2C0FF"/>
<stop offset="0.5922" stop-color="#C0DBFF"/>
<stop offset="1" stop-color="#C7E8FF"/>
</linearGradient>
<linearGradient id="paint9_linear" x1="333.907" y1="343.226" x2="339.346" y2="343.422" gradientUnits="userSpaceOnUse">
<stop stop-color="#B2C0FF"/>
<stop offset="0.5922" stop-color="#C0DBFF"/>
<stop offset="1" stop-color="#C7E8FF"/>
</linearGradient>
<linearGradient id="paint10_linear" x1="313.195" y1="319.795" x2="339.897" y2="320.758" gradientUnits="userSpaceOnUse">
<stop stop-color="#C7E8FF"/>
<stop offset="0.4078" stop-color="#C0DBFF"/>
<stop offset="1" stop-color="#B2C0FF"/>
</linearGradient>
<linearGradient id="paint11_linear" x1="308.358" y1="282.606" x2="347.972" y2="284.035" gradientUnits="userSpaceOnUse">
<stop stop-color="#C7E8FF"/>
<stop offset="0.4078" stop-color="#C0DBFF"/>
<stop offset="1" stop-color="#B2C0FF"/>
</linearGradient>
<linearGradient id="paint12_linear" x1="224.923" y1="296.395" x2="234.669" y2="295.994" gradientUnits="userSpaceOnUse">
<stop stop-color="#C7E8FF"/>
<stop offset="0.4078" stop-color="#C0DBFF"/>
<stop offset="1" stop-color="#B2C0FF"/>
</linearGradient>
<linearGradient id="paint13_linear" x1="266.99" y1="298.277" x2="254.753" y2="296.798" gradientUnits="userSpaceOnUse">
<stop stop-color="#C7E8FF"/>
<stop offset="1" stop-color="#B2C0FF"/>
</linearGradient>
<linearGradient id="paint14_linear" x1="231.299" y1="322.269" x2="236.313" y2="322.45" gradientUnits="userSpaceOnUse">
<stop stop-color="#B2C0FF"/>
<stop offset="0.5922" stop-color="#C0DBFF"/>
<stop offset="1" stop-color="#C7E8FF"/>
</linearGradient>
<linearGradient id="paint15_linear" x1="250.331" y1="323.193" x2="255.3" y2="323.372" gradientUnits="userSpaceOnUse">
<stop stop-color="#B2C0FF"/>
<stop offset="0.5922" stop-color="#C0DBFF"/>
<stop offset="1" stop-color="#C7E8FF"/>
</linearGradient>
<linearGradient id="paint16_linear" x1="231.413" y1="301.791" x2="255.803" y2="302.67" gradientUnits="userSpaceOnUse">
<stop stop-color="#C7E8FF"/>
<stop offset="0.4078" stop-color="#C0DBFF"/>
<stop offset="1" stop-color="#B2C0FF"/>
</linearGradient>
<linearGradient id="paint17_linear" x1="226.995" y1="267.821" x2="263.179" y2="269.125" gradientUnits="userSpaceOnUse">
<stop stop-color="#C7E8FF"/>
<stop offset="0.4078" stop-color="#C0DBFF"/>
<stop offset="1" stop-color="#B2C0FF"/>
</linearGradient>
<linearGradient id="paint18_linear" x1="259.859" y1="364.317" x2="271.135" y2="363.853" gradientUnits="userSpaceOnUse">
<stop stop-color="#C7E8FF"/>
<stop offset="0.4078" stop-color="#C0DBFF"/>
<stop offset="1" stop-color="#B2C0FF"/>
</linearGradient>
<linearGradient id="paint19_linear" x1="308.529" y1="366.495" x2="294.371" y2="364.783" gradientUnits="userSpaceOnUse">
<stop stop-color="#C7E8FF"/>
<stop offset="1" stop-color="#B2C0FF"/>
</linearGradient>
<linearGradient id="paint20_linear" x1="267.236" y1="394.253" x2="273.037" y2="394.462" gradientUnits="userSpaceOnUse">
<stop stop-color="#B2C0FF"/>
<stop offset="0.5922" stop-color="#C0DBFF"/>
<stop offset="1" stop-color="#C7E8FF"/>
</linearGradient>
<linearGradient id="paint21_linear" x1="289.256" y1="395.321" x2="295.004" y2="395.528" gradientUnits="userSpaceOnUse">
<stop stop-color="#B2C0FF"/>
<stop offset="0.5922" stop-color="#C0DBFF"/>
<stop offset="1" stop-color="#C7E8FF"/>
</linearGradient>
<linearGradient id="paint22_linear" x1="267.368" y1="370.56" x2="295.587" y2="371.577" gradientUnits="userSpaceOnUse">
<stop stop-color="#C7E8FF"/>
<stop offset="0.4078" stop-color="#C0DBFF"/>
<stop offset="1" stop-color="#B2C0FF"/>
</linearGradient>
<linearGradient id="paint23_linear" x1="262.257" y1="331.258" x2="304.12" y2="332.767" gradientUnits="userSpaceOnUse">
<stop stop-color="#C7E8FF"/>
<stop offset="0.4078" stop-color="#C0DBFF"/>
<stop offset="1" stop-color="#B2C0FF"/>
</linearGradient>
<linearGradient id="paint24_linear" x1="338.149" y1="355.055" x2="349.852" y2="354.574" gradientUnits="userSpaceOnUse">
<stop stop-color="#C7E8FF"/>
<stop offset="0.4078" stop-color="#C0DBFF"/>
<stop offset="1" stop-color="#B2C0FF"/>
</linearGradient>
<linearGradient id="paint25_linear" x1="388.665" y1="357.315" x2="373.971" y2="355.538" gradientUnits="userSpaceOnUse">
<stop stop-color="#C7E8FF"/>
<stop offset="1" stop-color="#B2C0FF"/>
</linearGradient>
<linearGradient id="paint26_linear" x1="345.806" y1="386.126" x2="351.827" y2="386.343" gradientUnits="userSpaceOnUse">
<stop stop-color="#B2C0FF"/>
<stop offset="0.5922" stop-color="#C0DBFF"/>
<stop offset="1" stop-color="#C7E8FF"/>
</linearGradient>
<linearGradient id="paint27_linear" x1="368.66" y1="387.235" x2="374.627" y2="387.45" gradientUnits="userSpaceOnUse">
<stop stop-color="#B2C0FF"/>
<stop offset="0.5922" stop-color="#C0DBFF"/>
<stop offset="1" stop-color="#C7E8FF"/>
</linearGradient>
<linearGradient id="paint28_linear" x1="345.943" y1="361.535" x2="375.231" y2="362.591" gradientUnits="userSpaceOnUse">
<stop stop-color="#C7E8FF"/>
<stop offset="0.4078" stop-color="#C0DBFF"/>
<stop offset="1" stop-color="#B2C0FF"/>
</linearGradient>
<linearGradient id="paint29_linear" x1="340.637" y1="320.742" x2="384.088" y2="322.309" gradientUnits="userSpaceOnUse">
<stop stop-color="#C7E8FF"/>
<stop offset="0.4078" stop-color="#C0DBFF"/>
<stop offset="1" stop-color="#B2C0FF"/>
</linearGradient>
<linearGradient id="paint30_linear" x1="186.186" y1="350.808" x2="199.386" y2="350.265" gradientUnits="userSpaceOnUse">
<stop stop-color="#C7E8FF"/>
<stop offset="0.4078" stop-color="#C0DBFF"/>
<stop offset="1" stop-color="#B2C0FF"/>
</linearGradient>
<linearGradient id="paint31_linear" x1="243.159" y1="353.357" x2="226.586" y2="351.353" gradientUnits="userSpaceOnUse">
<stop stop-color="#C7E8FF"/>
<stop offset="1" stop-color="#B2C0FF"/>
</linearGradient>
<linearGradient id="paint32_linear" x1="194.822" y1="385.851" x2="201.613" y2="386.096" gradientUnits="userSpaceOnUse">
<stop stop-color="#B2C0FF"/>
<stop offset="0.5922" stop-color="#C0DBFF"/>
<stop offset="1" stop-color="#C7E8FF"/>
</linearGradient>
<linearGradient id="paint33_linear" x1="220.598" y1="387.101" x2="227.327" y2="387.344" gradientUnits="userSpaceOnUse">
<stop stop-color="#B2C0FF"/>
<stop offset="0.5922" stop-color="#C0DBFF"/>
<stop offset="1" stop-color="#C7E8FF"/>
</linearGradient>
<linearGradient id="paint34_linear" x1="194.977" y1="358.116" x2="228.009" y2="359.307" gradientUnits="userSpaceOnUse">
<stop stop-color="#C7E8FF"/>
<stop offset="0.4078" stop-color="#C0DBFF"/>
<stop offset="1" stop-color="#B2C0FF"/>
</linearGradient>
<linearGradient id="paint35_linear" x1="188.993" y1="312.109" x2="237.998" y2="313.876" gradientUnits="userSpaceOnUse">
<stop stop-color="#C7E8FF"/>
<stop offset="0.4078" stop-color="#C0DBFF"/>
<stop offset="1" stop-color="#B2C0FF"/>
</linearGradient>
<linearGradient id="paint36_linear" x1="78.342" y1="345.882" x2="60.4507" y2="317.001" gradientUnits="userSpaceOnUse">
<stop stop-color="#FBB40D"/>
<stop offset="1" stop-color="#FB710D"/>
</linearGradient>
<linearGradient id="paint37_linear" x1="160.497" y1="163.147" x2="148.605" y2="143.95" gradientUnits="userSpaceOnUse">
<stop stop-color="#FBB40D"/>
<stop offset="1" stop-color="#FB710D"/>
</linearGradient>
<linearGradient id="paint38_linear" x1="505.406" y1="310.599" x2="491.905" y2="288.804" gradientUnits="userSpaceOnUse">
<stop stop-color="#FBB40D"/>
<stop offset="1" stop-color="#FB710D"/>
</linearGradient>
<linearGradient id="paint39_linear" x1="328.256" y1="103.535" x2="303.095" y2="121.697" gradientUnits="userSpaceOnUse">
<stop stop-color="#B2C0FF"/>
<stop offset="1" stop-color="#C7E8FF"/>
</linearGradient>
<radialGradient id="paint40_radial" cx="0" cy="0" r="1" gradientUnits="userSpaceOnUse" gradientTransform="translate(283.047 105.856) rotate(155.963) scale(4.91973 12.2949)">
<stop offset="0.0180528" stop-color="#A0568C"/>
<stop offset="0.0945499" stop-color="#944F8C"/>
<stop offset="0.2033" stop-color="#8A498C"/>
<stop offset="0.3434" stop-color="#87478C"/>
<stop offset="0.5055" stop-color="#76418A"/>
<stop offset="0.8241" stop-color="#4B3284"/>
<stop offset="1" stop-color="#302980"/>
</radialGradient>
<radialGradient id="paint41_radial" cx="0" cy="0" r="1" gradientUnits="userSpaceOnUse" gradientTransform="translate(278.361 83.229) rotate(145.817) scale(4.16275 8.08624)">
<stop offset="0.0180528" stop-color="#A0568C"/>
<stop offset="0.0945499" stop-color="#944F8C"/>
<stop offset="0.2033" stop-color="#8A498C"/>
<stop offset="0.3434" stop-color="#87478C"/>
<stop offset="0.5055" stop-color="#76418A"/>
<stop offset="0.8241" stop-color="#4B3284"/>
<stop offset="1" stop-color="#302980"/>
</radialGradient>
<radialGradient id="paint42_radial" cx="0" cy="0" r="1" gradientUnits="userSpaceOnUse" gradientTransform="translate(232.679 140.731) rotate(143.394) scale(3.33973 5.91352)">
<stop offset="0.0180528" stop-color="#A0568C"/>
<stop offset="0.0945499" stop-color="#944F8C"/>
<stop offset="0.2033" stop-color="#8A498C"/>
<stop offset="0.3434" stop-color="#87478C"/>
<stop offset="0.5055" stop-color="#76418A"/>
<stop offset="0.8241" stop-color="#4B3284"/>
<stop offset="1" stop-color="#302980"/>
</radialGradient>
<linearGradient id="paint43_linear" x1="349.891" y1="156.156" x2="390.08" y2="95.2399" gradientUnits="userSpaceOnUse">
<stop stop-color="#C7E8FF"/>
<stop offset="1" stop-color="#B2C0FF"/>
</linearGradient>
<linearGradient id="paint44_linear" x1="393.462" y1="75.6651" x2="368.367" y2="60.2826" gradientUnits="userSpaceOnUse">
<stop stop-color="#B2C0FF"/>
<stop offset="1" stop-color="#C7E8FF"/>
</linearGradient>
<linearGradient id="paint45_linear" x1="371.532" y1="60.8065" x2="276.985" y2="66.9711" gradientUnits="userSpaceOnUse">
<stop stop-color="#B2C0FF"/>
<stop offset="0.5922" stop-color="#C0DBFF"/>
<stop offset="1" stop-color="#C7E8FF"/>
</linearGradient>
<radialGradient id="paint46_radial" cx="0" cy="0" r="1" gradientUnits="userSpaceOnUse" gradientTransform="translate(306.27 64.6668) rotate(133.96) scale(30.2385 30.04)">
<stop offset="0.0180528" stop-color="#A0568C"/>
<stop offset="0.0945499" stop-color="#944F8C"/>
<stop offset="0.2033" stop-color="#8A498C"/>
<stop offset="0.3434" stop-color="#87478C"/>
<stop offset="0.5055" stop-color="#76418A"/>
<stop offset="0.8241" stop-color="#4B3284"/>
<stop offset="1" stop-color="#302980"/>
</radialGradient>
<linearGradient id="paint47_linear" x1="318.12" y1="31.9412" x2="311.831" y2="34.3475" gradientUnits="userSpaceOnUse">
<stop stop-color="#302980"/>
<stop offset="0.1893" stop-color="#352B81"/>
<stop offset="0.4236" stop-color="#453083"/>
<stop offset="0.6817" stop-color="#5E3986"/>
<stop offset="0.9551" stop-color="#81458B"/>
<stop offset="1" stop-color="#87478C"/>
</linearGradient>
<linearGradient id="paint48_linear" x1="314.827" y1="25.441" x2="310.723" y2="29.6705" gradientUnits="userSpaceOnUse">
<stop stop-color="#87478C"/>
<stop offset="0.1651" stop-color="#6B3D88"/>
<stop offset="0.3594" stop-color="#513485"/>
<stop offset="0.5601" stop-color="#3F2E82"/>
<stop offset="0.7692" stop-color="#342A80"/>
<stop offset="1" stop-color="#302980"/>
</linearGradient>
<radialGradient id="paint49_radial" cx="0" cy="0" r="1" gradientUnits="userSpaceOnUse" gradientTransform="translate(309.685 22.151) rotate(133.959) scale(3.77088 3.74595)">
<stop stop-color="#87478C"/>
<stop offset="0.1651" stop-color="#6B3D88"/>
<stop offset="0.3594" stop-color="#513485"/>
<stop offset="0.5601" stop-color="#3F2E82"/>
<stop offset="0.7692" stop-color="#342A80"/>
<stop offset="1" stop-color="#302980"/>
</radialGradient>
<linearGradient id="paint50_linear" x1="368.094" y1="42.2464" x2="359.454" y2="50.0422" gradientUnits="userSpaceOnUse">
<stop stop-color="#B2C0FF"/>
<stop offset="1" stop-color="#C7E8FF"/>
</linearGradient>
<linearGradient id="paint51_linear" x1="366.317" y1="44.7288" x2="363.475" y2="47.2181" gradientUnits="userSpaceOnUse">
<stop stop-color="#87478C"/>
<stop offset="0.1651" stop-color="#6B3D88"/>
<stop offset="0.3594" stop-color="#513485"/>
<stop offset="0.5601" stop-color="#3F2E82"/>
<stop offset="0.7692" stop-color="#342A80"/>
<stop offset="1" stop-color="#302980"/>
</linearGradient>
<linearGradient id="paint52_linear" x1="283.012" y1="111.188" x2="295.913" y2="117.608" gradientUnits="userSpaceOnUse">
<stop stop-color="#C7E8FF"/>
<stop offset="1" stop-color="#B2C0FF"/>
</linearGradient>
<clipPath id="clip0">
<rect width="79.9178" height="65.5694" transform="matrix(0.54792 -0.831426 0.831178 0.548372 212.683 130.193)" fill="white"/>
</clipPath>
</defs>
</svg>
