<svg width="61" height="65" viewBox="0 0 61 65" fill="none" xmlns="http://www.w3.org/2000/svg">
<circle cx="30" cy="30" r="30" fill="white"/>
<mask id="mask0" mask-type="alpha" maskUnits="userSpaceOnUse" x="3" y="3" width="54" height="55">
<ellipse cx="30" cy="30.0002" rx="27" ry="27" fill="#E3E7E9"/>
</mask>
<g mask="url(#mask0)">
<path opacity="0.6" d="M61.2165 16.5955C60.5756 16.8459 60.0621 17.1563 59.7877 17.6049C59.1398 18.6638 58.473 19.6457 57.6778 20.2223C56.5305 21.0543 55.2304 21.4399 54.2958 23.3324C53.9228 24.0876 53.9737 25.8182 53.9867 27.4789C52.9021 27.3953 52.0951 27.4215 51.8756 27.6125C51.0146 28.3617 50.0184 33.5539 46.0618 35.4415C44.8227 36.0327 44.5121 36.728 44.5121 36.728C43.7464 43.3168 47.3245 49.5293 47.851 49.6446C48.3775 49.7599 57.0341 45.2905 59.5781 41.0408C61.7468 37.4183 62.7737 32.5114 62.9239 30.4783L63.7044 30.6571C63.7211 30.2224 63.7323 29.7862 63.7323 29.3475C63.7324 24.8345 62.837 20.5298 61.2165 16.5955Z" fill="#351656"/>
<path opacity="0.6" d="M17.7731 41.22C17.1109 39.7325 15.3327 39.0717 13.8626 39.79C8.76433 42.2807 5.15825 45.9268 3.20142 50.4062C6.86531 54.949 11.6872 58.5317 17.2247 60.7109C17.2194 60.6989 17.2131 60.6862 17.2081 60.6744C17.1645 60.5704 17.1314 60.464 17.1023 60.3551C17.0383 60.1154 16.8685 59.5218 17.0076 58.9704C17.3044 57.7944 18.2714 57.4853 17.756 56.3707C17.4773 55.7679 16.7735 55.4873 16.1616 55.7538C16.1616 55.7538 15.26 56.2117 14.7961 55.6953C13.6926 54.4671 18.0785 53.2004 18.6323 51.7151C18.9648 50.8231 20.1035 48.1941 19.0328 44.4692C18.7666 43.5437 18.2596 42.3126 17.7731 41.22Z" fill="#351656"/>
<path d="M29.7468 60.0083C46.8096 60.0083 60.6418 46.2809 60.6418 29.3473C60.6418 12.4137 46.8096 -1.31372 29.7468 -1.31372C12.684 -1.31372 -1.14819 12.4137 -1.14819 29.3473C-1.14819 46.2809 12.684 60.0083 29.7468 60.0083Z" fill="#281E37"/>
<path d="M1.47513 36.6121C0.878211 36.6121 0.319011 36.769 -0.166138 37.0407C0.393063 39.1882 1.18158 41.2439 2.17069 43.1819C3.68504 42.864 4.8218 41.5309 4.8218 39.9334C4.8217 38.0991 3.32341 36.6121 1.47513 36.6121Z" fill="#63368F"/>
<path opacity="0.6" d="M19.4888 25.8915C12.2483 27.9456 5.76914 22.2763 2.75438 14.4243C0.269722 18.8412 -1.14819 23.9297 -1.14819 29.3476C-1.14819 46.2811 12.684 60.0086 29.7468 60.0086C46.7555 60.0086 60.5525 46.3676 60.6398 29.508C45.9076 17.8494 30.243 22.8406 19.4888 25.8915Z" fill="#351656"/>
<path d="M8.33713 31.6269C8.46945 31.6269 8.57672 31.5205 8.57672 31.3891C8.57672 31.2578 8.46945 31.1514 8.33713 31.1514C8.2048 31.1514 8.09753 31.2578 8.09753 31.3891C8.09753 31.5205 8.2048 31.6269 8.33713 31.6269Z" fill="#FF73A7"/>
<path d="M29.6301 25.9167C29.8947 25.9167 30.1092 25.7038 30.1092 25.4411C30.1092 25.1785 29.8947 24.9656 29.6301 24.9656C29.3654 24.9656 29.1509 25.1785 29.1509 25.4411C29.1509 25.7038 29.3654 25.9167 29.6301 25.9167Z" fill="#8118B4"/>
<path d="M17.8158 28.22C17.908 28.22 17.9828 28.1458 17.9828 28.0543C17.9828 27.9628 17.908 27.8887 17.8158 27.8887C17.7237 27.8887 17.6489 27.9628 17.6489 28.0543C17.6489 28.1458 17.7237 28.22 17.8158 28.22Z" fill="#FF73A7"/>
<path d="M13.3041 30.0598C13.4884 30.0598 13.6379 29.9115 13.6379 29.7285C13.6379 29.5456 13.4884 29.3972 13.3041 29.3972C13.1197 29.3972 12.9702 29.5456 12.9702 29.7285C12.9702 29.9115 13.1197 30.0598 13.3041 30.0598Z" fill="#FFA600"/>
<path d="M23.0593 31.8712C23.1951 31.8712 23.3052 31.7619 23.3052 31.6271C23.3052 31.4923 23.1951 31.3831 23.0593 31.3831C22.9235 31.3831 22.8134 31.4923 22.8134 31.6271C22.8134 31.7619 22.9235 31.8712 23.0593 31.8712Z" fill="#8118B4"/>
<path d="M14.7706 50.4212C14.9607 50.4212 15.1148 50.2683 15.1148 50.0796C15.1148 49.891 14.9607 49.738 14.7706 49.738C14.5805 49.738 14.4264 49.891 14.4264 50.0796C14.4264 50.2683 14.5805 50.4212 14.7706 50.4212Z" fill="#FF73A7"/>
<path d="M4.49728 45.2852C4.68738 45.2852 4.84148 45.1323 4.84148 44.9436C4.84148 44.755 4.68738 44.6021 4.49728 44.6021C4.30718 44.6021 4.15308 44.755 4.15308 44.9436C4.15308 45.1323 4.30718 45.2852 4.49728 45.2852Z" fill="#FF73A7"/>
<path d="M18.5759 48.7037C18.6623 48.7037 18.7323 48.6342 18.7323 48.5485C18.7323 48.4628 18.6623 48.3933 18.5759 48.3933C18.4896 48.3933 18.4196 48.4628 18.4196 48.5485C18.4196 48.6342 18.4896 48.7037 18.5759 48.7037Z" fill="#B8E4FA"/>
<path d="M6.70914 47.2683C6.82054 47.2683 6.91084 47.1786 6.91084 47.0681C6.91084 46.9575 6.82054 46.8679 6.70914 46.8679C6.59775 46.8679 6.50745 46.9575 6.50745 47.0681C6.50745 47.1786 6.59775 47.2683 6.70914 47.2683Z" fill="#B8E4FA"/>
<path d="M9.12833 41.6064C9.23972 41.6064 9.33002 41.5168 9.33002 41.4062C9.33002 41.2957 9.23972 41.2061 9.12833 41.2061C9.01694 41.2061 8.92664 41.2957 8.92664 41.4062C8.92664 41.5168 9.01694 41.6064 9.12833 41.6064Z" fill="#FFA600"/>
<path d="M12.9612 45.6376C13.0726 45.6376 13.1629 45.548 13.1629 45.4375C13.1629 45.3269 13.0726 45.2373 12.9612 45.2373C12.8498 45.2373 12.7595 45.3269 12.7595 45.4375C12.7595 45.548 12.8498 45.6376 12.9612 45.6376Z" fill="#8118B4"/>
<path d="M21.3138 41.8551C21.5039 41.8551 21.658 41.7021 21.658 41.5135C21.658 41.3248 21.5039 41.1719 21.3138 41.1719C21.1237 41.1719 20.9696 41.3248 20.9696 41.5135C20.9696 41.7021 21.1237 41.8551 21.3138 41.8551Z" fill="#FF73A7"/>
<path d="M11.0404 36.7184C11.2305 36.7184 11.3846 36.5654 11.3846 36.3768C11.3846 36.1881 11.2305 36.0352 11.0404 36.0352C10.8503 36.0352 10.6962 36.1881 10.6962 36.3768C10.6962 36.5654 10.8503 36.7184 11.0404 36.7184Z" fill="#FF73A7"/>
<path d="M25.1193 40.137C25.2056 40.137 25.2756 40.0675 25.2756 39.9818C25.2756 39.8961 25.2056 39.8267 25.1193 39.8267C25.0329 39.8267 24.9629 39.8961 24.9629 39.9818C24.9629 40.0675 25.0329 40.137 25.1193 40.137Z" fill="#B8E4FA"/>
<path d="M13.2522 38.7016C13.3636 38.7016 13.4539 38.612 13.4539 38.5014C13.4539 38.3909 13.3636 38.3013 13.2522 38.3013C13.1408 38.3013 13.0505 38.3909 13.0505 38.5014C13.0505 38.612 13.1408 38.7016 13.2522 38.7016Z" fill="#B8E4FA"/>
<path d="M15.6717 33.0397C15.7831 33.0397 15.8734 32.9501 15.8734 32.8396C15.8734 32.729 15.7831 32.6394 15.6717 32.6394C15.5603 32.6394 15.47 32.729 15.47 32.8396C15.47 32.9501 15.5603 33.0397 15.6717 33.0397Z" fill="#FFA600"/>
<path d="M19.5042 37.071C19.6156 37.071 19.7059 36.9814 19.7059 36.8708C19.7059 36.7603 19.6156 36.6707 19.5042 36.6707C19.3928 36.6707 19.3025 36.7603 19.3025 36.8708C19.3025 36.9814 19.3928 37.071 19.5042 37.071Z" fill="#8118B4"/>
<path d="M49.9992 47.7747C50.1893 47.7747 50.3434 47.6218 50.3434 47.4332C50.3434 47.2445 50.1893 47.0916 49.9992 47.0916C49.8091 47.0916 49.655 47.2445 49.655 47.4332C49.655 47.6218 49.8091 47.7747 49.9992 47.7747Z" fill="#FF73A7"/>
<path d="M56.6429 42.3502C56.833 42.3502 56.9871 42.1972 56.9871 42.0086C56.9871 41.8199 56.833 41.667 56.6429 41.667C56.4528 41.667 56.2987 41.8199 56.2987 42.0086C56.2987 42.1972 56.4528 42.3502 56.6429 42.3502Z" fill="#FF73A7"/>
<path d="M48.4 51.3419C48.4864 51.3419 48.5564 51.2724 48.5564 51.1867C48.5564 51.101 48.4864 51.0315 48.4 51.0315C48.3137 51.0315 48.2437 51.101 48.2437 51.1867C48.2437 51.2724 48.3137 51.3419 48.4 51.3419Z" fill="#B8E4FA"/>
<path d="M54.122 44.1064C54.2334 44.1064 54.3237 44.0168 54.3237 43.9062C54.3237 43.7957 54.2334 43.7061 54.122 43.7061C54.0106 43.7061 53.9203 43.7957 53.9203 43.9062C53.9203 44.0168 54.0106 44.1064 54.122 44.1064Z" fill="#B8E4FA"/>
<path d="M52.7217 49.4374C52.8331 49.4374 52.9234 49.3478 52.9234 49.2373C52.9234 49.1267 52.8331 49.0371 52.7217 49.0371C52.6103 49.0371 52.52 49.1267 52.52 49.2373C52.52 49.3478 52.6103 49.4374 52.7217 49.4374Z" fill="#FFA600"/>
<path d="M50.8626 49.6467C50.974 49.6467 51.0643 49.5571 51.0643 49.4465C51.0643 49.336 50.974 49.2463 50.8626 49.2463C50.7512 49.2463 50.6609 49.336 50.6609 49.4465C50.6609 49.5571 50.7512 49.6467 50.8626 49.6467Z" fill="#8118B4"/>
<path d="M6.60017 28.998C6.71496 28.998 6.80801 28.9056 6.80801 28.7917C6.80801 28.6778 6.71496 28.5854 6.60017 28.5854C6.48539 28.5854 6.39233 28.6778 6.39233 28.7917C6.39233 28.9056 6.48539 28.998 6.60017 28.998Z" fill="#FFA600"/>
<path d="M8.43184 26.9187C8.51663 26.9187 8.58536 26.8505 8.58536 26.7664C8.58536 26.6822 8.51663 26.614 8.43184 26.614C8.34705 26.614 8.27832 26.6822 8.27832 26.7664C8.27832 26.8505 8.34705 26.9187 8.43184 26.9187Z" fill="#B8E4FA"/>
<path d="M10.573 33.5263C10.7177 33.5263 10.835 33.4099 10.835 33.2663C10.835 33.1228 10.7177 33.0063 10.573 33.0063C10.4283 33.0063 10.311 33.1228 10.311 33.2663C10.311 33.4099 10.4283 33.5263 10.573 33.5263Z" fill="#FF73A7"/>
<path d="M8.74825 31.959C8.83303 31.959 8.90177 31.8908 8.90177 31.8067C8.90177 31.7225 8.83303 31.6543 8.74825 31.6543C8.66346 31.6543 8.59473 31.7225 8.59473 31.8067C8.59473 31.8908 8.66346 31.959 8.74825 31.959Z" fill="#B8E4FA"/>
<path d="M7.30586 36.4153C7.39065 36.4153 7.45938 36.3471 7.45938 36.2629C7.45938 36.1788 7.39065 36.1106 7.30586 36.1106C7.22108 36.1106 7.15234 36.1788 7.15234 36.2629C7.15234 36.3471 7.22108 36.4153 7.30586 36.4153Z" fill="#FFA600"/>
<path d="M4.12263 33.6211C4.20742 33.6211 4.27615 33.5529 4.27615 33.4688C4.27615 33.3846 4.20742 33.3164 4.12263 33.3164C4.03785 33.3164 3.96912 33.3846 3.96912 33.4688C3.96912 33.5529 4.03785 33.6211 4.12263 33.6211Z" fill="#8118B4"/>
<path d="M9.28228 29.8354C9.44916 29.8354 9.58445 29.7011 9.58445 29.5355C9.58445 29.3699 9.44916 29.2356 9.28228 29.2356C9.11539 29.2356 8.9801 29.3699 8.9801 29.5355C8.9801 29.7011 9.11539 29.8354 9.28228 29.8354Z" fill="#FF73A7"/>
<path d="M12.6218 28.3277C12.6976 28.3277 12.7591 28.2667 12.7591 28.1914C12.7591 28.1162 12.6976 28.0552 12.6218 28.0552C12.546 28.0552 12.4845 28.1162 12.4845 28.1914C12.4845 28.2667 12.546 28.3277 12.6218 28.3277Z" fill="#B8E4FA"/>
<path d="M4.32981 22.0979C4.42762 22.0979 4.50691 22.0192 4.50691 21.9221C4.50691 21.825 4.42762 21.7463 4.32981 21.7463C4.232 21.7463 4.15271 21.825 4.15271 21.9221C4.15271 22.0192 4.232 22.0979 4.32981 22.0979Z" fill="#FFA600"/>
<path d="M7.69456 25.6362C7.79237 25.6362 7.87166 25.5575 7.87166 25.4604C7.87166 25.3634 7.79237 25.2847 7.69456 25.2847C7.59675 25.2847 7.51746 25.3634 7.51746 25.4604C7.51746 25.5575 7.59675 25.6362 7.69456 25.6362Z" fill="#8118B4"/>
<path d="M11.7895 9.78627C11.8333 9.78627 11.8688 9.75105 11.8688 9.70759C11.8688 9.66413 11.8333 9.62891 11.7895 9.62891C11.7457 9.62891 11.7102 9.66413 11.7102 9.70759C11.7102 9.75105 11.7457 9.78627 11.7895 9.78627Z" fill="#B8E4FA"/>
<path d="M15.0312 8.41831C15.106 8.41831 15.1666 8.35817 15.1666 8.28398C15.1666 8.2098 15.106 8.14966 15.0312 8.14966C14.9565 8.14966 14.8959 8.2098 14.8959 8.28398C14.8959 8.35817 14.9565 8.41831 15.0312 8.41831Z" fill="#FF73A7"/>
<path d="M10.9937 5.50742C11.0685 5.50742 11.1291 5.44728 11.1291 5.3731C11.1291 5.29891 11.0685 5.23877 10.9937 5.23877C10.919 5.23877 10.8584 5.29891 10.8584 5.3731C10.8584 5.44728 10.919 5.50742 10.9937 5.50742Z" fill="#FF73A7"/>
<path d="M16.5267 7.74288C16.5606 7.74288 16.5882 7.71556 16.5882 7.68187C16.5882 7.64817 16.5606 7.62085 16.5267 7.62085C16.4927 7.62085 16.4652 7.64817 16.4652 7.68187C16.4652 7.71556 16.4927 7.74288 16.5267 7.74288Z" fill="#B8E4FA"/>
<path d="M11.8629 7.17885C11.9066 7.17885 11.9421 7.14362 11.9421 7.10017C11.9421 7.05671 11.9066 7.02148 11.8629 7.02148C11.8191 7.02148 11.7836 7.05671 11.7836 7.10017C11.7836 7.14362 11.8191 7.17885 11.8629 7.17885Z" fill="#B8E4FA"/>
<path d="M12.8144 4.95326C12.8582 4.95326 12.8937 4.91803 12.8937 4.87458C12.8937 4.83113 12.8582 4.7959 12.8144 4.7959C12.7706 4.7959 12.7351 4.83113 12.7351 4.87458C12.7351 4.91803 12.7706 4.95326 12.8144 4.95326Z" fill="#FFA600"/>
<path d="M14.3216 6.53798C14.3654 6.53798 14.4009 6.50275 14.4009 6.4593C14.4009 6.41584 14.3654 6.38062 14.3216 6.38062C14.2778 6.38062 14.2423 6.41584 14.2423 6.4593C14.2423 6.50275 14.2778 6.53798 14.3216 6.53798Z" fill="#8118B4"/>
<path d="M8.54382 21.0277C8.68385 21.0277 8.79736 20.915 8.79736 20.776C8.79736 20.6371 8.68385 20.5244 8.54382 20.5244C8.4038 20.5244 8.29028 20.6371 8.29028 20.776C8.29028 20.915 8.4038 21.0277 8.54382 21.0277Z" fill="#FF73A7"/>
<path d="M7.07947 11.8611C7.2195 11.8611 7.33301 11.7485 7.33301 11.6095C7.33301 11.4706 7.2195 11.3579 7.07947 11.3579C6.93944 11.3579 6.82593 11.4706 6.82593 11.6095C6.82593 11.7485 6.93944 11.8611 7.07947 11.8611Z" fill="#FF73A7"/>
<path d="M11.3302 22.0599C11.3939 22.0599 11.4454 22.0087 11.4454 21.9456C11.4454 21.8825 11.3939 21.8313 11.3302 21.8313C11.2666 21.8313 11.2151 21.8825 11.2151 21.9456C11.2151 22.0087 11.2666 22.0599 11.3302 22.0599Z" fill="#B8E4FA"/>
<path d="M5.92591 15.1884C6.00796 15.1884 6.07447 15.1224 6.07447 15.041C6.07447 14.9596 6.00796 14.8936 5.92591 14.8936C5.84386 14.8936 5.77734 14.9596 5.77734 15.041C5.77734 15.1224 5.84386 15.1884 5.92591 15.1884Z" fill="#B8E4FA"/>
<path d="M10.1566 13.4899C10.2387 13.4899 10.3052 13.4239 10.3052 13.3425C10.3052 13.2611 10.2387 13.1951 10.1566 13.1951C10.0746 13.1951 10.0081 13.2611 10.0081 13.3425C10.0081 13.4239 10.0746 13.4899 10.1566 13.4899Z" fill="#FFA600"/>
<path d="M10.0392 17.5708C10.1212 17.5708 10.1877 17.5047 10.1877 17.4233C10.1877 17.3419 10.1212 17.2759 10.0392 17.2759C9.95714 17.2759 9.89062 17.3419 9.89062 17.4233C9.89062 17.5047 9.95714 17.5708 10.0392 17.5708Z" fill="#8118B4"/>
<path d="M33.227 8.5942C33.3091 8.5942 33.3756 8.52818 33.3756 8.44676C33.3756 8.36533 33.3091 8.29932 33.227 8.29932C33.145 8.29932 33.0785 8.36533 33.0785 8.44676C33.0785 8.52818 33.145 8.5942 33.227 8.5942Z" fill="#B8E4FA"/>
<path d="M37.3595 3.53766C37.4995 3.53766 37.613 3.42501 37.613 3.28604C37.613 3.14708 37.4995 3.03442 37.3595 3.03442C37.2195 3.03442 37.106 3.14708 37.106 3.28604C37.106 3.42501 37.2195 3.53766 37.3595 3.53766Z" fill="#FF73A7"/>
<path d="M31.0632 4.20332C31.1453 4.20332 31.2118 4.13731 31.2118 4.05589C31.2118 3.97446 31.1453 3.90845 31.0632 3.90845C30.9812 3.90845 30.9147 3.97446 30.9147 4.05589C30.9147 4.13731 30.9812 4.20332 31.0632 4.20332Z" fill="#B8E4FA"/>
<path d="M47.7727 35.0146C47.8168 35.0146 47.8526 34.9791 47.8526 34.9353C47.8526 34.8915 47.8168 34.856 47.7727 34.856C47.7285 34.856 47.6927 34.8915 47.6927 34.9353C47.6927 34.9791 47.7285 35.0146 47.7727 35.0146Z" fill="#B8E4FA"/>
<path d="M49.9973 32.2928C50.0726 32.2928 50.1337 32.2322 50.1337 32.1574C50.1337 32.0826 50.0726 32.022 49.9973 32.022C49.9219 32.022 49.8608 32.0826 49.8608 32.1574C49.8608 32.2322 49.9219 32.2928 49.9973 32.2928Z" fill="#FF73A7"/>
<path d="M45.0168 31.5684C45.0922 31.5684 45.1533 31.5078 45.1533 31.433C45.1533 31.3582 45.0922 31.2976 45.0168 31.2976C44.9415 31.2976 44.8804 31.3582 44.8804 31.433C44.8804 31.5078 44.9415 31.5684 45.0168 31.5684Z" fill="#FF73A7"/>
<path d="M51.0497 30.9862C51.0839 30.9862 51.1117 30.9587 51.1117 30.9248C51.1117 30.8908 51.0839 30.8633 51.0497 30.8633C51.0155 30.8633 50.9878 30.8908 50.9878 30.9248C50.9878 30.9587 51.0155 30.9862 51.0497 30.9862Z" fill="#B8E4FA"/>
<path d="M46.6076 32.6516C46.6518 32.6516 46.6876 32.6161 46.6876 32.5722C46.6876 32.5284 46.6518 32.4929 46.6076 32.4929C46.5635 32.4929 46.5277 32.5284 46.5277 32.5722C46.5277 32.6161 46.5635 32.6516 46.6076 32.6516Z" fill="#B8E4FA"/>
<path d="M46.4073 30.2216C46.4515 30.2216 46.4872 30.1861 46.4872 30.1423C46.4872 30.0985 46.4515 30.063 46.4073 30.063C46.3632 30.063 46.3274 30.0985 46.3274 30.1423C46.3274 30.1861 46.3632 30.2216 46.4073 30.2216Z" fill="#FFA600"/>
<path d="M48.5017 30.9367C48.5458 30.9367 48.5816 30.9012 48.5816 30.8574C48.5816 30.8136 48.5458 30.7781 48.5017 30.7781C48.4575 30.7781 48.4218 30.8136 48.4218 30.8574C48.4218 30.9012 48.4575 30.9367 48.5017 30.9367Z" fill="#8118B4"/>
</g>
<path fill-rule="evenodd" clip-rule="evenodd" d="M30 57.8339C45.3723 57.8339 57.8339 45.3723 57.8339 30C57.8339 14.6277 45.3723 2.16606 30 2.16606C14.6277 2.16606 2.16606 14.6277 2.16606 30C2.16606 45.3723 14.6277 57.8339 30 57.8339ZM30 60C46.5685 60 60 46.5685 60 30C60 13.4315 46.5685 0 30 0C13.4315 0 0 13.4315 0 30C0 46.5685 13.4315 60 30 60Z" fill="#993399"/>
<path d="M55.5024 30.5434C55.4421 30.5861 53.0403 33.0054 53.0403 33.0054L52.4584 31.7501C52.0563 30.8834 50.9372 30.0651 49.9482 30.3653C49.6261 30.4631 49.2766 30.7 49.0996 30.9959C48.9982 31.1657 48.9688 31.3746 49.018 31.5659C49.0747 31.7859 49.2446 31.9389 49.3689 32.1214C49.6841 32.5842 49.8702 33.1379 49.8631 33.7002C49.8509 34.6806 50.0411 37.3729 48.1024 37.9268C46.1638 38.4807 40.6247 38.2037 40.6247 38.2037L44.0866 48.0355C44.0866 48.0355 50.2783 47.9032 53.5029 45.9584C57.1249 43.7738 60.1483 37.4057 60.1483 37.4057C60.8676 36.6872 60.536 35.4132 59.5543 35.1407C59.7062 34.4473 59.2806 33.7326 58.5952 33.5423C58.7472 32.8489 58.3216 32.1342 57.6362 31.9439C57.8984 30.7476 56.4986 29.8354 55.5024 30.5434Z" fill="url(#paint0_linear)"/>
<mask id="mask1" mask-type="alpha" maskUnits="userSpaceOnUse" x="40" y="30" width="21" height="19">
<path d="M55.5024 30.5434C55.4421 30.5861 53.0403 33.0054 53.0403 33.0054L52.4584 31.7501C52.0563 30.8834 50.9372 30.0651 49.9482 30.3653C49.6261 30.4631 49.2766 30.7 49.0996 30.9959C48.9982 31.1657 48.9688 31.3746 49.018 31.5659C49.0747 31.7859 49.2446 31.9389 49.3689 32.1214C49.6841 32.5842 49.8702 33.1379 49.8631 33.7002C49.8509 34.6806 50.0411 37.3729 48.1024 37.9268C46.1638 38.4807 40.6247 38.2037 40.6247 38.2037L44.0866 48.0355C44.0866 48.0355 50.2783 47.9032 53.5029 45.9584C57.1249 43.7738 60.1483 37.4057 60.1483 37.4057C60.8676 36.6872 60.536 35.4132 59.5543 35.1407C59.7062 34.4473 59.2806 33.7326 58.5952 33.5423C58.7472 32.8489 58.3216 32.1342 57.6362 31.9439C57.8984 30.7476 56.4986 29.8354 55.5024 30.5434Z" fill="url(#paint1_linear)"/>
</mask>
<g mask="url(#mask1)">
<path opacity="0.1" d="M39.7073 43.5962C40.7045 44.5085 40.5245 47.8275 41.3343 47.8398C41.3343 47.8398 45.183 49.3164 44.7962 49.0861C47.8556 50.5611 49.5918 48.3002 52.6717 47.8398C54.6896 47.5381 55.9047 46.3171 57.5402 44.7771L57.7952 44.1635L58.0731 44.1635C58.3327 43.9178 58.589 43.1028 58.8226 42.8384L58.903 42.6999L59.1706 42.4261C60.3485 41.0908 61.7751 38.8446 61.9494 37.2994C62.087 36.0796 60.95 34.2555 60.3807 33.8154C59.7492 33.3274 59.4734 33.9664 59.1706 33.7491C58.871 33.5341 59.3422 32.755 58.8226 32.423C58.1489 31.9926 59.1136 31.2084 58.8226 31.0895C58.3434 30.8936 58.7256 29.9948 57.8082 29.7368C57.7049 29.7078 56.3305 31.0569 56.2457 31.068C56.2262 31.1503 56.214 31.213 56.2135 31.24C56.21 31.4099 56.0077 34.3234 55.9098 35.3959C55.8118 36.4683 53.6394 38.1519 54.0794 39.6785C54.5194 41.2049 53.1562 42.5702 51.9625 42.4925C50.7688 42.4148 50.6202 42.8597 50.2683 44.4709C49.9163 46.0821 46.8067 44.9495 44.3596 44.1635C42.226 43.4782 40.4091 41.7149 38.5626 40.8681C38.6234 41.9613 39.004 42.9528 39.7073 43.5962Z" fill="#351656"/>
<path d="M57.6991 41.9995L56.9428 42.8075C52.5145 42.5922 49.64 38.6183 48.7042 36.3947C48.7042 36.3947 48.978 36.456 49.1774 36.4328C49.3399 36.4138 49.4497 36.244 49.4497 36.244C50.317 38.3045 53.6035 41.8006 57.6991 41.9995Z" fill="#6392F8"/>
</g>
<path d="M38.6808 36.6727C37.4992 36.458 20.4862 38.9181 20.4862 38.9181C20.4862 38.9181 20.5659 49.7877 20.703 55.1739C23.5602 56.35 26.6953 57.0005 29.9848 57.0005C34.8216 57.0005 39.3248 55.5951 43.1 53.1774C43.3012 50.023 43.4397 44.8961 43.3993 42.3579C43.3856 41.4984 40.3789 36.9812 38.6808 36.6727Z" fill="url(#paint2_linear)"/>
<path opacity="0.1" d="M31.1919 38.1534L31.4693 37.4082C26.3789 38.0657 20.4862 38.9178 20.4862 38.9178C20.4862 38.9178 20.5659 49.7858 20.703 55.1736C22.7138 56.0013 24.8627 56.5676 27.106 56.8308C26.4412 56.0926 25.9778 55.3465 25.9778 54.6117C25.9778 52.8436 27.9208 52.6104 27.7041 50.7181C27.5295 49.1926 27.0986 47.9475 27.4862 46.4423C27.8736 44.937 29.0604 42.3098 31.1919 38.1534Z" fill="#351656"/>
<path d="M21.1161 41.641C20.1186 41.1461 20.027 39.8791 20.2801 39.2574C20.3824 39.0061 27.3259 41.6949 33.3719 39.957C36.0103 39.1985 40.0085 36.4387 40.0085 36.4387C40.698 37.1076 40.6967 38.1814 39.6811 39.2379C36.1448 42.9166 28.8184 45.463 21.1161 41.641Z" fill="#6392F8"/>
<path opacity="0.15" d="M38.4806 38.2213C37.3351 38.7942 36.2719 39.2774 36.2719 39.2774C36.5985 40.5472 37.3424 41.2076 37.8952 41.4801C38.6581 41.8564 39.6681 41.6959 40.1233 41.6117C40.5785 41.5276 41.8046 40.9106 42.255 40.4411C42.34 40.3524 41.2777 38.7215 40.4631 37.8914C40.4631 37.8914 40.5315 37.414 40.3832 36.9998C40.2943 36.7513 38.8296 38.0468 38.4806 38.2213Z" fill="#351656"/>
<path opacity="0.15" d="M33.3724 39.957C27.3264 41.6951 20.3829 39.0063 20.2806 39.2574C20.0275 39.8792 20.1191 41.1461 21.1166 41.6411C23.6874 42.9168 26.2161 43.4823 28.5762 43.5336C28.8211 43.5389 28.5896 42.2354 29.5286 42.0711C30.7565 41.8561 33.3724 41.0678 33.7357 40.4945C33.8421 40.3265 33.9159 40.0644 33.952 39.7665C33.7535 39.8386 33.5593 39.9033 33.3724 39.957Z" fill="#351656"/>
<path d="M46.8334 21.0232C49.0635 29.0818 43.0411 37.7223 33.3821 40.3222C23.7231 42.9221 14.085 38.4968 11.8548 30.4382C9.6247 22.3797 15.647 13.7392 25.3061 11.1393C34.9652 8.53934 44.6033 12.9645 46.8334 21.0232Z" fill="url(#paint3_linear)"/>
<path opacity="0.1" d="M23.1227 11.8746C14.761 15.1014 9.79797 23.0287 11.8548 30.4613C14.085 38.5199 23.723 42.9451 33.382 40.3453C33.7709 40.2406 34.1532 40.1251 34.5301 40.0013C35.4378 39.484 38.2415 31.0731 35.1641 23.9652C34.5648 22.5811 33.6009 21.3321 32.75 20.0108C29.344 14.7212 26.5186 16.8522 24.5721 15.3985C22.7934 14.0701 23.2528 11.8244 23.1227 11.8746Z" fill="#351656"/>
<path d="M22.447 45.3806C22.2393 44.6625 21.8435 43.7075 21.4638 42.8599C20.9468 41.706 19.5587 41.1933 18.411 41.7506C14.2263 43.7823 11.3282 46.8043 9.86184 50.5275C8.38993 54.2646 9.55203 59.897 12.6182 62.1605C13.6058 62.8895 15.5069 64.6354 16.1726 64.3624C16.911 64.0595 16.4955 63.5011 16.8351 63.3475C17.1711 63.1956 17.6101 63.9933 18.1575 63.7092C18.8671 63.341 18.5336 62.7817 18.782 62.5892C19.1914 62.2722 19.7786 63.0525 20.4607 62.387C20.9592 61.9006 20.3911 61.2873 20.5732 61.0592C20.6906 60.9121 21.7692 60.934 21.9537 60.315C22.143 59.6802 21.3241 58.6636 21.0226 57.9517C20.9885 57.8711 20.9628 57.7885 20.9401 57.704C20.8901 57.5181 20.7575 57.0576 20.8661 56.6299C21.0978 55.7176 21.8527 55.4778 21.4504 54.6131C21.2327 54.1455 20.6834 53.9278 20.2057 54.1346C20.2057 54.1346 19.5019 54.4898 19.1397 54.0892C18.2783 53.1364 21.7022 52.1537 22.1343 51.0015C22.3939 50.3096 23.2829 48.2702 22.447 45.3806Z" fill="url(#paint4_linear)"/>
<path d="M15.1877 43.6547C15.6033 42.9596 16.7503 41.9753 18.0389 41.5678C20.581 40.764 24.223 43.4939 24.3064 47.0895C24.382 50.3544 21.1467 52.8202 20.6199 52.7306C20.3089 52.6778 20.1608 52.6358 20.1608 52.6358C20.1608 52.6358 23.3764 49.7428 22.0853 45.7973C21.5766 44.243 19.8852 42.8732 18.7437 42.645C16.9125 42.279 15.1877 43.6547 15.1877 43.6547Z" fill="#6392F8"/>
<path d="M40.0183 37.9963C44.4301 36.7292 45.7298 47.5181 44.2122 48.3915C44.029 48.497 43.7878 48.6167 43.4913 48.6306C43.0282 48.652 42.7468 48.3821 42.7468 48.3821C42.7468 48.3821 43.6006 45.7997 42.4289 41.9462C41.8235 39.9551 40.0183 37.9963 40.0183 37.9963Z" fill="#6392F8"/>
<path d="M9.86553 58.0648L9.56238 57.0004C12.0277 53.3155 16.9145 52.8983 19.3024 53.2413C19.3024 53.2413 19.1089 53.4445 19.0261 53.6274C18.9587 53.7765 19.0477 53.958 19.0477 53.958C16.8347 53.6402 12.1454 54.6567 9.86553 58.0648Z" fill="#6392F8"/>
<path d="M45.7875 21.326C46.8414 23.91 46.5064 29.22 45.2348 31.1117C43.4065 33.8318 34.3408 37.4882 28.5034 37.7267C24.2962 37.8985 20.9909 35.5222 19.3263 31.6486C16.2196 24.4192 21.7866 19.3422 28.9635 16.4953C36.1404 13.6484 43.6799 16.158 45.7875 21.326Z" fill="#6392F8"/>
<path d="M44.9221 21.6601C45.8776 24.0028 45.6637 28.9135 44.3672 30.5532C42.4187 33.0175 32.6466 36.6589 28.9684 36.6415C25.0982 36.6232 22.0792 34.674 20.569 31.1626C17.7506 24.6091 22.8882 19.9705 29.4935 17.3503C36.0988 14.7301 43.0113 16.9747 44.9221 21.6601Z" fill="url(#paint5_radial)"/>
<path d="M24.2186 11.4141C24.3373 11.6864 23.749 12.0657 22.9566 12.4269C22.1643 12.7881 21.43 12.8865 21.3145 12.6478C21.1037 12.212 21.5572 11.5024 22.3495 11.1412C23.1418 10.78 23.9929 10.896 24.2186 11.4141Z" fill="url(#paint6_linear)"/>
<path d="M22.0339 11.3785L20.0901 7.23146L20.8816 6.87061L22.8254 11.0176C22.88 11.134 22.8285 11.2721 22.7104 11.3258L22.3465 11.4918C22.2284 11.5456 22.0885 11.4949 22.0339 11.3785Z" fill="url(#paint7_linear)"/>
<path d="M20.336 8.09403C21.0998 8.09403 21.719 7.48333 21.719 6.73C21.719 5.97666 21.0998 5.36597 20.336 5.36597C19.5721 5.36597 18.9529 5.97666 18.9529 6.73C18.9529 7.48333 19.5721 8.09403 20.336 8.09403Z" fill="url(#paint8_radial)"/>
<path opacity="0.1" d="M18.0387 41.5684C16.75 41.9758 15.603 42.9601 15.1875 43.6552C15.1875 43.6552 15.4256 43.4654 15.8185 43.2456C13.0114 45.1576 11.0028 47.6302 9.86157 50.5277C9.11387 52.4261 9.04711 54.8131 9.56308 56.9995C9.56279 56.9999 9.56251 57.0003 9.56222 57.0007L9.57053 57.0299C9.65355 57.3776 9.75026 57.7204 9.86243 58.0549L9.86537 58.065C9.86544 58.0649 9.86551 58.0648 9.86559 58.0647C10.4331 59.7524 11.3669 61.237 12.6179 62.1605C13.6055 62.8896 15.5066 64.6355 16.1723 64.3624C16.9107 64.0596 16.4952 63.5012 16.8348 63.3476C17.1708 63.1956 17.6099 63.9933 18.1572 63.7093C18.8668 63.341 18.5333 62.7818 18.7818 62.5893C19.191 62.2722 19.7783 63.0526 20.4604 62.3871C20.5372 62.3122 20.5864 62.2341 20.6192 62.1551C20.5576 62.0971 20.5094 62.0552 20.4863 62.0412C20.3409 61.9533 17.9189 60.3213 17.0391 59.7003C16.1593 59.0792 15.7875 56.356 14.2454 55.9739C12.7035 55.5917 12.2027 53.7284 12.8669 52.7335C13.531 51.7386 13.22 51.3875 12.0007 50.2771C10.7813 49.1667 13.3169 47.04 15.2212 45.3137C16.8814 43.8086 19.317 43.1168 20.9735 41.9411C19.9964 41.4471 18.9475 41.281 18.0387 41.5684Z" fill="#351656"/>
<path opacity="0.3" d="M19.3263 31.6478C20.9909 35.5215 24.3002 37.9744 28.5034 37.7259C29.0963 37.6909 33.8 37.1147 36.0277 36.1973C36.3027 34.6419 35.6094 31.4756 34.68 30.5534C32.1921 28.0852 30.5381 28.9567 27.7043 27.5908C24.8704 26.225 26.6385 22.4985 28.5578 20.5696C30.2674 18.8515 31.4695 17.9179 28.9636 16.4946C21.7866 19.3414 16.2196 24.4184 19.3263 31.6478Z" fill="#351656"/>
<path d="M39.1727 44.6449C39.335 45.4 39.0061 45.8632 38.1863 46.0345C37.9722 46.0793 37.8277 46.2516 37.8638 46.4194L37.9817 46.9678C38.0177 47.1356 37.8734 47.3079 37.6593 47.3527L37.656 47.3534C37.4419 47.3981 37.239 47.2983 37.203 47.1305L36.6035 44.3406C36.5675 44.1728 36.7118 44.0005 36.926 43.9557L37.7439 43.7848C38.1383 43.7024 38.4643 43.7508 38.7219 43.9299C38.9544 44.0897 39.1047 44.3281 39.1727 44.6449ZM38.3914 44.796C38.3452 44.5809 38.238 44.4458 38.0696 44.3911C38.0479 44.3844 38.0241 44.379 37.9983 44.375C37.7237 44.332 37.4613 44.5457 37.5087 44.7667L37.5933 45.1604C37.6474 45.412 38.058 45.4852 38.2686 45.2717C38.3918 45.1468 38.4328 44.9883 38.3914 44.796Z" fill="#6392F8"/>
<path d="M33.6986 53.1249C33.6703 52.391 33.4029 51.5594 33.1198 50.679C32.7537 49.5411 32.3754 48.3643 32.4539 47.2801C32.5213 46.3506 32.3873 44.9883 32.2797 43.8937C32.2468 43.5581 32.2166 43.2513 32.1964 42.9971L31.1823 43.0752C31.2028 43.3347 31.2335 43.6479 31.2673 43.9906C31.3711 45.0476 31.5004 46.3633 31.4391 47.2085C31.3467 48.4844 31.7735 49.8114 32.15 50.9824C32.4118 51.7962 32.659 52.5649 32.6822 53.1632C32.7259 54.2936 32.7614 55.7165 32.7856 56.8394C33.1259 56.8006 33.4642 56.7552 33.8001 56.7026C33.7758 55.5944 33.7411 54.2229 33.6986 53.1249Z" fill="#6392F8"/>
<path d="M32.5521 44.7176L31.3707 44.9155C31.123 44.957 30.9075 44.6679 30.972 44.3807L31.316 42.8492C31.3875 42.5308 31.738 42.4721 31.9121 42.7494L32.7494 44.0829C32.9065 44.333 32.7998 44.6762 32.5521 44.7176Z" fill="#6392F8"/>
<path d="M14.0723 36.2961C16.364 35.6793 17.6821 33.2293 17.0164 30.8239C16.3507 28.4185 13.9533 26.9686 11.6617 27.5855C9.37006 28.2023 8.05197 30.6523 8.71765 33.0577C9.38334 35.4631 11.7807 36.913 14.0723 36.2961Z" fill="#6392F8"/>
<path d="M15.3033 31.2858C15.8574 33.288 14.9869 35.2662 13.359 35.7044C11.7311 36.1425 9.96232 34.8747 9.40824 32.8726C8.85416 30.8704 9.72464 28.8922 11.3526 28.454C12.9805 28.0159 14.7492 29.2837 15.3033 31.2858Z" fill="url(#paint9_linear)"/>
<path d="M13.2421 31.8017C13.436 32.5025 13.1313 33.1949 12.5616 33.3483C11.9918 33.5016 11.3728 33.0579 11.1788 32.3571C10.9849 31.6564 11.2895 30.964 11.8593 30.8106C12.4291 30.6572 13.0482 31.101 13.2421 31.8017Z" fill="url(#paint10_linear)"/>
<defs>
<linearGradient id="paint0_linear" x1="43.0005" y1="47.17" x2="53.6388" y2="29.1751" gradientUnits="userSpaceOnUse">
<stop stop-color="#B2C0FF"/>
<stop offset="1" stop-color="#C7E8FF"/>
</linearGradient>
<linearGradient id="paint1_linear" x1="43.0005" y1="47.17" x2="53.6388" y2="29.1751" gradientUnits="userSpaceOnUse">
<stop stop-color="#B2C0FF"/>
<stop offset="1" stop-color="#C7E8FF"/>
</linearGradient>
<linearGradient id="paint2_linear" x1="20.4862" y1="46.83" x2="43.4063" y2="46.83" gradientUnits="userSpaceOnUse">
<stop stop-color="#B2C0FF"/>
<stop offset="1" stop-color="#C7E8FF"/>
</linearGradient>
<linearGradient id="paint3_linear" x1="14.2085" y1="39.1823" x2="46.9011" y2="9.30985" gradientUnits="userSpaceOnUse">
<stop stop-color="#B2C0FF"/>
<stop offset="0.5922" stop-color="#C0DBFF"/>
<stop offset="1" stop-color="#C7E8FF"/>
</linearGradient>
<linearGradient id="paint4_linear" x1="9.12389" y1="53.8796" x2="23.3502" y2="52.2963" gradientUnits="userSpaceOnUse">
<stop stop-color="#B2C0FF"/>
<stop offset="1" stop-color="#C7E8FF"/>
</linearGradient>
<radialGradient id="paint5_radial" cx="0" cy="0" r="1" gradientUnits="userSpaceOnUse" gradientTransform="translate(36.8172 18.711) scale(14.0697 13.8759)">
<stop offset="0.0181" stop-color="#A0568C"/>
<stop offset="0.0945" stop-color="#944F8C"/>
<stop offset="0.2033" stop-color="#8A498C"/>
<stop offset="0.3434" stop-color="#87478C"/>
<stop offset="0.5055" stop-color="#76418A"/>
<stop offset="0.8241" stop-color="#4B3284"/>
<stop offset="1" stop-color="#302980"/>
</radialGradient>
<linearGradient id="paint6_linear" x1="21.2166" y1="12.4376" x2="24.072" y2="11.0992" gradientUnits="userSpaceOnUse">
<stop stop-color="#302980"/>
<stop offset="0.1893" stop-color="#352B81"/>
<stop offset="0.4236" stop-color="#453083"/>
<stop offset="0.6817" stop-color="#5E3986"/>
<stop offset="0.9551" stop-color="#81458B"/>
<stop offset="1" stop-color="#87478C"/>
</linearGradient>
<linearGradient id="paint7_linear" x1="20.0901" y1="9.19193" x2="22.8472" y2="9.19193" gradientUnits="userSpaceOnUse">
<stop stop-color="#87478C"/>
<stop offset="0.1651" stop-color="#6B3D88"/>
<stop offset="0.3594" stop-color="#513485"/>
<stop offset="0.5601" stop-color="#3F2E82"/>
<stop offset="0.7692" stop-color="#342A80"/>
<stop offset="1" stop-color="#302980"/>
</linearGradient>
<radialGradient id="paint8_radial" cx="0" cy="0" r="1" gradientUnits="userSpaceOnUse" gradientTransform="translate(20.6509 6.41943) scale(1.7651 1.74079)">
<stop stop-color="#87478C"/>
<stop offset="0.1651" stop-color="#6B3D88"/>
<stop offset="0.3594" stop-color="#513485"/>
<stop offset="0.5601" stop-color="#3F2E82"/>
<stop offset="0.7692" stop-color="#342A80"/>
<stop offset="1" stop-color="#302980"/>
</radialGradient>
<linearGradient id="paint9_linear" x1="9.24832" y1="31.946" x2="15.4428" y2="31.7099" gradientUnits="userSpaceOnUse">
<stop stop-color="#B2C0FF"/>
<stop offset="1" stop-color="#C7E8FF"/>
</linearGradient>
<linearGradient id="paint10_linear" x1="11.1224" y1="32.032" x2="13.2904" y2="31.9494" gradientUnits="userSpaceOnUse">
<stop stop-color="#87478C"/>
<stop offset="0.1651" stop-color="#6B3D88"/>
<stop offset="0.3594" stop-color="#513485"/>
<stop offset="0.5601" stop-color="#3F2E82"/>
<stop offset="0.7692" stop-color="#342A80"/>
<stop offset="1" stop-color="#302980"/>
</linearGradient>
</defs>
</svg>
