<svg width="156" height="168" viewBox="0 0 156 168" fill="none" xmlns="http://www.w3.org/2000/svg">
<circle cx="78" cy="78" r="78" fill="white"/>
<mask id="mask0" mask-type="alpha" maskUnits="userSpaceOnUse" x="7" y="7" width="142" height="142">
<circle cx="77.9999" cy="78" r="70.2" fill="#E3E7E9"/>
</mask>
<g mask="url(#mask0)">
<path opacity="0.6" d="M159.162 43.1474C157.496 43.7986 156.161 44.6055 155.448 45.7721C153.763 48.5251 152.029 51.078 149.962 52.5773C146.979 54.7404 143.599 55.743 141.169 60.6634C140.199 62.627 140.331 67.1264 140.365 71.4443C137.545 71.2269 135.447 71.2951 134.876 71.7919C132.638 73.7396 130.047 87.2394 119.76 92.1472C116.538 93.6844 115.731 95.4922 115.731 95.4922C113.74 112.623 123.043 128.776 124.412 129.075C125.781 129.375 148.288 117.755 154.903 106.705C160.541 97.2867 163.211 84.529 163.602 79.2427L165.631 79.7078C165.674 78.5774 165.703 77.4435 165.703 76.3027C165.704 64.569 163.376 53.3766 159.162 43.1474Z" fill="#351656"/>
<path opacity="0.6" d="M46.2102 107.171C44.4883 103.304 39.8651 101.585 36.0427 103.453C22.7873 109.929 13.4115 119.409 8.32373 131.055C17.8499 142.866 30.3866 152.181 44.7841 157.847C44.7705 157.816 44.7541 157.783 44.7412 157.752C44.6276 157.482 44.5417 157.206 44.4661 156.922C44.2996 156.299 43.8582 154.756 44.2199 153.322C44.9915 150.264 47.5057 149.461 46.1658 146.563C45.441 144.995 43.6113 144.266 42.0202 144.959C42.0202 144.959 39.6761 146.15 38.4698 144.807C35.6009 141.614 47.0042 138.32 48.444 134.458C49.3086 132.139 52.2692 125.304 49.4854 115.619C48.7933 113.213 47.4751 110.012 46.2102 107.171Z" fill="#351656"/>
<path d="M77.3413 156.022C121.705 156.022 157.668 120.33 157.668 76.3029C157.668 32.2756 121.705 -3.41568 77.3413 -3.41568C32.978 -3.41568 -2.98566 32.2756 -2.98566 76.3029C-2.98566 120.33 32.978 156.022 77.3413 156.022Z" fill="#281E37"/>
<path d="M3.83461 95.1913C2.28263 95.1913 0.828707 95.5992 -0.432678 96.3058C1.02124 101.889 3.07138 107.234 5.64306 112.273C9.58039 111.446 12.5359 107.98 12.5359 103.827C12.5357 99.0576 8.64013 95.1913 3.83461 95.1913Z" fill="#63368F"/>
<path opacity="0.6" d="M50.6706 67.3172C31.8453 72.6579 14.9994 57.9179 7.16103 37.5026C0.700922 48.9865 -2.98566 62.2166 -2.98566 76.3031C-2.98566 120.33 32.9781 156.022 77.3413 156.022C121.564 156.022 157.436 120.555 157.663 76.7203C119.359 46.4078 78.6313 59.385 50.6706 67.3172Z" fill="#351656"/>
<path d="M21.676 82.2296C22.02 82.2296 22.2989 81.9528 22.2989 81.6114C22.2989 81.2699 22.02 80.9931 21.676 80.9931C21.3319 80.9931 21.053 81.2699 21.053 81.6114C21.053 81.9528 21.3319 82.2296 21.676 82.2296Z" fill="#FF73A7"/>
<path d="M77.0373 67.3834C77.7254 67.3834 78.2832 66.8298 78.2832 66.1469C78.2832 65.464 77.7254 64.9105 77.0373 64.9105C76.3492 64.9105 75.7914 65.464 75.7914 66.1469C75.7914 66.8298 76.3492 67.3834 77.0373 67.3834Z" fill="#8118B4"/>
<path d="M46.3208 73.3708C46.5605 73.3708 46.7548 73.178 46.7548 72.9401C46.7548 72.7023 46.5605 72.5095 46.3208 72.5095C46.0811 72.5095 45.8868 72.7023 45.8868 72.9401C45.8868 73.178 46.0811 73.3708 46.3208 73.3708Z" fill="#FF73A7"/>
<path d="M34.5903 78.1554C35.0696 78.1554 35.4583 77.7697 35.4583 77.294C35.4583 76.8182 35.0696 76.4326 34.5903 76.4326C34.1109 76.4326 33.7223 76.8182 33.7223 77.294C33.7223 77.7697 34.1109 78.1554 34.5903 78.1554Z" fill="#FFA600"/>
<path d="M59.9537 82.8646C60.3068 82.8646 60.5931 82.5805 60.5931 82.2301C60.5931 81.8796 60.3068 81.5955 59.9537 81.5955C59.6005 81.5955 59.3143 81.8796 59.3143 82.2301C59.3143 82.5805 59.6005 82.8646 59.9537 82.8646Z" fill="#8118B4"/>
<path d="M38.4033 131.095C38.8975 131.095 39.2982 130.697 39.2982 130.207C39.2982 129.716 38.8975 129.318 38.4033 129.318C37.909 129.318 37.5084 129.716 37.5084 130.207C37.5084 130.697 37.909 131.095 38.4033 131.095Z" fill="#FF73A7"/>
<path d="M11.6928 117.741C12.187 117.741 12.5877 117.343 12.5877 116.853C12.5877 116.362 12.187 115.964 11.6928 115.964C11.1985 115.964 10.7979 116.362 10.7979 116.853C10.7979 117.343 11.1985 117.741 11.6928 117.741Z" fill="#FF73A7"/>
<path d="M48.2975 126.629C48.522 126.629 48.704 126.448 48.704 126.226C48.704 126.003 48.522 125.822 48.2975 125.822C48.0729 125.822 47.8909 126.003 47.8909 126.226C47.8909 126.448 48.0729 126.629 48.2975 126.629Z" fill="#B8E4FA"/>
<path d="M17.4441 122.897C17.7337 122.897 17.9685 122.664 17.9685 122.377C17.9685 122.089 17.7337 121.856 17.4441 121.856C17.1545 121.856 16.9197 122.089 16.9197 122.377C16.9197 122.664 17.1545 122.897 17.4441 122.897Z" fill="#B8E4FA"/>
<path d="M23.7338 108.176C24.0234 108.176 24.2582 107.943 24.2582 107.656C24.2582 107.368 24.0234 107.135 23.7338 107.135C23.4441 107.135 23.2094 107.368 23.2094 107.656C23.2094 107.943 23.4441 108.176 23.7338 108.176Z" fill="#FFA600"/>
<path d="M33.6985 118.657C33.9881 118.657 34.2229 118.424 34.2229 118.137C34.2229 117.849 33.9881 117.616 33.6985 117.616C33.4089 117.616 33.1741 117.849 33.1741 118.137C33.1741 118.424 33.4089 118.657 33.6985 118.657Z" fill="#8118B4"/>
<path d="M55.4152 108.823C55.9094 108.823 56.3101 108.425 56.3101 107.935C56.3101 107.444 55.9094 107.047 55.4152 107.047C54.9209 107.047 54.5203 107.444 54.5203 107.935C54.5203 108.425 54.9209 108.823 55.4152 108.823Z" fill="#FF73A7"/>
<path d="M28.7046 95.4677C29.1989 95.4677 29.5995 95.0701 29.5995 94.5796C29.5995 94.0891 29.1989 93.6914 28.7046 93.6914C28.2104 93.6914 27.8097 94.0891 27.8097 94.5796C27.8097 95.0701 28.2104 95.4677 28.7046 95.4677Z" fill="#FF73A7"/>
<path d="M65.3102 104.356C65.5348 104.356 65.7168 104.175 65.7168 103.953C65.7168 103.73 65.5348 103.549 65.3102 103.549C65.0857 103.549 64.9037 103.73 64.9037 103.953C64.9037 104.175 65.0857 104.356 65.3102 104.356Z" fill="#B8E4FA"/>
<path d="M34.4559 100.624C34.7455 100.624 34.9803 100.391 34.9803 100.103C34.9803 99.8161 34.7455 99.5831 34.4559 99.5831C34.1663 99.5831 33.9315 99.8161 33.9315 100.103C33.9315 100.391 34.1663 100.624 34.4559 100.624Z" fill="#B8E4FA"/>
<path d="M40.7455 85.9031C41.0351 85.9031 41.2699 85.6701 41.2699 85.3827C41.2699 85.0953 41.0351 84.8622 40.7455 84.8622C40.4559 84.8622 40.2211 85.0953 40.2211 85.3827C40.2211 85.6701 40.4559 85.9031 40.7455 85.9031Z" fill="#FFA600"/>
<path d="M50.7103 96.3841C50.9999 96.3841 51.2347 96.1511 51.2347 95.8636C51.2347 95.5762 50.9999 95.3432 50.7103 95.3432C50.4206 95.3432 50.1859 95.5762 50.1859 95.8636C50.1859 96.1511 50.4206 96.3841 50.7103 96.3841Z" fill="#8118B4"/>
<path d="M129.998 124.213C130.492 124.213 130.893 123.816 130.893 123.325C130.893 122.835 130.492 122.437 129.998 122.437C129.503 122.437 129.103 122.835 129.103 123.325C129.103 123.816 129.503 124.213 129.998 124.213Z" fill="#FF73A7"/>
<path d="M147.271 110.11C147.766 110.11 148.166 109.712 148.166 109.222C148.166 108.731 147.766 108.333 147.271 108.333C146.777 108.333 146.377 108.731 146.377 109.222C146.377 109.712 146.777 110.11 147.271 110.11Z" fill="#FF73A7"/>
<path d="M125.84 133.488C126.065 133.488 126.247 133.307 126.247 133.085C126.247 132.862 126.065 132.681 125.84 132.681C125.616 132.681 125.434 132.862 125.434 133.085C125.434 133.307 125.616 133.488 125.84 133.488Z" fill="#B8E4FA"/>
<path d="M140.717 114.676C141.007 114.676 141.241 114.443 141.241 114.155C141.241 113.868 141.007 113.635 140.717 113.635C140.427 113.635 140.193 113.868 140.193 114.155C140.193 114.443 140.427 114.676 140.717 114.676Z" fill="#B8E4FA"/>
<path d="M137.077 128.537C137.367 128.537 137.601 128.304 137.601 128.016C137.601 127.729 137.367 127.496 137.077 127.496C136.787 127.496 136.552 127.729 136.552 128.016C136.552 128.304 136.787 128.537 137.077 128.537Z" fill="#FFA600"/>
<path d="M132.243 129.081C132.533 129.081 132.768 128.848 132.768 128.561C132.768 128.273 132.533 128.04 132.243 128.04C131.953 128.04 131.719 128.273 131.719 128.561C131.719 128.848 131.953 129.081 132.243 129.081Z" fill="#8118B4"/>
<path d="M17.1605 75.3942C17.4589 75.3942 17.7009 75.1541 17.7009 74.8579C17.7009 74.5618 17.4589 74.3217 17.1605 74.3217C16.8621 74.3217 16.6201 74.5618 16.6201 74.8579C16.6201 75.1541 16.8621 75.3942 17.1605 75.3942Z" fill="#FFA600"/>
<path d="M21.923 69.9884C22.1435 69.9884 22.3222 69.811 22.3222 69.5922C22.3222 69.3735 22.1435 69.1961 21.923 69.1961C21.7026 69.1961 21.5239 69.3735 21.5239 69.5922C21.5239 69.811 21.7026 69.9884 21.923 69.9884Z" fill="#B8E4FA"/>
<path d="M27.4898 87.1685C27.866 87.1685 28.171 86.8659 28.171 86.4925C28.171 86.1192 27.866 85.8165 27.4898 85.8165C27.1136 85.8165 26.8087 86.1192 26.8087 86.4925C26.8087 86.8659 27.1136 87.1685 27.4898 87.1685Z" fill="#FF73A7"/>
<path d="M22.7451 83.0937C22.9655 83.0937 23.1442 82.9163 23.1442 82.6976C23.1442 82.4788 22.9655 82.3014 22.7451 82.3014C22.5247 82.3014 22.3459 82.4788 22.3459 82.6976C22.3459 82.9163 22.5247 83.0937 22.7451 83.0937Z" fill="#B8E4FA"/>
<path d="M18.9956 94.6794C19.2161 94.6794 19.3948 94.502 19.3948 94.2833C19.3948 94.0645 19.2161 93.8871 18.9956 93.8871C18.7752 93.8871 18.5965 94.0645 18.5965 94.2833C18.5965 94.502 18.7752 94.6794 18.9956 94.6794Z" fill="#FFA600"/>
<path d="M10.7187 87.4146C10.9391 87.4146 11.1178 87.2372 11.1178 87.0184C11.1178 86.7997 10.9391 86.6223 10.7187 86.6223C10.4982 86.6223 10.3195 86.7997 10.3195 87.0184C10.3195 87.2372 10.4982 87.4146 10.7187 87.4146Z" fill="#8118B4"/>
<path d="M24.1335 77.5715C24.5674 77.5715 24.9191 77.2224 24.9191 76.7918C24.9191 76.3612 24.5674 76.0121 24.1335 76.0121C23.6996 76.0121 23.3478 76.3612 23.3478 76.7918C23.3478 77.2224 23.6996 77.5715 24.1335 77.5715Z" fill="#FF73A7"/>
<path d="M32.8158 73.6519C33.0129 73.6519 33.1727 73.4933 33.1727 73.2976C33.1727 73.102 33.0129 72.9434 32.8158 72.9434C32.6187 72.9434 32.4589 73.102 32.4589 73.2976C32.4589 73.4933 32.6187 73.6519 32.8158 73.6519Z" fill="#B8E4FA"/>
<path d="M11.2567 57.4543C11.511 57.4543 11.7172 57.2497 11.7172 56.9973C11.7172 56.7449 11.511 56.5403 11.2567 56.5403C11.0024 56.5403 10.7963 56.7449 10.7963 56.9973C10.7963 57.2497 11.0024 57.4543 11.2567 57.4543Z" fill="#FFA600"/>
<path d="M20.0048 66.6539C20.2591 66.6539 20.4653 66.4493 20.4653 66.197C20.4653 65.9446 20.2591 65.74 20.0048 65.74C19.7505 65.74 19.5444 65.9446 19.5444 66.197C19.5444 66.4493 19.7505 66.6539 20.0048 66.6539Z" fill="#8118B4"/>
<path d="M30.6529 25.4435C30.7667 25.4435 30.859 25.3519 30.859 25.2389C30.859 25.1259 30.7667 25.0343 30.6529 25.0343C30.539 25.0343 30.4467 25.1259 30.4467 25.2389C30.4467 25.3519 30.539 25.4435 30.6529 25.4435Z" fill="#B8E4FA"/>
<path d="M39.0814 21.8875C39.2758 21.8875 39.4333 21.7311 39.4333 21.5382C39.4333 21.3454 39.2758 21.189 39.0814 21.189C38.8871 21.189 38.7295 21.3454 38.7295 21.5382C38.7295 21.7311 38.8871 21.8875 39.0814 21.8875Z" fill="#FF73A7"/>
<path d="M28.5838 14.3189C28.7782 14.3189 28.9357 14.1626 28.9357 13.9697C28.9357 13.7768 28.7782 13.6205 28.5838 13.6205C28.3895 13.6205 28.2319 13.7768 28.2319 13.9697C28.2319 14.1626 28.3895 14.3189 28.5838 14.3189Z" fill="#FF73A7"/>
<path d="M42.9698 20.1312C43.0581 20.1312 43.1296 20.0602 43.1296 19.9726C43.1296 19.885 43.0581 19.8139 42.9698 19.8139C42.8815 19.8139 42.8099 19.885 42.8099 19.9726C42.8099 20.0602 42.8815 20.1312 42.9698 20.1312Z" fill="#B8E4FA"/>
<path d="M30.8431 18.6648C30.9569 18.6648 31.0492 18.5732 31.0492 18.4602C31.0492 18.3472 30.9569 18.2556 30.8431 18.2556C30.7293 18.2556 30.637 18.3472 30.637 18.4602C30.637 18.5732 30.7293 18.6648 30.8431 18.6648Z" fill="#B8E4FA"/>
<path d="M33.3178 12.8783C33.4317 12.8783 33.524 12.7867 33.524 12.6737C33.524 12.5607 33.4317 12.4691 33.3178 12.4691C33.204 12.4691 33.1117 12.5607 33.1117 12.6737C33.1117 12.7867 33.204 12.8783 33.3178 12.8783Z" fill="#FFA600"/>
<path d="M37.2364 16.9985C37.3502 16.9985 37.4425 16.9069 37.4425 16.7939C37.4425 16.6809 37.3502 16.5893 37.2364 16.5893C37.1225 16.5893 37.0302 16.6809 37.0302 16.7939C37.0302 16.9069 37.1225 16.9985 37.2364 16.9985Z" fill="#8118B4"/>
<path d="M22.2136 54.6715C22.5777 54.6715 22.8728 54.3786 22.8728 54.0173C22.8728 53.656 22.5777 53.3631 22.2136 53.3631C21.8495 53.3631 21.5544 53.656 21.5544 54.0173C21.5544 54.3786 21.8495 54.6715 22.2136 54.6715Z" fill="#FF73A7"/>
<path d="M18.4061 30.8384C18.7702 30.8384 19.0653 30.5455 19.0653 30.1842C19.0653 29.8229 18.7702 29.53 18.4061 29.53C18.042 29.53 17.7469 29.8229 17.7469 30.1842C17.7469 30.5455 18.042 30.8384 18.4061 30.8384Z" fill="#FF73A7"/>
<path d="M29.458 57.3552C29.6234 57.3552 29.7575 57.2222 29.7575 57.058C29.7575 56.8939 29.6234 56.7609 29.458 56.7609C29.2927 56.7609 29.1586 56.8939 29.1586 57.058C29.1586 57.2222 29.2927 57.3552 29.458 57.3552Z" fill="#B8E4FA"/>
<path d="M15.407 39.4891C15.6204 39.4891 15.7933 39.3175 15.7933 39.1058C15.7933 38.8941 15.6204 38.7225 15.407 38.7225C15.1937 38.7225 15.0208 38.8941 15.0208 39.1058C15.0208 39.3175 15.1937 39.4891 15.407 39.4891Z" fill="#B8E4FA"/>
<path d="M26.407 35.0735C26.6203 35.0735 26.7932 34.9019 26.7932 34.6901C26.7932 34.4784 26.6203 34.3068 26.407 34.3068C26.1936 34.3068 26.0207 34.4784 26.0207 34.6901C26.0207 34.9019 26.1936 35.0735 26.407 35.0735Z" fill="#FFA600"/>
<path d="M26.1017 45.6837C26.315 45.6837 26.4879 45.512 26.4879 45.3003C26.4879 45.0886 26.315 44.917 26.1017 44.917C25.8883 44.917 25.7154 45.0886 25.7154 45.3003C25.7154 45.512 25.8883 45.6837 26.1017 45.6837Z" fill="#8118B4"/>
<path d="M86.3905 22.345C86.6038 22.345 86.7768 22.1733 86.7768 21.9616C86.7768 21.7499 86.6038 21.5783 86.3905 21.5783C86.1772 21.5783 86.0043 21.7499 86.0043 21.9616C86.0043 22.1733 86.1772 22.345 86.3905 22.345Z" fill="#B8E4FA"/>
<path d="M97.1351 9.19717C97.4992 9.19717 97.7943 8.90428 97.7943 8.54297C97.7943 8.18166 97.4992 7.88876 97.1351 7.88876C96.771 7.88876 96.4759 8.18166 96.4759 8.54297C96.4759 8.90428 96.771 9.19717 97.1351 9.19717Z" fill="#FF73A7"/>
<path d="M80.7643 10.9286C80.9776 10.9286 81.1506 10.757 81.1506 10.5453C81.1506 10.3336 80.9776 10.162 80.7643 10.162C80.551 10.162 80.3781 10.3336 80.3781 10.5453C80.3781 10.757 80.551 10.9286 80.7643 10.9286Z" fill="#B8E4FA"/>
<path d="M124.208 91.0363C124.323 91.0363 124.416 90.9439 124.416 90.8301C124.416 90.7162 124.323 90.6238 124.208 90.6238C124.094 90.6238 124.001 90.7162 124.001 90.8301C124.001 90.9439 124.094 91.0363 124.208 91.0363Z" fill="#B8E4FA"/>
<path d="M129.993 83.9605C130.189 83.9605 130.348 83.8028 130.348 83.6084C130.348 83.4139 130.189 83.2563 129.993 83.2563C129.797 83.2563 129.638 83.4139 129.638 83.6084C129.638 83.8028 129.797 83.9605 129.993 83.9605Z" fill="#FF73A7"/>
<path d="M117.044 82.0772C117.24 82.0772 117.398 81.9196 117.398 81.7251C117.398 81.5307 117.24 81.373 117.044 81.373C116.848 81.373 116.689 81.5307 116.689 81.7251C116.689 81.9196 116.848 82.0772 117.044 82.0772Z" fill="#FF73A7"/>
<path d="M132.729 80.5631C132.818 80.5631 132.89 80.4915 132.89 80.4032C132.89 80.315 132.818 80.2434 132.729 80.2434C132.64 80.2434 132.568 80.315 132.568 80.4032C132.568 80.4915 132.64 80.5631 132.729 80.5631Z" fill="#B8E4FA"/>
<path d="M121.18 84.8926C121.294 84.8926 121.387 84.8003 121.387 84.6864C121.387 84.5725 121.294 84.4801 121.18 84.4801C121.065 84.4801 120.972 84.5725 120.972 84.6864C120.972 84.8003 121.065 84.8926 121.18 84.8926Z" fill="#B8E4FA"/>
<path d="M120.659 78.5752C120.774 78.5752 120.867 78.4828 120.867 78.3689C120.867 78.2551 120.774 78.1627 120.659 78.1627C120.544 78.1627 120.451 78.2551 120.451 78.3689C120.451 78.4828 120.544 78.5752 120.659 78.5752Z" fill="#FFA600"/>
<path d="M126.105 80.4343C126.219 80.4343 126.312 80.3419 126.312 80.228C126.312 80.1142 126.219 80.0218 126.105 80.0218C125.99 80.0218 125.897 80.1142 125.897 80.228C125.897 80.3419 125.99 80.4343 126.105 80.4343Z" fill="#8118B4"/>
<path d="M97.2568 103.074C94.4712 102.568 54.3655 108.367 54.3655 108.367C54.3655 108.367 54.5534 133.991 54.8765 146.688C61.6119 149.461 69.0026 150.994 76.7572 150.994C88.1592 150.994 98.7749 147.681 107.674 141.982C108.149 134.546 108.475 122.46 108.38 116.476C108.348 114.45 101.26 103.801 97.2568 103.074Z" fill="url(#paint0_linear)"/>
<path d="M85.5112 140.859C85.4444 139.129 84.814 137.168 84.1466 135.093C83.2838 132.41 82.392 129.636 82.5769 127.08C82.7358 124.889 82.42 121.678 82.1664 119.098C82.0887 118.306 82.0174 117.583 81.97 116.984L79.5792 117.168C79.6277 117.78 79.7 118.518 79.7797 119.326C80.0245 121.818 80.3293 124.919 80.1848 126.912C79.9669 129.92 80.973 133.048 81.8606 135.808C82.4778 137.727 83.0603 139.539 83.1152 140.949C83.2182 143.614 83.3018 146.968 83.3589 149.615C84.1612 149.524 84.9587 149.417 85.7505 149.293C85.6933 146.68 85.6114 143.447 85.5112 140.859Z" fill="#6392F8"/>
<path opacity="0.1" d="M79.6027 105.565L80.2566 103.809C68.2568 105.359 54.3655 107.367 54.3655 107.367C54.3655 107.367 54.5534 132.987 54.8765 145.688C59.6168 147.639 64.6824 148.974 69.9707 149.595C68.4035 147.855 67.3111 146.096 67.3111 144.364C67.3111 140.196 71.8914 139.646 71.3807 135.185C70.969 131.589 69.9533 128.654 70.8669 125.105C71.7803 121.557 74.578 115.364 79.6027 105.565Z" fill="#351656"/>
</g>
<path fill-rule="evenodd" clip-rule="evenodd" d="M78 150.368C117.968 150.368 150.368 117.968 150.368 78C150.368 38.0321 117.968 5.63177 78 5.63177C38.0321 5.63177 5.63177 38.0321 5.63177 78C5.63177 117.968 38.0321 150.368 78 150.368ZM78 156C121.078 156 156 121.078 156 78C156 34.9218 121.078 0 78 0C34.9218 0 0 34.9218 0 78C0 121.078 34.9218 156 78 156Z" fill="#993399"/>
<path d="M55.8503 113.787C53.4989 112.62 53.2829 109.633 53.8797 108.168C54.1208 107.575 70.4889 113.914 84.7417 109.817C90.9612 108.029 100.386 101.523 100.386 101.523C102.012 103.1 102.009 105.631 99.6146 108.122C91.2783 116.794 74.0074 122.796 55.8503 113.787Z" fill="#6392F8"/>
<path opacity="0.15" d="M96.7846 105.725C94.0843 107.075 91.5779 108.214 91.5779 108.214C92.3479 111.208 94.1015 112.765 95.4047 113.407C97.2032 114.294 99.584 113.916 100.657 113.717C101.73 113.519 104.621 112.064 105.682 110.958C105.883 110.749 103.379 106.904 101.458 104.947C101.458 104.947 101.619 103.822 101.27 102.845C101.06 102.259 97.6073 105.313 96.7846 105.725Z" fill="#351656"/>
<path opacity="0.15" d="M84.7422 109.817C70.4896 113.914 54.1212 107.575 53.8803 108.167C53.2835 109.633 53.4995 112.62 55.8509 113.787C61.9113 116.794 67.8723 118.127 73.4359 118.248C74.0133 118.26 73.4675 115.188 75.681 114.8C78.5756 114.293 84.7422 112.435 85.5987 111.084C85.8496 110.688 86.0234 110.07 86.1087 109.367C85.6406 109.538 85.1828 109.69 84.7422 109.817Z" fill="#351656"/>
<path d="M116.475 65.1832C121.733 84.1803 107.536 104.549 84.7659 110.678C61.9961 116.807 39.2757 106.375 34.0184 87.3778C28.7612 68.3809 42.9579 48.0121 65.7279 41.8832C88.4978 35.7543 111.218 46.186 116.475 65.1832Z" fill="url(#paint1_linear)"/>
<path opacity="0.1" d="M60.5807 43.6163C40.8694 51.2229 29.1696 69.9106 34.0184 87.4318C39.2756 106.429 61.996 116.861 84.7658 110.732C85.6825 110.485 86.5838 110.213 87.4722 109.921C89.612 108.702 96.2213 88.8741 88.9666 72.1181C87.5541 68.8555 85.2817 65.9111 83.2759 62.7962C75.2467 50.3268 68.5862 55.3504 63.9977 51.9234C59.8046 48.7918 60.8875 43.4979 60.5807 43.6163Z" fill="#351656"/>
<path d="M39.2455 101.187C44.6477 99.7331 47.7549 93.9576 46.1857 88.2872C44.6164 82.6169 38.965 79.199 33.5628 80.6531C28.1606 82.1072 25.0534 87.8828 26.6226 93.5531C28.1919 99.2235 33.8434 102.641 39.2455 101.187Z" fill="#6392F8"/>
<path d="M42.1467 89.3755C43.4528 94.0952 41.4008 98.7588 37.5632 99.7916C33.7258 100.825 29.556 97.8358 28.2498 93.116C26.9437 88.3963 28.9957 83.7327 32.8333 82.6999C36.6709 81.667 40.8405 84.6557 42.1467 89.3755Z" fill="url(#paint2_linear)"/>
<path d="M102.595 106.13C101.185 118.179 107.77 129.54 108.739 129.751C109.708 129.962 125.638 121.789 130.319 114.017C135.03 106.198 136.814 95.1036 136.472 93.2452C136.129 91.387 117.738 88.083 116.145 89.4606C114.561 90.8306 112.727 100.326 105.446 103.778C103.166 104.859 102.595 106.13 102.595 106.13Z" fill="url(#paint3_linear)"/>
<path d="M58.9868 122.602C58.4973 120.909 57.5641 118.658 56.669 116.66C55.4503 113.939 52.178 112.731 49.4725 114.045C39.6076 118.834 32.7759 125.958 29.3191 134.735C25.8493 143.545 28.5887 156.822 35.8168 162.158C38.1449 163.877 42.6264 167.992 44.1958 167.349C45.9365 166.635 44.9569 165.318 45.7575 164.956C46.5496 164.598 47.5846 166.479 48.8749 165.809C50.5477 164.941 49.7614 163.623 50.3472 163.169C51.3121 162.421 52.6965 164.261 54.3044 162.692C55.4795 161.545 54.1404 160.1 54.5695 159.562C54.8464 159.215 57.389 159.267 57.824 157.808C58.2702 156.311 56.3397 153.915 55.6291 152.236C55.5486 152.046 55.4879 151.852 55.4344 151.653C55.3165 151.214 55.0042 150.129 55.2601 149.12C55.8063 146.97 57.5859 146.405 56.6374 144.366C56.1244 143.264 54.8294 142.751 53.7032 143.238C53.7032 143.238 52.0441 144.075 51.1904 143.131C49.1598 140.885 57.231 138.569 58.2497 135.852C58.8617 134.221 60.9573 129.414 58.9868 122.602Z" fill="url(#paint4_linear)"/>
<path d="M41.8746 118.534C42.8542 116.895 45.5581 114.575 48.5959 113.614C54.5886 111.72 63.174 118.155 63.3705 126.631C63.5488 134.328 55.9219 140.14 54.6801 139.929C53.9471 139.805 53.598 139.706 53.598 139.706C53.598 139.706 61.1783 132.886 58.1346 123.585C56.9354 119.921 52.9482 116.692 50.2572 116.154C45.9405 115.291 41.8746 118.534 41.8746 118.534Z" fill="#6392F8"/>
<path d="M105.048 103.951C94.5479 106.565 104.611 130.123 108.739 130.117C109.237 130.116 109.871 130.076 110.493 129.755C111.463 129.253 111.719 128.37 111.719 128.37C111.719 128.37 106.933 124.105 104.783 114.857C103.672 110.078 105.048 103.951 105.048 103.951Z" fill="#6392F8"/>
<path d="M29.328 152.503L28.6133 149.994C34.425 141.307 45.9449 140.324 51.5741 141.133C51.5741 141.133 51.1179 141.611 50.9228 142.042C50.7638 142.394 50.9736 142.822 50.9736 142.822C45.7569 142.073 34.7024 144.469 29.328 152.503Z" fill="#6392F8"/>
<path d="M114.01 65.896C116.494 71.9875 115.704 84.505 112.707 88.9645C108.397 95.3767 87.0258 103.996 73.2649 104.558C63.347 104.963 55.5551 99.3617 51.6311 90.23C44.3074 73.1877 57.4311 61.2195 74.3495 54.5083C91.268 47.7972 109.041 53.7131 114.01 65.896Z" fill="#6392F8"/>
<path d="M111.97 66.685C114.222 72.2075 113.718 83.7839 110.662 87.6492C106.068 93.4584 83.0319 102.043 74.3611 102.002C65.2377 101.958 58.1207 97.3636 54.5607 89.0858C47.9166 73.6369 60.0279 62.702 75.599 56.5253C91.1701 50.3486 107.465 55.6398 111.97 66.685Z" fill="url(#paint5_radial)"/>
<path d="M37.2877 90.5909C37.7448 92.2428 37.0266 93.875 35.6835 94.2366C34.3403 94.5981 32.881 93.5521 32.4237 91.9C31.9666 90.2482 32.6848 88.6159 34.0279 88.2544C35.3711 87.8928 36.8306 88.939 37.2877 90.5909Z" fill="url(#paint6_linear)"/>
<path d="M63.165 42.531C63.4446 43.1729 62.0579 44.067 60.1899 44.9185C58.3221 45.77 56.5911 46.0018 56.3189 45.4391C55.8219 44.4117 56.891 42.739 58.7588 41.8875C60.6266 41.0362 62.6329 41.3095 63.165 42.531Z" fill="url(#paint7_linear)"/>
<path d="M58.0152 42.4474L53.4329 32.6715L55.2986 31.8208L59.881 41.5968C60.0096 41.8712 59.8882 42.1966 59.6099 42.3234L58.7519 42.7146C58.4736 42.8415 58.1438 42.7219 58.0152 42.4474Z" fill="url(#paint8_linear)"/>
<path d="M54.011 34.7042C55.8117 34.7042 57.2714 33.2646 57.2714 31.4887C57.2714 29.7128 55.8117 28.2732 54.011 28.2732C52.2103 28.2732 50.7505 29.7128 50.7505 31.4887C50.7505 33.2646 52.2103 34.7042 54.011 34.7042Z" fill="url(#paint9_radial)"/>
<path opacity="0.1" d="M48.5956 113.615C45.5577 114.575 42.8539 116.896 41.8743 118.534C41.8743 118.534 42.4358 118.087 43.3618 117.569C36.7445 122.076 32.0096 127.905 29.3193 134.735C27.5566 139.21 27.3993 144.837 28.6156 149.991C28.6149 149.992 28.6142 149.993 28.6136 149.994L28.6332 150.063C28.8289 150.883 29.0568 151.691 29.3213 152.479L29.3282 152.503C29.3284 152.503 29.3285 152.503 29.3287 152.503C30.6664 156.481 32.8678 159.981 35.817 162.158C38.1451 163.877 42.6266 167.992 44.196 167.349C45.9367 166.635 44.9571 165.318 45.7577 164.956C46.5498 164.598 47.5848 166.478 48.8751 165.809C50.5478 164.941 49.7616 163.622 50.3474 163.169C51.3121 162.421 52.6966 164.261 54.3045 162.692C54.4856 162.515 54.6014 162.331 54.6787 162.145C54.5337 162.008 54.42 161.91 54.3655 161.877C54.0229 161.669 48.3133 157.822 46.2393 156.358C44.1653 154.894 43.2887 148.475 39.6536 147.574C36.0186 146.673 34.8382 142.28 36.4038 139.935C37.9693 137.59 37.2363 136.762 34.3619 134.144C31.4873 131.527 37.4647 126.513 41.9538 122.444C45.8676 118.896 51.6091 117.265 55.5141 114.493C53.2106 113.329 50.738 112.937 48.5956 113.615Z" fill="#351656"/>
<path opacity="0.3" d="M51.6311 90.2294C55.5553 99.361 63.3565 105.143 73.2649 104.558C74.6626 104.475 85.7509 103.117 91.0024 100.954C91.6507 97.2874 90.0162 89.8234 87.8252 87.6496C81.9606 81.8309 78.0615 83.8855 71.3811 80.6656C64.7006 77.4458 68.8685 68.6611 73.3931 64.1141C77.4232 60.0639 80.2571 57.8631 74.3497 54.5079C57.4311 61.2188 44.3074 73.1871 51.6311 90.2294Z" fill="#351656"/>
<path d="M98.4159 120.868C98.7983 122.648 98.0231 123.74 96.0904 124.144C95.5857 124.249 95.2453 124.655 95.3304 125.051L95.6082 126.344C95.6931 126.739 95.3528 127.145 94.8481 127.251L94.8403 127.253C94.3356 127.358 93.8574 127.123 93.7724 126.727L92.3594 120.151C92.2744 119.755 92.6147 119.349 93.1194 119.243L95.0475 118.84C95.9773 118.646 96.7458 118.76 97.3532 119.182C97.9012 119.559 98.2554 120.121 98.4159 120.868ZM96.5741 121.224C96.4651 120.717 96.2123 120.399 95.8155 120.27C95.7644 120.254 95.7081 120.241 95.6473 120.232C94.9999 120.13 94.3814 120.634 94.4931 121.155L94.6926 122.083C94.8201 122.676 95.7882 122.849 96.2846 122.346C96.5749 122.051 96.6715 121.677 96.5741 121.224Z" fill="#6392F8"/>
<path opacity="0.1" d="M116.145 89.4606C114.561 90.8305 112.878 100.262 105.597 103.714C105.214 103.896 104.784 103.924 104.49 104.12C101.042 105.313 100.03 108.93 100.533 113.664C100.533 113.664 105.997 108.909 111.72 109.891C118.667 111.084 117.912 105.965 119.914 104.619C123.711 102.066 134.483 101.958 135.673 99.7588C135.922 99.2975 136.331 94.496 137.264 91.6989C131.597 90.2588 117.214 88.5362 116.145 89.4606Z" fill="#351656"/>
<ellipse cx="121.346" cy="83.3459" rx="19.3459" ry="19.3459" fill="#FFCE4F"/>
<ellipse cx="121.348" cy="82.243" rx="13.8185" ry="13.8185" fill="#FA8A00"/>
<ellipse cx="121.348" cy="83.349" rx="13.8185" ry="13.8185" fill="#FFAC00"/>
<path d="M131.054 74.1434C131.248 75.948 132.431 75.4537 132.554 76.2926C132.674 77.1227 130.928 77.5181 131.209 78.8931C131.572 80.6756 132.781 80.5076 133.054 81.1717C133.502 82.2654 131.617 82.8495 132.678 84.7584C133.453 86.1535 134.937 85.6304 135.393 86.1251C135.989 86.7714 135.067 88.6148 136.406 89.3227C138.391 90.3712 141.585 90.4415 142.179 87.4121C142.645 85.0397 141.87 82.123 140.975 79.1437C140.223 76.6422 139.211 74.3964 138.078 72.5679C136.97 70.7811 134.49 70.3846 132.861 71.7313C131.757 72.644 130.985 73.5042 131.054 74.1434Z" fill="url(#paint10_linear)"/>
<path d="M82.809 121.039L80.024 121.505C79.4401 121.603 78.932 120.922 79.0841 120.245L79.895 116.635C80.0636 115.884 80.8898 115.746 81.3002 116.399L83.2742 119.543C83.6443 120.132 83.3929 120.941 82.809 121.039Z" fill="#6392F8"/>
<defs>
<linearGradient id="paint0_linear" x1="54.3655" y1="127.019" x2="108.396" y2="127.019" gradientUnits="userSpaceOnUse">
<stop stop-color="#B2C0FF"/>
<stop offset="1" stop-color="#C7E8FF"/>
</linearGradient>
<linearGradient id="paint1_linear" x1="39.5669" y1="107.991" x2="116.635" y2="37.5707" gradientUnits="userSpaceOnUse">
<stop stop-color="#B2C0FF"/>
<stop offset="0.5922" stop-color="#C0DBFF"/>
<stop offset="1" stop-color="#C7E8FF"/>
</linearGradient>
<linearGradient id="paint2_linear" x1="27.8729" y1="90.9316" x2="42.4754" y2="90.3752" gradientUnits="userSpaceOnUse">
<stop stop-color="#B2C0FF"/>
<stop offset="1" stop-color="#C7E8FF"/>
</linearGradient>
<linearGradient id="paint3_linear" x1="102.398" y1="109.444" x2="136.513" y2="109.444" gradientUnits="userSpaceOnUse">
<stop stop-color="#B2C0FF"/>
<stop offset="1" stop-color="#C7E8FF"/>
</linearGradient>
<linearGradient id="paint4_linear" x1="27.5795" y1="142.637" x2="61.1159" y2="138.905" gradientUnits="userSpaceOnUse">
<stop stop-color="#B2C0FF"/>
<stop offset="1" stop-color="#C7E8FF"/>
</linearGradient>
<radialGradient id="paint5_radial" cx="0" cy="0" r="1" gradientUnits="userSpaceOnUse" gradientTransform="translate(92.8634 59.733) scale(33.1673 32.7104)">
<stop offset="0.0181" stop-color="#A0568C"/>
<stop offset="0.0945" stop-color="#944F8C"/>
<stop offset="0.2033" stop-color="#8A498C"/>
<stop offset="0.3434" stop-color="#87478C"/>
<stop offset="0.5055" stop-color="#76418A"/>
<stop offset="0.8241" stop-color="#4B3284"/>
<stop offset="1" stop-color="#302980"/>
</radialGradient>
<linearGradient id="paint6_linear" x1="32.2907" y1="91.1337" x2="37.4016" y2="90.9389" gradientUnits="userSpaceOnUse">
<stop stop-color="#87478C"/>
<stop offset="0.1651" stop-color="#6B3D88"/>
<stop offset="0.3594" stop-color="#513485"/>
<stop offset="0.5601" stop-color="#3F2E82"/>
<stop offset="0.7692" stop-color="#342A80"/>
<stop offset="1" stop-color="#302980"/>
</linearGradient>
<linearGradient id="paint7_linear" x1="56.0882" y1="44.9437" x2="62.8193" y2="41.7886" gradientUnits="userSpaceOnUse">
<stop stop-color="#302980"/>
<stop offset="0.1893" stop-color="#352B81"/>
<stop offset="0.4236" stop-color="#453083"/>
<stop offset="0.6817" stop-color="#5E3986"/>
<stop offset="0.9551" stop-color="#81458B"/>
<stop offset="1" stop-color="#87478C"/>
</linearGradient>
<linearGradient id="paint8_linear" x1="53.4328" y1="37.293" x2="59.9324" y2="37.293" gradientUnits="userSpaceOnUse">
<stop stop-color="#87478C"/>
<stop offset="0.1651" stop-color="#6B3D88"/>
<stop offset="0.3594" stop-color="#513485"/>
<stop offset="0.5601" stop-color="#3F2E82"/>
<stop offset="0.7692" stop-color="#342A80"/>
<stop offset="1" stop-color="#302980"/>
</linearGradient>
<radialGradient id="paint9_radial" cx="0" cy="0" r="1" gradientUnits="userSpaceOnUse" gradientTransform="translate(54.7533 30.7566) scale(4.16097 4.10366)">
<stop stop-color="#87478C"/>
<stop offset="0.1651" stop-color="#6B3D88"/>
<stop offset="0.3594" stop-color="#513485"/>
<stop offset="0.5601" stop-color="#3F2E82"/>
<stop offset="0.7692" stop-color="#342A80"/>
<stop offset="1" stop-color="#302980"/>
</radialGradient>
<linearGradient id="paint10_linear" x1="138.369" y1="71.397" x2="135.432" y2="89.4492" gradientUnits="userSpaceOnUse">
<stop stop-color="#C7E8FF"/>
<stop offset="1" stop-color="#B2C0FF"/>
</linearGradient>
</defs>
</svg>
