<svg width="128" height="132" viewBox="0 0 128 132" fill="none" xmlns="http://www.w3.org/2000/svg">
<mask id="mask0" mask-type="alpha" maskUnits="userSpaceOnUse" x="0" y="0" width="128" height="132">
<path d="M0 20C0 8.9543 8.95431 0 20 0H108C119.046 0 128 8.95431 128 20V112C128 123.046 119.046 132 108 132H20C8.95431 132 0 123.046 0 112V20Z" fill="#C4B5B5"/>
</mask>
<g mask="url(#mask0)">
<mask id="mask1" mask-type="alpha" maskUnits="userSpaceOnUse" x="-90" y="-1" width="308" height="134">
<rect x="-90" y="-0.522705" width="308" height="133.045" rx="20" fill="white"/>
</mask>
<g mask="url(#mask1)">
<g filter="url(#filter0_d)">
<rect x="-90" y="-0.522705" width="308" height="133.045" rx="20" fill="#D9D0EC"/>
</g>
<path d="M181.517 -91.3787H-54.7515V144.89H181.517V-91.3787Z" fill="#D9D0EC"/>
<path d="M193.469 -63.6902C192.618 -77.4363 190.246 -92.9894 178.863 -100.741C173.541 -104.365 167.001 -105.657 160.622 -106.525C144.973 -108.653 129.124 -108.716 113.331 -108.761C72.2415 -108.877 31.1515 -108.894 -9.93855 -108.911C-19.9223 -108.915 -29.9108 -108.919 -39.8819 -108.412C-42.2526 -108.291 -44.7358 -108.106 -46.7445 -106.842C-48.6337 -105.653 -49.8529 -103.662 -50.9024 -101.692C-60.52 -83.636 -61.0511 -62.7002 -60.6022 -42.7213C-60.4477 -35.8501 -59.5772 -29.0139 -59.4908 -22.1404C-59.4095 -15.7143 -60.2298 -9.37856 -59.443 -2.96149C-57.4352 13.4157 -50.3306 29.4314 -39.467 42.0359C-29.9675 53.0579 -17.6636 59.3209 -4.8101 65.66C1.33904 68.6927 7.56094 71.9797 12.8198 76.4339C18.332 81.1021 21.1497 87.271 25.5349 92.795C30.0301 98.4574 35.8211 103.099 42.3643 106.183C56.1619 112.688 70.8461 111.398 83.555 103.071C92.9273 96.9302 101.243 88.8077 108.222 80.0695C115.57 70.8683 121.281 60.4167 129.35 51.782C145.256 34.7607 175.599 34.9568 186.608 13.1383C198.35 -10.1313 195.029 -38.5063 193.469 -63.6902Z" fill="#BCAEDA"/>
<path d="M63.6617 -124.255C23.0178 -123.862 -18.1752 -120.394 -55.6758 -104.966C-64.0147 -101.535 -62.7658 -97.3374 -62.822 -89.8921C-62.8887 -81.1406 -64.5392 -73.0513 -60.0667 -64.9047C-54.2403 -54.2934 -43.2755 -48.3097 -34.0142 -41.1403C-23.8013 -33.2338 -14.9346 -22.9764 -10.7276 -10.5988C-7.3338 -0.614052 -7.91455 9.8243 -5.21541 19.8884C-2.36884 30.5016 4.31473 39.5739 11.9859 47.2602C25.3162 60.6174 38.2297 73.5966 46.4585 90.8305C49.7521 97.7286 55.8317 106.304 63.8257 108.031" fill="#533593"/>
<path d="M63.6619 114.14C58.5188 116.292 53.6649 116.373 51.0669 111.688C48.0271 106.207 50.0146 99.7544 49.2188 93.7589C48.2775 86.668 45.7839 79.818 42.3741 73.5522C36.8582 63.4153 29.0726 54.7168 21.1364 46.3387C11.5901 36.2609 1.1258 25.2461 0.129219 11.4012C-0.314491 5.23597 1.21889 -0.941505 0.80542 -7.10907C0.199631 -16.1435 -4.53426 -24.4125 -10.1792 -31.492C-15.5056 -38.1713 -21.7512 -44.1149 -28.6757 -49.1172C-36.2184 -54.5656 -42.945 -60.0881 -49.8762 -66.3833C-54.2537 -70.3592 -58.4882 -74.5081 -62.9139 -78.4146C-66.8067 -81.8504 -70.9372 -85.6066 -71.2902 -91.1065C-71.55 -95.1599 -69.1708 -99.0423 -65.9538 -101.522C-62.7367 -104.002 -58.7722 -105.292 -54.8378 -106.301C-38.1917 -110.57 -20.7896 -110.569 -3.60477 -110.541C18.9339 -110.506 41.472 -110.47 64.0107 -110.434" fill="#5D3286"/>
<path d="M63.8188 -124.255C104.463 -123.862 145.656 -120.394 183.156 -104.966C191.495 -101.535 190.246 -97.3374 190.303 -89.8921C190.37 -81.1406 192.02 -73.0513 187.548 -64.9047C181.721 -54.2934 170.756 -48.3097 161.495 -41.1403C151.282 -33.2338 142.416 -22.9764 138.209 -10.5988C134.815 -0.614059 135.396 9.82431 132.696 19.8884C129.85 30.5016 123.166 39.5739 115.495 47.2602C102.165 60.6174 89.2512 73.5966 81.0225 90.8305C77.7289 97.7286 71.6492 106.304 63.6553 108.031" fill="#533593"/>
<path d="M63.8189 114.14C68.962 116.292 73.8159 116.373 76.414 111.688C79.4538 106.207 77.4663 99.7545 78.262 93.759C79.2033 86.6681 81.6974 79.8182 85.1068 73.5523C90.6227 63.4154 98.4082 54.7169 106.345 46.3389C115.891 36.261 126.355 25.2462 127.352 11.4013C127.795 5.23609 126.262 -0.941383 126.675 -7.10895C127.281 -16.1434 132.015 -24.4123 137.66 -31.4919C142.987 -38.1712 149.232 -44.1148 156.157 -49.1171C163.699 -54.5655 170.426 -60.088 177.357 -66.3832C181.735 -70.3591 185.969 -74.508 190.395 -78.4144C194.287 -81.8503 198.418 -85.606 198.771 -91.1063C199.031 -95.1598 196.651 -99.0421 193.434 -101.522C190.217 -104.002 186.253 -105.292 182.318 -106.301C165.672 -110.57 148.27 -110.569 131.085 -110.541C108.547 -110.505 86.0084 -110.47 63.4697 -110.434" fill="#5D3286"/>
<path opacity="0.1" d="M82.2755 63.4286C83.9417 52.7246 85.3224 41.7292 89.5134 31.8673C92.9166 23.7949 98.2473 17.057 103.364 10.0294C109.526 1.56534 112.439 -8.62494 112.959 -18.999C113.812 -36.0255 106.607 -54.1927 110.911 -70.8856C113.283 -80.0854 117.626 -88.7664 118.756 -98.2781C118.899 -99.476 118.962 -100.788 118.282 -101.785C117.381 -103.107 115.566 -103.356 113.969 -103.472C94.5402 -104.872 74.8553 -104.789 55.3758 -105.316C45.5126 -105.582 35.646 -105.688 25.7794 -105.714C20.8451 -105.727 15.9104 -105.72 10.9762 -105.703C8.64561 -105.695 -2.35601 -104.152 -3.82324 -105.631C18.7093 -82.9197 29.4453 -49.0865 24.1312 -17.5384C21.2543 -0.460899 17.8336 15.587 23.523 32.3786C25.9689 39.5971 29.6461 46.3378 33.9599 52.6018C39.1276 60.1057 46.0857 65.6382 50.2351 73.9359C56.0157 85.4966 56.0053 97.7726 56.2477 110.378C56.2944 112.801 56.4584 115.805 57.6941 117.957C58.4024 119.189 59.7478 120.168 61.1606 120.009C62.5603 119.851 63.6022 118.682 64.4675 117.571C75.4374 103.483 77.8346 87.847 81.0219 70.8597C81.4821 68.4105 81.8866 65.9274 82.2755 63.4286Z" fill="white"/>
<path d="M297.275 115.578H-169.162V147.158H297.275V115.578Z" fill="#D9D0EC"/>
<path d="M-10.2476 15.6593C-19.4569 23.0139 -29.1434 32.863 -29.6732 45.0441C-29.8759 49.7071 -28.2971 54.6044 -24.7597 57.649C-17.3125 64.058 -6.54243 59.912 2.18723 60.3127C20.9574 61.1742 39.3367 73.196 45.5709 91.1945" stroke="#606EC5" stroke-miterlimit="10" stroke-dasharray="4.95 4.95"/>
<path d="M45.9385 92.3083C46.0561 92.6831 46.1691 93.0606 46.2759 93.4405" stroke="#606EC5" stroke-miterlimit="10"/>
<path opacity="0.3" d="M60.9861 126.934C109.441 126.934 148.722 125.596 148.722 123.945C148.722 122.293 109.441 120.955 60.9861 120.955C12.5308 120.955 -26.75 122.293 -26.75 123.945C-26.75 125.596 12.5308 126.934 60.9861 126.934Z" fill="#7E799A"/>
<path d="M124.45 28.2495C125.329 28.2495 126.041 27.5376 126.041 26.6594C126.041 25.7812 125.329 25.0693 124.45 25.0693C123.572 25.0693 122.86 25.7812 122.86 26.6594C122.86 27.5376 123.572 28.2495 124.45 28.2495Z" fill="white"/>
<path d="M21.5442 7.67003C21.5442 8.10902 21.1884 8.46532 20.7489 8.46532C20.3099 8.46532 19.9536 8.10949 19.9536 7.67003C19.9536 7.23057 20.3094 6.87476 20.7489 6.87476C21.1879 6.87476 21.5442 7.23104 21.5442 7.67003Z" fill="white"/>
<path d="M37.6838 44.5549C37.6838 44.9939 37.328 45.3502 36.8885 45.3502C36.4496 45.3502 36.0933 44.9944 36.0933 44.5549C36.0933 44.1155 36.4491 43.7596 36.8885 43.7596C37.3275 43.7596 37.6838 44.1159 37.6838 44.5549Z" fill="white"/>
<path d="M71.987 33.0128C71.987 33.4518 71.6312 33.8081 71.1918 33.8081C70.7528 33.8081 70.3965 33.4523 70.3965 33.0128C70.3965 32.5738 70.7523 32.2175 71.1918 32.2175C71.6312 32.2175 71.987 32.5734 71.987 33.0128Z" fill="white"/>
<path d="M130.686 4.27852C133.835 4.27852 136.388 1.72582 136.388 -1.42311C136.388 -4.57204 133.835 -7.12476 130.686 -7.12476C127.537 -7.12476 124.984 -4.57204 124.984 -1.42311C124.984 1.72582 127.537 4.27852 130.686 4.27852Z" fill="white"/>
<path d="M77.0512 23.7579C81.252 25.3126 97.5069 39.3369 93.0166 49.2029C88.5263 59.0689 56.4352 54.2494 55.7079 59.0689C54.5932 66.4556 59.7056 72.6855 65.8576 76.0405C72.1688 79.482 79.4605 80.669 86.0312 83.5846C91.5433 86.0304 96.5083 89.6997 100.464 94.2507" stroke="#606EC5" stroke-miterlimit="10" stroke-dasharray="5 5"/>
<path d="M67.6812 112.851L143.023 117.481C144.348 117.563 145.291 118.801 145.018 120.1L144.771 121.271C144.546 122.342 143.559 123.079 142.467 122.99L67.6816 116.911V112.851H67.6812Z" fill="#3D508D"/>
<path d="M68.1517 108.755H52.9932V116.947H68.1517V108.755Z" fill="#B9B4D7"/>
<path d="M67.6809 112.851C67.6809 112.851 65.8734 116.567 60.6367 116.621C55.3212 116.675 56.4921 123 60.6367 123.145C64.7814 123.29 70.5988 121.786 71.1729 117.195C71.4957 114.611 67.6809 112.851 67.6809 112.851Z" fill="#3D508D"/>
<path d="M60.6367 108.792C60.6367 108.792 63.6217 103.572 82.614 101.688C101.607 99.8026 138.142 111.256 138.142 111.256L142.63 117.457L67.6808 112.851C67.6808 112.851 64.7558 109.517 60.6367 108.792Z" fill="#E3DAFF"/>
<path d="M66.2842 107.945C68.9191 106.685 71.6938 105.711 74.5361 104.988C77.3836 104.283 80.3044 103.863 83.2384 103.711C86.1733 103.545 89.1172 103.658 92.0384 103.919C94.9611 104.189 97.8587 104.641 100.739 105.151C106.496 106.206 112.18 107.533 117.883 108.74C123.586 109.944 129.314 111.027 135.097 111.836C129.274 111.392 123.479 110.549 117.739 109.463C114.865 108.936 112.008 108.337 109.148 107.763C106.29 107.178 103.436 106.591 100.571 106.08C94.8524 105.033 89.0671 104.274 83.2681 104.444C77.4781 104.603 71.7061 105.768 66.2842 107.945Z" fill="#D9D0F8"/>
<path d="M141.658 105.203C141.658 105.203 133.503 99.5488 123.354 92.5534C112.045 88.6389 68.8154 94.0031 60.6367 108.791C62.4617 109.661 64.134 110.077 64.134 110.077C70.7254 107.197 113.242 97.6644 141.658 105.203Z" fill="#EFE9FF"/>
<path d="M134.481 91.0876C134.481 91.0876 122.194 86.2833 107.623 80.5203C94.9009 82.1515 72.367 87.6967 60.6362 108.792C62.8902 109.467 64.1335 110.077 64.1335 110.077C64.1335 110.077 81.744 88.4977 134.481 91.0876Z" fill="white"/>
<path d="M69.4873 110.594C70.8317 110.295 72.1789 109.995 73.5322 109.722C74.895 109.513 76.2569 109.272 77.6263 109.088L79.6889 108.879C80.3769 108.815 81.0645 108.726 81.7558 108.705L83.8284 108.604L84.8651 108.559L85.9023 108.557C91.44 108.498 96.9616 109.04 102.429 109.776C107.898 110.534 113.33 111.463 118.765 112.354C124.201 113.238 129.639 114.094 135.098 114.873C129.6 114.459 124.116 113.846 118.655 113.083C113.191 112.34 107.752 111.45 102.302 110.712C96.8553 109.96 91.3876 109.383 85.9004 109.292C80.4157 109.203 74.9163 109.624 69.4873 110.594Z" fill="#D9D0F8"/>
<path d="M53.5284 112.851L-21.8135 117.481C-23.138 117.563 -24.0817 118.801 -23.8081 120.1L-23.5619 121.271C-23.3365 122.342 -22.3494 123.079 -21.2578 122.99L53.5279 116.911V112.851H53.5284Z" fill="#3D508D"/>
<path d="M53.528 112.851C53.528 112.851 55.335 116.567 60.5722 116.621C65.8877 116.675 64.7168 123 60.5722 123.145C56.4275 123.29 50.6101 121.786 50.036 117.195C49.7132 114.611 53.528 112.851 53.528 112.851Z" fill="#3D508D"/>
<path d="M60.573 108.792C60.573 108.792 57.5879 103.572 38.5957 101.688C19.603 99.8026 -16.9322 111.256 -16.9322 111.256L-21.4199 117.457L53.5288 112.851C53.5284 112.851 56.4534 109.517 60.573 108.792Z" fill="#E3DAFF"/>
<path d="M54.9247 107.945C49.5028 105.768 43.7307 104.603 37.9398 104.445C32.1412 104.275 26.3555 105.033 20.6368 106.081C17.7723 106.591 14.9177 107.178 12.0603 107.763C9.20047 108.337 6.34256 108.936 3.46906 109.464C-2.27086 110.55 -8.06606 111.393 -13.8887 111.837C-8.10575 111.027 -2.3786 109.945 3.32493 108.74C9.02799 107.533 14.7117 106.206 20.4686 105.151C23.3492 104.642 26.2468 104.19 29.1694 103.919C32.0912 103.658 35.0351 103.545 37.9695 103.711C40.9035 103.863 43.8247 104.284 46.6718 104.988C49.515 105.71 52.2898 106.685 54.9247 107.945Z" fill="#D9D0F8"/>
<path d="M-20.4482 105.203C-20.4482 105.203 -12.2932 99.5488 -2.14402 92.5534C9.16476 88.6389 52.4582 94.0031 60.6369 108.791C58.8119 109.661 57.0758 110.077 57.0758 110.077C50.4839 107.197 7.96829 97.6644 -20.4482 105.203Z" fill="#EFE9FF"/>
<path d="M-13.2715 91.0876C-13.2715 91.0876 -0.984083 86.2833 13.5866 80.5203C26.3088 82.1515 48.8427 87.6967 60.5734 108.792C58.3194 109.467 57.0762 110.077 57.0762 110.077C57.0762 110.077 39.4656 88.4977 -13.2715 91.0876Z" fill="white"/>
<path d="M51.7223 110.594C46.2933 109.624 40.7934 109.203 35.3092 109.292C29.822 109.383 24.3543 109.959 18.9078 110.712C13.4581 111.45 8.01867 112.34 2.55472 113.082C-2.90593 113.846 -8.39068 114.459 -13.8882 114.873C-8.42943 114.093 -2.99099 113.237 2.44509 112.353C7.87974 111.463 13.3116 110.534 18.7802 109.776C24.248 109.039 29.7701 108.497 35.3073 108.557L36.3445 108.559L37.3812 108.604L39.4538 108.705C40.1451 108.726 40.8322 108.814 41.5207 108.879L43.5833 109.088C44.9527 109.272 46.3146 109.513 47.6774 109.722C49.0312 109.995 50.3779 110.295 51.7223 110.594Z" fill="#D9D0F8"/>
<path d="M115.097 59.1402C114.236 59.1402 113.475 59.564 113.007 60.2128C112.849 58.3444 111.285 56.8767 109.376 56.8767C108.176 56.8767 107.115 57.4589 106.45 58.3529C105.811 55.9874 103.652 54.2461 101.084 54.2461C98.7514 54.2461 96.7559 55.6826 95.9303 57.7188C95.2986 57.1933 94.4867 56.8762 93.6003 56.8762C91.79 56.8762 90.2915 58.197 90.0066 59.9269C89.5378 59.4426 88.882 59.1402 88.1542 59.1402C87.3661 59.1402 86.661 59.495 86.1885 60.0522C85.5832 58.877 84.3602 58.0718 82.9474 58.0718C80.9334 58.0718 79.3008 59.7044 79.3008 61.7183H117.677C117.676 60.295 116.521 59.1402 115.097 59.1402Z" fill="white"/>
<path d="M16.9317 22.572C17.8017 22.572 18.5705 23.0002 19.0435 23.6556C19.2032 21.7678 20.7834 20.2845 22.7123 20.2845C23.9244 20.2845 24.997 20.8723 25.6685 21.7758C26.3145 19.3857 28.4966 17.6265 31.0913 17.6265C33.4479 17.6265 35.4642 19.0781 36.2987 21.1355C36.9371 20.6044 37.7574 20.2845 38.6534 20.2845C40.4826 20.2845 41.9966 21.6189 42.2848 23.3669C42.7588 22.8773 43.4213 22.5716 44.1561 22.5716C44.9528 22.5716 45.6649 22.9302 46.1426 23.4935C46.7546 22.306 47.9902 21.4928 49.4178 21.4928C51.453 21.4928 53.1026 23.1424 53.1026 25.1776H14.3262C14.3262 23.7387 15.4929 22.572 16.9317 22.572Z" fill="white"/>
<path d="M1.69218 3.69729C1.55598 3.55329 1.32892 3.54775 1.18483 3.68378C1.08002 3.78636 1.04666 3.94142 1.09817 4.07087L-0.257696 5.36534L-0.0587979 5.57372L1.29707 4.27925C1.42827 4.3353 1.58052 4.30787 1.68533 4.2053C1.82942 4.06927 1.82837 3.8413 1.69218 3.69729Z" fill="#171642"/>
<path d="M0.257348 5.64805C0.288341 5.31169 0.0159505 5.02368 -0.327438 5.03165C-2.24986 5.09648 -8.62165 6.03791 -12.6096 9.84793L-19.181 15.5789C-19.7421 16.1122 -18.4083 18.4184 -16.2031 20.727C-13.998 23.0355 -11.7558 24.4661 -11.1947 23.9328L-5.16811 17.6258C-1.1867 13.8147 0.0904015 7.55557 0.257348 5.64805Z" fill="url(#paint0_linear)"/>
<path d="M-2.75848 5.3239C-2.5686 5.81882 -2.19654 6.38526 -1.68524 6.92203C-1.18474 7.44354 -0.642329 7.83827 -0.163141 8.05464C0.0809727 7.02464 0.213366 6.17643 0.256139 5.6545C0.287133 5.31815 0.0147427 5.03013 -0.328645 5.0381C-0.846983 5.0495 -1.70687 5.13618 -2.75848 5.3239Z" fill="url(#paint1_linear)"/>
<path opacity="0.2" d="M0.25737 5.648C0.264081 5.60895 0.257766 5.56767 0.257964 5.5275C-5.87118 6.61785 -6.17713 17.995 -11.5145 16.9368C-14.4322 16.3549 -17.541 18.6009 -18.8595 20.0291C-18.4877 20.6357 -17.9835 21.2918 -17.3695 21.9334C-15.681 23.6975 -13.8365 24.6712 -13.2514 24.1152L-12.7219 23.6099C-11.9949 24.023 -11.4414 24.1583 -11.2001 23.9251L-5.17348 17.6181C-1.18668 13.8146 0.0904237 7.55552 0.25737 5.648Z" fill="#351656"/>
<g clip-path="url(#clip0)">
<path d="M79.303 28.0735C81.5476 32.0413 85.7547 35.3146 87.0703 35.8843L86.5702 34.4975C88.4198 36.5435 93.0334 38.7296 95.7199 39.5394L82.6333 25.063L79.303 28.0735Z" fill="#FF901F"/>
<path d="M85.9504 22.0643C89.6723 24.6967 92.5057 29.2117 92.9402 30.578L91.6107 29.9408C93.4603 31.9869 95.1712 36.797 95.7066 39.5513L82.6201 25.0749L85.9504 22.0643Z" fill="#FF901F"/>
<path d="M80.5209 26.9726C81.9437 29.4843 84.6118 31.5501 85.4607 31.9422L85.1431 31.0698C86.3165 32.3679 89.2453 33.7582 90.9464 34.2594L82.6331 25.0631L80.5209 26.9726Z" fill="#FF7126"/>
<path d="M84.7323 23.1654C87.0882 24.8338 88.8751 27.6962 89.1798 28.5802L88.3438 28.1764C89.5173 29.4745 90.6059 32.5283 90.9334 34.2711L82.6201 25.0749L84.7323 23.1654Z" fill="#FF7126"/>
</g>
<path d="M79.7744 28.2331L80.3568 28.9009C80.8626 29.4812 82.6836 28.7239 84.4297 27.206C86.1758 25.6881 87.1808 23.9867 86.6812 23.4078L86.0987 22.7399L79.7744 28.2331Z" fill="#B8E4FA"/>
<path d="M68.0349 8.34615C67.8925 8.46851 67.8769 8.68314 67.9991 8.82567C68.0914 8.92951 68.2367 8.96811 68.3615 8.92523L69.525 10.267L69.7313 10.0883L68.5677 8.74645C68.6267 8.62484 68.6077 8.47951 68.5153 8.37567C68.3932 8.23314 68.1774 8.2238 68.0349 8.34615Z" fill="#171642"/>
<path d="M69.8158 9.79266C69.4989 9.74808 69.214 9.9928 69.206 10.3181C69.1802 12.1403 69.7822 18.2129 73.207 22.1596L78.3324 28.6383C78.8117 29.1935 81.0546 28.0359 83.3393 26.0537C85.624 24.0715 87.0795 22.0146 86.6002 21.4594L80.9049 15.4701C77.4788 11.5295 71.6135 10.0371 69.8158 9.79266Z" fill="url(#paint2_linear)"/>
<path d="M73.6904 22.8121C73.198 23.2417 72.5929 25.7693 73.5627 28.1585C74.5781 30.6604 77.3021 33.1434 78.0557 32.4895C78.848 31.8056 76.3 27.8352 77.1011 27.1405L73.6904 22.8121Z" fill="#6392F8"/>
<path opacity="0.2" d="M74.6612 26.324C74.6167 27.103 75.2841 28.2259 75.8591 28.8407C76.6153 29.6497 76.834 30.2819 76.569 31.1018C76.405 31.6106 77.497 32.1477 78.0433 32.4868L78.0508 32.4821C78.8431 31.7982 76.2951 27.8278 77.0962 27.1331L74.9863 24.4527C74.9594 25.0945 74.6916 25.8689 74.6612 26.324Z" fill="#351656"/>
<path d="M81.4763 16.0457C81.9688 15.6161 84.5533 15.3743 86.7842 16.6705C89.117 18.0277 91.1911 21.0722 90.436 21.7322C89.6437 22.4161 86.0768 19.3422 85.2756 20.0369L81.4763 16.0457Z" fill="#6392F8"/>
<path opacity="0.2" d="M89.4371 20.9465C88.9593 20.7893 88.338 19.6318 87.8208 19.19C87.3036 18.7483 86.5918 18.8086 86.1968 18.5671C85.8017 18.3256 85.3041 17.6509 84.8121 17.4136C84.4076 17.2149 83.7895 17.5461 83.0825 17.7294L85.2812 20.0382C86.0824 19.3435 89.6493 22.4174 90.4416 21.7335C90.1836 21.3364 89.9148 21.1037 89.4371 20.9465Z" fill="#351656"/>
<path d="M76.8261 16.6441C77.0634 15.5738 76.3888 14.514 75.3196 14.277C74.2503 14.04 73.1912 14.7156 72.9539 15.7859C72.7167 16.8562 73.3912 17.916 74.4605 18.153C75.5298 18.39 76.5889 17.7144 76.8261 16.6441Z" fill="#6392F8"/>
<path d="M76.2219 16.4783C76.3888 15.7254 75.9143 14.9799 75.1621 14.8132C74.4099 14.6464 73.6648 15.1217 73.498 15.8746C73.3311 16.6275 73.8056 17.3731 74.5578 17.5398C75.31 17.7065 76.0551 17.2313 76.2219 16.4783Z" fill="white"/>
<path d="M73.947 15.121C73.7156 15.3263 73.5678 15.5886 73.4994 15.8684C74.0051 16.4487 74.8886 16.5099 75.4686 16.0034C75.6986 15.8043 75.8464 15.542 75.9149 15.2621C75.4105 14.6757 74.527 14.6146 73.947 15.121Z" fill="#171642"/>
<path d="M82.093 24.6231C79.8083 26.6053 77.7378 27.8525 77.3651 27.4235L78.3325 28.6385C78.8117 29.1937 81.0547 28.036 83.3394 26.0538C85.6241 24.0716 87.0795 22.0147 86.6003 21.4595L85.4979 20.3044C85.8706 20.7334 84.3777 22.6409 82.093 24.6231Z" fill="url(#paint3_linear)"/>
<path d="M69.3727 12.6321C69.8497 12.4748 70.4026 12.1484 70.9337 11.6889C71.45 11.2389 71.8481 10.7435 72.0746 10.2998C71.1109 10.0221 70.3142 9.85833 69.8223 9.79419C69.5054 9.7496 69.2204 9.99432 69.2124 10.3196C69.1997 10.8107 69.2427 11.6284 69.3727 12.6321Z" fill="url(#paint4_linear)"/>
<path opacity="0.2" d="M69.8157 9.79282C69.7791 9.78469 69.7397 9.7888 69.7017 9.78679C70.4556 15.6365 81.2085 16.4419 79.9651 21.4449C79.2821 24.1797 81.2666 27.2236 82.5584 28.5361C83.1493 28.2117 83.7931 27.7643 84.428 27.2123C86.1741 25.6944 87.1792 23.993 86.6795 23.4141L86.2254 22.8901C86.6492 22.2208 86.8024 21.7032 86.5927 21.4643L80.8974 15.475C77.4787 11.5297 71.6133 10.0373 69.8157 9.79282Z" fill="#351656"/>
<path d="M82.508 23.3036C80.5534 21.0506 78.5946 19.5496 78.1327 19.951C77.6709 20.3524 78.881 22.5043 80.8355 24.7573C82.79 27.0103 84.7489 28.5113 85.2108 28.1098C85.6726 27.7084 84.4625 25.5566 82.508 23.3036Z" fill="#6392F8"/>
</g>
</g>
<defs>
<filter id="filter0_d" x="-135" y="-35.5227" width="398" height="223.045" filterUnits="userSpaceOnUse" color-interpolation-filters="sRGB">
<feFlood flood-opacity="0" result="BackgroundImageFix"/>
<feColorMatrix in="SourceAlpha" type="matrix" values="0 0 0 0 0 0 0 0 0 0 0 0 0 0 0 0 0 0 127 0"/>
<feOffset dy="10"/>
<feGaussianBlur stdDeviation="22.5"/>
<feColorMatrix type="matrix" values="0 0 0 0 0.183852 0 0 0 0 0.176999 0 0 0 0 0.519651 0 0 0 0.1 0"/>
<feBlend mode="normal" in2="BackgroundImageFix" result="effect1_dropShadow"/>
<feBlend mode="normal" in="SourceGraphic" in2="effect1_dropShadow" result="shape"/>
</filter>
<linearGradient id="paint0_linear" x1="-17.6172" y1="10.6937" x2="-2.57428" y2="15.6574" gradientUnits="userSpaceOnUse">
<stop stop-color="#C7E8FF"/>
<stop offset="1" stop-color="#B2C0FF"/>
</linearGradient>
<linearGradient id="paint1_linear" x1="-2.86641" y1="5.65858" x2="0.283782" y2="6.69805" gradientUnits="userSpaceOnUse">
<stop stop-color="#87478C"/>
<stop offset="0.1651" stop-color="#6B3D88"/>
<stop offset="0.3594" stop-color="#513485"/>
<stop offset="0.5601" stop-color="#3F2E82"/>
<stop offset="0.7692" stop-color="#342A80"/>
<stop offset="1" stop-color="#302980"/>
</linearGradient>
<linearGradient id="paint2_linear" x1="73.7803" y1="26.9369" x2="79.1597" y2="12.9262" gradientUnits="userSpaceOnUse">
<stop stop-color="#C7E8FF"/>
<stop offset="1" stop-color="#B2C0FF"/>
</linearGradient>
<linearGradient id="paint3_linear" x1="80.2122" y1="29.4066" x2="83.937" y2="19.7055" gradientUnits="userSpaceOnUse">
<stop stop-color="#87478C"/>
<stop offset="0.1651" stop-color="#6B3D88"/>
<stop offset="0.3594" stop-color="#513485"/>
<stop offset="0.5601" stop-color="#3F2E82"/>
<stop offset="0.7692" stop-color="#342A80"/>
<stop offset="1" stop-color="#302980"/>
</linearGradient>
<linearGradient id="paint4_linear" x1="69.6845" y1="12.7494" x2="70.8111" y2="9.81534" gradientUnits="userSpaceOnUse">
<stop stop-color="#87478C"/>
<stop offset="0.1651" stop-color="#6B3D88"/>
<stop offset="0.3594" stop-color="#513485"/>
<stop offset="0.5601" stop-color="#3F2E82"/>
<stop offset="0.7692" stop-color="#342A80"/>
<stop offset="1" stop-color="#302980"/>
</linearGradient>
<clipPath id="clip0">
<rect x="78.979" y="28.3666" width="9.8347" height="19.4851" transform="rotate(-42.1132 78.979 28.3666)" fill="white"/>
</clipPath>
</defs>
</svg>
