<svg width="252" height="299" viewBox="0 0 252 299" fill="none" xmlns="http://www.w3.org/2000/svg">
<path d="M159.361 109.983C164.337 129.817 181.243 143.881 182.862 143.641C184.541 143.401 204.445 121.162 207.083 106.197C209.781 91.1105 205.944 72.5386 204.325 69.8339C202.706 67.1292 172.191 72.6588 170.512 75.7841C168.893 78.8494 173.75 95.0173 164.457 104.694C161.579 107.699 159.361 109.983 159.361 109.983Z" fill="url(#paint0_linear)"/>
<path d="M158.042 110.103C168.174 102.65 192.394 133.844 189.277 140.035C188.917 140.756 188.377 142.018 187.358 142.559C185.739 143.461 184.6 143.1 184.6 143.1C184.6 143.1 182.322 133.604 171.291 122.004C165.596 115.993 158.042 110.103 158.042 110.103Z" fill="#6392F8"/>
<path opacity="0.1" d="M158.042 110.103C158.702 109.622 159.421 109.262 160.2 109.142C161.1 108.24 162.658 106.617 164.457 104.694C173.69 94.9572 168.833 78.8494 170.512 75.7841C172.191 72.6588 202.646 67.1292 204.325 69.8339C205.944 72.5386 209.781 91.1105 207.083 106.197C205.284 116.174 195.932 129.336 189.337 137.15C189.637 138.352 189.577 139.374 189.277 140.035C188.917 140.756 188.378 142.018 187.359 142.559C185.74 143.461 184.601 143.1 184.601 143.1C184.601 143.1 184.541 142.86 184.421 142.499C183.642 143.22 183.102 143.641 182.862 143.701C181.303 143.941 165.116 130.599 159.721 111.546C158.702 110.584 158.042 110.103 158.042 110.103Z" fill="#351656"/>
<path d="M124.289 216.787C114.277 218.229 102.886 221.895 95.8718 214.803C88.8574 207.711 76.0277 186.314 73.5697 174.955C71.1117 163.595 70.4522 141.838 77.1668 139.133C83.8814 136.428 105.224 136.128 109.541 139.133C113.917 142.138 124.289 216.787 124.289 216.787Z" fill="#6392F8"/>
<path opacity="0.2" d="M84.1815 174.174C83.522 169.666 77.7067 163.235 77.6468 157.345C77.5269 148.269 80.5844 141.898 84.6611 140.275C90.4165 137.931 105.045 141.297 111.759 144.182C116.675 161.552 124.349 216.727 124.349 216.727C115.716 217.989 106.064 220.874 99.0496 217.087C98.5699 212.099 101.148 203.684 97.7306 197.674C93.2342 189.981 87.299 195.811 84.1815 174.174Z" fill="#351656"/>
<path d="M149.648 104.333C171.591 118.157 179.684 131.8 183.701 140.876C187.718 149.891 190.416 165.098 193.413 174.654C195.092 180.003 210.08 187.877 215.775 208.132C219.252 220.633 211.579 241.669 210.2 244.975C208.401 249.423 223.329 264.088 218.113 271.721C213.497 278.393 177.166 255.794 175.368 250.986C174.588 249.002 185.919 238.965 181.723 225.562C179.445 218.409 171.111 206.028 164.337 207.651C158.581 209.033 161.759 236.981 154.684 248.641C149.469 257.236 141.795 265.711 140.356 268.055C138.198 271.421 150.128 290.474 142.814 298.227C136.879 304.418 104.984 269.257 108.522 263.667C114.816 253.57 122.071 240.648 115.716 222.436C114.277 218.289 102.227 187.937 100.368 183.369C97.97 177.599 86.4593 137.029 86.4593 137.029L149.648 104.333Z" fill="url(#paint1_linear)"/>
<path d="M86.879 138.171C82.8022 137.09 81.4233 132.401 81.843 129.877C82.0229 128.855 109.9 133.423 130.824 122.004C139.936 117.015 152.526 103.492 152.526 103.492C155.644 105.475 156.483 109.502 153.605 114.25C143.473 130.959 118.474 146.406 86.879 138.171Z" fill="#6392F8"/>
<path d="M119.433 155.241C121.291 158.366 123.809 158.907 127.166 156.924C128.006 156.383 129.085 156.563 129.445 157.224L130.764 159.448C131.183 160.109 132.202 160.29 133.042 159.749C133.881 159.208 134.301 158.246 133.881 157.585L127.107 146.105C126.687 145.444 125.668 145.264 124.828 145.805L121.531 147.788C119.912 148.75 119.013 149.892 118.653 151.334C118.414 152.656 118.653 153.919 119.433 155.241ZM122.55 153.318C122.011 152.416 121.951 151.635 122.37 150.913C122.43 150.793 122.49 150.733 122.55 150.613C123.33 149.591 124.888 149.531 125.428 150.433L126.387 152.055C126.987 153.077 125.848 154.64 124.469 154.52C123.629 154.52 122.97 154.099 122.55 153.318Z" fill="#6392F8"/>
<path d="M182.382 228.447C192.814 231.692 206.543 233.255 214.636 230.55C214.337 231.873 214.037 233.075 213.677 234.277C210.859 234.938 207.682 235.238 204.325 235.238C197.19 235.238 189.277 233.856 182.622 231.933C182.682 230.851 182.622 229.709 182.382 228.447Z" fill="#6392F8"/>
<path d="M135.98 129.817C141.615 135.467 151.807 154.399 155.884 165.278C158.222 171.649 163.198 184.872 164.157 197.193C164.397 200.318 165.896 205.367 166.615 207.471C165.836 207.35 165.056 207.35 164.337 207.531C163.977 207.651 163.618 207.831 163.318 208.132C162.539 205.728 161.1 200.739 160.86 197.433C159.961 185.593 155.104 172.611 152.826 166.42C148.57 154.94 138.558 136.969 133.702 132.161L135.98 129.817Z" fill="#6392F8"/>
<path d="M116.255 247.56C116.675 246.237 117.035 244.855 117.335 243.413C121.951 250.926 138.318 259.16 146.291 260.722C145.512 261.744 144.733 262.706 144.073 263.547C135.98 261.384 122.55 254.892 116.255 247.56Z" fill="#6392F8"/>
<path opacity="0.1" d="M100.249 183.309C97.8506 177.539 86.6396 137.991 86.6396 137.991L124.589 117.736C128.966 126.031 130.704 134.205 130.884 140.455C131.064 147.007 127.167 162.093 124.349 167.201C121.532 172.31 117.395 183.73 120.452 190.522C123.51 197.313 133.642 204.225 129.026 212.94C125.848 218.891 139.637 221.595 141.376 228.567C146.531 249.303 119.853 255.313 118.594 265.29C118.114 269.077 126.088 272.984 128.966 279.054C131.064 283.382 132.503 291.195 133.222 295.342C121.951 287.228 105.884 267.634 108.462 263.607C114.757 253.51 122.011 240.588 115.656 222.376C114.157 218.169 102.107 187.817 100.249 183.309Z" fill="#351656"/>
<path d="M88.8582 143.46C103.486 141.477 107.383 169.846 105.525 174.714C98.1507 194.128 54.2061 187.937 36.94 182.227C32.1438 180.665 22.3717 177.419 17.2758 174.233C8.10315 168.524 0.189514 161.371 0.789032 159.388C1.92812 156.022 4.566 157.645 5.10557 156.082C5.64513 154.519 1.92812 152.837 3.00726 150.312C4.4461 147.007 7.02402 148.329 7.8034 147.127C9.06239 145.203 4.4461 142.499 7.20388 139.253C9.24224 136.849 13.0792 139.554 14.0384 138.652C14.6379 138.051 13.4988 135.106 16.1966 134.084C18.9544 133.002 23.211 140.335 26.0287 139.073C29.8657 137.27 26.2686 132.822 31.1246 132.221C34.1822 131.8 34.7817 134.265 36.88 138.953C39.398 144.542 43.2949 148.689 47.6713 149.11C64.0382 150.553 78.5465 144.843 88.8582 143.46Z" fill="url(#paint2_linear)"/>
<path d="M95.5128 184.331C99.1099 184.631 103.666 183.79 108.043 179.102C114.278 172.43 110.8 152.055 101.868 145.504C96.5319 141.597 93.1147 140.936 89.0979 141.297C84.002 141.778 84.1819 144.182 84.1819 144.182C89.9972 144.903 95.213 145.504 100.489 154.64C104.206 161.011 105.944 171.228 103.366 176.337C100.429 182.227 95.5128 184.331 95.5128 184.331Z" fill="#6392F8"/>
<path d="M32.6833 180.845C42.4554 176.337 48.2707 163.776 47.4913 149.17C47.5513 149.17 47.6113 149.17 47.6712 149.17C48.5705 149.231 49.4698 149.291 50.369 149.351C50.7288 156.683 49.5297 163.655 46.8319 169.606C44.3739 175.135 40.7767 179.402 36.4003 182.107C35.3811 181.746 34.1221 181.326 32.6833 180.845Z" fill="#6392F8"/>
<path opacity="0.2" d="M168.474 204.766C172.91 204.345 185.44 209.334 186.459 214.984C187.478 220.633 195.572 217.929 199.049 223.158C202.526 228.387 197.55 242.271 194.253 246.478C189.097 252.969 202.826 256.155 204.565 260.602C206.123 264.629 210.68 269.257 216.255 272.743C207.502 274.546 177.047 255.313 175.368 250.865C174.589 248.882 185.92 238.845 181.723 225.442C179.445 218.289 171.111 205.908 164.337 207.531C163.318 207.771 162.598 208.793 162.059 210.416C161.999 209.875 162.478 205.367 168.474 204.766Z" fill="#351656"/>
<path d="M163.737 44.5901C178.126 74.3413 161.399 112.327 126.328 129.396C91.2558 146.466 51.148 136.248 36.6996 106.497C22.3112 76.7455 39.0377 38.7601 74.1095 21.6907C109.181 4.62129 149.289 14.8389 163.737 44.5901Z" fill="url(#paint3_linear)"/>
<path d="M159.96 46.5135C166.735 56.9715 166.735 73.8005 162.118 83.2969C154.205 99.4046 116.195 120.02 105.764 122.785C89.9365 127.052 75.4281 119.599 66.1956 105.776C49.0494 79.871 66.6152 56.1301 92.0348 39.842C117.454 23.554 146.171 25.3571 159.96 46.5135Z" fill="#6392F8"/>
<path d="M156.843 48.4367C162.898 58.4139 163.437 71.5165 159.061 80.532C150.787 97.5413 116.315 115.632 106.723 118.217C92.1546 122.184 78.9053 115.512 70.572 102.951C54.9845 79.5102 71.2914 57.7528 94.6726 42.787C118.054 27.8212 144.972 28.9632 156.843 48.4367Z" fill="url(#paint4_radial)"/>
<path opacity="0.2" d="M31.5439 82.5155C31.5439 82.2751 31.5439 82.0347 31.5439 81.7342C31.5439 81.4938 31.5439 81.2534 31.6039 81.013C31.6039 80.7725 31.6039 80.5321 31.6638 80.2316C31.6638 79.9912 31.7238 79.7508 31.7238 79.5104C31.7238 79.27 31.7837 79.0295 31.7837 78.729C31.7837 78.4886 31.8437 78.2482 31.8437 78.0078C31.8437 77.7674 31.9036 77.527 31.9036 77.2264C31.9036 76.986 31.9636 76.7456 32.0235 76.5052C32.0835 76.2648 32.0835 76.0244 32.1434 75.7239C32.2034 75.4834 32.2034 75.243 32.2633 75.0026C32.3233 74.7622 32.3233 74.5218 32.3832 74.2213C32.4432 73.9809 32.4432 73.7404 32.5031 73.5C32.5631 73.2596 32.6231 73.0192 32.6231 72.7187C32.683 72.4783 32.7429 72.2379 32.7429 71.9974C32.8029 71.757 32.8629 71.5166 32.9228 71.2161C32.9828 70.9757 33.0427 70.7353 33.1027 70.4949C33.1626 70.2544 33.2226 70.014 33.2825 69.7736C33.3425 69.5332 33.4024 69.2928 33.4624 69.0524C33.5223 68.812 33.5823 68.5715 33.6422 68.3311C33.7022 68.0907 33.7621 67.8503 33.8221 67.6099C33.882 67.3695 33.942 67.1291 34.0619 66.8886C34.1218 66.6482 34.1818 66.4078 34.3017 66.1674C34.3616 65.927 34.4815 65.6866 34.5415 65.4462C34.6014 65.2057 34.7214 64.9653 34.7813 64.7249C34.8413 64.4845 34.9612 64.2441 35.0211 64.0037C35.0811 63.7633 35.201 63.5228 35.2609 63.2824C35.3209 63.042 35.4408 62.8016 35.5607 62.5612C35.6806 62.3208 35.7405 62.0804 35.8604 61.84C35.9803 61.5995 36.0403 61.3591 36.1602 61.1187C36.2801 60.8783 36.3401 60.6379 36.46 60.3975C36.5799 60.1571 36.6398 59.9166 36.7597 59.6762C36.8796 59.4358 36.9396 59.1954 37.0595 58.955C37.1794 58.7146 37.2993 58.4742 37.3592 58.2337C37.4791 57.9933 37.599 57.7529 37.659 57.5125C37.7789 57.2721 37.8988 57.0317 38.0187 56.7913C38.1386 56.5508 38.2585 56.3104 38.3784 56.07C38.4983 55.8296 38.6182 55.5892 38.7381 55.3488C38.858 55.1084 38.9779 54.868 39.0978 54.6876C39.2177 54.4472 39.3376 54.2068 39.4576 53.9664C39.5775 53.726 39.6974 53.4856 39.8173 53.3053C39.9372 53.0648 40.0571 52.8244 40.2369 52.584C40.3568 52.3436 40.4767 52.1032 40.6566 51.9229C40.7765 51.6825 40.9564 51.442 41.0763 51.2016C41.1962 50.9612 41.376 50.7809 41.4959 50.5405C41.6158 50.3001 41.7957 50.0597 41.9156 49.8794C42.0355 49.6389 42.2153 49.4586 42.3352 49.2182C42.4551 48.9778 42.635 48.7374 42.8149 48.5571C42.9348 48.3167 43.1146 48.1364 43.2345 47.8959C43.4144 47.6555 43.5343 47.4752 43.7141 47.2348C43.894 46.9944 44.0139 46.8141 44.1937 46.5737C44.3736 46.3333 44.4935 46.1529 44.6734 45.9125C44.8532 45.6721 44.9731 45.4918 45.153 45.2514C45.3328 45.011 45.5127 44.8307 45.6326 44.5903C45.8124 44.3498 45.9324 44.1695 46.1122 43.9291C46.2921 43.6887 46.4719 43.5084 46.6518 43.268C46.8316 43.0877 47.0115 42.8473 47.1314 42.6669C47.3112 42.4265 47.4911 42.2462 47.671 42.0058C47.8508 41.8255 48.0307 41.5851 48.2105 41.4048C48.3904 41.1644 48.5702 40.984 48.7501 40.7436C48.9299 40.5633 49.1098 40.3229 49.2896 40.1426C49.4695 39.9623 49.6494 39.7219 49.8892 39.5416C50.069 39.3612 50.2489 39.1208 50.4287 38.9405C50.6086 38.7602 50.8484 38.5198 51.0282 38.3395C51.2081 38.1592 51.388 37.9188 51.5678 37.7385C51.7477 37.5581 51.9875 37.3177 52.1673 37.1374C52.3472 36.9571 52.527 36.7768 52.7669 36.5364C52.9467 36.3561 53.1865 36.1157 53.3664 35.9354C53.5462 35.755 53.786 35.5747 53.9659 35.3944C54.2057 35.2141 54.3855 35.0338 54.6253 34.7934C54.8052 34.6131 55.045 34.4328 55.2249 34.2525C55.4647 34.0721 55.6445 33.8918 55.8843 33.6514C56.0642 33.4711 56.304 33.2908 56.4839 33.1105C56.7237 32.9302 56.9035 32.7499 57.1433 32.5696C57.3831 32.3892 57.563 32.2089 57.8028 32.0286C58.0426 31.8483 58.2824 31.668 58.5222 31.4877C58.762 31.3074 58.9419 31.1271 59.1817 30.9468C59.4215 30.7665 59.6613 30.5861 59.9011 30.4058C60.1409 30.2255 60.3208 30.0452 60.5606 29.925C60.8004 29.7447 61.0402 29.5644 61.28 29.3841C61.5198 29.2038 61.6997 29.0234 61.9395 28.9032C62.1793 28.7229 62.4191 28.5426 62.6589 28.3623C62.8987 28.182 63.1385 28.0618 63.3184 27.8815C63.5582 27.7012 63.8579 27.5209 64.0977 27.3406C64.3375 27.1602 64.5774 27.04 64.7572 26.8597C64.997 26.6794 65.2968 26.4991 65.5366 26.3789C65.7764 26.2587 66.0162 26.0784 66.256 25.9582C66.5558 25.7779 66.7956 25.5975 67.0953 25.4773C67.3351 25.3571 67.5749 25.1768 67.8147 25.0566C68.1145 24.8763 68.4143 24.696 68.6541 24.5758C68.8939 24.4556 69.0737 24.3354 69.3135 24.2152C69.6133 24.0349 69.9131 23.8545 70.2728 23.6742C70.4526 23.554 70.6924 23.4338 70.8723 23.3136C71.232 23.1333 71.6517 22.8929 72.0114 22.7126C72.1313 22.6525 72.3111 22.5323 72.431 22.4722C84.7811 23.9748 66.7956 44.6504 74.949 53.4856C85.0809 64.4244 72.6109 72.7187 72.431 78.729C71.8315 99.5248 137.059 81.8544 131.244 126.752C129.625 127.653 128.006 128.555 126.268 129.396C112.659 136.008 98.3302 138.532 85.0209 137.39C83.702 137.27 82.383 137.15 81.124 136.969C81.124 136.969 81.124 136.969 81.0641 136.969C80.4646 136.909 79.8651 136.789 79.2655 136.669C79.2056 136.669 79.1456 136.669 79.0857 136.609C78.4862 136.488 77.9466 136.428 77.3471 136.308C77.2871 136.308 77.2272 136.308 77.2272 136.308C75.3687 135.948 73.5102 135.467 71.7716 134.986C71.7116 134.986 71.6517 134.926 71.5318 134.926C70.9922 134.745 70.5126 134.625 69.973 134.445C69.9131 134.445 69.7932 134.385 69.7332 134.385C69.1936 134.205 68.6541 134.024 68.0546 133.844H67.9946C66.8555 133.423 65.6565 133.002 64.5773 132.522C64.5174 132.522 64.4575 132.462 64.3975 132.462C63.9179 132.281 63.4383 132.041 62.9587 131.861C62.8388 131.8 62.7188 131.74 62.6589 131.74C62.1793 131.5 61.7596 131.32 61.28 131.079C61.22 131.019 61.1001 131.019 61.0402 130.959C59.9611 130.418 58.9419 129.877 57.8628 129.276C57.8028 129.216 57.7428 129.216 57.6829 129.156C57.2632 128.915 56.7836 128.615 56.364 128.375C56.2441 128.314 56.1242 128.254 56.0042 128.134C55.6445 127.894 55.2249 127.653 54.8652 127.413C54.7453 127.353 54.6254 127.233 54.5055 127.172C54.0858 126.872 53.7261 126.632 53.3064 126.331C53.2465 126.271 53.1865 126.211 53.0666 126.151C52.587 125.79 52.1074 125.429 51.6278 125.069C51.6278 125.069 51.5678 125.069 51.5678 125.009C51.1482 124.648 50.7285 124.348 50.3088 123.987C50.1889 123.867 50.069 123.807 49.9491 123.686C49.6494 123.446 49.2896 123.146 48.9899 122.845C48.87 122.725 48.7501 122.605 48.5702 122.484C48.2705 122.184 47.9707 121.943 47.671 121.643C47.551 121.523 47.4311 121.403 47.3112 121.342C46.8916 120.982 46.5319 120.561 46.1122 120.2C45.6925 119.78 45.3328 119.359 44.9132 118.938C44.7933 118.818 44.7333 118.698 44.6134 118.578C44.3137 118.277 44.0738 117.977 43.7741 117.616C43.6542 117.496 43.5343 117.315 43.4144 117.195C43.1746 116.895 42.9348 116.594 42.6949 116.294C42.575 116.174 42.4551 115.993 42.3352 115.873C42.0954 115.512 41.7957 115.212 41.5559 114.851C41.4959 114.731 41.376 114.611 41.3161 114.551C40.9564 114.07 40.6566 113.649 40.3568 113.168C40.2969 113.048 40.2369 112.988 40.177 112.868C39.9372 112.507 39.6974 112.147 39.4576 111.726C39.3376 111.546 39.2777 111.365 39.1578 111.245C38.9779 110.945 38.7381 110.584 38.5583 110.283C38.4384 110.103 38.3784 109.923 38.2585 109.742C38.0787 109.382 37.8389 109.021 37.659 108.721C37.599 108.54 37.4791 108.42 37.4192 108.24C37.1194 107.699 36.8796 107.218 36.6398 106.677C36.6398 106.677 36.6398 106.617 36.5799 106.617C36.3401 106.196 36.1602 105.715 35.9804 105.295C35.9204 105.114 35.8604 104.994 35.7405 104.814C35.6206 104.513 35.5007 104.213 35.3209 103.912C35.2609 103.732 35.141 103.552 35.0811 103.311C34.9612 103.011 34.8413 102.77 34.7214 102.47C34.6614 102.29 34.5415 102.049 34.4816 101.869C34.3617 101.628 34.3017 101.328 34.1818 101.088C34.1218 100.847 34.0619 100.667 33.942 100.426C33.882 100.186 33.7621 99.8855 33.7022 99.645C33.6422 99.4046 33.5823 99.2243 33.5223 98.9839C33.4624 98.7435 33.3425 98.443 33.2825 98.2026C33.2226 97.9622 33.1626 97.7217 33.1027 97.5414C33.0427 97.301 32.9828 97.0005 32.9228 96.7601C32.8629 96.5197 32.8029 96.2793 32.7429 96.0388C32.683 95.7984 32.623 95.558 32.5631 95.2575C32.5031 95.0171 32.4432 94.7767 32.4432 94.5362C32.3832 94.2958 32.3233 94.0554 32.2633 93.7549C32.2034 93.5145 32.2034 93.2741 32.1434 93.0337C32.0835 92.7932 32.0235 92.5528 32.0235 92.2523C31.9636 92.0119 31.9636 91.7715 31.9036 91.5311C31.8437 91.2907 31.8437 91.0502 31.7837 90.7497C31.7238 90.5093 31.7238 90.2689 31.7238 90.0285C31.7238 89.7881 31.6638 89.5477 31.6638 89.2471C31.6638 89.0067 31.6039 88.7663 31.6039 88.5259C31.6039 88.2855 31.5439 88.0451 31.5439 87.7446C31.5439 87.5041 31.484 87.2637 31.484 87.0233C31.484 86.7829 31.424 86.5425 31.424 86.242C31.424 86.0015 31.424 85.7611 31.424 85.5207C31.424 85.2803 31.424 85.0399 31.424 84.7394C31.424 84.499 31.424 84.2585 31.424 84.0181C31.424 83.7777 31.424 83.5373 31.424 83.2368C31.5439 82.9964 31.5439 82.756 31.5439 82.5155Z" fill="#351656"/>
<path d="M72.4302 21.7511C73.0897 22.7128 71.1113 24.6361 68.3535 26.6195C65.5957 28.6029 62.8379 29.5045 62.2384 28.663C61.0993 27.1003 62.3583 24.0351 65.1161 22.0516C67.8739 20.0682 71.1712 19.948 72.4302 21.7511Z" fill="url(#paint5_linear)"/>
<path d="M64.037 23.1931L53.5454 8.46779L56.3032 6.48438L66.7948 21.2097C67.0945 21.6305 66.9746 22.1714 66.555 22.4719L65.296 23.3735C64.9363 23.7341 64.3368 23.6139 64.037 23.1931Z" fill="url(#paint6_linear)"/>
<path d="M54.1448 11.7737C51.1649 11.7737 48.7492 9.35187 48.7492 6.36439C48.7492 3.37691 51.1649 0.955078 54.1448 0.955078C57.1248 0.955078 59.5405 3.37691 59.5405 6.36439C59.5405 9.35187 57.1248 11.7737 54.1448 11.7737Z" fill="url(#paint7_radial)"/>
<path d="M26.6113 118.938C22.313 110.071 24.7189 100.013 31.9851 96.4726C39.2513 92.9324 48.6263 97.2505 52.9246 106.117C57.223 114.984 54.8171 125.042 47.5508 128.583C40.2846 132.123 30.9097 127.805 26.6113 118.938Z" fill="#6392F8"/>
<path d="M47.0709 108.961C50.668 116.354 49.349 124.408 44.1932 126.872C39.0373 129.396 31.963 125.429 28.3659 118.037C24.7688 110.644 26.0877 102.59 31.2436 100.126C36.3994 97.6014 43.4738 101.568 47.0709 108.961Z" fill="url(#paint8_linear)"/>
<path d="M39.5164 112.627C40.7754 115.212 40.4156 117.977 38.737 118.758C37.0583 119.599 34.7202 118.157 33.4612 115.572C32.2023 112.988 32.562 110.223 34.2406 109.442C35.9193 108.6 38.2574 110.043 39.5164 112.627Z" fill="url(#paint9_linear)"/>
<path opacity="0.3" d="M26.6113 118.938C22.313 110.071 24.7189 100.013 31.9851 96.4726C39.2513 92.9324 48.6263 97.2505 52.9246 106.117C57.223 114.984 54.8171 125.042 47.5508 128.583C40.2846 132.123 30.9097 127.805 26.6113 118.938Z" fill="#351656"/>
<path opacity="0.2" d="M36.4598 182.107C36.22 182.047 35.9802 181.927 35.6804 181.867C35.6205 181.867 35.6205 181.867 35.5605 181.807C35.2607 181.686 35.021 181.626 34.7212 181.506C34.7212 181.506 34.7212 181.506 34.6612 181.506C34.0617 181.326 33.4023 181.085 32.6828 180.845C27.6469 179.102 21.1121 176.698 17.2153 174.234C8.04264 168.524 0.129005 161.371 0.728523 159.388C1.86761 156.022 4.50549 157.645 5.04506 156.082C5.58463 154.58 2.10741 152.957 2.88679 150.553C9.60139 154.52 14.6373 165.579 21.232 168.524C28.9658 171.95 41.4957 164.136 49.0497 167.021C55.4046 169.485 57.4429 175.916 67.7546 178.801C77.7666 181.566 91.3756 175.195 97.6106 170.868C100.728 168.704 107.443 170.567 110.74 172.911C110.26 175.436 109.361 177.539 107.982 179.042C103.726 183.61 99.0495 184.631 95.4523 184.271C79.3853 191.303 50.2487 186.615 36.8795 182.227C36.7596 182.227 36.6396 182.167 36.4598 182.107Z" fill="#351656"/>
<path opacity="0.2" d="M146.651 114.671L158.162 88.3452C158.761 86.9629 158.641 85.28 157.802 83.9577L142.095 59.0147C139.996 55.6489 142.634 51.4417 146.531 51.9225L167.214 54.3267C171.711 72.1173 166.555 91.5307 154.085 107.218C155.524 108.179 156.843 109.201 158.162 110.163C158.042 110.103 157.982 110.043 157.982 110.043C158.641 109.562 159.361 109.201 160.14 109.081C161.039 108.179 162.598 106.557 164.397 104.633C173.629 94.8965 168.773 78.7888 170.452 75.7235C172.13 72.5981 202.586 67.0686 204.265 69.7733C205.883 72.4779 209.72 91.0499 207.022 106.136C205.883 112.507 201.687 120.14 197.07 126.872L184.9 115.993C183.701 114.911 182.082 114.49 180.584 114.851L152.167 121.222C148.39 122.123 145.152 118.217 146.651 114.671Z" fill="#351656"/>
<path d="M249.349 79.991L224.169 94.1755C222.85 94.9568 221.951 96.3392 221.831 97.8418L219.972 126.691C219.732 130.598 215.056 132.401 212.059 129.697L189.996 110.043C188.797 108.961 187.179 108.54 185.68 108.901L157.263 115.272C153.426 116.113 150.128 112.267 151.687 108.721L163.198 82.3952C163.797 81.0128 163.677 79.3299 162.838 78.0076L147.131 53.0647C145.032 49.6989 147.67 45.4916 151.567 45.9725L180.764 49.3984C182.322 49.5787 183.881 48.9776 184.84 47.8357L203.665 26.0782C206.183 23.1331 211.099 24.4554 211.999 28.2419L218.533 56.6709C218.893 58.1735 219.972 59.4958 221.411 60.0968L248.689 71.5766C252.346 73.0791 252.766 78.1278 249.349 79.991Z" fill="url(#paint10_linear)"/>
<path opacity="0.05" d="M248.689 71.5767L221.471 60.0969C220.032 59.4959 218.953 58.2337 218.593 56.671L212.058 28.2421C211.519 25.8379 209.421 24.4556 207.262 24.4556C208.461 35.8752 193.114 47.7757 194.732 56.0099C195.692 60.9384 196.351 65.6265 195.572 69.4731C194.433 75.0627 191.615 79.6907 194.013 87.8647C195.752 93.815 210.56 105.715 212.598 112.026C214.157 116.775 213.018 120.321 216.075 128.615C216.315 129.336 216.675 129.997 217.094 130.658C218.653 130.057 219.912 128.615 220.032 126.692L221.891 97.8419C222.01 96.2792 222.85 94.8969 224.229 94.1756L249.408 79.9912C252.766 78.128 252.346 73.0793 248.689 71.5767Z" fill="#351656"/>
<path d="M213.677 63.3426C216.015 65.0255 216.675 62.982 217.814 63.7033C218.893 64.4245 217.514 67.0691 219.432 68.1509C221.89 69.5934 223.029 67.8504 224.049 68.211C225.787 68.8121 224.468 71.8172 227.886 72.4784C230.344 72.9592 231.303 70.5551 232.382 70.4949C233.761 70.4348 234.96 73.5602 237.238 72.5986C240.595 71.2162 242.214 66.6483 239.276 62.6815C236.998 59.5561 234.54 57.9934 230.104 56.01C226.387 54.3271 224.049 53.4256 220.691 52.9447C217.394 52.4639 212.898 54.9281 212.718 58.4141C212.658 60.8784 212.838 62.7416 213.677 63.3426Z" fill="url(#paint11_linear)"/>
<defs>
<linearGradient id="paint0_linear" x1="161.139" y1="115.538" x2="214.117" y2="95.6456" gradientUnits="userSpaceOnUse">
<stop stop-color="#B2C0FF"/>
<stop offset="1" stop-color="#C7E8FF"/>
</linearGradient>
<linearGradient id="paint1_linear" x1="219.231" y1="201.582" x2="86.3479" y2="201.582" gradientUnits="userSpaceOnUse">
<stop stop-color="#C7E8FF"/>
<stop offset="1" stop-color="#B2C0FF"/>
</linearGradient>
<linearGradient id="paint2_linear" x1="52.6184" y1="187.243" x2="54.4149" y2="133.017" gradientUnits="userSpaceOnUse">
<stop stop-color="#B2C0FF"/>
<stop offset="1" stop-color="#C7E8FF"/>
</linearGradient>
<linearGradient id="paint3_linear" x1="52.2187" y1="138.896" x2="157.799" y2="0.788099" gradientUnits="userSpaceOnUse">
<stop stop-color="#B2C0FF"/>
<stop offset="0.5922" stop-color="#C0DBFF"/>
<stop offset="1" stop-color="#C7E8FF"/>
</linearGradient>
<radialGradient id="paint4_radial" cx="0" cy="0" r="1" gradientUnits="userSpaceOnUse" gradientTransform="translate(123.67 42.4891) rotate(-10.6755) scale(55.15 55.2799)">
<stop offset="0.0180528" stop-color="#A0568C"/>
<stop offset="0.0945499" stop-color="#944F8C"/>
<stop offset="0.2033" stop-color="#8A498C"/>
<stop offset="0.3434" stop-color="#87478C"/>
<stop offset="0.5055" stop-color="#76418A"/>
<stop offset="0.8241" stop-color="#4B3284"/>
<stop offset="1" stop-color="#302980"/>
</radialGradient>
<linearGradient id="paint5_linear" x1="61.75" y1="27.8081" x2="71.7959" y2="20.6713" gradientUnits="userSpaceOnUse">
<stop stop-color="#302980"/>
<stop offset="0.1893" stop-color="#352B81"/>
<stop offset="0.4236" stop-color="#453083"/>
<stop offset="0.6817" stop-color="#5E3986"/>
<stop offset="0.9551" stop-color="#81458B"/>
<stop offset="1" stop-color="#87478C"/>
</linearGradient>
<linearGradient id="paint6_linear" x1="55.1363" y1="16.2077" x2="65.6915" y2="14.228" gradientUnits="userSpaceOnUse">
<stop stop-color="#87478C"/>
<stop offset="0.1651" stop-color="#6B3D88"/>
<stop offset="0.3594" stop-color="#513485"/>
<stop offset="0.5601" stop-color="#3F2E82"/>
<stop offset="0.7692" stop-color="#342A80"/>
<stop offset="1" stop-color="#302980"/>
</linearGradient>
<radialGradient id="paint7_radial" cx="0" cy="0" r="1" gradientUnits="userSpaceOnUse" gradientTransform="translate(55.2572 5.01517) rotate(-10.6755) scale(6.87531 6.89151)">
<stop stop-color="#87478C"/>
<stop offset="0.1651" stop-color="#6B3D88"/>
<stop offset="0.3594" stop-color="#513485"/>
<stop offset="0.5601" stop-color="#3F2E82"/>
<stop offset="0.7692" stop-color="#342A80"/>
<stop offset="1" stop-color="#302980"/>
</radialGradient>
<linearGradient id="paint8_linear" x1="27.1568" y1="114.597" x2="47.7032" y2="109.326" gradientUnits="userSpaceOnUse">
<stop stop-color="#B2C0FF"/>
<stop offset="1" stop-color="#C7E8FF"/>
</linearGradient>
<linearGradient id="paint9_linear" x1="32.7061" y1="114.379" x2="39.3506" y2="112.57" gradientUnits="userSpaceOnUse">
<stop stop-color="#87478C"/>
<stop offset="0.1651" stop-color="#6B3D88"/>
<stop offset="0.3594" stop-color="#513485"/>
<stop offset="0.5601" stop-color="#3F2E82"/>
<stop offset="0.7692" stop-color="#342A80"/>
<stop offset="1" stop-color="#302980"/>
</linearGradient>
<linearGradient id="paint10_linear" x1="146.39" y1="77.729" x2="251.687" y2="77.729" gradientUnits="userSpaceOnUse">
<stop stop-color="#FBB40D"/>
<stop offset="1" stop-color="#FB710D"/>
</linearGradient>
<linearGradient id="paint11_linear" x1="218.048" y1="51.8567" x2="236.79" y2="73.3578" gradientUnits="userSpaceOnUse">
<stop stop-color="#C7E8FF"/>
<stop offset="1" stop-color="#B2C0FF"/>
</linearGradient>
</defs>
</svg>
